%TF.GenerationSoftware,KiCad,Pcbnew,8.0.7*%
%TF.CreationDate,2025-02-26T11:50:58+00:00*%
%TF.ProjectId,QC-Hack_reDesign,51432d48-6163-46b5-9f72-654465736967,v1*%
%TF.SameCoordinates,Original*%
%TF.FileFunction,Copper,L1,Top*%
%TF.FilePolarity,Positive*%
%FSLAX46Y46*%
G04 Gerber Fmt 4.6, Leading zero omitted, Abs format (unit mm)*
G04 Created by KiCad (PCBNEW 8.0.7) date 2025-02-26 11:50:58*
%MOMM*%
%LPD*%
G01*
G04 APERTURE LIST*
%ADD10C,0.187500*%
%TA.AperFunction,NonConductor*%
%ADD11C,0.187500*%
%TD*%
%TA.AperFunction,ComponentPad*%
%ADD12C,1.800000*%
%TD*%
%TA.AperFunction,SMDPad,CuDef*%
%ADD13R,1.200000X2.000000*%
%TD*%
%TA.AperFunction,SMDPad,CuDef*%
%ADD14R,1.600000X1.200000*%
%TD*%
%TA.AperFunction,SMDPad,CuDef*%
%ADD15R,1.200000X1.600000*%
%TD*%
%TA.AperFunction,SMDPad,CuDef*%
%ADD16R,2.500000X1.700000*%
%TD*%
%TA.AperFunction,SMDPad,CuDef*%
%ADD17R,1.400000X1.700000*%
%TD*%
%TA.AperFunction,ComponentPad*%
%ADD18R,3.000000X3.000000*%
%TD*%
%TA.AperFunction,ComponentPad*%
%ADD19C,3.000000*%
%TD*%
%TA.AperFunction,SMDPad,CuDef*%
%ADD20R,2.000000X0.800000*%
%TD*%
%TA.AperFunction,SMDPad,CuDef*%
%ADD21R,1.500000X2.000000*%
%TD*%
%TA.AperFunction,SMDPad,CuDef*%
%ADD22R,2.000000X2.500000*%
%TD*%
%TA.AperFunction,SMDPad,CuDef*%
%ADD23R,1.000000X0.700000*%
%TD*%
%TA.AperFunction,Conductor*%
%ADD24C,0.500000*%
%TD*%
%TA.AperFunction,Conductor*%
%ADD25C,0.400000*%
%TD*%
%TA.AperFunction,Conductor*%
%ADD26C,1.000000*%
%TD*%
G04 APERTURE END LIST*
D10*
D11*
G36*
X27148945Y-29938079D02*
G01*
X27308880Y-29957167D01*
X27463148Y-29988981D01*
X27611748Y-30033520D01*
X27754682Y-30090784D01*
X27801067Y-30112700D01*
X27933096Y-30186228D01*
X28071501Y-30285619D01*
X28193077Y-30399666D01*
X28297823Y-30528370D01*
X28362337Y-30629274D01*
X28437425Y-30779560D01*
X28494071Y-30937420D01*
X28532274Y-31102854D01*
X28550340Y-31250682D01*
X28555045Y-31378122D01*
X28548012Y-31532107D01*
X28526915Y-31680270D01*
X28491753Y-31822611D01*
X28432953Y-31981317D01*
X28355010Y-32132100D01*
X28259851Y-32271562D01*
X28149405Y-32395668D01*
X28023672Y-32504416D01*
X27882652Y-32597806D01*
X27795205Y-32644277D01*
X27657321Y-32704289D01*
X27512945Y-32751885D01*
X27362077Y-32787065D01*
X27204718Y-32809828D01*
X27040867Y-32820175D01*
X26984808Y-32820865D01*
X26824288Y-32815430D01*
X26670991Y-32799126D01*
X26524917Y-32771953D01*
X26366819Y-32727589D01*
X26309965Y-32707292D01*
X26165342Y-32643316D01*
X26030429Y-32564959D01*
X25905224Y-32472223D01*
X25789727Y-32365108D01*
X25699510Y-32501578D01*
X25622299Y-32632554D01*
X25550982Y-32773332D01*
X25506894Y-32878018D01*
X25225526Y-32760781D01*
X25284371Y-32618519D01*
X25356399Y-32476397D01*
X25441610Y-32334415D01*
X25525141Y-32212827D01*
X25602149Y-32111584D01*
X25528488Y-31961397D01*
X25472920Y-31804479D01*
X25435443Y-31640828D01*
X25417720Y-31495199D01*
X25413483Y-31380321D01*
X25753091Y-31380321D01*
X25764528Y-31537388D01*
X25798841Y-31687654D01*
X25834424Y-31784054D01*
X25916512Y-31652669D01*
X25980417Y-31516436D01*
X26022735Y-31388381D01*
X26304103Y-31485101D01*
X26256198Y-31630874D01*
X26190115Y-31783133D01*
X26111942Y-31920096D01*
X26021679Y-32041763D01*
X26009546Y-32055896D01*
X26118961Y-32157430D01*
X26244334Y-32241755D01*
X26385663Y-32308870D01*
X26542949Y-32358776D01*
X26716192Y-32391474D01*
X26866276Y-32405241D01*
X26985540Y-32408339D01*
X27142975Y-32402378D01*
X27291503Y-32384496D01*
X27450345Y-32349463D01*
X27597555Y-32298859D01*
X27632540Y-32283775D01*
X27763240Y-32214257D01*
X27891666Y-32118752D01*
X28000387Y-32004932D01*
X28061919Y-31918876D01*
X28135946Y-31779405D01*
X28185747Y-31630544D01*
X28211320Y-31472294D01*
X28215059Y-31380321D01*
X28204188Y-31217818D01*
X28171576Y-31066083D01*
X28117222Y-30925116D01*
X28041127Y-30794916D01*
X27943291Y-30675484D01*
X27905847Y-30638066D01*
X27779452Y-30537963D01*
X27631624Y-30458571D01*
X27492062Y-30408232D01*
X27337616Y-30372275D01*
X27168287Y-30350701D01*
X26984075Y-30343510D01*
X26804907Y-30350629D01*
X26639263Y-30371989D01*
X26487143Y-30407588D01*
X26348547Y-30457426D01*
X26200084Y-30536028D01*
X26071095Y-30635136D01*
X25963023Y-30750188D01*
X25877311Y-30876627D01*
X25813959Y-31014451D01*
X25772966Y-31163662D01*
X25754333Y-31324258D01*
X25753091Y-31380321D01*
X25413483Y-31380321D01*
X25413105Y-31370062D01*
X25420086Y-31218868D01*
X25441029Y-31073032D01*
X25483108Y-30909663D01*
X25544192Y-30753586D01*
X25611674Y-30625610D01*
X25706548Y-30487079D01*
X25816778Y-30363205D01*
X25942366Y-30253986D01*
X26083311Y-30159423D01*
X26170746Y-30111967D01*
X26309155Y-30050710D01*
X26454003Y-30002127D01*
X26605291Y-29966217D01*
X26763020Y-29942982D01*
X26927188Y-29932420D01*
X26983342Y-29931716D01*
X27148945Y-29938079D01*
G37*
G36*
X26538576Y-35496057D02*
G01*
X26437459Y-35896127D01*
X26287093Y-35851841D01*
X26148318Y-35797752D01*
X25997090Y-35719905D01*
X25862554Y-35627942D01*
X25744710Y-35521863D01*
X25675422Y-35443300D01*
X25586275Y-35315900D01*
X25515572Y-35178247D01*
X25463314Y-35030342D01*
X25429500Y-34872184D01*
X25414130Y-34703774D01*
X25413105Y-34645359D01*
X25417989Y-34497085D01*
X25436742Y-34330916D01*
X25469560Y-34177575D01*
X25516443Y-34037063D01*
X25588917Y-33889346D01*
X25613140Y-33850348D01*
X25709210Y-33723649D01*
X25822391Y-33610904D01*
X25952682Y-33512113D01*
X26100084Y-33427278D01*
X26191995Y-33385066D01*
X26336286Y-33330781D01*
X26484491Y-33287727D01*
X26636613Y-33255905D01*
X26792650Y-33235314D01*
X26952602Y-33225955D01*
X27006789Y-33225331D01*
X27180566Y-33231668D01*
X27345791Y-33250679D01*
X27502463Y-33282364D01*
X27650583Y-33326722D01*
X27790151Y-33383755D01*
X27834773Y-33405582D01*
X27981152Y-33491735D01*
X28111263Y-33592474D01*
X28225105Y-33707798D01*
X28322678Y-33837709D01*
X28371130Y-33918492D01*
X28442792Y-34067507D01*
X28496853Y-34222832D01*
X28533313Y-34384469D01*
X28552171Y-34552417D01*
X28555045Y-34651221D01*
X28546827Y-34816231D01*
X28522175Y-34971091D01*
X28481088Y-35115802D01*
X28412381Y-35271804D01*
X28321304Y-35413991D01*
X28209927Y-35540295D01*
X28080317Y-35648647D01*
X27954711Y-35727233D01*
X27815710Y-35792629D01*
X27663314Y-35844836D01*
X27570258Y-35450628D01*
X27708954Y-35400228D01*
X27845997Y-35331466D01*
X27972800Y-35239877D01*
X28061186Y-35145812D01*
X28142330Y-35010773D01*
X28193420Y-34855698D01*
X28213706Y-34699000D01*
X28215059Y-34643161D01*
X28206995Y-34496325D01*
X28178029Y-34341823D01*
X28127997Y-34201516D01*
X28046531Y-34060642D01*
X27942635Y-33940117D01*
X27820539Y-33841501D01*
X27680244Y-33764794D01*
X27594438Y-33731646D01*
X27451510Y-33690293D01*
X27306292Y-33660755D01*
X27158785Y-33643032D01*
X27008988Y-33637124D01*
X26843499Y-33642489D01*
X26687477Y-33658582D01*
X26540922Y-33685405D01*
X26385023Y-33729197D01*
X26329748Y-33749232D01*
X26194148Y-33813391D01*
X26063384Y-33904073D01*
X25955687Y-34014345D01*
X25896706Y-34098743D01*
X25827283Y-34235355D01*
X25780580Y-34378110D01*
X25756597Y-34527010D01*
X25753091Y-34612386D01*
X25765456Y-34773770D01*
X25802550Y-34922330D01*
X25864374Y-35058068D01*
X25950928Y-35180983D01*
X26061844Y-35288053D01*
X26196758Y-35376256D01*
X26334492Y-35437955D01*
X26490599Y-35485209D01*
X26538576Y-35496057D01*
G37*
G36*
X26350997Y-36179692D02*
G01*
X26726154Y-36179692D01*
X26726154Y-37319085D01*
X26350997Y-37319085D01*
X26350997Y-36179692D01*
G37*
G36*
X25460000Y-37781437D02*
G01*
X28508150Y-37781437D01*
X28508150Y-38181507D01*
X27241995Y-38181507D01*
X27241995Y-39751744D01*
X28508150Y-39751744D01*
X28508150Y-40151814D01*
X25460000Y-40151814D01*
X25460000Y-39751744D01*
X26890286Y-39751744D01*
X26890286Y-38181507D01*
X25460000Y-38181507D01*
X25460000Y-37781437D01*
G37*
G36*
X26192402Y-40642722D02*
G01*
X26334529Y-40695387D01*
X26342937Y-40699895D01*
X26464204Y-40784342D01*
X26558360Y-40891137D01*
X26633609Y-41025736D01*
X26681458Y-41158583D01*
X26711979Y-41306016D01*
X26734481Y-41461177D01*
X26737878Y-41488311D01*
X26758933Y-41648426D01*
X26785319Y-41814195D01*
X26817880Y-41975911D01*
X26857576Y-42122479D01*
X26866838Y-42149965D01*
X26963558Y-42151430D01*
X27113619Y-42136695D01*
X27248741Y-42076836D01*
X27280830Y-42046650D01*
X27357183Y-41920563D01*
X27396215Y-41770768D01*
X27406127Y-41623866D01*
X27397540Y-41473756D01*
X27364567Y-41328951D01*
X27318199Y-41237718D01*
X27206143Y-41135107D01*
X27061103Y-41069098D01*
X27007522Y-41053070D01*
X27057348Y-40690369D01*
X27202200Y-40732070D01*
X27336718Y-40794547D01*
X27421514Y-40853035D01*
X27523987Y-40961880D01*
X27599687Y-41091762D01*
X27635471Y-41180565D01*
X27678439Y-41336216D01*
X27702024Y-41491692D01*
X27710647Y-41642999D01*
X27710942Y-41678087D01*
X27705667Y-41827244D01*
X27687435Y-41973532D01*
X27648366Y-42122064D01*
X27644263Y-42133112D01*
X27579969Y-42268532D01*
X27484174Y-42385080D01*
X27477934Y-42390300D01*
X27348078Y-42467683D01*
X27223677Y-42506071D01*
X27068061Y-42520883D01*
X26910479Y-42524317D01*
X26880027Y-42524389D01*
X26382505Y-42524389D01*
X26229269Y-42524961D01*
X26070038Y-42527160D01*
X25918258Y-42531808D01*
X25764929Y-42542341D01*
X25724515Y-42547836D01*
X25581254Y-42586556D01*
X25460000Y-42642358D01*
X25460000Y-42254745D01*
X25606059Y-42202838D01*
X25736971Y-42180739D01*
X25645459Y-42066082D01*
X25563084Y-41941403D01*
X25495943Y-41807563D01*
X25486378Y-41783600D01*
X25441727Y-41636803D01*
X25417684Y-41482174D01*
X25416884Y-41463398D01*
X25706196Y-41463398D01*
X25719488Y-41617614D01*
X25763888Y-41769334D01*
X25800718Y-41844417D01*
X25889601Y-41965522D01*
X26011016Y-42063216D01*
X26060837Y-42089881D01*
X26206402Y-42133007D01*
X26361340Y-42148498D01*
X26435994Y-42149965D01*
X26573747Y-42149965D01*
X26525275Y-42003891D01*
X26489898Y-41858696D01*
X26461423Y-41710989D01*
X26435261Y-41543998D01*
X26408849Y-41391293D01*
X26370106Y-41246029D01*
X26359790Y-41220132D01*
X26270829Y-41098380D01*
X26237424Y-41073586D01*
X26094356Y-41024099D01*
X26057906Y-41022295D01*
X25911799Y-41053935D01*
X25806580Y-41134403D01*
X25734527Y-41262892D01*
X25707765Y-41410974D01*
X25706196Y-41463398D01*
X25416884Y-41463398D01*
X25413105Y-41374738D01*
X25421625Y-41224977D01*
X25452228Y-41073314D01*
X25513260Y-40927544D01*
X25591158Y-40820062D01*
X25712101Y-40718053D01*
X25852364Y-40653825D01*
X26011947Y-40627378D01*
X26046182Y-40626622D01*
X26192402Y-40642722D01*
G37*
G36*
X26257208Y-44516678D02*
G01*
X26209581Y-44881577D01*
X26053839Y-44846384D01*
X25913596Y-44793380D01*
X25772294Y-44710994D01*
X25651233Y-44605344D01*
X25624131Y-44575296D01*
X25531807Y-44445145D01*
X25465861Y-44300889D01*
X25426294Y-44142528D01*
X25413311Y-43992392D01*
X25413105Y-43970062D01*
X25423460Y-43807809D01*
X25454527Y-43657920D01*
X25506305Y-43520396D01*
X25592888Y-43375579D01*
X25689540Y-43264845D01*
X25707662Y-43247592D01*
X25827386Y-43154959D01*
X25965090Y-43081492D01*
X26120775Y-43027190D01*
X26264247Y-42996578D01*
X26420206Y-42979276D01*
X26553963Y-42975017D01*
X26705482Y-42980627D01*
X26868171Y-43000777D01*
X27019685Y-43035582D01*
X27160026Y-43085041D01*
X27176782Y-43092254D01*
X27316614Y-43168233D01*
X27435232Y-43263454D01*
X27532637Y-43377919D01*
X27577585Y-43449825D01*
X27642049Y-43588317D01*
X27685416Y-43733417D01*
X27707686Y-43885124D01*
X27710942Y-43972260D01*
X27702281Y-44122136D01*
X27671175Y-44278139D01*
X27617445Y-44417838D01*
X27529958Y-44555512D01*
X27416156Y-44670357D01*
X27278360Y-44759351D01*
X27135730Y-44816756D01*
X27016315Y-44846406D01*
X26960628Y-44485903D01*
X27100190Y-44440786D01*
X27231417Y-44363354D01*
X27294019Y-44302721D01*
X27374487Y-44168372D01*
X27405141Y-44021191D01*
X27406127Y-43986915D01*
X27390130Y-43837404D01*
X27334831Y-43690858D01*
X27240035Y-43564921D01*
X27203893Y-43531158D01*
X27071532Y-43446504D01*
X26922639Y-43394515D01*
X26768241Y-43366981D01*
X26617983Y-43356720D01*
X26564221Y-43356036D01*
X26406235Y-43361986D01*
X26243472Y-43383970D01*
X26085878Y-43428930D01*
X25944823Y-43504800D01*
X25918688Y-43525296D01*
X25812814Y-43641102D01*
X25746153Y-43776943D01*
X25718704Y-43932819D01*
X25717920Y-43966399D01*
X25736467Y-44119963D01*
X25798420Y-44263300D01*
X25849811Y-44330565D01*
X25969269Y-44425430D01*
X26113892Y-44485959D01*
X26257208Y-44516678D01*
G37*
G36*
X25460000Y-45189323D02*
G01*
X28508150Y-45189323D01*
X28508150Y-45560083D01*
X26767187Y-45560083D01*
X27664047Y-46437892D01*
X27664047Y-46917829D01*
X26846322Y-46081053D01*
X25460000Y-47002826D01*
X25460000Y-46544870D01*
X26586936Y-45821667D01*
X26333412Y-45560083D01*
X25460000Y-45560083D01*
X25460000Y-45189323D01*
G37*
D12*
%TO.P,P1,5,SHIELD*%
%TO.N,unconnected-(P1-SHIELD-Pad5)_2*%
X42900000Y-51500000D03*
%TO.N,unconnected-(P1-SHIELD-Pad5)*%
X42900000Y-51000000D03*
%TO.N,unconnected-(P1-SHIELD-Pad5)_3*%
X42900000Y-50500000D03*
%TO.N,unconnected-(P1-SHIELD-Pad5)_4*%
X42900000Y-50000000D03*
%TO.N,unconnected-(P1-SHIELD-Pad5)_7*%
X31200000Y-51450000D03*
%TO.N,unconnected-(P1-SHIELD-Pad5)_5*%
X31200000Y-50950000D03*
%TO.N,unconnected-(P1-SHIELD-Pad5)_6*%
X31200000Y-50450000D03*
%TO.N,unconnected-(P1-SHIELD-Pad5)_1*%
X31200000Y-49950000D03*
D13*
%TO.P,P1,4,GND*%
%TO.N,GND*%
X33550000Y-48250000D03*
%TO.P,P1,3,D+*%
%TO.N,Net-(P1-D+)*%
X36050000Y-48250000D03*
%TO.P,P1,2,D-*%
%TO.N,Net-(P1-D-)*%
X38050000Y-48250000D03*
%TO.P,P1,1,5V*%
%TO.N,VBUS*%
X40550000Y-48250000D03*
%TD*%
D14*
%TO.P,R3,1*%
%TO.N,D+*%
X35550000Y-42750000D03*
%TO.P,R3,2*%
%TO.N,Net-(P1-D+)*%
X35550000Y-45750000D03*
%TD*%
D15*
%TO.P,C1,1*%
%TO.N,+3.3V*%
X36850000Y-35100000D03*
%TO.P,C1,2*%
%TO.N,GND*%
X39850000Y-35100000D03*
%TD*%
D14*
%TO.P,R1,1*%
%TO.N,D+*%
X32400000Y-42300000D03*
%TO.P,R1,2*%
%TO.N,GND*%
X32400000Y-45300000D03*
%TD*%
D15*
%TO.P,R5,1*%
%TO.N,VBUS*%
X44550000Y-24750000D03*
%TO.P,R5,2*%
%TO.N,Net-(D1-A)*%
X41550000Y-24750000D03*
%TD*%
D16*
%TO.P,J4,1,Pin_1*%
%TO.N,UPDI*%
X44250000Y-39650000D03*
%TD*%
D17*
%TO.P,D1,1,K*%
%TO.N,GND*%
X35400000Y-24750000D03*
%TO.P,D1,2,A*%
%TO.N,Net-(D1-A)*%
X38800000Y-24750000D03*
%TD*%
D14*
%TO.P,R2,1*%
%TO.N,+3.3V*%
X32400000Y-37100000D03*
%TO.P,R2,2*%
%TO.N,D+*%
X32400000Y-40100000D03*
%TD*%
D18*
%TO.P,J2,1,Pin_1*%
%TO.N,VBUS*%
X41650000Y-28300000D03*
D19*
%TO.P,J2,2,Pin_2*%
%TO.N,GND*%
X38150000Y-28300000D03*
%TD*%
D14*
%TO.P,R4,1*%
%TO.N,D-*%
X38000000Y-42700000D03*
%TO.P,R4,2*%
%TO.N,Net-(P1-D-)*%
X38000000Y-45700000D03*
%TD*%
D15*
%TO.P,R6,1*%
%TO.N,VBUS*%
X46850000Y-34800000D03*
%TO.P,R6,2*%
%TO.N,SENSE*%
X43850000Y-34800000D03*
%TD*%
D20*
%TO.P,U1,1,VCC*%
%TO.N,+3.3V*%
X35550000Y-37100000D03*
%TO.P,U1,2,DAC*%
%TO.N,D-*%
X35550000Y-38370000D03*
%TO.P,U1,3,PA7*%
%TO.N,REG*%
X35550000Y-39640000D03*
%TO.P,U1,4,PA1*%
%TO.N,D+*%
X35550000Y-40910000D03*
%TO.P,U1,5,PA2*%
%TO.N,unconnected-(U1-PA2-Pad5)*%
X41150000Y-40910000D03*
%TO.P,U1,6,UPDI*%
%TO.N,UPDI*%
X41150000Y-39640000D03*
%TO.P,U1,7,PA3*%
%TO.N,SENSE*%
X41150000Y-38370000D03*
%TO.P,U1,8,GND*%
%TO.N,GND*%
X41150000Y-37100000D03*
%TD*%
D21*
%TO.P,RV1,1,1*%
%TO.N,GND*%
X30995000Y-28525000D03*
D22*
%TO.P,RV1,2,2*%
%TO.N,REG*%
X32155000Y-34025000D03*
D21*
%TO.P,RV1,3,3*%
%TO.N,+3.3V*%
X33305000Y-28525000D03*
%TD*%
D15*
%TO.P,R7,1*%
%TO.N,SENSE*%
X42850000Y-32050000D03*
%TO.P,R7,2*%
%TO.N,GND*%
X39850000Y-32050000D03*
%TD*%
D23*
%TO.P,U3,1,VO*%
%TO.N,+3.3V*%
X42000000Y-43350000D03*
%TO.P,U3,2,VI*%
%TO.N,VBUS*%
X42000000Y-45250000D03*
%TO.P,U3,3,GND*%
%TO.N,GND*%
X44400000Y-44300000D03*
%TD*%
D24*
%TO.N,+3.3V*%
X41250000Y-43350000D02*
X39050000Y-41150000D01*
X33305000Y-28805000D02*
X36850000Y-32350000D01*
X36850000Y-35100000D02*
X36850000Y-37100000D01*
X42000000Y-43350000D02*
X41250000Y-43350000D01*
X33305000Y-28525000D02*
X33305000Y-28805000D01*
X36850000Y-37100000D02*
X35550000Y-37100000D01*
X39050000Y-38700000D02*
X37450000Y-37100000D01*
X36850000Y-32350000D02*
X36850000Y-35100000D01*
X32400000Y-37100000D02*
X35550000Y-37100000D01*
X39050000Y-41150000D02*
X39050000Y-38700000D01*
X37450000Y-37100000D02*
X36850000Y-37100000D01*
%TO.N,GND*%
X40650000Y-37100000D02*
X39850000Y-36300000D01*
X35400000Y-25550000D02*
X35400000Y-24750000D01*
X29550000Y-42450000D02*
X32400000Y-45300000D01*
X39850000Y-36300000D02*
X39850000Y-35100000D01*
D25*
X33400000Y-44300000D02*
X32400000Y-45300000D01*
D24*
X38150000Y-30400000D02*
X38150000Y-28300000D01*
X30995000Y-28525000D02*
X30995000Y-28755000D01*
X39850000Y-32050000D02*
X39800000Y-32050000D01*
X32400000Y-46650000D02*
X32400000Y-45300000D01*
X41150000Y-37100000D02*
X40650000Y-37100000D01*
X30995000Y-28525000D02*
X30995000Y-26455000D01*
X33550000Y-48250000D02*
X33550000Y-47800000D01*
D25*
X44400000Y-44300000D02*
X33400000Y-44300000D01*
D24*
X29550000Y-30200000D02*
X29550000Y-42450000D01*
X39800000Y-32050000D02*
X38150000Y-30400000D01*
X30995000Y-26455000D02*
X32700000Y-24750000D01*
X38150000Y-28300000D02*
X35400000Y-25550000D01*
X39850000Y-32050000D02*
X39850000Y-35100000D01*
X30995000Y-28755000D02*
X29550000Y-30200000D01*
X32700000Y-24750000D02*
X35400000Y-24750000D01*
X33550000Y-47800000D02*
X32400000Y-46650000D01*
%TO.N,Net-(D1-A)*%
X41550000Y-24750000D02*
X38800000Y-24750000D01*
D25*
%TO.N,Net-(P1-D-)*%
X38000000Y-48200000D02*
X38050000Y-48250000D01*
D24*
X38000000Y-45700000D02*
X38000000Y-48200000D01*
%TO.N,Net-(P1-D+)*%
X35550000Y-46500000D02*
X35550000Y-45750000D01*
X36050000Y-48250000D02*
X36050000Y-47000000D01*
X36050000Y-47000000D02*
X35550000Y-46500000D01*
%TO.N,UPDI*%
X44240000Y-39640000D02*
X44250000Y-39650000D01*
X41150000Y-39640000D02*
X44240000Y-39640000D01*
D26*
%TO.N,VBUS*%
X46850000Y-34800000D02*
X46850000Y-31000000D01*
X46850000Y-45200000D02*
X44250000Y-47800000D01*
X44550000Y-25400000D02*
X44550000Y-24750000D01*
D24*
X40550000Y-48250000D02*
X40550000Y-47900000D01*
D26*
X40900000Y-48250000D02*
X40550000Y-48250000D01*
X46850000Y-34800000D02*
X46850000Y-45200000D01*
X46850000Y-31000000D02*
X44150000Y-28300000D01*
X41650000Y-28300000D02*
X44550000Y-25400000D01*
X41350000Y-47800000D02*
X40900000Y-48250000D01*
X44150000Y-28300000D02*
X41650000Y-28300000D01*
D24*
X42000000Y-46450000D02*
X42000000Y-45250000D01*
D26*
X44250000Y-47800000D02*
X41350000Y-47800000D01*
D24*
X40550000Y-47900000D02*
X42000000Y-46450000D01*
D25*
%TO.N,D+*%
X32400000Y-40100000D02*
X32400000Y-42300000D01*
X34000000Y-42300000D02*
X34450000Y-42750000D01*
X32400000Y-42300000D02*
X34000000Y-42300000D01*
X34450000Y-42750000D02*
X35550000Y-42750000D01*
X35550000Y-42750000D02*
X35550000Y-40910000D01*
D24*
%TO.N,D-*%
X38000000Y-42700000D02*
X38000000Y-39200000D01*
X38000000Y-39200000D02*
X37170000Y-38370000D01*
X37170000Y-38370000D02*
X35550000Y-38370000D01*
%TO.N,SENSE*%
X43850000Y-34800000D02*
X43850000Y-37000000D01*
X42650000Y-38200000D02*
X41320000Y-38200000D01*
X41320000Y-38200000D02*
X41150000Y-38370000D01*
X42850000Y-33600000D02*
X42850000Y-32050000D01*
X43850000Y-34800000D02*
X43850000Y-34600000D01*
X43850000Y-34600000D02*
X42850000Y-33600000D01*
X43850000Y-37000000D02*
X42650000Y-38200000D01*
D25*
%TO.N,REG*%
X35550000Y-39640000D02*
X34040000Y-39640000D01*
X31150000Y-38550000D02*
X30850000Y-38250000D01*
X30850000Y-38250000D02*
X30850000Y-35330000D01*
X33300000Y-38550000D02*
X31150000Y-38550000D01*
X33850000Y-39450000D02*
X33850000Y-39100000D01*
X33850000Y-39100000D02*
X33300000Y-38550000D01*
X34040000Y-39640000D02*
X33850000Y-39450000D01*
X30850000Y-35330000D02*
X32155000Y-34025000D01*
%TD*%
M02*
