<?xml version="1.0" standalone="no"?>
 <!DOCTYPE svg PUBLIC "-//W3C//DTD SVG 1.1//EN" 
 "http://www.w3.org/Graphics/SVG/1.1/DTD/svg11.dtd"> 
<svg
  xmlns:svg="http://www.w3.org/2000/svg"
  xmlns="http://www.w3.org/2000/svg"
  xmlns:xlink="http://www.w3.org/1999/xlink"
  version="1.1"
  width="210.0072mm" height="148.0058mm" viewBox="0.0000 0.0000 210.0072 148.0058">
<title>SVG Image created as QC-Hack_reDesign-F_Cu.svg date 2025/03/05 13:42:38 </title>
  <desc>Image generated by PCBNEW </desc>
<g style="fill:#000000; fill-opacity:1.0000;stroke:#000000; stroke-opacity:1.0000;
stroke-linecap:round; stroke-linejoin:round;"
 transform="translate(0 0) scale(1 1)">
<path style="fill:#000000; fill-opacity:1.0000; stroke:none;fill-rule:evenodd;"
d="M 27.1489,29.9381
27.3089,29.9572
27.4631,29.9890
27.6117,30.0335
27.7547,30.0908
27.8011,30.1127
27.9331,30.1862
28.0715,30.2856
28.1931,30.3997
28.2978,30.5284
28.3623,30.6293
28.4374,30.7796
28.4941,30.9374
28.5323,31.1029
28.5503,31.2507
28.5550,31.3781
28.5480,31.5321
28.5269,31.6803
28.4918,31.8226
28.4330,31.9813
28.3550,32.1321
28.2599,32.2716
28.1494,32.3957
28.0237,32.5044
27.8827,32.5978
27.7952,32.6443
27.6573,32.7043
27.5129,32.7519
27.3621,32.7871
27.2047,32.8098
27.0409,32.8202
26.9848,32.8209
26.8243,32.8154
26.6710,32.7991
26.5249,32.7720
26.3668,32.7276
26.3100,32.7073
26.1653,32.6433
26.0304,32.5650
25.9052,32.4722
25.7897,32.3651
25.6995,32.5016
25.6223,32.6326
25.5510,32.7733
25.5069,32.8780
25.2255,32.7608
25.2844,32.6185
25.3564,32.4764
25.4416,32.3344
25.5251,32.2128
25.6021,32.1116
25.5285,31.9614
25.4729,31.8045
25.4354,31.6408
25.4177,31.4952
25.4135,31.3803
25.7531,31.3803
25.7645,31.5374
25.7988,31.6877
25.8344,31.7841
25.9165,31.6527
25.9804,31.5164
26.0227,31.3884
26.3041,31.4851
26.2562,31.6309
26.1901,31.7831
26.1119,31.9201
26.0217,32.0418
26.0095,32.0559
26.1190,32.1574
26.2443,32.2418
26.3857,32.3089
26.5429,32.3588
26.7162,32.3915
26.8663,32.4052
26.9855,32.4083
27.1430,32.4024
27.2915,32.3845
27.4503,32.3495
27.5976,32.2989
27.6325,32.2838
27.7632,32.2143
27.8917,32.1188
28.0004,32.0049
28.0619,31.9189
28.1359,31.7794
28.1857,31.6305
28.2113,31.4723
28.2151,31.3803
28.2042,31.2178
28.1716,31.0661
28.1172,30.9251
28.0411,30.7949
27.9433,30.6755
27.9058,30.6381
27.7795,30.5380
27.6316,30.4586
27.4921,30.4082
27.3376,30.3723
27.1683,30.3507
26.9841,30.3435
26.8049,30.3506
26.6393,30.3720
26.4871,30.4076
26.3485,30.4574
26.2001,30.5360
26.0711,30.6351
25.9630,30.7502
25.8773,30.8766
25.8140,31.0145
25.7730,31.1637
25.7543,31.3243
25.7531,31.3803
25.4135,31.3803
25.4131,31.3701
25.4201,31.2189
25.4410,31.0730
25.4831,30.9097
25.5442,30.7536
25.6117,30.6256
25.7065,30.4871
25.8168,30.3632
25.9424,30.2540
26.0833,30.1594
26.1707,30.1120
26.3092,30.0507
26.4540,30.0021
26.6053,29.9662
26.7630,29.9430
26.9272,29.9324
26.9833,29.9317
Z" /> 
<path style="fill:#000000; fill-opacity:1.0000; stroke:none;fill-rule:evenodd;"
d="M 26.5386,35.4961
26.4375,35.8961
26.2871,35.8518
26.1483,35.7978
25.9971,35.7199
25.8626,35.6279
25.7447,35.5219
25.6754,35.4433
25.5863,35.3159
25.5156,35.1782
25.4633,35.0303
25.4295,34.8722
25.4141,34.7038
25.4131,34.6454
25.4180,34.4971
25.4367,34.3309
25.4696,34.1776
25.5164,34.0371
25.5889,33.8893
25.6131,33.8503
25.7092,33.7236
25.8224,33.6109
25.9527,33.5121
26.1001,33.4273
26.1920,33.3851
26.3363,33.3308
26.4845,33.2877
26.6366,33.2559
26.7926,33.2353
26.9526,33.2260
27.0068,33.2253
27.1806,33.2317
27.3458,33.2507
27.5025,33.2824
27.6506,33.3267
27.7902,33.3838
27.8348,33.4056
27.9812,33.4917
28.1113,33.5925
28.2251,33.7078
28.3227,33.8377
28.3711,33.9185
28.4428,34.0675
28.4969,34.2228
28.5333,34.3845
28.5522,34.5524
28.5550,34.6512
28.5468,34.8162
28.5222,34.9711
28.4811,35.1158
28.4124,35.2718
28.3213,35.4140
28.2099,35.5403
28.0803,35.6486
27.9547,35.7272
27.8157,35.7926
27.6633,35.8448
27.5703,35.4506
27.7090,35.4002
27.8460,35.3315
27.9728,35.2399
28.0612,35.1458
28.1423,35.0108
28.1934,34.8557
28.2137,34.6990
28.2151,34.6432
28.2070,34.4963
28.1780,34.3418
28.1280,34.2015
28.0465,34.0606
27.9426,33.9401
27.8205,33.8415
27.6802,33.7648
27.5944,33.7316
27.4515,33.6903
27.3063,33.6608
27.1588,33.6430
27.0090,33.6371
26.8435,33.6425
26.6875,33.6586
26.5409,33.6854
26.3850,33.7292
26.3297,33.7492
26.1941,33.8134
26.0634,33.9041
25.9557,34.0143
25.8967,34.0987
25.8273,34.2354
25.7806,34.3781
25.7566,34.5270
25.7531,34.6124
25.7655,34.7738
25.8026,34.9223
25.8644,35.0581
25.9509,35.1810
26.0618,35.2881
26.1968,35.3763
26.3345,35.4380
26.4906,35.4852
Z" /> 
<path style="fill:#000000; fill-opacity:1.0000; stroke:none;fill-rule:evenodd;"
d="M 26.3510,36.1797
26.7262,36.1797
26.7262,37.3191
26.3510,37.3191
Z" /> 
<path style="fill:#000000; fill-opacity:1.0000; stroke:none;fill-rule:evenodd;"
d="M 25.4600,37.7814
28.5081,37.7814
28.5081,38.1815
27.2420,38.1815
27.2420,39.7517
28.5081,39.7517
28.5081,40.1518
25.4600,40.1518
25.4600,39.7517
26.8903,39.7517
26.8903,38.1815
25.4600,38.1815
Z" /> 
<path style="fill:#000000; fill-opacity:1.0000; stroke:none;fill-rule:evenodd;"
d="M 26.1924,40.6427
26.3345,40.6954
26.3429,40.6999
26.4642,40.7843
26.5584,40.8911
26.6336,41.0257
26.6815,41.1586
26.7120,41.3060
26.7345,41.4612
26.7379,41.4883
26.7589,41.6484
26.7853,41.8142
26.8179,41.9759
26.8576,42.1225
26.8668,42.1500
26.9636,42.1514
27.1136,42.1367
27.2487,42.0768
27.2808,42.0466
27.3572,41.9206
27.3962,41.7708
27.4061,41.6239
27.3975,41.4738
27.3646,41.3290
27.3182,41.2377
27.2061,41.1351
27.0611,41.0691
27.0075,41.0531
27.0573,40.6904
27.2022,40.7321
27.3367,40.7945
27.4215,40.8530
27.5240,40.9619
27.5997,41.0918
27.6355,41.1806
27.6784,41.3362
27.7020,41.4917
27.7106,41.6430
27.7109,41.6781
27.7057,41.8272
27.6874,41.9735
27.6484,42.1221
27.6443,42.1331
27.5800,42.2685
27.4842,42.3851
27.4779,42.3903
27.3481,42.4677
27.2237,42.5061
27.0681,42.5209
26.9105,42.5243
26.8800,42.5244
26.3825,42.5244
26.2293,42.5250
26.0700,42.5272
25.9183,42.5318
25.7649,42.5423
25.7245,42.5478
25.5813,42.5866
25.4600,42.6424
25.4600,42.2547
25.6061,42.2028
25.7370,42.1807
25.6455,42.0661
25.5631,41.9414
25.4959,41.8076
25.4864,41.7836
25.4417,41.6368
25.4177,41.4822
25.4169,41.4634
25.7062,41.4634
25.7195,41.6176
25.7639,41.7693
25.8007,41.8444
25.8896,41.9655
26.0110,42.0632
26.0608,42.0899
26.2064,42.1330
26.3613,42.1485
26.4360,42.1500
26.5737,42.1500
26.5253,42.0039
26.4899,41.8587
26.4614,41.7110
26.4353,41.5440
26.4088,41.3913
26.3701,41.2460
26.3598,41.2201
26.2708,41.0984
26.2374,41.0736
26.0944,41.0241
26.0579,41.0223
25.9118,41.0539
25.8066,41.1344
25.7345,41.2629
25.7078,41.4110
25.7062,41.4634
25.4169,41.4634
25.4131,41.3747
25.4216,41.2250
25.4522,41.0733
25.5133,40.9275
25.5912,40.8201
25.7121,40.7181
25.8524,40.6538
26.0119,40.6274
26.0462,40.6266
Z" /> 
<path style="fill:#000000; fill-opacity:1.0000; stroke:none;fill-rule:evenodd;"
d="M 26.2572,44.5167
26.2096,44.8816
26.0538,44.8464
25.9136,44.7934
25.7723,44.7110
25.6512,44.6053
25.6241,44.5753
25.5318,44.4451
25.4659,44.3009
25.4263,44.1425
25.4133,43.9924
25.4131,43.9701
25.4235,43.8078
25.4545,43.6579
25.5063,43.5204
25.5929,43.3756
25.6895,43.2648
25.7077,43.2476
25.8274,43.1550
25.9651,43.0815
26.1208,43.0272
26.2642,42.9966
26.4202,42.9793
26.5540,42.9750
26.7055,42.9806
26.8682,43.0008
27.0197,43.0356
27.1600,43.0850
27.1768,43.0923
27.3166,43.1682
27.4352,43.2635
27.5326,43.3779
27.5776,43.4498
27.6420,43.5883
27.6854,43.7334
27.7077,43.8851
27.7109,43.9723
27.7023,44.1221
27.6712,44.2781
27.6174,44.4178
27.5300,44.5555
27.4162,44.6704
27.2784,44.7594
27.1357,44.8168
27.0163,44.8464
26.9606,44.4859
27.1002,44.4408
27.2314,44.3634
27.2940,44.3027
27.3745,44.1684
27.4051,44.0212
27.4061,43.9869
27.3901,43.8374
27.3348,43.6909
27.2400,43.5649
27.2039,43.5312
27.0715,43.4465
26.9226,43.3945
26.7682,43.3670
26.6180,43.3567
26.5642,43.3560
26.4062,43.3620
26.2435,43.3840
26.0859,43.4289
25.9448,43.5048
25.9187,43.5253
25.8128,43.6411
25.7462,43.7769
25.7187,43.9328
25.7179,43.9664
25.7365,44.1200
25.7984,44.2633
25.8498,44.3306
25.9693,44.4254
26.1139,44.4860
Z" /> 
<path style="fill:#000000; fill-opacity:1.0000; stroke:none;fill-rule:evenodd;"
d="M 25.4600,45.1893
28.5081,45.1893
28.5081,45.5601
26.7672,45.5601
27.6640,46.4379
27.6640,46.9178
26.8463,46.0811
25.4600,47.0028
25.4600,46.5449
26.5869,45.8217
26.3334,45.5601
25.4600,45.5601
Z" /> 
<path style="fill:#000000; fill-opacity:1.0000; stroke:none;fill-rule:evenodd;"
d="M 39.9500,49.2500
39.9500,47.2500
41.1500,47.2500
41.1500,49.2500
Z" /> 
<path style="fill:#000000; fill-opacity:1.0000; stroke:none;fill-rule:evenodd;"
d="M 37.4500,49.2500
37.4500,47.2500
38.6500,47.2500
38.6500,49.2500
Z" /> 
<path style="fill:#000000; fill-opacity:1.0000; stroke:none;fill-rule:evenodd;"
d="M 35.4500,49.2500
35.4500,47.2500
36.6500,47.2500
36.6500,49.2500
Z" /> 
<path style="fill:#000000; fill-opacity:1.0000; stroke:none;fill-rule:evenodd;"
d="M 32.9500,49.2500
32.9500,47.2500
34.1500,47.2500
34.1500,49.2500
Z" /> 
</g>
<g style="fill:#000000; fill-opacity:1.0000; stroke:none;">
<circle cx="31.2000" cy="49.9500" r="0.9000" /> 
</g>
<g style="fill:#000000; fill-opacity:1.0000; stroke:none;">
<circle cx="31.2000" cy="50.4500" r="0.9000" /> 
</g>
<g style="fill:#000000; fill-opacity:1.0000; stroke:none;">
<circle cx="31.2000" cy="50.9500" r="0.9000" /> 
</g>
<g style="fill:#000000; fill-opacity:1.0000; stroke:none;">
<circle cx="31.2000" cy="51.4500" r="0.9000" /> 
</g>
<g style="fill:#000000; fill-opacity:1.0000; stroke:none;">
<circle cx="42.9000" cy="50.0000" r="0.9000" /> 
</g>
<g style="fill:#000000; fill-opacity:1.0000; stroke:none;">
<circle cx="42.9000" cy="50.5000" r="0.9000" /> 
</g>
<g style="fill:#000000; fill-opacity:1.0000; stroke:none;">
<circle cx="42.9000" cy="51.0000" r="0.9000" /> 
</g>
<g style="fill:#000000; fill-opacity:1.0000; stroke:none;">
<circle cx="42.9000" cy="51.5000" r="0.9000" /> 
<path style="fill:#000000; fill-opacity:1.0000; stroke:none;fill-rule:evenodd;"
d="M 34.7500,42.1500
36.3500,42.1500
36.3500,43.3500
34.7500,43.3500
Z" /> 
<path style="fill:#000000; fill-opacity:1.0000; stroke:none;fill-rule:evenodd;"
d="M 34.7500,45.1500
36.3500,45.1500
36.3500,46.3500
34.7500,46.3500
Z" /> 
<path style="fill:#000000; fill-opacity:1.0000; stroke:none;fill-rule:evenodd;"
d="M 36.2500,35.9000
36.2500,34.3000
37.4500,34.3000
37.4500,35.9000
Z" /> 
<path style="fill:#000000; fill-opacity:1.0000; stroke:none;fill-rule:evenodd;"
d="M 39.2500,35.9000
39.2500,34.3000
40.4500,34.3000
40.4500,35.9000
Z" /> 
<path style="fill:#000000; fill-opacity:1.0000; stroke:none;fill-rule:evenodd;"
d="M 31.6000,41.7000
33.2000,41.7000
33.2000,42.9000
31.6000,42.9000
Z" /> 
<path style="fill:#000000; fill-opacity:1.0000; stroke:none;fill-rule:evenodd;"
d="M 31.6000,44.7000
33.2000,44.7000
33.2000,45.9000
31.6000,45.9000
Z" /> 
<path style="fill:#000000; fill-opacity:1.0000; stroke:none;fill-rule:evenodd;"
d="M 45.1500,23.9500
45.1500,25.5500
43.9500,25.5500
43.9500,23.9500
Z" /> 
<path style="fill:#000000; fill-opacity:1.0000; stroke:none;fill-rule:evenodd;"
d="M 42.1500,23.9500
42.1500,25.5500
40.9500,25.5500
40.9500,23.9500
Z" /> 
<path style="fill:#000000; fill-opacity:1.0000; stroke:none;fill-rule:evenodd;"
d="M 43.0000,40.5000
43.0000,38.8000
45.5000,38.8000
45.5000,40.5000
Z" /> 
<path style="fill:#000000; fill-opacity:1.0000; stroke:none;fill-rule:evenodd;"
d="M 34.7000,25.6000
34.7000,23.9000
36.1000,23.9000
36.1000,25.6000
Z" /> 
<path style="fill:#000000; fill-opacity:1.0000; stroke:none;fill-rule:evenodd;"
d="M 38.1000,25.6000
38.1000,23.9000
39.5000,23.9000
39.5000,25.6000
Z" /> 
<path style="fill:#000000; fill-opacity:1.0000; stroke:none;fill-rule:evenodd;"
d="M 31.6000,36.5000
33.2000,36.5000
33.2000,37.7000
31.6000,37.7000
Z" /> 
<path style="fill:#000000; fill-opacity:1.0000; stroke:none;fill-rule:evenodd;"
d="M 31.6000,39.5000
33.2000,39.5000
33.2000,40.7000
31.6000,40.7000
Z" /> 
<path style="fill:#000000; fill-opacity:1.0000; stroke:none;fill-rule:evenodd;"
d="M 43.1500,26.8000
43.1500,29.8000
40.1500,29.8000
40.1500,26.8000
Z" /> 
</g>
<g style="fill:#000000; fill-opacity:1.0000; stroke:none;">
<circle cx="38.1500" cy="28.3000" r="1.5000" /> 
<path style="fill:#000000; fill-opacity:1.0000; stroke:none;fill-rule:evenodd;"
d="M 37.2000,42.1000
38.8000,42.1000
38.8000,43.3000
37.2000,43.3000
Z" /> 
<path style="fill:#000000; fill-opacity:1.0000; stroke:none;fill-rule:evenodd;"
d="M 37.2000,45.1000
38.8000,45.1000
38.8000,46.3000
37.2000,46.3000
Z" /> 
<path style="fill:#000000; fill-opacity:1.0000; stroke:none;fill-rule:evenodd;"
d="M 47.4500,34.0000
47.4500,35.6000
46.2500,35.6000
46.2500,34.0000
Z" /> 
<path style="fill:#000000; fill-opacity:1.0000; stroke:none;fill-rule:evenodd;"
d="M 44.4500,34.0000
44.4500,35.6000
43.2500,35.6000
43.2500,34.0000
Z" /> 
<path style="fill:#000000; fill-opacity:1.0000; stroke:none;fill-rule:evenodd;"
d="M 34.5500,37.5000
34.5500,36.7000
36.5500,36.7000
36.5500,37.5000
Z" /> 
<path style="fill:#000000; fill-opacity:1.0000; stroke:none;fill-rule:evenodd;"
d="M 34.5500,38.7700
34.5500,37.9700
36.5500,37.9700
36.5500,38.7700
Z" /> 
<path style="fill:#000000; fill-opacity:1.0000; stroke:none;fill-rule:evenodd;"
d="M 34.5500,40.0400
34.5500,39.2400
36.5500,39.2400
36.5500,40.0400
Z" /> 
<path style="fill:#000000; fill-opacity:1.0000; stroke:none;fill-rule:evenodd;"
d="M 34.5500,41.3100
34.5500,40.5100
36.5500,40.5100
36.5500,41.3100
Z" /> 
<path style="fill:#000000; fill-opacity:1.0000; stroke:none;fill-rule:evenodd;"
d="M 40.1500,41.3100
40.1500,40.5100
42.1500,40.5100
42.1500,41.3100
Z" /> 
<path style="fill:#000000; fill-opacity:1.0000; stroke:none;fill-rule:evenodd;"
d="M 40.1500,40.0400
40.1500,39.2400
42.1500,39.2400
42.1500,40.0400
Z" /> 
<path style="fill:#000000; fill-opacity:1.0000; stroke:none;fill-rule:evenodd;"
d="M 40.1500,38.7700
40.1500,37.9700
42.1500,37.9700
42.1500,38.7700
Z" /> 
<path style="fill:#000000; fill-opacity:1.0000; stroke:none;fill-rule:evenodd;"
d="M 40.1500,37.5000
40.1500,36.7000
42.1500,36.7000
42.1500,37.5000
Z" /> 
<path style="fill:#000000; fill-opacity:1.0000; stroke:none;fill-rule:evenodd;"
d="M 31.7450,27.5250
31.7450,29.5250
30.2450,29.5250
30.2450,27.5250
Z" /> 
<path style="fill:#000000; fill-opacity:1.0000; stroke:none;fill-rule:evenodd;"
d="M 33.1550,32.7750
33.1550,35.2750
31.1550,35.2750
31.1550,32.7750
Z" /> 
<path style="fill:#000000; fill-opacity:1.0000; stroke:none;fill-rule:evenodd;"
d="M 34.0550,27.5250
34.0550,29.5250
32.5550,29.5250
32.5550,27.5250
Z" /> 
<path style="fill:#000000; fill-opacity:1.0000; stroke:none;fill-rule:evenodd;"
d="M 43.4500,31.2500
43.4500,32.8500
42.2500,32.8500
42.2500,31.2500
Z" /> 
<path style="fill:#000000; fill-opacity:1.0000; stroke:none;fill-rule:evenodd;"
d="M 40.4500,31.2500
40.4500,32.8500
39.2500,32.8500
39.2500,31.2500
Z" /> 
<path style="fill:#000000; fill-opacity:1.0000; stroke:none;fill-rule:evenodd;"
d="M 41.5000,43.7000
41.5000,43.0000
42.5000,43.0000
42.5000,43.7000
Z" /> 
<path style="fill:#000000; fill-opacity:1.0000; stroke:none;fill-rule:evenodd;"
d="M 41.5000,45.6000
41.5000,44.9000
42.5000,44.9000
42.5000,45.6000
Z" /> 
<path style="fill:#000000; fill-opacity:1.0000; stroke:none;fill-rule:evenodd;"
d="M 43.9000,44.6500
43.9000,43.9500
44.9000,43.9500
44.9000,44.6500
Z" /> 
</g>
<g style="fill:none; 
stroke:#000000; stroke-width:0.5000; stroke-opacity:1; 
stroke-linecap:round; stroke-linejoin:round;">
<path d="M41.2500 43.3500
L39.0500 41.1500
" />
<path d="M33.3050 28.8050
L36.8500 32.3500
" />
<path d="M36.8500 35.1000
L36.8500 37.1000
" />
<path d="M42.0000 43.3500
L41.2500 43.3500
" />
<path d="M33.3050 28.5250
L33.3050 28.8050
" />
<path d="M36.8500 37.1000
L35.5500 37.1000
" />
<path d="M39.0500 38.7000
L37.4500 37.1000
" />
<path d="M36.8500 32.3500
L36.8500 35.1000
" />
<path d="M32.4000 37.1000
L35.5500 37.1000
" />
<path d="M39.0500 41.1500
L39.0500 38.7000
" />
<path d="M37.4500 37.1000
L36.8500 37.1000
" />
<path d="M40.6500 37.1000
L39.8500 36.3000
" />
<path d="M35.4000 25.5500
L35.4000 24.7500
" />
<path d="M29.5500 42.4500
L32.4000 45.3000
" />
<path d="M39.8500 36.3000
L39.8500 35.1000
" />
</g>
<g style="fill:none; 
stroke:#000000; stroke-width:0.4000; stroke-opacity:1; 
stroke-linecap:round; stroke-linejoin:round;">
<path d="M33.4000 44.3000
L32.4000 45.3000
" />
</g>
<g style="fill:none; 
stroke:#000000; stroke-width:0.5000; stroke-opacity:1; 
stroke-linecap:round; stroke-linejoin:round;">
<path d="M38.1500 30.4000
L38.1500 28.3000
" />
<path d="M30.9950 28.5250
L30.9950 28.7550
" />
<path d="M39.8500 32.0500
L39.8000 32.0500
" />
<path d="M32.4000 46.6500
L32.4000 45.3000
" />
<path d="M41.1500 37.1000
L40.6500 37.1000
" />
<path d="M30.9950 28.5250
L30.9950 26.4550
" />
<path d="M33.5500 48.2500
L33.5500 47.8000
" />
</g>
<g style="fill:none; 
stroke:#000000; stroke-width:0.4000; stroke-opacity:1; 
stroke-linecap:round; stroke-linejoin:round;">
<path d="M44.4000 44.3000
L33.4000 44.3000
" />
</g>
<g style="fill:none; 
stroke:#000000; stroke-width:0.5000; stroke-opacity:1; 
stroke-linecap:round; stroke-linejoin:round;">
<path d="M29.5500 30.2000
L29.5500 42.4500
" />
<path d="M39.8000 32.0500
L38.1500 30.4000
" />
<path d="M30.9950 26.4550
L32.7000 24.7500
" />
<path d="M38.1500 28.3000
L35.4000 25.5500
" />
<path d="M39.8500 32.0500
L39.8500 35.1000
" />
<path d="M30.9950 28.7550
L29.5500 30.2000
" />
<path d="M32.7000 24.7500
L35.4000 24.7500
" />
<path d="M33.5500 47.8000
L32.4000 46.6500
" />
<path d="M41.5500 24.7500
L38.8000 24.7500
" />
</g>
<g style="fill:none; 
stroke:#000000; stroke-width:0.4000; stroke-opacity:1; 
stroke-linecap:round; stroke-linejoin:round;">
<path d="M38.0000 48.2000
L38.0500 48.2500
" />
</g>
<g style="fill:none; 
stroke:#000000; stroke-width:0.5000; stroke-opacity:1; 
stroke-linecap:round; stroke-linejoin:round;">
<path d="M38.0000 45.7000
L38.0000 48.2000
" />
<path d="M35.5500 46.5000
L35.5500 45.7500
" />
<path d="M36.0500 48.2500
L36.0500 47.0000
" />
<path d="M36.0500 47.0000
L35.5500 46.5000
" />
<path d="M44.2400 39.6400
L44.2500 39.6500
" />
<path d="M41.1500 39.6400
L44.2400 39.6400
" />
</g>
<g style="fill:none; 
stroke:#000000; stroke-width:1.0000; stroke-opacity:1; 
stroke-linecap:round; stroke-linejoin:round;">
<path d="M46.8500 34.8000
L46.8500 31.0000
" />
<path d="M46.8500 45.2000
L44.2500 47.8000
" />
<path d="M44.5500 25.4000
L44.5500 24.7500
" />
</g>
<g style="fill:none; 
stroke:#000000; stroke-width:0.5000; stroke-opacity:1; 
stroke-linecap:round; stroke-linejoin:round;">
<path d="M40.5500 48.2500
L40.5500 47.9000
" />
</g>
<g style="fill:none; 
stroke:#000000; stroke-width:1.0000; stroke-opacity:1; 
stroke-linecap:round; stroke-linejoin:round;">
<path d="M40.9000 48.2500
L40.5500 48.2500
" />
<path d="M46.8500 34.8000
L46.8500 45.2000
" />
<path d="M46.8500 31.0000
L44.1500 28.3000
" />
<path d="M41.6500 28.3000
L44.5500 25.4000
" />
<path d="M41.3500 47.8000
L40.9000 48.2500
" />
<path d="M44.1500 28.3000
L41.6500 28.3000
" />
</g>
<g style="fill:none; 
stroke:#000000; stroke-width:0.5000; stroke-opacity:1; 
stroke-linecap:round; stroke-linejoin:round;">
<path d="M42.0000 46.4500
L42.0000 45.2500
" />
</g>
<g style="fill:none; 
stroke:#000000; stroke-width:1.0000; stroke-opacity:1; 
stroke-linecap:round; stroke-linejoin:round;">
<path d="M44.2500 47.8000
L41.3500 47.8000
" />
</g>
<g style="fill:none; 
stroke:#000000; stroke-width:0.5000; stroke-opacity:1; 
stroke-linecap:round; stroke-linejoin:round;">
<path d="M40.5500 47.9000
L42.0000 46.4500
" />
</g>
<g style="fill:none; 
stroke:#000000; stroke-width:0.4000; stroke-opacity:1; 
stroke-linecap:round; stroke-linejoin:round;">
<path d="M32.4000 40.1000
L32.4000 42.3000
" />
<path d="M34.0000 42.3000
L34.4500 42.7500
" />
<path d="M32.4000 42.3000
L34.0000 42.3000
" />
<path d="M34.4500 42.7500
L35.5500 42.7500
" />
<path d="M35.5500 42.7500
L35.5500 40.9100
" />
</g>
<g style="fill:none; 
stroke:#000000; stroke-width:0.5000; stroke-opacity:1; 
stroke-linecap:round; stroke-linejoin:round;">
<path d="M38.0000 42.7000
L38.0000 39.2000
" />
<path d="M38.0000 39.2000
L37.1700 38.3700
" />
<path d="M37.1700 38.3700
L35.5500 38.3700
" />
<path d="M43.8500 34.8000
L43.8500 37.0000
" />
<path d="M42.6500 38.2000
L41.3200 38.2000
" />
<path d="M41.3200 38.2000
L41.1500 38.3700
" />
<path d="M42.8500 33.6000
L42.8500 32.0500
" />
<path d="M43.8500 34.8000
L43.8500 34.6000
" />
<path d="M43.8500 34.6000
L42.8500 33.6000
" />
<path d="M43.8500 37.0000
L42.6500 38.2000
" />
</g>
<g style="fill:none; 
stroke:#000000; stroke-width:0.4000; stroke-opacity:1; 
stroke-linecap:round; stroke-linejoin:round;">
<path d="M35.5500 39.6400
L34.0400 39.6400
" />
<path d="M31.1500 38.5500
L30.8500 38.2500
" />
<path d="M30.8500 38.2500
L30.8500 35.3300
" />
<path d="M33.3000 38.5500
L31.1500 38.5500
" />
<path d="M33.8500 39.4500
L33.8500 39.1000
" />
<path d="M33.8500 39.1000
L33.3000 38.5500
" />
<path d="M34.0400 39.6400
L33.8500 39.4500
" />
<path d="M30.8500 35.3300
L32.1550 34.0250
" />
</g> 
</svg>
