%TF.GenerationSoftware,KiCad,Pcbnew,8.0.7*%
%TF.CreationDate,2025-05-21T10:56:43+00:00*%
%TF.ProjectId,QC_Hack_wPins,51435f48-6163-46b5-9f77-50696e732e6b,v1*%
%TF.SameCoordinates,Original*%
%TF.FileFunction,Copper,L1,Top*%
%TF.FilePolarity,Positive*%
%FSLAX46Y46*%
G04 Gerber Fmt 4.6, Leading zero omitted, Abs format (unit mm)*
G04 Created by KiCad (PCBNEW 8.0.7) date 2025-05-21 10:56:43*
%MOMM*%
%LPD*%
G01*
G04 APERTURE LIST*
%TA.AperFunction,ComponentPad*%
%ADD10C,1.400000*%
%TD*%
%TA.AperFunction,SMDPad,CuDef*%
%ADD11R,1.200000X2.000000*%
%TD*%
%TA.AperFunction,ComponentPad*%
%ADD12C,1.800000*%
%TD*%
%TA.AperFunction,SMDPad,CuDef*%
%ADD13R,1.600000X1.200000*%
%TD*%
%TA.AperFunction,ComponentPad*%
%ADD14C,3.000000*%
%TD*%
%TA.AperFunction,SMDPad,CuDef*%
%ADD15R,1.200000X1.600000*%
%TD*%
%TA.AperFunction,SMDPad,CuDef*%
%ADD16R,1.400000X1.700000*%
%TD*%
%TA.AperFunction,SMDPad,CuDef*%
%ADD17R,2.000000X0.800000*%
%TD*%
%TA.AperFunction,SMDPad,CuDef*%
%ADD18R,1.500000X2.000000*%
%TD*%
%TA.AperFunction,SMDPad,CuDef*%
%ADD19R,2.000000X2.500000*%
%TD*%
%TA.AperFunction,SMDPad,CuDef*%
%ADD20R,1.000000X0.700000*%
%TD*%
%TA.AperFunction,Conductor*%
%ADD21C,0.500000*%
%TD*%
%TA.AperFunction,Conductor*%
%ADD22C,1.000000*%
%TD*%
%TA.AperFunction,Conductor*%
%ADD23C,0.400000*%
%TD*%
G04 APERTURE END LIST*
D10*
%TO.P,P1,*%
%TO.N,*%
X34750000Y-50750000D03*
X39350000Y-50750000D03*
D11*
%TO.P,P1,1,5V*%
%TO.N,VBUS*%
X40550000Y-48250000D03*
%TO.P,P1,2,D-*%
%TO.N,Net-(P1-D-)*%
X38050000Y-48250000D03*
%TO.P,P1,3,D+*%
%TO.N,Net-(P1-D+)*%
X36050000Y-48250000D03*
%TO.P,P1,4,GND*%
%TO.N,GND*%
X33550000Y-48250000D03*
D12*
%TO.P,P1,5,SHIELD*%
%TO.N,unconnected-(P1-SHIELD-Pad5)_1*%
X31200000Y-49950000D03*
%TO.N,unconnected-(P1-SHIELD-Pad5)_6*%
X31200000Y-50450000D03*
%TO.N,unconnected-(P1-SHIELD-Pad5)_5*%
X31200000Y-50950000D03*
%TO.N,unconnected-(P1-SHIELD-Pad5)_7*%
X31200000Y-51450000D03*
%TO.N,unconnected-(P1-SHIELD-Pad5)_4*%
X42900000Y-50000000D03*
%TO.N,unconnected-(P1-SHIELD-Pad5)_3*%
X42900000Y-50500000D03*
%TO.N,unconnected-(P1-SHIELD-Pad5)*%
X42900000Y-51000000D03*
%TO.N,unconnected-(P1-SHIELD-Pad5)_2*%
X42900000Y-51500000D03*
%TD*%
D13*
%TO.P,R3,1*%
%TO.N,D+*%
X35550000Y-42750000D03*
%TO.P,R3,2*%
%TO.N,Net-(P1-D+)*%
X35550000Y-45750000D03*
%TD*%
D14*
%TO.P,J2,1,Pin_1*%
%TO.N,GND*%
X27940000Y-30480000D03*
%TO.P,J2,2,Pin_2*%
X27940000Y-33020000D03*
%TO.P,J2,3,Pin_3*%
X27940000Y-35560000D03*
%TO.P,J2,4,Pin_4*%
X27940000Y-38100000D03*
%TO.P,J2,5,Pin_5*%
X27940000Y-40640000D03*
%TD*%
D15*
%TO.P,C1,1*%
%TO.N,+3.3V*%
X36850000Y-35100000D03*
%TO.P,C1,2*%
%TO.N,GND*%
X39850000Y-35100000D03*
%TD*%
D13*
%TO.P,R1,1*%
%TO.N,D+*%
X32400000Y-42300000D03*
%TO.P,R1,2*%
%TO.N,GND*%
X32400000Y-45300000D03*
%TD*%
D15*
%TO.P,R5,1*%
%TO.N,VBUS*%
X44550000Y-24750000D03*
%TO.P,R5,2*%
%TO.N,Net-(D1-A)*%
X41550000Y-24750000D03*
%TD*%
D16*
%TO.P,D1,1,K*%
%TO.N,GND*%
X35400000Y-24750000D03*
%TO.P,D1,2,A*%
%TO.N,Net-(D1-A)*%
X38800000Y-24750000D03*
%TD*%
D13*
%TO.P,R2,1*%
%TO.N,+3.3V*%
X32400000Y-37100000D03*
%TO.P,R2,2*%
%TO.N,D+*%
X32400000Y-40100000D03*
%TD*%
%TO.P,R4,1*%
%TO.N,D-*%
X38000000Y-42700000D03*
%TO.P,R4,2*%
%TO.N,Net-(P1-D-)*%
X38000000Y-45700000D03*
%TD*%
D15*
%TO.P,R6,1*%
%TO.N,VBUS*%
X45620000Y-35030000D03*
%TO.P,R6,2*%
%TO.N,SENSE*%
X42620000Y-35030000D03*
%TD*%
D17*
%TO.P,U1,1,VCC*%
%TO.N,+3.3V*%
X35550000Y-37100000D03*
%TO.P,U1,2,DAC*%
%TO.N,D-*%
X35550000Y-38370000D03*
%TO.P,U1,3,PA7*%
%TO.N,REG*%
X35550000Y-39640000D03*
%TO.P,U1,4,PA1*%
%TO.N,D+*%
X35550000Y-40910000D03*
%TO.P,U1,5,PA2*%
%TO.N,unconnected-(U1-PA2-Pad5)*%
X41150000Y-40910000D03*
%TO.P,U1,6,UPDI*%
%TO.N,unconnected-(U1-UPDI-Pad6)*%
X41150000Y-39640000D03*
%TO.P,U1,7,PA3*%
%TO.N,SENSE*%
X41150000Y-38370000D03*
%TO.P,U1,8,GND*%
%TO.N,GND*%
X41150000Y-37100000D03*
%TD*%
D18*
%TO.P,RV1,1,1*%
%TO.N,GND*%
X30995000Y-28525000D03*
D19*
%TO.P,RV1,2,2*%
%TO.N,REG*%
X32155000Y-34025000D03*
D18*
%TO.P,RV1,3,3*%
%TO.N,+3.3V*%
X33305000Y-28525000D03*
%TD*%
D15*
%TO.P,R7,1*%
%TO.N,SENSE*%
X42850000Y-32050000D03*
%TO.P,R7,2*%
%TO.N,GND*%
X39850000Y-32050000D03*
%TD*%
D20*
%TO.P,U3,1,VO*%
%TO.N,+3.3V*%
X42000000Y-43350000D03*
%TO.P,U3,2,VI*%
%TO.N,VBUS*%
X42000000Y-45250000D03*
%TO.P,U3,3,GND*%
%TO.N,GND*%
X44400000Y-44300000D03*
%TD*%
D14*
%TO.P,J1,1,Pin_1*%
%TO.N,VBUS*%
X48260000Y-30480000D03*
%TO.P,J1,2,Pin_2*%
X48260000Y-33020000D03*
%TO.P,J1,3,Pin_3*%
X48260000Y-35560000D03*
%TO.P,J1,4,Pin_4*%
X48260000Y-38100000D03*
%TO.P,J1,5,Pin_5*%
X48260000Y-40640000D03*
%TD*%
D21*
%TO.N,+3.3V*%
X41250000Y-43350000D02*
X39050000Y-41150000D01*
X33305000Y-28805000D02*
X36850000Y-32350000D01*
X36850000Y-35100000D02*
X36850000Y-37100000D01*
X42000000Y-43350000D02*
X41250000Y-43350000D01*
X33305000Y-28525000D02*
X33305000Y-28805000D01*
X36850000Y-37100000D02*
X35550000Y-37100000D01*
X39050000Y-38700000D02*
X37450000Y-37100000D01*
X36850000Y-32350000D02*
X36850000Y-35100000D01*
X32400000Y-37100000D02*
X35550000Y-37100000D01*
X39050000Y-41150000D02*
X39050000Y-38700000D01*
X37450000Y-37100000D02*
X36850000Y-37100000D01*
%TO.N,GND*%
X40650000Y-37100000D02*
X39850000Y-36300000D01*
D22*
X27940000Y-40640000D02*
X27940000Y-30480000D01*
D21*
X35400000Y-25550000D02*
X35400000Y-24750000D01*
X39850000Y-36300000D02*
X39850000Y-35100000D01*
D23*
X33400000Y-44300000D02*
X32400000Y-45300000D01*
D21*
X38150000Y-30400000D02*
X38150000Y-28300000D01*
D22*
X30995000Y-28525000D02*
X30995000Y-28755000D01*
X28875000Y-28525000D02*
X30995000Y-28525000D01*
D21*
X39850000Y-32050000D02*
X39800000Y-32050000D01*
X32400000Y-46650000D02*
X32400000Y-45300000D01*
X41150000Y-37100000D02*
X40650000Y-37100000D01*
D22*
X27940000Y-42990000D02*
X27940000Y-40640000D01*
D21*
X30995000Y-28525000D02*
X30995000Y-26455000D01*
X33550000Y-48250000D02*
X33550000Y-47800000D01*
D23*
X44400000Y-44300000D02*
X33400000Y-44300000D01*
D22*
X27940000Y-30480000D02*
X27940000Y-29460000D01*
X32400000Y-45300000D02*
X30250000Y-45300000D01*
D21*
X39800000Y-32050000D02*
X38150000Y-30400000D01*
X30995000Y-26455000D02*
X32700000Y-24750000D01*
X38150000Y-28300000D02*
X35400000Y-25550000D01*
X39850000Y-32050000D02*
X39850000Y-35100000D01*
D22*
X30250000Y-45300000D02*
X27940000Y-42990000D01*
X27940000Y-29460000D02*
X28875000Y-28525000D01*
D21*
X32700000Y-24750000D02*
X35400000Y-24750000D01*
X33550000Y-47800000D02*
X32400000Y-46650000D01*
%TO.N,Net-(D1-A)*%
X41550000Y-24750000D02*
X38800000Y-24750000D01*
D23*
%TO.N,Net-(P1-D-)*%
X38000000Y-48200000D02*
X38050000Y-48250000D01*
D21*
X38000000Y-45700000D02*
X38000000Y-48200000D01*
%TO.N,Net-(P1-D+)*%
X35550000Y-46500000D02*
X35550000Y-45750000D01*
X36050000Y-48250000D02*
X36050000Y-47000000D01*
X36050000Y-47000000D02*
X35550000Y-46500000D01*
D22*
%TO.N,VBUS*%
X48260000Y-30480000D02*
X48260000Y-40640000D01*
X41350000Y-47800000D02*
X40900000Y-48250000D01*
D21*
X40550000Y-48250000D02*
X40550000Y-47900000D01*
D22*
X46330000Y-30480000D02*
X48260000Y-30480000D01*
X45770000Y-30420000D02*
X46270000Y-30420000D01*
X44250000Y-47800000D02*
X41350000Y-47800000D01*
X46440000Y-43010000D02*
X46440000Y-45610000D01*
X46270000Y-30420000D02*
X46330000Y-30480000D01*
X45770000Y-42340000D02*
X46440000Y-43010000D01*
X45770000Y-30420000D02*
X45770000Y-42340000D01*
X45770000Y-29920000D02*
X45770000Y-30420000D01*
X45770000Y-29920000D02*
X44550000Y-28700000D01*
D21*
X42000000Y-46450000D02*
X42000000Y-45250000D01*
D22*
X44550000Y-28700000D02*
X44550000Y-24750000D01*
X40900000Y-48250000D02*
X40550000Y-48250000D01*
X46440000Y-45610000D02*
X44250000Y-47800000D01*
D21*
X40550000Y-47900000D02*
X42000000Y-46450000D01*
D23*
%TO.N,D+*%
X32400000Y-40100000D02*
X32400000Y-42300000D01*
X34000000Y-42300000D02*
X34450000Y-42750000D01*
X32400000Y-42300000D02*
X34000000Y-42300000D01*
X34450000Y-42750000D02*
X35550000Y-42750000D01*
X35550000Y-42750000D02*
X35550000Y-40910000D01*
D21*
%TO.N,D-*%
X38000000Y-42700000D02*
X38000000Y-39200000D01*
X38000000Y-39200000D02*
X37170000Y-38370000D01*
X37170000Y-38370000D02*
X35550000Y-38370000D01*
D23*
%TO.N,SENSE*%
X42620000Y-35030000D02*
X42620000Y-32280000D01*
X41150000Y-38370000D02*
X42870000Y-38370000D01*
X43370000Y-35780000D02*
X42620000Y-35030000D01*
X42870000Y-38370000D02*
X43370000Y-37870000D01*
X42620000Y-32280000D02*
X42850000Y-32050000D01*
X43370000Y-37870000D02*
X43370000Y-35780000D01*
%TO.N,REG*%
X35550000Y-39640000D02*
X34040000Y-39640000D01*
X31150000Y-38550000D02*
X30850000Y-38250000D01*
X30850000Y-38250000D02*
X30850000Y-35330000D01*
X33300000Y-38550000D02*
X31150000Y-38550000D01*
X33850000Y-39450000D02*
X33850000Y-39100000D01*
X33850000Y-39100000D02*
X33300000Y-38550000D01*
X34040000Y-39640000D02*
X33850000Y-39450000D01*
X30850000Y-35330000D02*
X32155000Y-34025000D01*
%TD*%
%TA.AperFunction,NonConductor*%
G36*
X32208127Y-30017913D02*
G01*
X32225481Y-30029065D01*
X32252159Y-30049536D01*
X32252162Y-30049537D01*
X32252163Y-30049538D01*
X32325198Y-30079790D01*
X32398238Y-30110044D01*
X32515639Y-30125500D01*
X33371348Y-30125499D01*
X33438387Y-30145183D01*
X33459029Y-30161818D01*
X35963181Y-32665969D01*
X35996666Y-32727292D01*
X35999500Y-32753650D01*
X35999500Y-33674151D01*
X35979815Y-33741190D01*
X35950987Y-33772527D01*
X35947159Y-33775463D01*
X35947159Y-33775464D01*
X35912947Y-33801716D01*
X35821718Y-33871718D01*
X35725463Y-33997160D01*
X35664956Y-34143237D01*
X35664955Y-34143239D01*
X35653855Y-34227557D01*
X35649501Y-34260636D01*
X35649500Y-34260645D01*
X35649500Y-35939359D01*
X35652128Y-35959320D01*
X35641359Y-36028355D01*
X35594977Y-36080609D01*
X35529188Y-36099500D01*
X34510636Y-36099500D01*
X34393246Y-36114953D01*
X34393237Y-36114956D01*
X34247157Y-36175464D01*
X34184067Y-36223876D01*
X34118898Y-36249070D01*
X34108581Y-36249500D01*
X33825849Y-36249500D01*
X33758810Y-36229815D01*
X33727473Y-36200987D01*
X33724536Y-36197159D01*
X33628282Y-36071718D01*
X33502841Y-35975464D01*
X33502839Y-35975463D01*
X33496392Y-35970516D01*
X33498007Y-35968411D01*
X33458833Y-35927330D01*
X33445606Y-35858724D01*
X33471570Y-35793858D01*
X33493555Y-35772131D01*
X33583282Y-35703282D01*
X33679536Y-35577841D01*
X33740044Y-35431762D01*
X33755500Y-35314361D01*
X33755499Y-32735640D01*
X33755499Y-32735639D01*
X33755499Y-32735636D01*
X33740046Y-32618246D01*
X33740044Y-32618239D01*
X33740044Y-32618238D01*
X33679536Y-32472159D01*
X33583282Y-32346718D01*
X33457841Y-32250464D01*
X33311762Y-32189956D01*
X33311760Y-32189955D01*
X33194370Y-32174501D01*
X33194367Y-32174500D01*
X33194361Y-32174500D01*
X33194354Y-32174500D01*
X31115636Y-32174500D01*
X30998246Y-32189953D01*
X30998237Y-32189956D01*
X30852160Y-32250463D01*
X30726718Y-32346718D01*
X30630463Y-32472160D01*
X30569956Y-32618237D01*
X30569955Y-32618239D01*
X30555599Y-32727292D01*
X30554501Y-32735636D01*
X30554500Y-32735645D01*
X30554500Y-34442059D01*
X30534815Y-34509098D01*
X30518180Y-34529740D01*
X30339711Y-34708211D01*
X30283961Y-34763961D01*
X30228211Y-34819710D01*
X30155176Y-34929014D01*
X30101563Y-34973818D01*
X30032238Y-34982525D01*
X29969211Y-34952370D01*
X29935234Y-34901647D01*
X29871105Y-34721206D01*
X29871106Y-34721206D01*
X29771895Y-34529740D01*
X29738901Y-34466064D01*
X29665095Y-34361505D01*
X29642518Y-34295388D01*
X29659271Y-34227557D01*
X29665083Y-34218512D01*
X29738901Y-34113936D01*
X29871104Y-33858797D01*
X29967334Y-33588032D01*
X30025798Y-33306686D01*
X30045408Y-33020000D01*
X30025798Y-32733314D01*
X29967334Y-32451968D01*
X29871105Y-32181206D01*
X29871106Y-32181206D01*
X29786905Y-32018707D01*
X29738901Y-31926064D01*
X29665095Y-31821505D01*
X29642518Y-31755388D01*
X29659271Y-31687557D01*
X29665083Y-31678512D01*
X29738901Y-31573936D01*
X29871104Y-31318797D01*
X29967334Y-31048032D01*
X30025798Y-30766686D01*
X30045408Y-30480000D01*
X30029824Y-30252171D01*
X30044888Y-30183946D01*
X30094446Y-30134694D01*
X30162765Y-30120054D01*
X30169708Y-30120769D01*
X30205639Y-30125500D01*
X31784360Y-30125499D01*
X31784363Y-30125499D01*
X31901753Y-30110046D01*
X31901757Y-30110044D01*
X31901762Y-30110044D01*
X32047836Y-30049538D01*
X32047837Y-30049538D01*
X32047837Y-30049537D01*
X32047841Y-30049536D01*
X32074514Y-30029068D01*
X32139682Y-30003875D01*
X32208127Y-30017913D01*
G37*
%TD.AperFunction*%
%TA.AperFunction,NonConductor*%
G36*
X29997636Y-36462486D02*
G01*
X30040713Y-36517496D01*
X30049500Y-36563344D01*
X30049500Y-37096655D01*
X30029815Y-37163694D01*
X29977011Y-37209449D01*
X29907853Y-37219393D01*
X29844297Y-37190368D01*
X29815402Y-37153704D01*
X29738901Y-37006064D01*
X29665095Y-36901505D01*
X29642518Y-36835388D01*
X29659271Y-36767557D01*
X29665083Y-36758512D01*
X29738901Y-36653936D01*
X29815402Y-36506295D01*
X29863723Y-36455829D01*
X29931657Y-36439497D01*
X29997636Y-36462486D01*
G37*
%TD.AperFunction*%
%TA.AperFunction,NonConductor*%
G36*
X34052678Y-25620185D02*
G01*
X34098433Y-25672989D01*
X34108578Y-25708317D01*
X34114953Y-25756753D01*
X34114956Y-25756762D01*
X34175464Y-25902841D01*
X34271718Y-26028282D01*
X34397159Y-26124536D01*
X34543238Y-26185044D01*
X34660639Y-26200500D01*
X34796347Y-26200499D01*
X34863387Y-26220183D01*
X34884029Y-26236818D01*
X37263181Y-28615969D01*
X37296666Y-28677292D01*
X37299500Y-28703650D01*
X37299500Y-30483771D01*
X37332183Y-30648079D01*
X37332771Y-30649498D01*
X37332779Y-30649518D01*
X37396292Y-30802856D01*
X37396299Y-30802869D01*
X37489372Y-30942161D01*
X37489375Y-30942165D01*
X38613181Y-32065969D01*
X38646666Y-32127292D01*
X38649500Y-32153650D01*
X38649500Y-32889363D01*
X38664953Y-33006753D01*
X38664956Y-33006762D01*
X38725464Y-33152841D01*
X38821718Y-33278282D01*
X38947159Y-33374536D01*
X38947160Y-33374536D01*
X38950986Y-33377472D01*
X38992189Y-33433900D01*
X38999500Y-33475848D01*
X38999500Y-33674151D01*
X38979815Y-33741190D01*
X38950987Y-33772527D01*
X38947159Y-33775463D01*
X38947159Y-33775464D01*
X38912947Y-33801716D01*
X38821718Y-33871718D01*
X38725463Y-33997160D01*
X38664956Y-34143237D01*
X38664955Y-34143239D01*
X38653855Y-34227557D01*
X38649501Y-34260636D01*
X38649500Y-34260645D01*
X38649500Y-35939363D01*
X38664953Y-36056753D01*
X38664956Y-36056762D01*
X38689059Y-36114953D01*
X38725464Y-36202841D01*
X38821718Y-36328282D01*
X38947159Y-36424536D01*
X38951801Y-36426458D01*
X39006204Y-36470296D01*
X39025967Y-36516829D01*
X39032182Y-36548074D01*
X39032185Y-36548086D01*
X39045612Y-36580501D01*
X39096292Y-36702856D01*
X39096299Y-36702869D01*
X39189372Y-36842161D01*
X39189375Y-36842165D01*
X39513181Y-37165970D01*
X39546666Y-37227293D01*
X39549500Y-37253651D01*
X39549500Y-37539363D01*
X39564954Y-37656755D01*
X39564955Y-37656760D01*
X39577705Y-37687541D01*
X39585174Y-37757011D01*
X39553898Y-37819490D01*
X39493809Y-37855142D01*
X39423984Y-37852647D01*
X39375463Y-37822674D01*
X37992165Y-36439375D01*
X37992159Y-36439370D01*
X37970608Y-36424970D01*
X37925804Y-36371358D01*
X37917097Y-36302033D01*
X37941122Y-36246385D01*
X37974536Y-36202841D01*
X38035044Y-36056762D01*
X38050500Y-35939361D01*
X38050499Y-34260640D01*
X38050499Y-34260639D01*
X38050499Y-34260636D01*
X38035046Y-34143246D01*
X38035044Y-34143239D01*
X38035044Y-34143238D01*
X37974536Y-33997159D01*
X37878282Y-33871718D01*
X37752841Y-33775464D01*
X37752840Y-33775463D01*
X37749013Y-33772527D01*
X37707811Y-33716099D01*
X37700500Y-33674151D01*
X37700500Y-32266232D01*
X37700499Y-32266228D01*
X37683587Y-32181206D01*
X37667816Y-32101918D01*
X37633349Y-32018708D01*
X37603704Y-31947137D01*
X37510626Y-31807838D01*
X37510622Y-31807834D01*
X37510620Y-31807831D01*
X34691818Y-28989029D01*
X34658333Y-28927706D01*
X34655499Y-28901348D01*
X34655499Y-27485636D01*
X34640046Y-27368246D01*
X34640044Y-27368241D01*
X34640044Y-27368238D01*
X34579536Y-27222159D01*
X34483282Y-27096718D01*
X34357841Y-27000464D01*
X34211762Y-26939956D01*
X34211760Y-26939955D01*
X34094370Y-26924501D01*
X34094367Y-26924500D01*
X34094361Y-26924500D01*
X34094354Y-26924500D01*
X32515636Y-26924500D01*
X32398246Y-26939953D01*
X32398237Y-26939956D01*
X32252158Y-27000464D01*
X32225485Y-27020931D01*
X32160316Y-27046124D01*
X32091871Y-27032085D01*
X32074515Y-27020931D01*
X32047841Y-27000464D01*
X31939620Y-26955637D01*
X31885217Y-26911796D01*
X31863152Y-26845501D01*
X31880431Y-26777802D01*
X31899388Y-26753399D01*
X33015969Y-25636819D01*
X33077292Y-25603334D01*
X33103650Y-25600500D01*
X33985639Y-25600500D01*
X34052678Y-25620185D01*
G37*
%TD.AperFunction*%
%TA.AperFunction,NonConductor*%
G36*
X33914218Y-40988321D02*
G01*
X33946971Y-41050038D01*
X33949500Y-41074953D01*
X33949500Y-41325046D01*
X33929815Y-41392085D01*
X33877011Y-41437840D01*
X33807853Y-41447784D01*
X33744297Y-41418759D01*
X33727124Y-41400532D01*
X33724534Y-41397157D01*
X33631172Y-41275485D01*
X33605979Y-41210317D01*
X33620017Y-41141872D01*
X33631173Y-41124514D01*
X33724536Y-41002841D01*
X33724537Y-41002838D01*
X33727124Y-40999467D01*
X33783551Y-40958264D01*
X33853297Y-40954109D01*
X33914218Y-40988321D01*
G37*
%TD.AperFunction*%
%TA.AperFunction,NonConductor*%
G36*
X39605701Y-42908937D02*
G01*
X39612180Y-42914969D01*
X39985030Y-43287819D01*
X40018515Y-43349142D01*
X40013531Y-43418834D01*
X39971659Y-43474767D01*
X39906195Y-43499184D01*
X39897349Y-43499500D01*
X39520812Y-43499500D01*
X39453773Y-43479815D01*
X39408018Y-43427011D01*
X39397873Y-43359314D01*
X39400500Y-43339361D01*
X39400499Y-43002648D01*
X39420183Y-42935611D01*
X39472987Y-42889856D01*
X39542146Y-42879912D01*
X39605701Y-42908937D01*
G37*
%TD.AperFunction*%
%TA.AperFunction,NonConductor*%
G36*
X30128364Y-38637912D02*
G01*
X30173736Y-38678763D01*
X30228210Y-38760288D01*
X30228213Y-38760292D01*
X30528211Y-39060289D01*
X30607657Y-39139735D01*
X30639712Y-39171790D01*
X30770814Y-39259390D01*
X30770827Y-39259397D01*
X30922131Y-39322068D01*
X30921340Y-39323976D01*
X30971903Y-39357103D01*
X31000367Y-39420912D01*
X31000418Y-39453661D01*
X30999501Y-39460623D01*
X30999500Y-39460645D01*
X30999500Y-40739363D01*
X31014953Y-40856753D01*
X31014956Y-40856762D01*
X31075464Y-41002842D01*
X31168826Y-41124514D01*
X31194020Y-41189683D01*
X31179981Y-41258128D01*
X31168826Y-41275486D01*
X31075464Y-41397157D01*
X31014956Y-41543237D01*
X31014955Y-41543239D01*
X30999501Y-41660629D01*
X30999500Y-41660645D01*
X30999500Y-42939363D01*
X31014953Y-43056753D01*
X31014956Y-43056762D01*
X31075464Y-43202841D01*
X31171718Y-43328282D01*
X31297159Y-43424536D01*
X31443238Y-43485044D01*
X31560639Y-43500500D01*
X32768059Y-43500499D01*
X32835098Y-43520184D01*
X32880853Y-43572987D01*
X32890797Y-43642146D01*
X32861772Y-43705702D01*
X32855740Y-43712180D01*
X32504739Y-44063181D01*
X32443416Y-44096666D01*
X32417058Y-44099500D01*
X31560636Y-44099500D01*
X31443246Y-44114953D01*
X31443234Y-44114957D01*
X31297163Y-44175461D01*
X31290124Y-44179526D01*
X31289117Y-44177783D01*
X31234068Y-44199069D01*
X31223743Y-44199500D01*
X30757204Y-44199500D01*
X30690165Y-44179815D01*
X30669523Y-44163181D01*
X29086825Y-42580483D01*
X29053340Y-42519160D01*
X29058324Y-42449468D01*
X29100196Y-42393535D01*
X29110078Y-42386854D01*
X29149006Y-42363181D01*
X29154147Y-42360055D01*
X29377053Y-42178708D01*
X29573189Y-41968698D01*
X29738901Y-41733936D01*
X29871104Y-41478797D01*
X29967334Y-41208032D01*
X30025798Y-40926686D01*
X30045408Y-40640000D01*
X30025798Y-40353314D01*
X29967334Y-40071968D01*
X29871105Y-39801206D01*
X29871106Y-39801206D01*
X29738900Y-39546063D01*
X29665095Y-39441505D01*
X29642518Y-39375388D01*
X29659271Y-39307557D01*
X29665083Y-39298512D01*
X29738901Y-39193936D01*
X29871104Y-38938797D01*
X29953795Y-38706125D01*
X29994791Y-38649553D01*
X30059869Y-38624122D01*
X30128364Y-38637912D01*
G37*
%TD.AperFunction*%
%TA.AperFunction,NonConductor*%
G36*
X34092539Y-45120185D02*
G01*
X34138294Y-45172989D01*
X34149500Y-45224500D01*
X34149500Y-46389363D01*
X34165291Y-46509317D01*
X34154524Y-46578352D01*
X34108143Y-46630607D01*
X34042352Y-46649500D01*
X33653651Y-46649500D01*
X33586612Y-46629815D01*
X33565970Y-46613181D01*
X33531802Y-46579013D01*
X33498317Y-46517690D01*
X33503301Y-46447998D01*
X33543997Y-46392956D01*
X33569480Y-46373402D01*
X33628282Y-46328282D01*
X33724536Y-46202841D01*
X33785044Y-46056762D01*
X33800500Y-45939361D01*
X33800499Y-45224499D01*
X33820183Y-45157461D01*
X33872987Y-45111706D01*
X33924499Y-45100500D01*
X34025500Y-45100500D01*
X34092539Y-45120185D01*
G37*
%TD.AperFunction*%
%TA.AperFunction,NonConductor*%
G36*
X43525620Y-45120185D02*
G01*
X43534067Y-45126124D01*
X43597157Y-45174535D01*
X43597158Y-45174535D01*
X43597159Y-45174536D01*
X43743238Y-45235044D01*
X43860639Y-45250500D01*
X44939360Y-45250499D01*
X44943419Y-45250499D01*
X44943419Y-45252497D01*
X45003757Y-45265918D01*
X45052931Y-45315554D01*
X45067464Y-45383895D01*
X45042742Y-45449245D01*
X45031504Y-45462153D01*
X43830477Y-46663181D01*
X43769154Y-46696666D01*
X43742796Y-46699500D01*
X42968628Y-46699500D01*
X42901589Y-46679815D01*
X42855834Y-46627011D01*
X42845890Y-46557853D01*
X42847011Y-46551308D01*
X42847368Y-46549512D01*
X42850500Y-46533767D01*
X42850500Y-46149115D01*
X42870185Y-46082076D01*
X42899011Y-46050742D01*
X42928282Y-46028282D01*
X43024536Y-45902841D01*
X43085044Y-45756762D01*
X43100500Y-45639361D01*
X43100499Y-45224499D01*
X43120183Y-45157461D01*
X43172987Y-45111706D01*
X43224499Y-45100500D01*
X43458581Y-45100500D01*
X43525620Y-45120185D01*
G37*
%TD.AperFunction*%
%TA.AperFunction,NonConductor*%
G36*
X40842539Y-45120185D02*
G01*
X40888294Y-45172989D01*
X40899500Y-45224500D01*
X40899500Y-45639363D01*
X40914953Y-45756753D01*
X40914956Y-45756762D01*
X40975464Y-45902842D01*
X41069433Y-46025304D01*
X41094627Y-46090473D01*
X41080589Y-46158918D01*
X41058738Y-46188471D01*
X40634028Y-46613181D01*
X40572705Y-46646666D01*
X40546347Y-46649500D01*
X39910636Y-46649500D01*
X39793246Y-46664953D01*
X39793237Y-46664956D01*
X39647160Y-46725463D01*
X39521718Y-46821718D01*
X39425463Y-46947160D01*
X39414561Y-46973481D01*
X39370720Y-47027884D01*
X39304425Y-47049949D01*
X39236726Y-47032670D01*
X39189116Y-46981532D01*
X39185439Y-46973480D01*
X39174538Y-46947163D01*
X39174538Y-46947162D01*
X39174536Y-46947159D01*
X39164229Y-46933726D01*
X39139036Y-46868560D01*
X39153074Y-46800115D01*
X39187118Y-46759867D01*
X39228282Y-46728282D01*
X39324536Y-46602841D01*
X39385044Y-46456762D01*
X39400500Y-46339361D01*
X39400499Y-45224499D01*
X39420184Y-45157461D01*
X39472987Y-45111706D01*
X39524499Y-45100500D01*
X40775500Y-45100500D01*
X40842539Y-45120185D01*
G37*
%TD.AperFunction*%
%TA.AperFunction,NonConductor*%
G36*
X46078032Y-22950648D02*
G01*
X46411929Y-22967052D01*
X46424037Y-22968245D01*
X46527146Y-22983539D01*
X46751699Y-23016849D01*
X46763617Y-23019219D01*
X47084951Y-23099709D01*
X47096588Y-23103240D01*
X47167806Y-23128722D01*
X47408467Y-23214832D01*
X47419688Y-23219479D01*
X47719163Y-23361120D01*
X47729871Y-23366844D01*
X48013988Y-23537137D01*
X48024103Y-23543895D01*
X48163338Y-23647159D01*
X48290170Y-23741224D01*
X48299576Y-23748944D01*
X48545013Y-23971395D01*
X48553604Y-23979986D01*
X48652748Y-24089374D01*
X48776055Y-24225423D01*
X48783775Y-24234829D01*
X48981102Y-24500893D01*
X48987862Y-24511011D01*
X49116776Y-24726092D01*
X49158148Y-24795116D01*
X49163885Y-24805848D01*
X49305514Y-25105297D01*
X49310170Y-25116540D01*
X49421759Y-25428411D01*
X49425292Y-25440055D01*
X49505777Y-25761369D01*
X49508151Y-25773305D01*
X49556754Y-26100962D01*
X49557947Y-26113071D01*
X49574351Y-26446966D01*
X49574500Y-26453051D01*
X49574500Y-28600436D01*
X49554815Y-28667475D01*
X49502011Y-28713230D01*
X49432853Y-28723174D01*
X49386072Y-28706384D01*
X49228623Y-28610637D01*
X49228618Y-28610635D01*
X48965063Y-28496158D01*
X48965061Y-28496157D01*
X48965058Y-28496156D01*
X48835578Y-28459877D01*
X48688364Y-28418630D01*
X48688359Y-28418629D01*
X48688358Y-28418629D01*
X48546018Y-28399064D01*
X48403679Y-28379500D01*
X48403678Y-28379500D01*
X48116322Y-28379500D01*
X48116321Y-28379500D01*
X47831642Y-28418629D01*
X47831635Y-28418630D01*
X47623861Y-28476845D01*
X47554942Y-28496156D01*
X47554939Y-28496156D01*
X47554936Y-28496158D01*
X47554935Y-28496158D01*
X47291382Y-28610634D01*
X47045853Y-28759944D01*
X46822950Y-28941289D01*
X46680985Y-29093295D01*
X46620841Y-29128854D01*
X46551020Y-29126251D01*
X46502681Y-29096339D01*
X45686819Y-28280477D01*
X45653334Y-28219154D01*
X45650500Y-28192796D01*
X45650500Y-25926257D01*
X45670185Y-25859218D01*
X45673924Y-25853900D01*
X45674532Y-25852845D01*
X45674536Y-25852841D01*
X45735044Y-25706762D01*
X45750500Y-25589361D01*
X45750499Y-23910640D01*
X45750499Y-23910639D01*
X45750499Y-23910636D01*
X45735046Y-23793246D01*
X45735044Y-23793239D01*
X45735044Y-23793238D01*
X45674536Y-23647159D01*
X45578282Y-23521718D01*
X45452841Y-23425464D01*
X45306762Y-23364956D01*
X45306760Y-23364955D01*
X45189370Y-23349501D01*
X45189367Y-23349500D01*
X45189361Y-23349500D01*
X45189354Y-23349500D01*
X43910636Y-23349500D01*
X43793246Y-23364953D01*
X43793237Y-23364956D01*
X43647160Y-23425463D01*
X43521718Y-23521718D01*
X43425463Y-23647160D01*
X43364956Y-23793237D01*
X43364955Y-23793239D01*
X43350966Y-23899500D01*
X43349501Y-23910636D01*
X43349500Y-23910645D01*
X43349500Y-25589363D01*
X43364953Y-25706753D01*
X43364957Y-25706765D01*
X43425461Y-25852836D01*
X43429526Y-25859876D01*
X43427783Y-25860882D01*
X43449069Y-25915932D01*
X43449500Y-25926257D01*
X43449500Y-28786610D01*
X43475807Y-28952710D01*
X43476598Y-28957701D01*
X43530127Y-29122445D01*
X43608768Y-29276788D01*
X43710586Y-29416928D01*
X43710588Y-29416930D01*
X44633181Y-30339523D01*
X44666666Y-30400846D01*
X44669500Y-30427204D01*
X44669500Y-33680883D01*
X44649815Y-33747922D01*
X44620987Y-33779258D01*
X44591721Y-33801714D01*
X44495463Y-33927160D01*
X44434956Y-34073237D01*
X44434955Y-34073239D01*
X44425740Y-34143238D01*
X44419501Y-34190636D01*
X44419500Y-34190645D01*
X44419500Y-35869363D01*
X44434953Y-35986753D01*
X44434956Y-35986762D01*
X44488054Y-36114953D01*
X44495464Y-36132841D01*
X44591718Y-36258282D01*
X44620987Y-36280740D01*
X44662189Y-36337165D01*
X44669500Y-36379115D01*
X44669500Y-42426610D01*
X44692482Y-42571718D01*
X44696598Y-42597701D01*
X44750127Y-42762445D01*
X44828768Y-42916788D01*
X44930586Y-43056928D01*
X44930588Y-43056930D01*
X45011477Y-43137819D01*
X45044962Y-43199142D01*
X45039978Y-43268834D01*
X44998106Y-43324767D01*
X44932642Y-43349184D01*
X44923796Y-43349500D01*
X43860636Y-43349500D01*
X43743246Y-43364953D01*
X43743237Y-43364956D01*
X43597157Y-43425464D01*
X43534067Y-43473876D01*
X43468898Y-43499070D01*
X43458581Y-43499500D01*
X43224500Y-43499500D01*
X43157461Y-43479815D01*
X43111706Y-43427011D01*
X43100500Y-43375500D01*
X43100499Y-42960636D01*
X43085046Y-42843246D01*
X43085044Y-42843241D01*
X43085044Y-42843238D01*
X43024536Y-42697159D01*
X42928282Y-42571718D01*
X42802841Y-42475464D01*
X42791745Y-42470868D01*
X42656762Y-42414956D01*
X42656760Y-42414955D01*
X42539370Y-42399501D01*
X42539367Y-42399500D01*
X42539361Y-42399500D01*
X42539354Y-42399500D01*
X41553651Y-42399500D01*
X41486612Y-42379815D01*
X41465970Y-42363181D01*
X41224969Y-42122180D01*
X41191484Y-42060857D01*
X41196468Y-41991165D01*
X41238340Y-41935232D01*
X41303804Y-41910815D01*
X41312650Y-41910499D01*
X42189363Y-41910499D01*
X42306753Y-41895046D01*
X42306757Y-41895044D01*
X42306762Y-41895044D01*
X42452841Y-41834536D01*
X42578282Y-41738282D01*
X42674536Y-41612841D01*
X42735044Y-41466762D01*
X42750500Y-41349361D01*
X42750499Y-40470640D01*
X42750499Y-40470639D01*
X42750499Y-40470636D01*
X42735046Y-40353246D01*
X42735044Y-40353242D01*
X42735044Y-40353238D01*
X42722291Y-40322452D01*
X42714823Y-40252984D01*
X42722290Y-40227550D01*
X42735044Y-40196762D01*
X42750500Y-40079361D01*
X42750499Y-39294499D01*
X42770183Y-39227461D01*
X42822987Y-39181706D01*
X42874499Y-39170500D01*
X42948844Y-39170500D01*
X42948845Y-39170499D01*
X43103497Y-39139737D01*
X43249179Y-39079394D01*
X43380289Y-38991789D01*
X43991789Y-38380289D01*
X44079394Y-38249179D01*
X44139738Y-38103497D01*
X44170500Y-37948842D01*
X44170500Y-37791157D01*
X44170500Y-35701158D01*
X44170500Y-35701155D01*
X44170499Y-35701153D01*
X44139737Y-35546503D01*
X44139735Y-35546498D01*
X44079397Y-35400827D01*
X44079390Y-35400814D01*
X43991790Y-35269712D01*
X43973236Y-35251158D01*
X43880289Y-35158211D01*
X43856818Y-35134740D01*
X43823333Y-35073417D01*
X43820499Y-35047059D01*
X43820499Y-34190636D01*
X43805046Y-34073246D01*
X43805044Y-34073239D01*
X43805044Y-34073238D01*
X43744536Y-33927159D01*
X43648282Y-33801718D01*
X43648280Y-33801717D01*
X43648280Y-33801716D01*
X43522841Y-33705464D01*
X43522840Y-33705463D01*
X43497046Y-33694779D01*
X43442643Y-33650937D01*
X43420579Y-33584642D01*
X43420500Y-33580218D01*
X43420500Y-33568310D01*
X43440185Y-33501271D01*
X43492989Y-33455516D01*
X43528317Y-33445371D01*
X43606753Y-33435046D01*
X43606757Y-33435044D01*
X43606762Y-33435044D01*
X43752841Y-33374536D01*
X43878282Y-33278282D01*
X43974536Y-33152841D01*
X44035044Y-33006762D01*
X44050500Y-32889361D01*
X44050499Y-31210640D01*
X44050499Y-31210639D01*
X44050499Y-31210636D01*
X44035046Y-31093246D01*
X44035044Y-31093239D01*
X44035044Y-31093238D01*
X43974536Y-30947159D01*
X43878282Y-30821718D01*
X43752841Y-30725464D01*
X43606762Y-30664956D01*
X43606760Y-30664955D01*
X43489370Y-30649501D01*
X43489367Y-30649500D01*
X43489361Y-30649500D01*
X43489354Y-30649500D01*
X42210636Y-30649500D01*
X42093246Y-30664953D01*
X42093237Y-30664956D01*
X41947160Y-30725463D01*
X41821718Y-30821718D01*
X41725463Y-30947160D01*
X41664956Y-31093237D01*
X41664955Y-31093239D01*
X41649501Y-31210629D01*
X41649501Y-31210636D01*
X41649500Y-31210645D01*
X41649500Y-32889363D01*
X41664953Y-33006753D01*
X41664957Y-33006765D01*
X41725461Y-33152836D01*
X41725461Y-33152837D01*
X41725463Y-33152839D01*
X41725464Y-33152841D01*
X41793876Y-33241998D01*
X41819070Y-33307166D01*
X41819500Y-33317483D01*
X41819500Y-33580218D01*
X41799815Y-33647257D01*
X41747011Y-33693012D01*
X41742954Y-33694779D01*
X41717159Y-33705463D01*
X41717158Y-33705464D01*
X41591719Y-33801716D01*
X41495463Y-33927160D01*
X41434956Y-34073237D01*
X41434955Y-34073239D01*
X41425740Y-34143238D01*
X41419501Y-34190636D01*
X41419500Y-34190645D01*
X41419500Y-35869363D01*
X41431342Y-35959317D01*
X41420575Y-36028352D01*
X41374195Y-36080607D01*
X41308403Y-36099500D01*
X41170812Y-36099500D01*
X41103773Y-36079815D01*
X41058018Y-36027011D01*
X41047873Y-35959314D01*
X41050499Y-35939368D01*
X41050500Y-35939361D01*
X41050499Y-34260640D01*
X41050499Y-34260639D01*
X41050499Y-34260636D01*
X41035046Y-34143246D01*
X41035044Y-34143239D01*
X41035044Y-34143238D01*
X40974536Y-33997159D01*
X40878282Y-33871718D01*
X40752841Y-33775464D01*
X40752840Y-33775463D01*
X40749013Y-33772527D01*
X40707811Y-33716099D01*
X40700500Y-33674151D01*
X40700500Y-33475848D01*
X40720185Y-33408809D01*
X40749014Y-33377472D01*
X40752839Y-33374536D01*
X40752841Y-33374536D01*
X40878282Y-33278282D01*
X40974536Y-33152841D01*
X41035044Y-33006762D01*
X41050500Y-32889361D01*
X41050499Y-31210640D01*
X41050499Y-31210639D01*
X41050499Y-31210636D01*
X41035046Y-31093246D01*
X41035044Y-31093239D01*
X41035044Y-31093238D01*
X40974536Y-30947159D01*
X40878282Y-30821718D01*
X40752841Y-30725464D01*
X40606762Y-30664956D01*
X40606760Y-30664955D01*
X40489370Y-30649501D01*
X40489367Y-30649500D01*
X40489361Y-30649500D01*
X40489354Y-30649500D01*
X39653651Y-30649500D01*
X39586612Y-30629815D01*
X39565970Y-30613181D01*
X39036819Y-30084030D01*
X39003334Y-30022707D01*
X39000500Y-29996349D01*
X39000500Y-28216232D01*
X39000499Y-28216228D01*
X38967817Y-28051925D01*
X38967816Y-28051918D01*
X38903703Y-27897137D01*
X38810626Y-27757838D01*
X38692162Y-27639374D01*
X36736818Y-25684029D01*
X36703333Y-25622706D01*
X36700499Y-25596357D01*
X36700499Y-23860645D01*
X37499500Y-23860645D01*
X37499500Y-25639363D01*
X37514953Y-25756753D01*
X37514956Y-25756762D01*
X37575464Y-25902841D01*
X37671718Y-26028282D01*
X37797159Y-26124536D01*
X37943238Y-26185044D01*
X38060639Y-26200500D01*
X39539360Y-26200499D01*
X39539363Y-26200499D01*
X39656753Y-26185046D01*
X39656757Y-26185044D01*
X39656762Y-26185044D01*
X39802841Y-26124536D01*
X39928282Y-26028282D01*
X40024536Y-25902841D01*
X40085044Y-25756762D01*
X40091422Y-25708314D01*
X40119688Y-25644418D01*
X40178013Y-25605947D01*
X40214361Y-25600500D01*
X40242222Y-25600500D01*
X40309261Y-25620185D01*
X40355016Y-25672989D01*
X40362487Y-25699009D01*
X40362853Y-25698912D01*
X40364956Y-25706762D01*
X40425464Y-25852841D01*
X40521718Y-25978282D01*
X40647159Y-26074536D01*
X40793238Y-26135044D01*
X40910639Y-26150500D01*
X42189360Y-26150499D01*
X42189363Y-26150499D01*
X42306753Y-26135046D01*
X42306757Y-26135044D01*
X42306762Y-26135044D01*
X42452841Y-26074536D01*
X42578282Y-25978282D01*
X42674536Y-25852841D01*
X42735044Y-25706762D01*
X42750500Y-25589361D01*
X42750499Y-23910640D01*
X42750499Y-23910639D01*
X42750499Y-23910636D01*
X42735046Y-23793246D01*
X42735044Y-23793239D01*
X42735044Y-23793238D01*
X42674536Y-23647159D01*
X42578282Y-23521718D01*
X42452841Y-23425464D01*
X42306762Y-23364956D01*
X42306760Y-23364955D01*
X42189370Y-23349501D01*
X42189367Y-23349500D01*
X42189361Y-23349500D01*
X42189354Y-23349500D01*
X40910636Y-23349500D01*
X40793246Y-23364953D01*
X40793237Y-23364956D01*
X40647160Y-23425463D01*
X40521718Y-23521718D01*
X40425463Y-23647160D01*
X40364956Y-23793237D01*
X40362853Y-23801088D01*
X40361196Y-23800644D01*
X40336899Y-23855576D01*
X40278577Y-23894051D01*
X40242222Y-23899500D01*
X40214361Y-23899500D01*
X40147322Y-23879815D01*
X40101567Y-23827011D01*
X40091422Y-23791683D01*
X40085046Y-23743246D01*
X40085044Y-23743239D01*
X40085044Y-23743238D01*
X40024536Y-23597159D01*
X39928282Y-23471718D01*
X39802841Y-23375464D01*
X39782047Y-23366851D01*
X39656762Y-23314956D01*
X39656760Y-23314955D01*
X39539370Y-23299501D01*
X39539367Y-23299500D01*
X39539361Y-23299500D01*
X39539354Y-23299500D01*
X38060636Y-23299500D01*
X37943246Y-23314953D01*
X37943237Y-23314956D01*
X37797160Y-23375463D01*
X37671718Y-23471718D01*
X37575463Y-23597160D01*
X37514956Y-23743237D01*
X37514955Y-23743239D01*
X37499501Y-23860629D01*
X37499501Y-23860636D01*
X37499500Y-23860645D01*
X36700499Y-23860645D01*
X36700499Y-23860640D01*
X36700499Y-23860639D01*
X36700499Y-23860636D01*
X36685046Y-23743246D01*
X36685044Y-23743239D01*
X36685044Y-23743238D01*
X36624536Y-23597159D01*
X36528282Y-23471718D01*
X36402841Y-23375464D01*
X36382047Y-23366851D01*
X36256762Y-23314956D01*
X36256760Y-23314955D01*
X36139370Y-23299501D01*
X36139367Y-23299500D01*
X36139361Y-23299500D01*
X36139354Y-23299500D01*
X34660636Y-23299500D01*
X34543246Y-23314953D01*
X34543237Y-23314956D01*
X34397160Y-23375463D01*
X34271718Y-23471718D01*
X34175463Y-23597160D01*
X34114956Y-23743237D01*
X34114955Y-23743239D01*
X34108578Y-23791685D01*
X34080312Y-23855582D01*
X34021987Y-23894053D01*
X33985639Y-23899500D01*
X32616228Y-23899500D01*
X32451925Y-23932182D01*
X32451913Y-23932185D01*
X32406583Y-23950962D01*
X32297143Y-23996292D01*
X32157831Y-24089379D01*
X32157830Y-24089380D01*
X30334375Y-25912834D01*
X30334372Y-25912838D01*
X30241297Y-26052133D01*
X30241296Y-26052136D01*
X30218576Y-26106988D01*
X30218576Y-26106989D01*
X30177184Y-26206917D01*
X30177182Y-26206925D01*
X30144500Y-26371228D01*
X30144500Y-26833797D01*
X30124815Y-26900836D01*
X30072011Y-26946591D01*
X30067953Y-26948358D01*
X29942160Y-27000463D01*
X29816718Y-27096718D01*
X29720462Y-27222161D01*
X29668359Y-27347952D01*
X29624518Y-27402356D01*
X29558224Y-27424421D01*
X29553798Y-27424500D01*
X28788389Y-27424500D01*
X28748728Y-27430781D01*
X28617302Y-27451597D01*
X28452552Y-27505128D01*
X28298211Y-27583768D01*
X28173331Y-27674500D01*
X28158066Y-27685590D01*
X27414275Y-28429381D01*
X27360049Y-28461102D01*
X27234938Y-28496157D01*
X26971382Y-28610634D01*
X26725853Y-28759944D01*
X26502950Y-28941289D01*
X26306812Y-29151299D01*
X26141098Y-29386064D01*
X26008894Y-29641206D01*
X25912667Y-29911962D01*
X25912666Y-29911965D01*
X25854201Y-30193319D01*
X25834592Y-30480000D01*
X25854201Y-30766680D01*
X25912666Y-31048034D01*
X25912667Y-31048037D01*
X26008894Y-31318793D01*
X26008893Y-31318793D01*
X26141098Y-31573935D01*
X26214902Y-31678493D01*
X26237480Y-31744614D01*
X26220726Y-31812445D01*
X26214902Y-31821507D01*
X26141098Y-31926064D01*
X26008894Y-32181206D01*
X25912667Y-32451962D01*
X25912666Y-32451965D01*
X25854201Y-32733319D01*
X25834592Y-33020000D01*
X25854201Y-33306680D01*
X25912666Y-33588034D01*
X25912667Y-33588037D01*
X26008894Y-33858793D01*
X26008893Y-33858793D01*
X26141098Y-34113935D01*
X26214902Y-34218493D01*
X26237480Y-34284614D01*
X26220726Y-34352445D01*
X26214902Y-34361507D01*
X26141098Y-34466064D01*
X26008894Y-34721206D01*
X25912667Y-34991962D01*
X25912666Y-34991965D01*
X25878120Y-35158212D01*
X25854951Y-35269712D01*
X25854201Y-35273319D01*
X25834592Y-35560000D01*
X25854201Y-35846680D01*
X25854201Y-35846684D01*
X25854202Y-35846686D01*
X25865177Y-35899500D01*
X25912666Y-36128034D01*
X25912667Y-36128037D01*
X26008894Y-36398793D01*
X26008893Y-36398793D01*
X26141098Y-36653935D01*
X26214902Y-36758493D01*
X26237480Y-36824614D01*
X26220726Y-36892445D01*
X26214902Y-36901507D01*
X26141098Y-37006064D01*
X26008894Y-37261206D01*
X25912667Y-37531962D01*
X25912666Y-37531965D01*
X25854201Y-37813319D01*
X25834592Y-38100000D01*
X25854201Y-38386680D01*
X25912666Y-38668034D01*
X25912667Y-38668037D01*
X26008894Y-38938793D01*
X26008893Y-38938793D01*
X26141098Y-39193935D01*
X26214902Y-39298493D01*
X26237480Y-39364614D01*
X26220726Y-39432445D01*
X26214902Y-39441507D01*
X26141098Y-39546064D01*
X26008894Y-39801206D01*
X25912667Y-40071962D01*
X25912666Y-40071965D01*
X25854201Y-40353319D01*
X25834592Y-40640000D01*
X25854201Y-40926680D01*
X25912666Y-41208034D01*
X25912667Y-41208037D01*
X26008894Y-41478793D01*
X26008893Y-41478793D01*
X26141098Y-41733935D01*
X26306812Y-41968700D01*
X26502950Y-42178711D01*
X26725846Y-42360050D01*
X26725850Y-42360053D01*
X26725853Y-42360055D01*
X26779929Y-42392939D01*
X26826980Y-42444588D01*
X26839500Y-42498886D01*
X26839500Y-43076610D01*
X26859492Y-43202839D01*
X26866598Y-43247701D01*
X26899558Y-43349142D01*
X26920128Y-43412447D01*
X26947334Y-43465842D01*
X26998768Y-43566788D01*
X27100586Y-43706928D01*
X29533072Y-46139414D01*
X29673212Y-46241232D01*
X29746131Y-46278386D01*
X29827549Y-46319871D01*
X29827551Y-46319871D01*
X29827554Y-46319873D01*
X29992299Y-46373402D01*
X30163389Y-46400500D01*
X30336610Y-46400500D01*
X31223743Y-46400500D01*
X31290782Y-46420185D01*
X31296099Y-46423924D01*
X31297157Y-46424534D01*
X31297159Y-46424536D01*
X31297160Y-46424536D01*
X31297163Y-46424538D01*
X31353801Y-46447998D01*
X31443238Y-46485044D01*
X31443244Y-46485044D01*
X31451088Y-46487147D01*
X31450644Y-46488803D01*
X31505576Y-46513101D01*
X31544051Y-46571423D01*
X31549500Y-46607778D01*
X31549500Y-46733771D01*
X31582181Y-46898074D01*
X31582184Y-46898083D01*
X31597494Y-46935044D01*
X31646292Y-47052856D01*
X31646299Y-47052869D01*
X31739372Y-47192161D01*
X31739375Y-47192165D01*
X32313181Y-47765970D01*
X32346666Y-47827293D01*
X32349500Y-47853651D01*
X32349500Y-48689609D01*
X32329815Y-48756648D01*
X32277011Y-48802403D01*
X32207853Y-48812347D01*
X32149338Y-48787463D01*
X32109747Y-48756648D01*
X32023509Y-48689526D01*
X32023507Y-48689525D01*
X32023506Y-48689524D01*
X31804811Y-48571172D01*
X31804802Y-48571169D01*
X31569616Y-48490429D01*
X31324335Y-48449500D01*
X31075665Y-48449500D01*
X30830383Y-48490429D01*
X30595197Y-48571169D01*
X30595188Y-48571172D01*
X30376493Y-48689524D01*
X30180257Y-48842261D01*
X30011833Y-49025217D01*
X29875826Y-49233393D01*
X29775936Y-49461118D01*
X29714892Y-49702175D01*
X29714890Y-49702187D01*
X29696595Y-49922987D01*
X29694357Y-49950000D01*
X29702353Y-50046496D01*
X29714224Y-50189760D01*
X29714224Y-50210240D01*
X29694357Y-50450000D01*
X29714224Y-50689760D01*
X29714224Y-50710240D01*
X29694357Y-50950000D01*
X29714224Y-51189760D01*
X29714224Y-51210240D01*
X29694358Y-51449994D01*
X29694357Y-51450005D01*
X29714890Y-51697812D01*
X29714892Y-51697824D01*
X29775936Y-51938881D01*
X29875826Y-52166606D01*
X30011833Y-52374782D01*
X30011836Y-52374785D01*
X30180256Y-52557738D01*
X30376491Y-52710474D01*
X30595190Y-52828828D01*
X30830386Y-52909571D01*
X31075665Y-52950500D01*
X31324335Y-52950500D01*
X31569614Y-52909571D01*
X31804810Y-52828828D01*
X32023509Y-52710474D01*
X32219744Y-52557738D01*
X32388164Y-52374785D01*
X32524173Y-52166607D01*
X32624063Y-51938881D01*
X32685108Y-51697821D01*
X32685109Y-51697812D01*
X32705643Y-51450005D01*
X32705643Y-51449994D01*
X32685776Y-51210240D01*
X32685776Y-51189760D01*
X32705643Y-50950005D01*
X32705643Y-50949994D01*
X32685776Y-50710240D01*
X32685776Y-50689760D01*
X32705643Y-50450005D01*
X32705643Y-50449994D01*
X32685776Y-50210240D01*
X32685776Y-50189760D01*
X32702151Y-49992146D01*
X32705265Y-49954559D01*
X32730418Y-49889375D01*
X32786820Y-49848137D01*
X32845022Y-49841861D01*
X32910639Y-49850500D01*
X33554018Y-49850499D01*
X33621057Y-49870183D01*
X33666812Y-49922987D01*
X33676756Y-49992146D01*
X33655594Y-50045621D01*
X33619431Y-50097267D01*
X33523261Y-50303502D01*
X33523258Y-50303511D01*
X33464366Y-50523302D01*
X33464364Y-50523313D01*
X33444532Y-50749998D01*
X33444532Y-50750001D01*
X33464364Y-50976686D01*
X33464366Y-50976697D01*
X33523258Y-51196488D01*
X33523261Y-51196497D01*
X33619431Y-51402732D01*
X33619432Y-51402734D01*
X33749954Y-51589141D01*
X33910858Y-51750045D01*
X33910861Y-51750047D01*
X34097266Y-51880568D01*
X34303504Y-51976739D01*
X34523308Y-52035635D01*
X34685230Y-52049801D01*
X34749998Y-52055468D01*
X34750000Y-52055468D01*
X34750002Y-52055468D01*
X34806673Y-52050509D01*
X34976692Y-52035635D01*
X35196496Y-51976739D01*
X35402734Y-51880568D01*
X35589139Y-51750047D01*
X35750047Y-51589139D01*
X35880568Y-51402734D01*
X35976739Y-51196496D01*
X36035635Y-50976692D01*
X36055468Y-50750000D01*
X36055277Y-50747821D01*
X36049801Y-50685230D01*
X36035635Y-50523308D01*
X35976739Y-50303504D01*
X35880568Y-50097266D01*
X35844405Y-50045620D01*
X35822079Y-49979415D01*
X35839091Y-49911648D01*
X35890039Y-49863835D01*
X35945982Y-49850499D01*
X36689363Y-49850499D01*
X36806753Y-49835046D01*
X36806757Y-49835044D01*
X36806762Y-49835044D01*
X36952841Y-49774536D01*
X36974515Y-49757904D01*
X37039681Y-49732711D01*
X37108126Y-49746748D01*
X37125478Y-49757899D01*
X37147159Y-49774536D01*
X37147162Y-49774537D01*
X37147163Y-49774538D01*
X37188374Y-49791608D01*
X37293238Y-49835044D01*
X37410639Y-49850500D01*
X38154018Y-49850499D01*
X38221057Y-49870183D01*
X38266812Y-49922987D01*
X38276756Y-49992146D01*
X38255594Y-50045621D01*
X38219431Y-50097267D01*
X38123261Y-50303502D01*
X38123258Y-50303511D01*
X38064366Y-50523302D01*
X38064364Y-50523313D01*
X38044532Y-50749998D01*
X38044532Y-50750001D01*
X38064364Y-50976686D01*
X38064366Y-50976697D01*
X38123258Y-51196488D01*
X38123261Y-51196497D01*
X38219431Y-51402732D01*
X38219432Y-51402734D01*
X38349954Y-51589141D01*
X38510858Y-51750045D01*
X38510861Y-51750047D01*
X38697266Y-51880568D01*
X38903504Y-51976739D01*
X39123308Y-52035635D01*
X39285230Y-52049801D01*
X39349998Y-52055468D01*
X39350000Y-52055468D01*
X39350002Y-52055468D01*
X39406673Y-52050509D01*
X39576692Y-52035635D01*
X39796496Y-51976739D01*
X40002734Y-51880568D01*
X40189139Y-51750047D01*
X40350047Y-51589139D01*
X40480568Y-51402734D01*
X40576739Y-51196496D01*
X40635635Y-50976692D01*
X40655468Y-50750000D01*
X40655277Y-50747821D01*
X40649801Y-50685230D01*
X40635635Y-50523308D01*
X40576739Y-50303504D01*
X40480568Y-50097266D01*
X40444405Y-50045620D01*
X40422079Y-49979415D01*
X40439091Y-49911648D01*
X40490039Y-49863835D01*
X40545982Y-49850499D01*
X41189362Y-49850499D01*
X41256683Y-49841637D01*
X41325719Y-49852403D01*
X41377974Y-49898784D01*
X41396858Y-49966053D01*
X41396444Y-49974814D01*
X41394357Y-49999999D01*
X41414224Y-50239760D01*
X41414224Y-50260240D01*
X41394357Y-50500000D01*
X41414224Y-50739760D01*
X41414224Y-50760240D01*
X41394357Y-51000000D01*
X41414224Y-51239760D01*
X41414224Y-51260240D01*
X41394358Y-51499994D01*
X41394357Y-51500005D01*
X41414890Y-51747812D01*
X41414892Y-51747824D01*
X41475936Y-51988881D01*
X41575826Y-52216606D01*
X41711833Y-52424782D01*
X41711836Y-52424785D01*
X41880256Y-52607738D01*
X42076491Y-52760474D01*
X42295190Y-52878828D01*
X42530386Y-52959571D01*
X42775665Y-53000500D01*
X43024335Y-53000500D01*
X43269614Y-52959571D01*
X43504810Y-52878828D01*
X43723509Y-52760474D01*
X43919744Y-52607738D01*
X44088164Y-52424785D01*
X44224173Y-52216607D01*
X44324063Y-51988881D01*
X44385108Y-51747821D01*
X44399519Y-51573908D01*
X44405643Y-51500005D01*
X44405643Y-51499994D01*
X44385776Y-51260240D01*
X44385776Y-51239760D01*
X44405643Y-51000005D01*
X44405643Y-50999994D01*
X44385776Y-50760240D01*
X44385776Y-50739760D01*
X44405643Y-50500005D01*
X44405643Y-50499994D01*
X44385776Y-50260240D01*
X44385776Y-50239760D01*
X44405643Y-50000005D01*
X44405643Y-49999994D01*
X44385109Y-49752187D01*
X44385107Y-49752175D01*
X44324063Y-49511118D01*
X44224173Y-49283393D01*
X44099340Y-49092321D01*
X44079153Y-49025432D01*
X44098333Y-48958246D01*
X44150791Y-48912096D01*
X44203149Y-48900500D01*
X44336610Y-48900500D01*
X44336611Y-48900500D01*
X44507701Y-48873402D01*
X44672445Y-48819873D01*
X44826788Y-48741232D01*
X44966928Y-48639414D01*
X47279414Y-46326928D01*
X47284542Y-46319871D01*
X47304346Y-46292610D01*
X47333911Y-46251919D01*
X47381232Y-46186788D01*
X47459873Y-46032445D01*
X47513402Y-45867701D01*
X47540500Y-45696611D01*
X47540500Y-42923389D01*
X47520428Y-42796660D01*
X47529382Y-42727369D01*
X47574379Y-42673917D01*
X47641130Y-42653277D01*
X47676354Y-42657861D01*
X47831642Y-42701371D01*
X48081920Y-42735771D01*
X48116321Y-42740500D01*
X48116322Y-42740500D01*
X48403679Y-42740500D01*
X48434370Y-42736281D01*
X48688358Y-42701371D01*
X48965058Y-42623844D01*
X49085064Y-42571718D01*
X49228617Y-42509365D01*
X49228620Y-42509363D01*
X49228625Y-42509361D01*
X49386072Y-42413614D01*
X49453579Y-42395601D01*
X49520109Y-42416944D01*
X49564539Y-42470868D01*
X49574500Y-42519563D01*
X49574500Y-49846948D01*
X49574351Y-49853033D01*
X49557947Y-50186928D01*
X49556754Y-50199037D01*
X49508151Y-50526694D01*
X49505777Y-50538630D01*
X49425292Y-50859944D01*
X49421759Y-50871588D01*
X49310170Y-51183459D01*
X49305514Y-51194702D01*
X49163885Y-51494151D01*
X49158148Y-51504883D01*
X48987862Y-51788988D01*
X48981102Y-51799106D01*
X48783775Y-52065170D01*
X48776055Y-52074576D01*
X48553611Y-52320006D01*
X48545006Y-52328611D01*
X48299576Y-52551055D01*
X48290170Y-52558775D01*
X48024106Y-52756102D01*
X48013988Y-52762862D01*
X47729883Y-52933148D01*
X47719151Y-52938885D01*
X47419702Y-53080514D01*
X47408459Y-53085170D01*
X47096588Y-53196759D01*
X47084944Y-53200292D01*
X46763630Y-53280777D01*
X46751694Y-53283151D01*
X46424037Y-53331754D01*
X46411928Y-53332947D01*
X46096989Y-53348419D01*
X46078031Y-53349351D01*
X46071949Y-53349500D01*
X28028051Y-53349500D01*
X28021968Y-53349351D01*
X28001900Y-53348365D01*
X27688071Y-53332947D01*
X27675962Y-53331754D01*
X27348305Y-53283151D01*
X27336369Y-53280777D01*
X27015055Y-53200292D01*
X27003411Y-53196759D01*
X26691540Y-53085170D01*
X26680301Y-53080515D01*
X26380844Y-52938883D01*
X26370121Y-52933150D01*
X26086011Y-52762862D01*
X26075893Y-52756102D01*
X25809829Y-52558775D01*
X25800423Y-52551055D01*
X25661102Y-52424782D01*
X25554986Y-52328604D01*
X25546395Y-52320013D01*
X25323944Y-52074576D01*
X25316224Y-52065170D01*
X25118895Y-51799103D01*
X25112137Y-51788988D01*
X25088797Y-51750047D01*
X24941844Y-51504871D01*
X24936120Y-51494163D01*
X24794479Y-51194688D01*
X24789829Y-51183459D01*
X24678240Y-50871588D01*
X24674707Y-50859944D01*
X24665958Y-50825015D01*
X24594219Y-50538617D01*
X24591848Y-50526694D01*
X24591346Y-50523313D01*
X24558539Y-50302146D01*
X24543245Y-50199037D01*
X24542052Y-50186927D01*
X24525649Y-49853032D01*
X24525500Y-49846948D01*
X24525500Y-26453051D01*
X24525649Y-26446967D01*
X24540213Y-26150499D01*
X24542052Y-26113068D01*
X24543245Y-26100962D01*
X24547165Y-26074536D01*
X24591849Y-25773296D01*
X24594218Y-25761385D01*
X24674710Y-25440043D01*
X24678240Y-25428411D01*
X24789835Y-25116525D01*
X24794476Y-25105318D01*
X24936124Y-24805828D01*
X24941840Y-24795136D01*
X25112145Y-24510998D01*
X25118888Y-24500905D01*
X25316232Y-24234818D01*
X25323935Y-24225433D01*
X25546405Y-23979975D01*
X25554975Y-23971405D01*
X25800433Y-23748935D01*
X25809818Y-23741232D01*
X26075905Y-23543888D01*
X26085998Y-23537145D01*
X26370136Y-23366840D01*
X26380828Y-23361124D01*
X26680318Y-23219476D01*
X26691525Y-23214835D01*
X27003412Y-23103239D01*
X27015043Y-23099710D01*
X27336385Y-23019218D01*
X27348296Y-23016849D01*
X27675962Y-22968244D01*
X27688068Y-22967052D01*
X28021967Y-22950648D01*
X28028051Y-22950500D01*
X28090892Y-22950500D01*
X46009108Y-22950500D01*
X46071949Y-22950500D01*
X46078032Y-22950648D01*
G37*
%TD.AperFunction*%
M02*
