<?xml version="1.0" standalone="no"?>
 <!DOCTYPE svg PUBLIC "-//W3C//DTD SVG 1.1//EN" 
 "http://www.w3.org/Graphics/SVG/1.1/DTD/svg11.dtd"> 
<svg
  xmlns:svg="http://www.w3.org/2000/svg"
  xmlns="http://www.w3.org/2000/svg"
  xmlns:xlink="http://www.w3.org/1999/xlink"
  version="1.1"
  width="210.0072mm" height="148.0058mm" viewBox="0.0000 0.0000 210.0072 148.0058">
<title>SVG Image created as QC-Hack_reDesign-F_Cu.svg date 2025/05/21 11:02:30 </title>
  <desc>Image generated by PCBNEW </desc>
<g style="fill:#000000; fill-opacity:1.0000;stroke:#000000; stroke-opacity:1.0000;
stroke-linecap:round; stroke-linejoin:round;"
 transform="translate(0 0) scale(1 1)">
</g>
<g style="fill:#000000; fill-opacity:1.0000; 
stroke:#000000; stroke-width:0.0212; stroke-opacity:1; 
stroke-linecap:round; stroke-linejoin:round;">
<rect x="-5.000000" y="-40.560000" width="52.376906" height="59.978250" rx="0.000000" />
</g>
<g style="fill:none; 
stroke:#FFFFFF; stroke-width:0.1875; stroke-opacity:1; 
stroke-linecap:round; stroke-linejoin:round;">
<g transform="rotate(-270.000000 2.0900 -26.1300)">
<text x="2.0900" y="-26.1300"
textLength="17.2572" font-size="4.0000" lengthAdjust="spacingAndGlyphs"
text-anchor="start" opacity="0" stroke-opacity="0">QC-Hack</text>
</g>
<g class="stroked-text"><desc>QC-Hack</desc>
<path style="fill:#FFFFFF; fill-opacity:1.0000; stroke:none;fill-rule:evenodd;"
d="M 4.2889,-25.9419
4.4489,-25.9228
4.6031,-25.8910
4.7517,-25.8465
4.8947,-25.7892
4.9411,-25.7673
5.0731,-25.6938
5.2115,-25.5944
5.3331,-25.4803
5.4378,-25.3516
5.5023,-25.2507
5.5774,-25.1004
5.6341,-24.9426
5.6723,-24.7771
5.6903,-24.6293
5.6950,-24.5019
5.6880,-24.3479
5.6669,-24.1997
5.6318,-24.0574
5.5730,-23.8987
5.4950,-23.7479
5.3999,-23.6084
5.2894,-23.4843
5.1637,-23.3756
5.0227,-23.2822
4.9352,-23.2357
4.7973,-23.1757
4.6529,-23.1281
4.5021,-23.0929
4.3447,-23.0702
4.1809,-23.0598
4.1248,-23.0591
3.9643,-23.0646
3.8110,-23.0809
3.6649,-23.1080
3.5068,-23.1524
3.4500,-23.1727
3.3053,-23.2367
3.1704,-23.3150
3.0452,-23.4078
2.9297,-23.5149
2.8395,-23.3784
2.7623,-23.2474
2.6910,-23.1067
2.6469,-23.0020
2.3655,-23.1192
2.4244,-23.2615
2.4964,-23.4036
2.5816,-23.5456
2.6651,-23.6672
2.7421,-23.7684
2.6685,-23.9186
2.6129,-24.0755
2.5754,-24.2392
2.5577,-24.3848
2.5535,-24.4997
2.8931,-24.4997
2.9045,-24.3426
2.9388,-24.1923
2.9744,-24.0959
3.0565,-24.2273
3.1204,-24.3636
3.1627,-24.4916
3.4441,-24.3949
3.3962,-24.2491
3.3301,-24.0969
3.2519,-23.9599
3.1617,-23.8382
3.1495,-23.8241
3.2590,-23.7226
3.3843,-23.6382
3.5257,-23.5711
3.6829,-23.5212
3.8562,-23.4885
4.0063,-23.4748
4.1255,-23.4717
4.2830,-23.4776
4.4315,-23.4955
4.5903,-23.5305
4.7376,-23.5811
4.7725,-23.5962
4.9032,-23.6657
5.0317,-23.7612
5.1404,-23.8751
5.2019,-23.9611
5.2759,-24.1006
5.3257,-24.2495
5.3513,-24.4077
5.3551,-24.4997
5.3442,-24.6622
5.3116,-24.8139
5.2572,-24.9549
5.1811,-25.0851
5.0833,-25.2045
5.0458,-25.2419
4.9195,-25.3420
4.7716,-25.4214
4.6321,-25.4718
4.4776,-25.5077
4.3083,-25.5293
4.1241,-25.5365
3.9449,-25.5294
3.7793,-25.5080
3.6271,-25.4724
3.4885,-25.4226
3.3401,-25.3440
3.2111,-25.2449
3.1030,-25.1298
3.0173,-25.0034
2.9540,-24.8655
2.9130,-24.7163
2.8943,-24.5557
2.8931,-24.4997
2.5535,-24.4997
2.5531,-24.5099
2.5601,-24.6611
2.5810,-24.8070
2.6231,-24.9703
2.6842,-25.1264
2.7517,-25.2544
2.8465,-25.3929
2.9568,-25.5168
3.0824,-25.6260
3.2233,-25.7206
3.3107,-25.7680
3.4492,-25.8293
3.5940,-25.8779
3.7453,-25.9138
3.9030,-25.9370
4.0672,-25.9476
4.1233,-25.9483
Z" /> 
<path style="fill:#FFFFFF; fill-opacity:1.0000; stroke:none;fill-rule:evenodd;"
d="M 3.6786,-20.3839
3.5775,-19.9839
3.4271,-20.0282
3.2883,-20.0822
3.1371,-20.1601
3.0026,-20.2521
2.8847,-20.3581
2.8154,-20.4367
2.7263,-20.5641
2.6556,-20.7018
2.6033,-20.8497
2.5695,-21.0078
2.5541,-21.1762
2.5531,-21.2346
2.5580,-21.3829
2.5767,-21.5491
2.6096,-21.7024
2.6564,-21.8429
2.7289,-21.9907
2.7531,-22.0297
2.8492,-22.1564
2.9624,-22.2691
3.0927,-22.3679
3.2401,-22.4527
3.3320,-22.4949
3.4763,-22.5492
3.6245,-22.5923
3.7766,-22.6241
3.9326,-22.6447
4.0926,-22.6540
4.1468,-22.6547
4.3206,-22.6483
4.4858,-22.6293
4.6425,-22.5976
4.7906,-22.5533
4.9302,-22.4962
4.9748,-22.4744
5.1212,-22.3883
5.2513,-22.2875
5.3651,-22.1722
5.4627,-22.0423
5.5111,-21.9615
5.5828,-21.8125
5.6369,-21.6572
5.6733,-21.4955
5.6922,-21.3276
5.6950,-21.2288
5.6868,-21.0638
5.6622,-20.9089
5.6211,-20.7642
5.5524,-20.6082
5.4613,-20.4660
5.3499,-20.3397
5.2203,-20.2314
5.0947,-20.1528
4.9557,-20.0874
4.8033,-20.0352
4.7103,-20.4294
4.8490,-20.4798
4.9860,-20.5485
5.1128,-20.6401
5.2012,-20.7342
5.2823,-20.8692
5.3334,-21.0243
5.3537,-21.1810
5.3551,-21.2368
5.3470,-21.3837
5.3180,-21.5382
5.2680,-21.6785
5.1865,-21.8194
5.0826,-21.9399
4.9605,-22.0385
4.8202,-22.1152
4.7344,-22.1484
4.5915,-22.1897
4.4463,-22.2192
4.2988,-22.2370
4.1490,-22.2429
3.9835,-22.2375
3.8275,-22.2214
3.6809,-22.1946
3.5250,-22.1508
3.4697,-22.1308
3.3341,-22.0666
3.2034,-21.9759
3.0957,-21.8657
3.0367,-21.7813
2.9673,-21.6446
2.9206,-21.5019
2.8966,-21.3530
2.8931,-21.2676
2.9055,-21.1062
2.9425,-20.9577
3.0044,-20.8219
3.0909,-20.6990
3.2018,-20.5919
3.3368,-20.5037
3.4745,-20.4420
3.6306,-20.3948
Z" /> 
<path style="fill:#FFFFFF; fill-opacity:1.0000; stroke:none;fill-rule:evenodd;"
d="M 3.4910,-19.7003
3.8662,-19.7003
3.8662,-18.5609
3.4910,-18.5609
Z" /> 
<path style="fill:#FFFFFF; fill-opacity:1.0000; stroke:none;fill-rule:evenodd;"
d="M 2.6000,-18.0986
5.6481,-18.0986
5.6481,-17.6985
4.3820,-17.6985
4.3820,-16.1283
5.6481,-16.1283
5.6481,-15.7282
2.6000,-15.7282
2.6000,-16.1283
4.0303,-16.1283
4.0303,-17.6985
2.6000,-17.6985
Z" /> 
<path style="fill:#FFFFFF; fill-opacity:1.0000; stroke:none;fill-rule:evenodd;"
d="M 3.3324,-15.2373
3.4745,-15.1846
3.4829,-15.1801
3.6042,-15.0957
3.6984,-14.9889
3.7736,-14.8543
3.8215,-14.7214
3.8520,-14.5740
3.8745,-14.4188
3.8779,-14.3917
3.8989,-14.2316
3.9253,-14.0658
3.9579,-13.9041
3.9976,-13.7575
4.0068,-13.7300
4.1036,-13.7286
4.2536,-13.7433
4.3887,-13.8032
4.4208,-13.8333
4.4972,-13.9594
4.5362,-14.1092
4.5461,-14.2561
4.5375,-14.4062
4.5046,-14.5510
4.4582,-14.6423
4.3461,-14.7449
4.2011,-14.8109
4.1475,-14.8269
4.1973,-15.1896
4.3422,-15.1479
4.4767,-15.0855
4.5615,-15.0270
4.6640,-14.9181
4.7397,-14.7882
4.7755,-14.6994
4.8184,-14.5438
4.8420,-14.3883
4.8506,-14.2370
4.8509,-14.2019
4.8457,-14.0528
4.8274,-13.9065
4.7884,-13.7579
4.7843,-13.7469
4.7200,-13.6115
4.6242,-13.4949
4.6179,-13.4897
4.4881,-13.4123
4.3637,-13.3739
4.2081,-13.3591
4.0505,-13.3557
4.0200,-13.3556
3.5225,-13.3556
3.3693,-13.3550
3.2100,-13.3528
3.0583,-13.3482
2.9049,-13.3377
2.8645,-13.3322
2.7213,-13.2934
2.6000,-13.2376
2.6000,-13.6253
2.7461,-13.6772
2.8770,-13.6993
2.7855,-13.8139
2.7031,-13.9386
2.6359,-14.0724
2.6264,-14.0964
2.5817,-14.2432
2.5577,-14.3978
2.5569,-14.4166
2.8462,-14.4166
2.8595,-14.2624
2.9039,-14.1107
2.9407,-14.0356
3.0296,-13.9145
3.1510,-13.8168
3.2008,-13.7901
3.3464,-13.7470
3.5013,-13.7315
3.5760,-13.7300
3.7137,-13.7300
3.6653,-13.8761
3.6299,-14.0213
3.6014,-14.1690
3.5753,-14.3360
3.5488,-14.4887
3.5101,-14.6340
3.4998,-14.6599
3.4108,-14.7816
3.3774,-14.8064
3.2344,-14.8559
3.1979,-14.8577
3.0518,-14.8261
2.9466,-14.7456
2.8745,-14.6171
2.8478,-14.4690
2.8462,-14.4166
2.5569,-14.4166
2.5531,-14.5053
2.5616,-14.6550
2.5922,-14.8067
2.6533,-14.9525
2.7312,-15.0599
2.8521,-15.1619
2.9924,-15.2262
3.1519,-15.2526
3.1862,-15.2534
Z" /> 
<path style="fill:#FFFFFF; fill-opacity:1.0000; stroke:none;fill-rule:evenodd;"
d="M 3.3972,-11.3633
3.3496,-10.9984
3.1938,-11.0336
3.0536,-11.0866
2.9123,-11.1690
2.7912,-11.2747
2.7641,-11.3047
2.6718,-11.4349
2.6059,-11.5791
2.5663,-11.7375
2.5533,-11.8876
2.5531,-11.9099
2.5635,-12.0722
2.5945,-12.2221
2.6463,-12.3596
2.7329,-12.5044
2.8295,-12.6152
2.8477,-12.6324
2.9674,-12.7250
3.1051,-12.7985
3.2608,-12.8528
3.4042,-12.8834
3.5602,-12.9007
3.6940,-12.9050
3.8455,-12.8994
4.0082,-12.8792
4.1597,-12.8444
4.3000,-12.7950
4.3168,-12.7877
4.4566,-12.7118
4.5752,-12.6165
4.6726,-12.5021
4.7176,-12.4302
4.7820,-12.2917
4.8254,-12.1466
4.8477,-11.9949
4.8509,-11.9077
4.8423,-11.7579
4.8112,-11.6019
4.7574,-11.4622
4.6700,-11.3245
4.5562,-11.2096
4.4184,-11.1206
4.2757,-11.0632
4.1563,-11.0336
4.1006,-11.3941
4.2402,-11.4392
4.3714,-11.5166
4.4340,-11.5773
4.5145,-11.7116
4.5451,-11.8588
4.5461,-11.8931
4.5301,-12.0426
4.4748,-12.1891
4.3800,-12.3151
4.3439,-12.3488
4.2115,-12.4335
4.0626,-12.4855
3.9082,-12.5130
3.7580,-12.5233
3.7042,-12.5240
3.5462,-12.5180
3.3835,-12.4960
3.2259,-12.4511
3.0848,-12.3752
3.0587,-12.3547
2.9528,-12.2389
2.8862,-12.1031
2.8587,-11.9472
2.8579,-11.9136
2.8765,-11.7600
2.9384,-11.6167
2.9898,-11.5494
3.1093,-11.4546
3.2539,-11.3940
Z" /> 
<path style="fill:#FFFFFF; fill-opacity:1.0000; stroke:none;fill-rule:evenodd;"
d="M 2.6000,-10.6907
5.6481,-10.6907
5.6481,-10.3199
3.9072,-10.3199
4.8040,-9.4421
4.8040,-8.9622
3.9863,-9.7989
2.6000,-8.8772
2.6000,-9.3351
3.7269,-10.0583
3.4734,-10.3199
2.6000,-10.3199
Z" /> 
</g></g>
<g style="fill:#FFFFFF; fill-opacity:1.0000; stroke:none;">
<circle cx="11.8900" cy="-5.1300" r="0.7000" /> 
</g>
<g style="fill:#FFFFFF; fill-opacity:1.0000; stroke:none;">
<circle cx="16.4900" cy="-5.1300" r="0.7000" /> 
<path style="fill:#FFFFFF; fill-opacity:1.0000; stroke:none;fill-rule:evenodd;"
d="M 17.0900,-6.6300
17.0900,-8.6300
18.2900,-8.6300
18.2900,-6.6300
Z" /> 
<path style="fill:#FFFFFF; fill-opacity:1.0000; stroke:none;fill-rule:evenodd;"
d="M 14.5900,-6.6300
14.5900,-8.6300
15.7900,-8.6300
15.7900,-6.6300
Z" /> 
<path style="fill:#FFFFFF; fill-opacity:1.0000; stroke:none;fill-rule:evenodd;"
d="M 12.5900,-6.6300
12.5900,-8.6300
13.7900,-8.6300
13.7900,-6.6300
Z" /> 
<path style="fill:#FFFFFF; fill-opacity:1.0000; stroke:none;fill-rule:evenodd;"
d="M 10.0900,-6.6300
10.0900,-8.6300
11.2900,-8.6300
11.2900,-6.6300
Z" /> 
</g>
<g style="fill:#FFFFFF; fill-opacity:1.0000; stroke:none;">
<circle cx="8.3400" cy="-5.9300" r="0.9000" /> 
</g>
<g style="fill:#FFFFFF; fill-opacity:1.0000; stroke:none;">
<circle cx="8.3400" cy="-5.4300" r="0.9000" /> 
</g>
<g style="fill:#FFFFFF; fill-opacity:1.0000; stroke:none;">
<circle cx="8.3400" cy="-4.9300" r="0.9000" /> 
</g>
<g style="fill:#FFFFFF; fill-opacity:1.0000; stroke:none;">
<circle cx="8.3400" cy="-4.4300" r="0.9000" /> 
</g>
<g style="fill:#FFFFFF; fill-opacity:1.0000; stroke:none;">
<circle cx="20.0400" cy="-5.8800" r="0.9000" /> 
</g>
<g style="fill:#FFFFFF; fill-opacity:1.0000; stroke:none;">
<circle cx="20.0400" cy="-5.3800" r="0.9000" /> 
</g>
<g style="fill:#FFFFFF; fill-opacity:1.0000; stroke:none;">
<circle cx="20.0400" cy="-4.8800" r="0.9000" /> 
</g>
<g style="fill:#FFFFFF; fill-opacity:1.0000; stroke:none;">
<circle cx="20.0400" cy="-4.3800" r="0.9000" /> 
<path style="fill:#FFFFFF; fill-opacity:1.0000; stroke:none;fill-rule:evenodd;"
d="M 11.8900,-13.7300
13.4900,-13.7300
13.4900,-12.5300
11.8900,-12.5300
Z" /> 
<path style="fill:#FFFFFF; fill-opacity:1.0000; stroke:none;fill-rule:evenodd;"
d="M 11.8900,-10.7300
13.4900,-10.7300
13.4900,-9.5300
11.8900,-9.5300
Z" /> 
<path style="fill:#FFFFFF; fill-opacity:1.0000; stroke:none;fill-rule:evenodd;"
d="M 13.3900,-19.9800
13.3900,-21.5800
14.5900,-21.5800
14.5900,-19.9800
Z" /> 
<path style="fill:#FFFFFF; fill-opacity:1.0000; stroke:none;fill-rule:evenodd;"
d="M 16.3900,-19.9800
16.3900,-21.5800
17.5900,-21.5800
17.5900,-19.9800
Z" /> 
<path style="fill:#FFFFFF; fill-opacity:1.0000; stroke:none;fill-rule:evenodd;"
d="M 8.7400,-14.1800
10.3400,-14.1800
10.3400,-12.9800
8.7400,-12.9800
Z" /> 
<path style="fill:#FFFFFF; fill-opacity:1.0000; stroke:none;fill-rule:evenodd;"
d="M 8.7400,-11.1800
10.3400,-11.1800
10.3400,-9.9800
8.7400,-9.9800
Z" /> 
<path style="fill:#FFFFFF; fill-opacity:1.0000; stroke:none;fill-rule:evenodd;"
d="M 22.2900,-31.9300
22.2900,-30.3300
21.0900,-30.3300
21.0900,-31.9300
Z" /> 
<path style="fill:#FFFFFF; fill-opacity:1.0000; stroke:none;fill-rule:evenodd;"
d="M 19.2900,-31.9300
19.2900,-30.3300
18.0900,-30.3300
18.0900,-31.9300
Z" /> 
<path style="fill:#FFFFFF; fill-opacity:1.0000; stroke:none;fill-rule:evenodd;"
d="M 20.1400,-15.3800
20.1400,-17.0800
22.6400,-17.0800
22.6400,-15.3800
Z" /> 
<path style="fill:#FFFFFF; fill-opacity:1.0000; stroke:none;fill-rule:evenodd;"
d="M 11.8400,-30.2800
11.8400,-31.9800
13.2400,-31.9800
13.2400,-30.2800
Z" /> 
<path style="fill:#FFFFFF; fill-opacity:1.0000; stroke:none;fill-rule:evenodd;"
d="M 15.2400,-30.2800
15.2400,-31.9800
16.6400,-31.9800
16.6400,-30.2800
Z" /> 
<path style="fill:#FFFFFF; fill-opacity:1.0000; stroke:none;fill-rule:evenodd;"
d="M 8.7400,-19.3800
10.3400,-19.3800
10.3400,-18.1800
8.7400,-18.1800
Z" /> 
<path style="fill:#FFFFFF; fill-opacity:1.0000; stroke:none;fill-rule:evenodd;"
d="M 8.7400,-16.3800
10.3400,-16.3800
10.3400,-15.1800
8.7400,-15.1800
Z" /> 
<path style="fill:#FFFFFF; fill-opacity:1.0000; stroke:none;fill-rule:evenodd;"
d="M 20.2900,-29.0800
20.2900,-26.0800
17.2900,-26.0800
17.2900,-29.0800
Z" /> 
</g>
<g style="fill:#FFFFFF; fill-opacity:1.0000; stroke:none;">
<circle cx="15.2900" cy="-27.5800" r="1.5000" /> 
<path style="fill:#FFFFFF; fill-opacity:1.0000; stroke:none;fill-rule:evenodd;"
d="M 14.3400,-13.7800
15.9400,-13.7800
15.9400,-12.5800
14.3400,-12.5800
Z" /> 
<path style="fill:#FFFFFF; fill-opacity:1.0000; stroke:none;fill-rule:evenodd;"
d="M 14.3400,-10.7800
15.9400,-10.7800
15.9400,-9.5800
14.3400,-9.5800
Z" /> 
<path style="fill:#FFFFFF; fill-opacity:1.0000; stroke:none;fill-rule:evenodd;"
d="M 24.5900,-21.8800
24.5900,-20.2800
23.3900,-20.2800
23.3900,-21.8800
Z" /> 
<path style="fill:#FFFFFF; fill-opacity:1.0000; stroke:none;fill-rule:evenodd;"
d="M 21.5900,-21.8800
21.5900,-20.2800
20.3900,-20.2800
20.3900,-21.8800
Z" /> 
<path style="fill:#FFFFFF; fill-opacity:1.0000; stroke:none;fill-rule:evenodd;"
d="M 11.6900,-18.3800
11.6900,-19.1800
13.6900,-19.1800
13.6900,-18.3800
Z" /> 
<path style="fill:#FFFFFF; fill-opacity:1.0000; stroke:none;fill-rule:evenodd;"
d="M 11.6900,-17.1100
11.6900,-17.9100
13.6900,-17.9100
13.6900,-17.1100
Z" /> 
<path style="fill:#FFFFFF; fill-opacity:1.0000; stroke:none;fill-rule:evenodd;"
d="M 11.6900,-15.8400
11.6900,-16.6400
13.6900,-16.6400
13.6900,-15.8400
Z" /> 
<path style="fill:#FFFFFF; fill-opacity:1.0000; stroke:none;fill-rule:evenodd;"
d="M 11.6900,-14.5700
11.6900,-15.3700
13.6900,-15.3700
13.6900,-14.5700
Z" /> 
<path style="fill:#FFFFFF; fill-opacity:1.0000; stroke:none;fill-rule:evenodd;"
d="M 17.2900,-14.5700
17.2900,-15.3700
19.2900,-15.3700
19.2900,-14.5700
Z" /> 
<path style="fill:#FFFFFF; fill-opacity:1.0000; stroke:none;fill-rule:evenodd;"
d="M 17.2900,-15.8400
17.2900,-16.6400
19.2900,-16.6400
19.2900,-15.8400
Z" /> 
<path style="fill:#FFFFFF; fill-opacity:1.0000; stroke:none;fill-rule:evenodd;"
d="M 17.2900,-17.1100
17.2900,-17.9100
19.2900,-17.9100
19.2900,-17.1100
Z" /> 
<path style="fill:#FFFFFF; fill-opacity:1.0000; stroke:none;fill-rule:evenodd;"
d="M 17.2900,-18.3800
17.2900,-19.1800
19.2900,-19.1800
19.2900,-18.3800
Z" /> 
<path style="fill:#FFFFFF; fill-opacity:1.0000; stroke:none;fill-rule:evenodd;"
d="M 8.8850,-28.3550
8.8850,-26.3550
7.3850,-26.3550
7.3850,-28.3550
Z" /> 
<path style="fill:#FFFFFF; fill-opacity:1.0000; stroke:none;fill-rule:evenodd;"
d="M 10.2950,-23.1050
10.2950,-20.6050
8.2950,-20.6050
8.2950,-23.1050
Z" /> 
<path style="fill:#FFFFFF; fill-opacity:1.0000; stroke:none;fill-rule:evenodd;"
d="M 11.1950,-28.3550
11.1950,-26.3550
9.6950,-26.3550
9.6950,-28.3550
Z" /> 
<path style="fill:#FFFFFF; fill-opacity:1.0000; stroke:none;fill-rule:evenodd;"
d="M 20.5900,-24.6300
20.5900,-23.0300
19.3900,-23.0300
19.3900,-24.6300
Z" /> 
<path style="fill:#FFFFFF; fill-opacity:1.0000; stroke:none;fill-rule:evenodd;"
d="M 17.5900,-24.6300
17.5900,-23.0300
16.3900,-23.0300
16.3900,-24.6300
Z" /> 
<path style="fill:#FFFFFF; fill-opacity:1.0000; stroke:none;fill-rule:evenodd;"
d="M 18.6400,-12.1800
18.6400,-12.8800
19.6400,-12.8800
19.6400,-12.1800
Z" /> 
<path style="fill:#FFFFFF; fill-opacity:1.0000; stroke:none;fill-rule:evenodd;"
d="M 18.6400,-10.2800
18.6400,-10.9800
19.6400,-10.9800
19.6400,-10.2800
Z" /> 
<path style="fill:#FFFFFF; fill-opacity:1.0000; stroke:none;fill-rule:evenodd;"
d="M 21.0400,-11.2300
21.0400,-11.9300
22.0400,-11.9300
22.0400,-11.2300
Z" /> 
</g>
<g style="fill:none; 
stroke:#FFFFFF; stroke-width:0.5000; stroke-opacity:1; 
stroke-linecap:round; stroke-linejoin:round;">
<path d="M18.3900 -12.5300
L16.1900 -14.7300
" />
<path d="M10.4450 -27.0750
L13.9900 -23.5300
" />
<path d="M13.9900 -20.7800
L13.9900 -18.7800
" />
<path d="M19.1400 -12.5300
L18.3900 -12.5300
" />
<path d="M10.4450 -27.3550
L10.4450 -27.0750
" />
<path d="M13.9900 -18.7800
L12.6900 -18.7800
" />
<path d="M16.1900 -17.1800
L14.5900 -18.7800
" />
<path d="M13.9900 -23.5300
L13.9900 -20.7800
" />
<path d="M9.5400 -18.7800
L12.6900 -18.7800
" />
<path d="M16.1900 -14.7300
L16.1900 -17.1800
" />
<path d="M14.5900 -18.7800
L13.9900 -18.7800
" />
<path d="M17.7900 -18.7800
L16.9900 -19.5800
" />
<path d="M12.5400 -30.3300
L12.5400 -31.1300
" />
<path d="M6.6900 -13.4300
L9.5400 -10.5800
" />
<path d="M16.9900 -19.5800
L16.9900 -20.7800
" />
</g>
<g style="fill:none; 
stroke:#FFFFFF; stroke-width:0.4000; stroke-opacity:1; 
stroke-linecap:round; stroke-linejoin:round;">
<path d="M10.5400 -11.5800
L9.5400 -10.5800
" />
</g>
<g style="fill:none; 
stroke:#FFFFFF; stroke-width:0.5000; stroke-opacity:1; 
stroke-linecap:round; stroke-linejoin:round;">
<path d="M15.2900 -25.4800
L15.2900 -27.5800
" />
<path d="M8.1350 -27.3550
L8.1350 -27.1250
" />
<path d="M16.9900 -23.8300
L16.9400 -23.8300
" />
<path d="M9.5400 -9.2300
L9.5400 -10.5800
" />
<path d="M18.2900 -18.7800
L17.7900 -18.7800
" />
<path d="M8.1350 -27.3550
L8.1350 -29.4250
" />
<path d="M10.6900 -7.6300
L10.6900 -8.0800
" />
</g>
<g style="fill:none; 
stroke:#FFFFFF; stroke-width:0.4000; stroke-opacity:1; 
stroke-linecap:round; stroke-linejoin:round;">
<path d="M21.5400 -11.5800
L10.5400 -11.5800
" />
</g>
<g style="fill:none; 
stroke:#FFFFFF; stroke-width:0.5000; stroke-opacity:1; 
stroke-linecap:round; stroke-linejoin:round;">
<path d="M6.6900 -25.6800
L6.6900 -13.4300
" />
<path d="M16.9400 -23.8300
L15.2900 -25.4800
" />
<path d="M8.1350 -29.4250
L9.8400 -31.1300
" />
<path d="M15.2900 -27.5800
L12.5400 -30.3300
" />
<path d="M16.9900 -23.8300
L16.9900 -20.7800
" />
<path d="M8.1350 -27.1250
L6.6900 -25.6800
" />
<path d="M9.8400 -31.1300
L12.5400 -31.1300
" />
<path d="M10.6900 -8.0800
L9.5400 -9.2300
" />
<path d="M18.6900 -31.1300
L15.9400 -31.1300
" />
</g>
<g style="fill:none; 
stroke:#FFFFFF; stroke-width:0.4000; stroke-opacity:1; 
stroke-linecap:round; stroke-linejoin:round;">
<path d="M15.1400 -7.6800
L15.1900 -7.6300
" />
</g>
<g style="fill:none; 
stroke:#FFFFFF; stroke-width:0.5000; stroke-opacity:1; 
stroke-linecap:round; stroke-linejoin:round;">
<path d="M15.1400 -10.1800
L15.1400 -7.6800
" />
<path d="M12.6900 -9.3800
L12.6900 -10.1300
" />
<path d="M13.1900 -7.6300
L13.1900 -8.8800
" />
<path d="M13.1900 -8.8800
L12.6900 -9.3800
" />
<path d="M21.3800 -16.2400
L21.3900 -16.2300
" />
<path d="M18.2900 -16.2400
L21.3800 -16.2400
" />
</g>
<g style="fill:none; 
stroke:#FFFFFF; stroke-width:1.0000; stroke-opacity:1; 
stroke-linecap:round; stroke-linejoin:round;">
<path d="M23.9900 -21.0800
L23.9900 -24.8800
" />
<path d="M23.9900 -10.6800
L21.3900 -8.0800
" />
<path d="M21.6900 -30.4800
L21.6900 -31.1300
" />
</g>
<g style="fill:none; 
stroke:#FFFFFF; stroke-width:0.5000; stroke-opacity:1; 
stroke-linecap:round; stroke-linejoin:round;">
<path d="M17.6900 -7.6300
L17.6900 -7.9800
" />
</g>
<g style="fill:none; 
stroke:#FFFFFF; stroke-width:1.0000; stroke-opacity:1; 
stroke-linecap:round; stroke-linejoin:round;">
<path d="M18.0400 -7.6300
L17.6900 -7.6300
" />
<path d="M23.9900 -21.0800
L23.9900 -10.6800
" />
<path d="M23.9900 -24.8800
L21.2900 -27.5800
" />
<path d="M18.7900 -27.5800
L21.6900 -30.4800
" />
<path d="M18.4900 -8.0800
L18.0400 -7.6300
" />
<path d="M21.2900 -27.5800
L18.7900 -27.5800
" />
</g>
<g style="fill:none; 
stroke:#FFFFFF; stroke-width:0.5000; stroke-opacity:1; 
stroke-linecap:round; stroke-linejoin:round;">
<path d="M19.1400 -9.4300
L19.1400 -10.6300
" />
</g>
<g style="fill:none; 
stroke:#FFFFFF; stroke-width:1.0000; stroke-opacity:1; 
stroke-linecap:round; stroke-linejoin:round;">
<path d="M21.3900 -8.0800
L18.4900 -8.0800
" />
</g>
<g style="fill:none; 
stroke:#FFFFFF; stroke-width:0.5000; stroke-opacity:1; 
stroke-linecap:round; stroke-linejoin:round;">
<path d="M17.6900 -7.9800
L19.1400 -9.4300
" />
</g>
<g style="fill:none; 
stroke:#FFFFFF; stroke-width:0.4000; stroke-opacity:1; 
stroke-linecap:round; stroke-linejoin:round;">
<path d="M9.5400 -15.7800
L9.5400 -13.5800
" />
<path d="M11.1400 -13.5800
L11.5900 -13.1300
" />
<path d="M9.5400 -13.5800
L11.1400 -13.5800
" />
<path d="M11.5900 -13.1300
L12.6900 -13.1300
" />
<path d="M12.6900 -13.1300
L12.6900 -14.9700
" />
</g>
<g style="fill:none; 
stroke:#FFFFFF; stroke-width:0.5000; stroke-opacity:1; 
stroke-linecap:round; stroke-linejoin:round;">
<path d="M15.1400 -13.1800
L15.1400 -16.6800
" />
<path d="M15.1400 -16.6800
L14.3100 -17.5100
" />
<path d="M14.3100 -17.5100
L12.6900 -17.5100
" />
<path d="M20.9900 -21.0800
L20.9900 -18.8800
" />
<path d="M19.7900 -17.6800
L18.4600 -17.6800
" />
<path d="M18.4600 -17.6800
L18.2900 -17.5100
" />
<path d="M19.9900 -22.2800
L19.9900 -23.8300
" />
<path d="M20.9900 -21.0800
L20.9900 -21.2800
" />
<path d="M20.9900 -21.2800
L19.9900 -22.2800
" />
<path d="M20.9900 -18.8800
L19.7900 -17.6800
" />
</g>
<g style="fill:none; 
stroke:#FFFFFF; stroke-width:0.4000; stroke-opacity:1; 
stroke-linecap:round; stroke-linejoin:round;">
<path d="M12.6900 -16.2400
L11.1800 -16.2400
" />
<path d="M8.2900 -17.3300
L7.9900 -17.6300
" />
<path d="M7.9900 -17.6300
L7.9900 -20.5500
" />
<path d="M10.4400 -17.3300
L8.2900 -17.3300
" />
<path d="M10.9900 -16.4300
L10.9900 -16.7800
" />
<path d="M10.9900 -16.7800
L10.4400 -17.3300
" />
<path d="M11.1800 -16.2400
L10.9900 -16.4300
" />
<path d="M7.9900 -20.5500
L9.2950 -21.8550
" />
<path style="fill:#FFFFFF; fill-opacity:1.0000; stroke:none;fill-rule:evenodd;"
d="M 17.4493,-30.2598
17.4950,-30.2070
17.5025,-30.1810
17.5029,-30.1811
17.5050,-30.1732
17.5655,-30.0272
17.6617,-29.9017
17.6617,-29.9017
17.6617,-29.9017
17.6675,-29.8960
17.6662,-29.8947
17.7014,-29.8465
17.7056,-29.7767
17.6714,-29.7158
17.6096,-29.6830
17.5847,-29.6805
17.2506,-29.6805
17.1984,-29.6736
17.1294,-29.6844
17.0772,-29.7308
17.0583,-29.7980
17.0788,-29.8648
17.0839,-29.8720
17.1645,-29.9772
17.2250,-30.1232
17.2314,-30.1717
17.2597,-30.2356
17.3180,-30.2741
17.3544,-30.2795
17.3822,-30.2795
Z" /> 
<path style="fill:#FFFFFF; fill-opacity:1.0000; stroke:none;fill-rule:evenodd;"
d="M 16.8006,-29.6756
16.8528,-29.6292
16.8717,-29.5620
16.8512,-29.4952
16.8461,-29.4879
16.7655,-29.3828
16.7376,-29.3157
16.6938,-29.2613
16.6275,-29.2392
16.5598,-29.2565
16.5448,-29.2670
16.5042,-29.3001
16.5041,-29.3001
16.2955,-29.4269
16.2586,-29.4494
16.2586,-29.4494
16.2583,-29.4496
16.2113,-29.5012
16.1996,-29.5701
16.2270,-29.6344
16.2849,-29.6736
16.3227,-29.6795
16.6794,-29.6795
16.7062,-29.6830
16.7316,-29.6864
Z" /> 
<path style="fill:#FFFFFF; fill-opacity:1.0000; stroke:none;fill-rule:evenodd;"
d="M 9.3481,-25.8621
9.3655,-25.8509
9.3922,-25.8305
9.3922,-25.8305
9.3922,-25.8305
9.4652,-25.8002
9.5382,-25.7700
9.6556,-25.7545
10.5113,-25.7545
10.5784,-25.7348
10.5990,-25.7182
13.1032,-23.2140
13.1367,-23.1527
13.1395,-23.1263
13.1395,-22.2058
13.1198,-22.1388
13.0910,-22.1075
12.9617,-22.0083
12.8655,-21.8828
12.8050,-21.7368
12.8050,-21.7368
12.7895,-21.6194
12.7895,-21.6194
12.7895,-21.6194
12.7895,-19.9406
12.7921,-19.9207
12.7814,-19.8516
12.7350,-19.7994
12.6692,-19.7805
11.6506,-19.7805
11.5332,-19.7650
11.5332,-19.7650
11.3872,-19.7045
11.3241,-19.6561
11.2589,-19.6309
11.2486,-19.6305
10.9658,-19.6305
10.8988,-19.6502
10.8675,-19.6790
10.8544,-19.6961
10.7683,-19.8083
10.6428,-19.9045
10.6428,-19.9045
10.6364,-19.9095
10.6380,-19.9116
10.5988,-19.9527
10.5856,-20.0213
10.6116,-20.0861
10.6336,-20.1079
10.7233,-20.1767
10.8195,-20.3022
10.8800,-20.4482
10.8955,-20.5656
10.8955,-23.1444
10.8955,-23.1444
10.8955,-23.1444
10.8800,-23.2618
10.8800,-23.2618
10.8800,-23.2618
10.8195,-23.4078
10.7233,-23.5333
10.5978,-23.6295
10.4518,-23.6900
10.4518,-23.6900
10.3344,-23.7055
10.3344,-23.7055
10.3344,-23.7055
10.3344,-23.7055
8.2556,-23.7055
8.1382,-23.6900
8.1382,-23.6900
7.9922,-23.6295
7.9716,-23.6138
7.8667,-23.5333
7.7888,-23.4318
7.7655,-23.4014
7.7639,-23.4027
7.7213,-23.3621
7.6527,-23.3489
7.5878,-23.3748
7.5473,-23.4318
7.5405,-23.4723
7.5405,-25.2763
7.5602,-25.3434
7.5768,-25.3640
7.9310,-25.7182
7.9923,-25.7517
8.0187,-25.7545
8.9244,-25.7545
9.0418,-25.7700
9.0418,-25.7700
9.0418,-25.7700
9.1878,-25.8305
9.1878,-25.8305
9.1878,-25.8305
9.1878,-25.8305
9.2145,-25.8509
9.2797,-25.8761
Z" /> 
<path style="fill:#FFFFFF; fill-opacity:1.0000; stroke:none;fill-rule:evenodd;"
d="M 11.1927,-30.2598
11.2384,-30.2070
11.2486,-30.1717
11.2550,-30.1232
11.2550,-30.1232
11.3155,-29.9772
11.4117,-29.8517
11.5372,-29.7555
11.6832,-29.6950
11.8006,-29.6795
11.9363,-29.6795
12.0034,-29.6598
12.0240,-29.6432
13.2745,-28.3927
13.3080,-28.3314
13.3037,-28.2635
13.2627,-28.1480
13.2042,-27.8667
13.1846,-27.5800
13.2042,-27.2933
13.2627,-27.0120
13.2627,-27.0120
13.3589,-26.7412
13.3589,-26.7412
13.4911,-26.4861
13.6568,-26.2513
13.6940,-26.2115
13.8529,-26.0413
14.0759,-25.8599
14.3214,-25.7106
14.3649,-25.6917
14.4185,-25.6470
14.4395,-25.5803
14.4395,-25.5780
14.4395,-25.3962
14.4722,-25.2319
14.4728,-25.2305
14.4728,-25.2305
14.5363,-25.0771
14.5363,-25.0771
14.6294,-24.9378
14.6294,-24.9378
15.7532,-23.8140
15.7867,-23.7527
15.7895,-23.7264
15.7895,-22.9906
15.8050,-22.8732
15.8050,-22.8732
15.8655,-22.7272
15.9617,-22.6017
16.0872,-22.5055
16.0872,-22.5055
16.0910,-22.5025
16.1322,-22.4461
16.1395,-22.4042
16.1395,-22.2058
16.1198,-22.1388
16.0910,-22.1075
15.9617,-22.0083
15.8655,-21.8828
15.8050,-21.7368
15.8050,-21.7368
15.7895,-21.6194
15.7895,-21.6194
15.7895,-21.6194
15.7895,-19.9406
15.8050,-19.8232
15.8050,-19.8232
15.8291,-19.7650
15.8655,-19.6772
15.9617,-19.5517
16.0872,-19.4555
16.0872,-19.4555
16.0872,-19.4555
16.0918,-19.4535
16.1462,-19.4097
16.1660,-19.3632
16.1712,-19.3368
16.1722,-19.3319
16.1722,-19.3319
16.2363,-19.1771
16.2363,-19.1771
16.3294,-19.0378
16.3294,-19.0378
16.6532,-18.7140
16.6867,-18.6527
16.6895,-18.6263
16.6895,-18.3406
16.7050,-18.2232
16.7050,-18.2232
16.7177,-18.1925
16.7252,-18.1230
16.6939,-18.0605
16.6338,-18.0249
16.5640,-18.0274
16.5155,-18.0573
15.1322,-19.4406
15.1322,-19.4406
15.1106,-19.4550
15.0658,-19.5086
15.0571,-19.5780
15.0811,-19.6336
15.1145,-19.6772
15.1750,-19.8232
15.1905,-19.9406
15.1905,-21.6194
15.1905,-21.6194
15.1905,-21.6194
15.1750,-21.7368
15.1750,-21.7368
15.1750,-21.7368
15.1145,-21.8828
15.0183,-22.0083
14.8928,-22.1045
14.8928,-22.1045
14.8890,-22.1075
14.8478,-22.1639
14.8405,-22.2058
14.8405,-23.6138
14.8405,-23.6138
14.8253,-23.6900
14.8078,-23.7781
14.7738,-23.8601
14.7738,-23.8601
14.7437,-23.9329
14.7437,-23.9329
14.7437,-23.9329
14.6506,-24.0722
14.6506,-24.0722
14.6506,-24.0722
11.8318,-26.8910
11.7983,-26.9523
11.7955,-26.9787
11.7955,-28.3944
11.7800,-28.5118
11.7800,-28.5118
11.7800,-28.5118
11.7195,-28.6578
11.6233,-28.7833
11.4978,-28.8795
11.3518,-28.9400
11.3518,-28.9400
11.2344,-28.9555
11.2344,-28.9555
11.2344,-28.9555
11.2344,-28.9555
9.6556,-28.9555
9.5382,-28.9400
9.5382,-28.9400
9.3922,-28.8795
9.3655,-28.8591
9.3003,-28.8339
9.2319,-28.8479
9.2145,-28.8591
9.1878,-28.8795
9.0796,-28.9244
9.0252,-28.9682
9.0032,-29.0345
9.0204,-29.1022
9.0394,-29.1266
10.1560,-30.2432
10.2173,-30.2767
10.2436,-30.2795
11.1256,-30.2795
Z" /> 
<path style="fill:#FFFFFF; fill-opacity:1.0000; stroke:none;fill-rule:evenodd;"
d="M 21.0957,-26.2175
21.1022,-26.2115
22.8532,-24.4605
22.8867,-24.3992
22.8895,-24.3728
22.8895,-22.2563
22.8698,-22.1892
22.8661,-22.1839
22.8655,-22.1828
22.8050,-22.0368
22.8050,-22.0368
22.7895,-21.9194
22.7895,-21.9194
22.7895,-21.9194
22.7895,-20.2406
22.8050,-20.1232
22.8050,-20.1232
22.8655,-19.9772
22.8695,-19.9701
22.8678,-19.9691
22.8891,-19.9141
22.8895,-19.9037
22.8895,-17.7942
22.8698,-17.7272
22.8170,-17.6814
22.7493,-17.6713
22.6794,-17.6805
22.6794,-17.6805
22.6794,-17.6805
22.6794,-17.6805
21.2926,-17.6805
21.2256,-17.7002
21.1799,-17.7530
21.1699,-17.8221
21.1989,-17.8857
21.2050,-17.8922
21.6506,-18.3378
21.6506,-18.3378
21.6506,-18.3378
21.7437,-18.4771
21.7612,-18.5195
21.7758,-18.5545
21.7758,-18.5545
21.8078,-18.6319
21.8405,-18.7962
21.8405,-19.6542
21.8602,-19.7212
21.8890,-19.7525
21.8928,-19.7555
21.8928,-19.7555
22.0183,-19.8517
22.1145,-19.9772
22.1750,-20.1232
22.1905,-20.2406
22.1905,-21.9194
22.1905,-21.9194
22.1905,-21.9194
22.1750,-22.0368
22.1750,-22.0368
22.1750,-22.0368
22.1145,-22.1828
22.0183,-22.3083
21.8928,-22.4045
21.7468,-22.4650
21.7468,-22.4650
21.6294,-22.4805
21.6294,-22.4805
21.6294,-22.4805
21.6294,-22.4805
21.1767,-22.4805
21.1097,-22.5002
21.0639,-22.5530
21.0540,-22.6221
21.0783,-22.6800
21.1145,-22.7272
21.1750,-22.8732
21.1905,-22.9906
21.1905,-24.6694
21.1905,-24.6694
21.1905,-24.6694
21.1750,-24.7868
21.1750,-24.7868
21.1750,-24.7868
21.1145,-24.9328
21.0183,-25.0583
20.8928,-25.1545
20.7468,-25.2150
20.7468,-25.2150
20.6294,-25.2305
20.6294,-25.2305
20.6294,-25.2305
20.6294,-25.2305
19.3506,-25.2305
19.2332,-25.2150
19.2332,-25.2150
19.0872,-25.1545
18.9617,-25.0583
18.8655,-24.9328
18.8050,-24.7868
18.8050,-24.7868
18.7895,-24.6694
18.7895,-24.6694
18.7895,-24.6694
18.7895,-22.9906
18.8050,-22.8732
18.8050,-22.8732
18.8655,-22.7272
18.9617,-22.6017
19.0872,-22.5055
19.0872,-22.5055
19.0910,-22.5025
19.1322,-22.4461
19.1395,-22.4042
19.1395,-22.1962
19.1722,-22.0319
19.1722,-22.0319
19.1910,-21.9866
19.1910,-21.9866
19.2363,-21.8771
19.2363,-21.8771
19.3294,-21.7378
19.3294,-21.7378
19.7532,-21.3140
19.7867,-21.2527
19.7895,-21.2263
19.7895,-20.2406
19.8050,-20.1232
19.8050,-20.1232
19.8541,-20.0045
19.8655,-19.9772
19.9617,-19.8517
20.0872,-19.7555
20.0872,-19.7555
20.0910,-19.7525
20.1322,-19.6961
20.1395,-19.6542
20.1395,-19.2837
20.1198,-19.2166
20.1032,-19.1960
20.0958,-19.1885
20.0344,-19.1551
19.9647,-19.1601
19.9088,-19.2019
19.8851,-19.2600
19.8750,-19.3368
19.8750,-19.3368
19.8750,-19.3368
19.8145,-19.4828
19.7183,-19.6083
19.5928,-19.7045
19.5526,-19.7212
19.4468,-19.7650
19.4468,-19.7650
19.3294,-19.7805
19.3294,-19.7805
19.3294,-19.7805
19.3294,-19.7805
18.3108,-19.7805
18.2438,-19.8002
18.1980,-19.8530
18.1879,-19.9207
18.1905,-19.9406
18.1905,-19.9406
18.1905,-21.6194
18.1905,-21.6194
18.1905,-21.6194
18.1750,-21.7368
18.1750,-21.7368
18.1750,-21.7368
18.1145,-21.8828
18.0183,-22.0083
17.8928,-22.1045
17.8928,-22.1045
17.8890,-22.1075
17.8478,-22.1639
17.8405,-22.2058
17.8405,-22.4042
17.8602,-22.4712
17.8890,-22.5025
17.8928,-22.5055
17.8928,-22.5055
18.0183,-22.6017
18.1145,-22.7272
18.1750,-22.8732
18.1905,-22.9906
18.1905,-24.6694
18.1905,-24.6694
18.1905,-24.6694
18.1750,-24.7868
18.1750,-24.7868
18.1750,-24.7868
18.1145,-24.9328
18.0183,-25.0583
17.8928,-25.1545
17.7468,-25.2150
17.7468,-25.2150
17.6294,-25.2305
17.6294,-25.2305
17.6294,-25.2305
17.6294,-25.2305
16.7937,-25.2305
16.7266,-25.2502
16.7060,-25.2668
16.5409,-25.4319
16.3724,-25.6004
16.3389,-25.6617
16.3439,-25.7314
16.3858,-25.7873
16.3957,-25.7940
16.5041,-25.8599
16.5448,-25.8930
16.6093,-25.9201
16.6781,-25.9080
16.7294,-25.8606
16.7376,-25.8443
16.7655,-25.7772
16.8617,-25.6517
16.9872,-25.5555
17.1332,-25.4950
17.2506,-25.4795
20.3294,-25.4795
20.3294,-25.4795
20.4468,-25.4950
20.4468,-25.4950
20.4468,-25.4950
20.5928,-25.5555
20.7183,-25.6517
20.8145,-25.7772
20.8750,-25.9232
20.8905,-26.0406
20.8905,-26.1238
20.9102,-26.1908
20.9630,-26.2366
21.0321,-26.2465
Z" /> 
<path style="fill:#FFFFFF; fill-opacity:1.0000; stroke:none;fill-rule:evenodd;"
d="M 11.0542,-14.8917
11.0870,-14.8300
11.0895,-14.8050
11.0895,-14.5550
11.0698,-14.4879
11.0170,-14.4422
10.9479,-14.4322
10.8843,-14.4612
10.8671,-14.4795
10.8645,-14.4828
10.7712,-14.6045
10.7460,-14.6697
10.7600,-14.7381
10.7712,-14.7555
10.8645,-14.8772
10.8645,-14.8772
10.8671,-14.8805
10.9236,-14.9217
10.9933,-14.9259
Z" /> 
<path style="fill:#FFFFFF; fill-opacity:1.0000; stroke:none;fill-rule:evenodd;"
d="M 7.7457,-16.7418
7.7522,-16.7358
7.7728,-16.7151
7.7797,-16.7082
7.9108,-16.6206
7.9108,-16.6206
8.0621,-16.5579
8.0613,-16.5560
8.1119,-16.5229
8.1404,-16.4591
8.1404,-16.4263
8.1395,-16.4194
8.1395,-16.4194
8.1395,-15.1406
8.1550,-15.0232
8.1550,-15.0232
8.2155,-14.8772
8.3088,-14.7555
8.3340,-14.6903
8.3200,-14.6219
8.3088,-14.6045
8.2155,-14.4828
8.1550,-14.3368
8.1550,-14.3368
8.1395,-14.2194
8.1395,-14.2194
8.1395,-13.4827
8.1198,-13.4156
8.0670,-13.3699
7.9979,-13.3599
7.9343,-13.3889
7.9278,-13.3950
7.5768,-13.7460
7.5433,-13.8073
7.5405,-13.8337
7.5405,-16.6481
7.5602,-16.7151
7.6130,-16.7609
7.6821,-16.7708
Z" /> 
<path style="fill:#FFFFFF; fill-opacity:1.0000; stroke:none;fill-rule:evenodd;"
d="M 16.7457,-12.9711
16.7522,-12.9650
17.1250,-12.5922
17.1585,-12.5309
17.1535,-12.4612
17.1117,-12.4052
17.0462,-12.3808
17.0373,-12.3805
16.6608,-12.3805
16.5938,-12.4002
16.5480,-12.4530
16.5379,-12.5207
16.5405,-12.5406
16.5405,-12.8774
16.5602,-12.9444
16.6130,-12.9901
16.6821,-13.0001
Z" /> 
<path style="fill:#FFFFFF; fill-opacity:1.0000; stroke:none;fill-rule:evenodd;"
d="M 9.9751,-12.3598
10.0209,-12.3070
10.0308,-12.2379
10.0018,-12.1743
9.9957,-12.1678
9.6630,-11.8351
9.6017,-11.8016
9.5320,-11.8066
9.4877,-11.8351
9.1550,-12.1678
9.1215,-12.2291
9.1265,-12.2988
9.1683,-12.3548
9.2338,-12.3792
9.2426,-12.3795
9.9081,-12.3795
Z" /> 
<path style="fill:#FFFFFF; fill-opacity:1.0000; stroke:none;fill-rule:evenodd;"
d="M 22.8184,-14.7779
22.8706,-14.7316
22.8895,-14.6658
22.8895,-11.1872
22.8698,-11.1202
22.8531,-11.0995
22.8521,-11.0985
22.7908,-11.0650
22.7211,-11.0700
22.6652,-11.1119
22.6408,-11.1774
22.6408,-11.1866
22.6405,-11.1866
22.6405,-11.9694
22.6250,-12.0868
22.6250,-12.0868
22.6250,-12.0868
22.5645,-12.2328
22.4683,-12.3583
22.3428,-12.4545
22.1968,-12.5150
22.1968,-12.5150
22.0794,-12.5305
22.0794,-12.5305
22.0794,-12.5305
22.0794,-12.5305
21.0006,-12.5305
20.8832,-12.5150
20.8832,-12.5150
20.7372,-12.4545
20.6741,-12.4061
20.6089,-12.3809
20.5986,-12.3805
20.3645,-12.3805
20.2975,-12.4002
20.2517,-12.4530
20.2405,-12.5045
20.2405,-12.9194
20.2250,-13.0368
20.2250,-13.0368
20.2250,-13.0368
20.1645,-13.1828
20.0683,-13.3083
19.9428,-13.4045
19.9161,-13.4156
19.7968,-13.4650
19.7968,-13.4650
19.6794,-13.4805
19.6794,-13.4805
19.6794,-13.4805
19.6794,-13.4805
18.6937,-13.4805
18.6266,-13.5002
18.6060,-13.5168
18.3650,-13.7578
18.3315,-13.8191
18.3365,-13.8888
18.3783,-13.9448
18.4438,-13.9692
18.4526,-13.9695
19.3294,-13.9695
19.4468,-13.9850
19.4468,-13.9850
19.4468,-13.9850
19.5928,-14.0455
19.7183,-14.1417
19.8145,-14.2672
19.8750,-14.4132
19.8905,-14.5306
19.8905,-14.6658
19.9102,-14.7328
19.9630,-14.7786
20.0307,-14.7887
20.1006,-14.7795
22.6794,-14.7795
22.6794,-14.7795
22.7493,-14.7887
Z" /> 
<path style="fill:#FFFFFF; fill-opacity:1.0000; stroke:none;fill-rule:evenodd;"
d="M 11.2325,-10.7598
11.2783,-10.7070
11.2895,-10.6555
11.2895,-9.4906
11.3053,-9.3707
11.2945,-9.3016
11.2481,-9.2494
11.1824,-9.2305
10.7937,-9.2305
10.7266,-9.2502
10.7060,-9.2668
10.6718,-9.3010
10.6383,-9.3623
10.6433,-9.4320
10.6840,-9.4870
10.6887,-9.4906
10.7683,-9.5517
10.8645,-9.6772
10.9250,-9.8232
10.9405,-9.9406
10.9405,-10.6555
10.9602,-10.7225
11.0130,-10.7683
11.0645,-10.7795
11.1655,-10.7795
Z" /> 
<path style="fill:#FFFFFF; fill-opacity:1.0000; stroke:none;fill-rule:evenodd;"
d="M 20.6656,-10.7598
20.6741,-10.7539
20.7372,-10.7055
20.7372,-10.7055
20.7372,-10.7055
20.8832,-10.6450
21.0006,-10.6295
22.0794,-10.6295
22.0834,-10.6295
22.0834,-10.6275
22.1438,-10.6141
22.1929,-10.5644
22.2075,-10.4961
22.1827,-10.4308
22.1715,-10.4178
20.9705,-9.2168
20.9092,-9.1833
20.8828,-9.1805
20.1086,-9.1805
20.0416,-9.2002
19.9958,-9.2530
19.9859,-9.3221
19.9870,-9.3287
19.9874,-9.3305
19.9905,-9.3462
19.9905,-9.7309
20.0102,-9.7979
20.0390,-9.8293
20.0683,-9.8517
20.1645,-9.9772
20.2250,-10.1232
20.2405,-10.2406
20.2405,-10.6555
20.2602,-10.7225
20.3130,-10.7683
20.3645,-10.7795
20.5986,-10.7795
Z" /> 
<path style="fill:#FFFFFF; fill-opacity:1.0000; stroke:none;fill-rule:evenodd;"
d="M 17.9825,-10.7598
18.0283,-10.7070
18.0395,-10.6555
18.0395,-10.2406
18.0550,-10.1232
18.0550,-10.1232
18.1155,-9.9772
18.2094,-9.8547
18.2346,-9.7895
18.2206,-9.7211
18.1987,-9.6915
17.7740,-9.2668
17.7127,-9.2333
17.6863,-9.2305
17.0506,-9.2305
16.9332,-9.2150
16.9332,-9.2150
16.7872,-9.1545
16.6617,-9.0583
16.5655,-8.9328
16.5546,-8.9065
16.5107,-8.8521
16.4444,-8.8301
16.3767,-8.8473
16.3291,-8.8985
16.3254,-8.9065
16.3145,-8.9328
16.3145,-8.9328
16.3145,-8.9328
16.3042,-8.9463
16.2790,-9.0114
16.2931,-9.0799
16.3271,-9.1201
16.3683,-9.1517
16.4645,-9.2772
16.5250,-9.4232
16.5405,-9.5406
16.5405,-10.6555
16.5602,-10.7225
16.6130,-10.7683
16.6645,-10.7795
17.9155,-10.7795
Z" /> 
<path style="fill:#FFFFFF; fill-opacity:1.0000; stroke:none;fill-rule:evenodd;"
d="M 23.2180,-32.9294
23.5519,-32.9129
23.5640,-32.9118
23.6671,-32.8965
23.8917,-32.8632
23.9036,-32.8608
24.2250,-32.7803
24.2366,-32.7768
24.3078,-32.7513
24.5485,-32.6652
24.5597,-32.6605
24.8592,-32.5189
24.8699,-32.5132
25.1540,-32.3429
25.1641,-32.3361
25.3033,-32.2328
25.4302,-32.1388
25.4396,-32.1311
25.6850,-31.9086
25.6936,-31.9000
25.7927,-31.7906
25.9161,-31.6546
25.9238,-31.6452
26.1211,-31.3791
26.1279,-31.3690
26.2568,-31.1539
26.2981,-31.0849
26.3039,-31.0742
26.4338,-30.7995
26.4455,-30.7747
26.4502,-30.7635
26.5618,-30.4516
26.5653,-30.4399
26.6458,-30.1186
26.6482,-30.1067
26.6968,-29.7790
26.6979,-29.7669
26.7144,-29.4330
26.7145,-29.4269
26.7145,-6.0331
26.7144,-6.0270
26.6979,-5.6931
26.6968,-5.6810
26.6482,-5.3533
26.6458,-5.3414
26.5653,-5.0201
26.5618,-5.0084
26.4502,-4.6965
26.4455,-4.6853
26.3039,-4.3858
26.2981,-4.3751
26.1279,-4.0910
26.1211,-4.0809
25.9238,-3.8148
25.9161,-3.8054
25.6936,-3.5600
25.6850,-3.5514
25.4396,-3.3289
25.4302,-3.3212
25.1641,-3.1239
25.1540,-3.1171
24.8699,-2.9469
24.8592,-2.9411
24.5597,-2.7995
24.5485,-2.7948
24.2366,-2.6832
24.2249,-2.6797
23.9036,-2.5992
23.8917,-2.5968
23.5640,-2.5482
23.5519,-2.5471
23.2370,-2.5316
23.2180,-2.5306
23.2119,-2.5305
5.1681,-2.5305
5.1620,-2.5306
5.1419,-2.5316
4.8281,-2.5471
4.8160,-2.5482
4.4883,-2.5968
4.4764,-2.5992
4.1551,-2.6797
4.1434,-2.6832
3.8315,-2.7948
3.8203,-2.7995
3.5208,-2.9411
3.5101,-2.9468
3.2260,-3.1171
3.2159,-3.1239
2.9498,-3.3212
2.9404,-3.3289
2.8011,-3.4552
2.6950,-3.5514
2.6864,-3.5600
2.4639,-3.8054
2.4562,-3.8148
2.2589,-4.0809
2.2521,-4.0910
2.2288,-4.1300
2.0818,-4.3751
2.0761,-4.3858
1.9345,-4.6853
1.9298,-4.6965
1.8182,-5.0084
1.8147,-5.0201
1.8060,-5.0550
1.7342,-5.3414
1.7318,-5.3533
1.7313,-5.3567
1.6985,-5.5779
1.6832,-5.6810
1.6821,-5.6931
1.6656,-6.0270
1.6655,-6.0331
1.6655,-8.1478
1.6852,-8.2148
1.7380,-8.2606
1.7895,-8.2718
6.3005,-8.2718
6.3005,-12.3173
6.3202,-12.3843
6.3730,-12.4301
6.4422,-12.4400
6.5057,-12.4110
6.5122,-12.4050
8.1032,-10.8140
8.1367,-10.7527
8.1395,-10.7263
8.1395,-9.9406
8.1550,-9.8232
8.1550,-9.8232
8.2155,-9.6772
8.3117,-9.5517
8.4372,-9.4555
8.5832,-9.3950
8.5832,-9.3950
8.5911,-9.3929
8.5906,-9.3912
8.6456,-9.3669
8.6841,-9.3086
8.6895,-9.2722
8.6895,-9.1462
8.7222,-8.9819
8.7222,-8.9819
8.7375,-8.9450
8.7863,-8.8271
8.7863,-8.8271
8.8794,-8.6878
8.8794,-8.6878
9.4532,-8.1140
9.4867,-8.0527
9.4895,-8.0263
9.4895,-7.1904
9.4698,-7.1234
9.4170,-7.0776
9.3479,-7.0677
9.2893,-7.0925
9.2497,-7.1234
9.1635,-7.1905
9.1635,-7.1905
9.1635,-7.1905
8.9448,-7.3088
8.9448,-7.3088
8.7096,-7.3896
8.4643,-7.4305
8.2157,-7.4305
7.9704,-7.3896
7.7352,-7.3088
7.7352,-7.3088
7.5165,-7.1905
7.3203,-7.0377
7.1518,-6.8548
7.0158,-6.6466
6.9159,-6.4189
6.8549,-6.1778
6.8549,-6.1778
6.8366,-5.9570
6.8344,-5.9300
6.8424,-5.8335
6.8542,-5.6902
6.8542,-5.6698
6.8344,-5.4300
6.8542,-5.1902
6.8542,-5.1698
6.8344,-4.9300
6.8542,-4.6902
6.8542,-4.6698
6.8344,-4.4300
6.8344,-4.4300
6.8549,-4.1822
6.8549,-4.1822
6.9159,-3.9411
7.0158,-3.7134
7.1518,-3.5052
7.1518,-3.5052
7.3203,-3.3223
7.5165,-3.1695
7.7352,-3.0512
7.9704,-2.9704
8.2157,-2.9295
8.4643,-2.9295
8.7096,-2.9704
8.9448,-3.0512
9.1635,-3.1695
9.3597,-3.3223
9.5282,-3.5052
9.6642,-3.7134
9.7641,-3.9411
9.8251,-4.1822
9.8251,-4.1822
9.8456,-4.4300
9.8456,-4.4300
9.8258,-4.6698
9.8258,-4.6902
9.8456,-4.9300
9.8456,-4.9300
9.8258,-5.1698
9.8258,-5.1902
9.8456,-5.4300
9.8456,-5.4300
9.8258,-5.6698
9.8258,-5.6902
9.8422,-5.8879
9.8453,-5.9254
9.8704,-5.9906
9.9268,-6.0319
9.9850,-6.0381
10.0506,-6.0295
10.6940,-6.0295
10.7611,-6.0098
10.8068,-5.9570
10.8168,-5.8879
10.7956,-5.8344
10.7594,-5.7827
10.6633,-5.5765
10.6633,-5.5765
10.6044,-5.3567
10.6044,-5.3567
10.5845,-5.1300
10.5845,-5.1300
10.6044,-4.9033
10.6044,-4.9033
10.6633,-4.6835
10.6633,-4.6835
10.7594,-4.4773
10.7594,-4.4773
10.8900,-4.2909
11.0509,-4.1300
11.0509,-4.1300
11.2373,-3.9994
11.4435,-3.9033
11.6633,-3.8444
11.8252,-3.8302
11.8900,-3.8245
11.8900,-3.8245
11.8900,-3.8245
11.9467,-3.8295
12.1167,-3.8444
12.3365,-3.9033
12.5427,-3.9994
12.7291,-4.1300
12.8900,-4.2909
13.0206,-4.4773
13.1167,-4.6835
13.1756,-4.9033
13.1955,-5.1300
13.1953,-5.1322
13.1898,-5.1948
13.1756,-5.3567
13.1167,-5.5765
13.0206,-5.7827
12.9844,-5.8344
12.9621,-5.9006
12.9791,-5.9684
13.0300,-6.0162
13.0860,-6.0295
13.8294,-6.0295
13.9468,-6.0450
13.9468,-6.0450
13.9468,-6.0450
14.0928,-6.1055
14.1145,-6.1221
14.1797,-6.1473
14.2481,-6.1333
14.2655,-6.1221
14.2872,-6.1055
14.2872,-6.1055
14.2872,-6.1055
14.3284,-6.0884
14.4332,-6.0450
14.5506,-6.0295
15.2940,-6.0295
15.3611,-6.0098
15.4068,-5.9570
15.4168,-5.8879
15.3956,-5.8344
15.3594,-5.7827
15.2633,-5.5765
15.2633,-5.5765
15.2044,-5.3567
15.2044,-5.3567
15.1845,-5.1300
15.1845,-5.1300
15.2044,-4.9033
15.2044,-4.9033
15.2633,-4.6835
15.2633,-4.6835
15.3594,-4.4773
15.3594,-4.4773
15.4900,-4.2909
15.6509,-4.1300
15.6509,-4.1300
15.8373,-3.9994
16.0435,-3.9033
16.2633,-3.8444
16.4252,-3.8302
16.4900,-3.8245
16.4900,-3.8245
16.4900,-3.8245
16.5467,-3.8295
16.7167,-3.8444
16.9365,-3.9033
17.1427,-3.9994
17.3291,-4.1300
17.4900,-4.2909
17.6206,-4.4773
17.7167,-4.6835
17.7756,-4.9033
17.7955,-5.1300
17.7953,-5.1322
17.7898,-5.1948
17.7756,-5.3567
17.7167,-5.5765
17.6206,-5.7827
17.5844,-5.8344
17.5621,-5.9006
17.5791,-5.9684
17.6300,-6.0162
17.6860,-6.0295
18.3294,-6.0295
18.3967,-6.0384
18.4657,-6.0276
18.5180,-5.9812
18.5369,-5.9139
18.5364,-5.9052
18.5344,-5.8800
18.5542,-5.6402
18.5542,-5.6198
18.5344,-5.3800
18.5542,-5.1402
18.5542,-5.1198
18.5344,-4.8800
18.5542,-4.6402
18.5542,-4.6198
18.5344,-4.3800
18.5344,-4.3800
18.5549,-4.1322
18.5549,-4.1322
18.6159,-3.8911
18.7158,-3.6634
18.8518,-3.4552
18.8518,-3.4552
19.0203,-3.2723
19.2165,-3.1195
19.4352,-3.0012
19.6704,-2.9204
19.9157,-2.8795
20.1643,-2.8795
20.4096,-2.9204
20.6448,-3.0012
20.8635,-3.1195
21.0597,-3.2723
21.2282,-3.4552
21.3642,-3.6634
21.4641,-3.8911
21.5251,-4.1322
21.5395,-4.3061
21.5456,-4.3800
21.5456,-4.3800
21.5258,-4.6198
21.5258,-4.6402
21.5456,-4.8800
21.5456,-4.8800
21.5258,-5.1198
21.5258,-5.1402
21.5456,-5.3800
21.5456,-5.3800
21.5258,-5.6198
21.5258,-5.6402
21.5456,-5.8800
21.5456,-5.8800
21.5251,-6.1278
21.5251,-6.1278
21.4641,-6.3689
21.3642,-6.5966
21.2393,-6.7877
21.2192,-6.8546
21.2383,-6.9218
21.2908,-6.9679
21.3431,-6.9795
21.4766,-6.9795
21.4766,-6.9795
21.6477,-7.0066
21.8124,-7.0601
21.9668,-7.1388
22.1069,-7.2406
24.8294,-9.9631
24.9312,-10.1032
25.0099,-10.2576
25.0634,-10.4223
25.0905,-10.5934
25.0905,-10.7666
25.0905,-19.9037
25.1102,-19.9708
25.1139,-19.9761
25.1145,-19.9772
25.1145,-19.9772
25.1750,-20.1232
25.1905,-20.2406
25.1905,-21.9194
25.1905,-21.9194
25.1905,-21.9194
25.1750,-22.0368
25.1750,-22.0368
25.1750,-22.0368
25.1145,-22.1828
25.1145,-22.1828
25.1105,-22.1899
25.1122,-22.1909
25.0909,-22.2459
25.0905,-22.2563
25.0905,-24.9666
25.0899,-24.9705
25.0868,-24.9900
25.0634,-25.1377
25.0099,-25.3024
25.0099,-25.3024
25.0099,-25.3025
24.9439,-25.4319
24.9439,-25.4319
24.9312,-25.4568
24.9312,-25.4568
24.9312,-25.4568
24.8863,-25.5186
24.8415,-25.5803
24.8294,-25.5969
24.8294,-25.5969
22.0069,-28.4194
22.0069,-28.4194
21.8668,-28.5212
21.7124,-28.5999
21.6436,-28.6223
21.5859,-28.6617
21.5587,-28.7260
21.5706,-28.7949
21.5942,-28.8279
22.5294,-29.7631
22.5294,-29.7631
22.5314,-29.7654
22.5326,-29.7663
22.5329,-29.7665
22.5329,-29.7665
22.5782,-29.7994
22.5928,-29.8055
22.7183,-29.9017
22.8145,-30.0272
22.8750,-30.1732
22.8905,-30.2906
22.8905,-31.9694
22.8905,-31.9694
22.8905,-31.9694
22.8750,-32.0868
22.8750,-32.0868
22.8750,-32.0868
22.8145,-32.2328
22.7183,-32.3583
22.5928,-32.4545
22.4468,-32.5150
22.4468,-32.5150
22.3294,-32.5305
22.3294,-32.5305
22.3294,-32.5305
22.3294,-32.5305
21.0506,-32.5305
20.9332,-32.5150
20.9332,-32.5150
20.7872,-32.4545
20.6617,-32.3583
20.5655,-32.2328
20.5050,-32.0868
20.5050,-32.0868
20.4910,-31.9805
20.4895,-31.9694
20.4895,-31.9694
20.4895,-30.8872
20.4698,-30.8202
20.4532,-30.7995
20.1022,-30.4485
20.0409,-30.4150
19.9712,-30.4200
19.9152,-30.4619
19.8908,-30.5274
19.8905,-30.5362
19.8905,-31.9694
19.8905,-31.9694
19.8905,-31.9694
19.8750,-32.0868
19.8750,-32.0868
19.8750,-32.0868
19.8145,-32.2328
19.7183,-32.3583
19.5928,-32.4545
19.4468,-32.5150
19.4468,-32.5150
19.3294,-32.5305
19.3294,-32.5305
19.3294,-32.5305
19.3294,-32.5305
18.0506,-32.5305
17.9332,-32.5150
17.9332,-32.5150
17.7872,-32.4545
17.6617,-32.3583
17.5655,-32.2328
17.5050,-32.0868
17.5029,-32.0789
17.5012,-32.0794
17.4769,-32.0244
17.4186,-31.9859
17.3822,-31.9805
17.3544,-31.9805
17.2873,-32.0002
17.2416,-32.0530
17.2314,-32.0883
17.2250,-32.1368
17.2250,-32.1368
17.2250,-32.1368
17.1645,-32.2828
17.0683,-32.4083
16.9428,-32.5045
16.9220,-32.5131
16.7968,-32.5650
16.7968,-32.5650
16.6794,-32.5805
16.6794,-32.5805
16.6794,-32.5805
16.6794,-32.5805
15.2006,-32.5805
15.0832,-32.5650
15.0832,-32.5650
14.9372,-32.5045
14.8117,-32.4083
14.7155,-32.2828
14.6550,-32.1368
14.6550,-32.1368
14.6395,-32.0194
14.6395,-32.0194
14.6395,-32.0194
14.6395,-30.2406
14.6550,-30.1232
14.6550,-30.1232
14.7155,-29.9772
14.8117,-29.8517
14.8292,-29.8383
14.8704,-29.7819
14.8746,-29.7121
14.8404,-29.6512
14.7872,-29.6205
14.5954,-29.5668
14.5256,-29.5676
14.4743,-29.5985
13.8768,-30.1960
13.8433,-30.2573
13.8405,-30.2836
13.8405,-32.0194
13.8405,-32.0194
13.8405,-32.0194
13.8250,-32.1368
13.8250,-32.1368
13.8250,-32.1368
13.7645,-32.2828
13.6683,-32.4083
13.5428,-32.5045
13.5220,-32.5131
13.3968,-32.5650
13.3968,-32.5650
13.2794,-32.5805
13.2794,-32.5805
13.2794,-32.5805
13.2794,-32.5805
11.8006,-32.5805
11.6832,-32.5650
11.6832,-32.5650
11.5372,-32.5045
11.4117,-32.4083
11.3155,-32.2828
11.2550,-32.1368
11.2550,-32.1368
11.2486,-32.0883
11.2203,-32.0244
11.1620,-31.9859
11.1256,-31.9805
9.7562,-31.9805
9.5919,-31.9478
9.5919,-31.9478
9.5466,-31.9290
9.4371,-31.8837
9.2978,-31.7906
9.2978,-31.7906
7.4744,-29.9672
7.4744,-29.9672
7.3813,-29.8279
7.3813,-29.8279
7.3586,-29.7730
7.3586,-29.7730
7.3172,-29.6731
7.3172,-29.6731
7.2845,-29.5088
7.2845,-29.0462
7.2648,-28.9792
7.2120,-28.9334
7.2080,-28.9316
7.0822,-28.8795
6.9567,-28.7833
6.8605,-28.6578
6.8000,-28.5118
6.8000,-28.5118
6.7878,-28.4194
6.7845,-28.3944
6.7845,-28.3944
6.7845,-27.0287
6.7648,-26.9616
6.7482,-26.9410
6.5484,-26.7412
6.3973,-26.5901
6.3360,-26.5566
6.3096,-26.5538
1.7895,-26.5538
1.7225,-26.5735
1.6767,-26.6263
1.6655,-26.6778
1.6655,-29.4269
1.6656,-29.4330
1.6778,-29.6805
1.6821,-29.7669
1.6832,-29.7790
1.6872,-29.8055
1.7318,-30.1067
1.7342,-30.1186
1.8147,-30.4400
1.8182,-30.4516
1.8485,-30.5362
1.9298,-30.7635
1.9345,-30.7747
2.0761,-31.0742
2.0818,-31.0849
2.2521,-31.3690
2.2589,-31.3791
2.4562,-31.6452
2.4639,-31.6546
2.6864,-31.9000
2.6950,-31.9086
2.9404,-32.1311
2.9498,-32.1388
3.2159,-32.3361
3.2260,-32.3429
3.5101,-32.5132
3.5208,-32.5189
3.8203,-32.6605
3.8315,-32.6652
4.1434,-32.7768
4.1550,-32.7803
4.4764,-32.8608
4.4883,-32.8632
4.8160,-32.9118
4.8281,-32.9129
5.1620,-32.9294
5.1681,-32.9295
5.2309,-32.9295
23.1491,-32.9295
23.2119,-32.9295
Z" /> 
</g> 
</svg>
