<?xml version="1.0" encoding="UTF-8" standalone="no"?>
<!-- Created with Inkscape (http://www.inkscape.org/) -->

<svg
   width="35.4076mm"
   height="32.9184mm"
   viewBox="0 0 35.4076 32.9184"
   version="1.1"
   id="svg1"
   xml:space="preserve"
   inkscape:version="1.4 (86a8ad7, 2024-10-11)"
   sodipodi:docname="VoltBoardSidepinsCut.svg"
   xmlns:inkscape="http://www.inkscape.org/namespaces/inkscape"
   xmlns:sodipodi="http://sodipodi.sourceforge.net/DTD/sodipodi-0.dtd"
   xmlns="http://www.w3.org/2000/svg"
   xmlns:svg="http://www.w3.org/2000/svg"><sodipodi:namedview
     id="namedview1"
     pagecolor="#ffffff"
     bordercolor="#000000"
     borderopacity="0.25"
     inkscape:showpageshadow="2"
     inkscape:pageopacity="0.0"
     inkscape:pagecheckerboard="0"
     inkscape:deskcolor="#d1d1d1"
     inkscape:document-units="mm"
     inkscape:zoom="6.112823"
     inkscape:cx="18.731116"
     inkscape:cy="77.623709"
     inkscape:window-width="2560"
     inkscape:window-height="1494"
     inkscape:window-x="-11"
     inkscape:window-y="-11"
     inkscape:window-maximized="1"
     inkscape:current-layer="layer1" /><defs
     id="defs1" /><g
     inkscape:label="Layer 1"
     inkscape:groupmode="layer"
     id="layer1"
     transform="translate(-36.097996,-32.354884)"><path
       style="fill:#000000"
       d="m 36.097996,48.814084 v -16.4592 h 17.7038 17.703801 v 16.4592 16.4592 H 53.801796 36.097996 Z M 67.492397,64.37516 c 0.290386,-0.0704 0.63516,-0.185464 0.852597,-0.284554 1.089394,-0.496452 1.915238,-1.478705 2.208585,-2.626872 0.119906,-0.469318 0.113748,0.215495 0.113748,-12.64965 0,-12.865144 0.0062,-12.180331 -0.113748,-12.649649 -0.393324,-1.539481 -1.724189,-2.726408 -3.302482,-2.945309 -0.147334,-0.02043 -3.879922,-0.02599 -13.576301,-0.02022 -12.822599,0.0076 -13.380942,0.0099 -13.5636,0.05412 -0.828064,0.200633 -1.464101,0.545114 -2.004096,1.085429 -0.605833,0.606192 -0.999585,1.368326 -1.133499,2.193965 -0.05621,0.346556 -0.05621,24.216758 0,24.563315 0.132615,0.817625 0.535862,1.601233 1.129437,2.194773 0.607505,0.607468 1.364022,0.980398 2.287558,1.127668 0.03493,0.0056 6.104255,0.0086 13.4874,0.0066 12.882982,-0.0033 13.431577,-0.0053 13.614401,-0.04967 z m -9.064199,-1.79831 c -0.216709,-0.107268 -0.326929,-0.362094 -0.253801,-0.586781 0.02816,-0.08651 0.02901,-0.125163 0.0044,-0.196585 -0.04079,-0.118152 -0.04063,-0.201868 6.33e-4,-0.320657 0.02822,-0.08124 0.02842,-0.11176 0.0011,-0.174643 -0.04187,-0.09656 -0.04226,-0.232389 -9.46e-4,-0.329262 0.02587,-0.06066 0.02587,-0.09269 -3e-5,-0.1651 -0.03973,-0.111091 -0.04171,-0.189375 -0.0078,-0.311299 0.110378,-0.397432 0.667293,-0.47488 0.892589,-0.124129 0.07036,0.109533 0.07418,0.128323 0.06002,0.29479 -0.0083,0.09779 -0.0141,0.203518 -0.01284,0.23495 0.0053,0.133747 0.0055,0.830334 2.4e-4,0.9779 -0.0011,0.03143 0.005,0.111896 0.01366,0.178808 0.02242,0.173713 -0.0057,0.285064 -0.09856,0.390872 -0.158824,0.18089 -0.394011,0.232411 -0.598614,0.131136 z M 46.753296,62.54512 c -0.1002,-0.04441 -0.200783,-0.14073 -0.253591,-0.242849 -0.03271,-0.06325 -0.03929,-0.121578 -0.02831,-0.25114 0.0079,-0.09281 0.01374,-0.194468 0.01307,-0.225901 -0.0039,-0.181118 -0.004,-0.775403 -1.45e-4,-0.9779 5.93e-4,-0.03143 -0.005,-0.13716 -0.01245,-0.23495 -0.01256,-0.165006 -0.0082,-0.186218 0.06122,-0.29479 0.311689,-0.487792 1.079942,-0.111293 0.883307,0.432885 -0.02526,0.06991 -0.0251,0.105322 8.17e-4,0.1778 0.04292,0.120033 0.04239,0.213182 -0.0018,0.318999 -0.03216,0.07698 -0.03162,0.09937 0.0046,0.19163 0.03481,0.08861 0.03638,0.124415 0.01038,0.235872 -0.03871,0.165908 -0.03868,0.160651 -0.0015,0.294333 0.03793,0.136276 0.0022,0.30082 -0.09218,0.424561 -0.122991,0.16125 -0.399398,0.233004 -0.583413,0.15145 z m 3.5052,-0.665472 c -0.238326,-0.129937 -0.35125,-0.373002 -0.29065,-0.625613 0.06226,-0.259548 0.368202,-0.465152 0.613379,-0.41222 0.285273,0.06159 0.457051,0.267813 0.457051,0.5487 0,0.184615 -0.08661,0.346752 -0.239143,0.447695 -0.13158,0.08708 -0.416828,0.108939 -0.540637,0.04144 z m 4.63626,0.01257 c -0.427039,-0.170429 -0.458872,-0.77989 -0.05156,-0.987112 0.136171,-0.06928 0.244456,-0.08418 0.378294,-0.05208 0.489819,0.117505 0.571843,0.789643 0.124368,1.019121 -0.10316,0.0529 -0.342184,0.06354 -0.451102,0.02007 z"
       id="path1" /></g></svg>
