<?xml version="1.0" standalone="no"?>
 <!DOCTYPE svg PUBLIC "-//W3C//DTD SVG 1.1//EN" 
 "http://www.w3.org/Graphics/SVG/1.1/DTD/svg11.dtd"> 
<svg
  xmlns:svg="http://www.w3.org/2000/svg"
  xmlns="http://www.w3.org/2000/svg"
  xmlns:xlink="http://www.w3.org/1999/xlink"
  version="1.1"
  width="210.0072mm" height="148.0058mm" viewBox="0.0000 0.0000 210.0072 148.0058">
<title>SVG Image created as QC-Hack_reDesign-Edge_Cuts.svg date 2025/05/21 11:02:30 </title>
  <desc>Image generated by PCBNEW </desc>
<g style="fill:#000000; fill-opacity:1.0000;stroke:#000000; stroke-opacity:1.0000;
stroke-linecap:round; stroke-linejoin:round;"
 transform="translate(0 0) scale(1 1)">
</g>
<g style="fill:#000000; fill-opacity:1.0000; 
stroke:#000000; stroke-width:0.0212; stroke-opacity:1; 
stroke-linecap:round; stroke-linejoin:round;">
<rect x="-5.000000" y="-40.560000" width="52.376906" height="59.978250" rx="0.000000" />
</g>
<g style="fill:none; 
stroke:#FFFFFF; stroke-width:0.1000; stroke-opacity:1; 
stroke-linecap:round; stroke-linejoin:round;">
<path d="M27.2150 -29.4300 A4.0000 4.0000 0.0 0 0 23.2150 -33.4300" />
<path d="M1.1650 -6.0300
L1.1650 -29.4300
" />
<path d="M5.1650 -33.4300 A4.0000 4.0000 0.0 0 0 1.1650 -29.4300" />
<path d="M23.2150 -2.0300 A4.0000 4.0000 0.0 0 0 27.2150 -6.0300" />
<path d="M23.2150 -2.0300
L5.1650 -2.0300
" />
<path d="M27.2150 -29.4300
L27.2150 -6.0300
" />
<path d="M5.1650 -33.4300
L23.2150 -33.4300
" />
<path d="M1.1650 -6.0300 A4.0000 4.0000 0.0 0 0 5.1650 -2.0300" />
</g> 
</svg>
