<?xml version="1.0" encoding="UTF-8" standalone="no"?>
<svg
   version="1.1"
   width="19.35mm"
   height="32.004299mm"
   viewBox="0 0 19.35 32.0043"
   id="svg132"
   sodipodi:docname="QC_Fab-F_Mask.svg"
   inkscape:version="1.1.2 (0a00cf5339, 2022-02-04)"
   xmlns:inkscape="http://www.inkscape.org/namespaces/inkscape"
   xmlns:sodipodi="http://sodipodi.sourceforge.net/DTD/sodipodi-0.dtd"
   xmlns="http://www.w3.org/2000/svg"
   xmlns:svg="http://www.w3.org/2000/svg"
   xmlns:rdf="http://www.w3.org/1999/02/22-rdf-syntax-ns#"
   xmlns:cc="http://creativecommons.org/ns#"
   xmlns:dc="http://purl.org/dc/elements/1.1/">
  <sodipodi:namedview
     id="namedview46"
     pagecolor="#ffffff"
     bordercolor="#666666"
     borderopacity="1.0"
     inkscape:pageshadow="2"
     inkscape:pageopacity="0.0"
     inkscape:pagecheckerboard="0"
     inkscape:document-units="mm"
     showgrid="false"
     inkscape:zoom="256"
     inkscape:cx="-0.75390625"
     inkscape:cy="120.69141"
     inkscape:window-width="1920"
     inkscape:window-height="1019"
     inkscape:window-x="0"
     inkscape:window-y="37"
     inkscape:window-maximized="1"
     inkscape:current-layer="svg132" />
  <defs
     id="defs136" />
  <title
     id="title2">SVG Image created as QC_Fab-F_Mask.svg date 2024/03/04 12:09:16 </title>
  <desc
     id="desc4">Image generated by PCBNEW </desc>
  <path
     style="fill:#d864ff;fill-opacity:0.4;fill-rule:evenodd;stroke:none;stroke-linecap:round;stroke-linejoin:round;stroke-opacity:1"
     d="m 4.52,3.6943 v 2 h -1.5 v -2 z"
     id="path6" />
  <path
     style="fill:#d864ff;fill-opacity:0.4;fill-rule:evenodd;stroke:none;stroke-linecap:round;stroke-linejoin:round;stroke-opacity:1"
     d="m 5.93,8.9443 v 2.5 h -2 v -2.5 z"
     id="path8" />
  <path
     style="fill:#d864ff;fill-opacity:0.4;fill-rule:evenodd;stroke:none;stroke-linecap:round;stroke-linejoin:round;stroke-opacity:1"
     d="m 6.83,3.6943 v 2 h -1.5 v -2 z"
     id="path10" />
  <path
     style="fill:#d864ff;fill-opacity:0.4;fill-rule:evenodd;stroke:none"
     d="m 11.8174,27.4373 v -2 h 1.2 v 2 z"
     id="path20" />
  <path
     style="fill:#d864ff;fill-opacity:0.4;fill-rule:evenodd;stroke:none"
     d="m 9.3174,27.4373 v -2 h 1.2 v 2 z"
     id="path22" />
  <path
     style="fill:#d864ff;fill-opacity:0.4;fill-rule:evenodd;stroke:none"
     d="m 7.3174,27.4373 v -2 h 1.2 v 2 z"
     id="path24" />
  <path
     style="fill:#d864ff;fill-opacity:0.4;fill-rule:evenodd;stroke:none"
     d="m 4.8174,27.4373 v -2 h 1.2 v 2 z"
     id="path26" />
  <path
     style="fill:#d864ff;fill-opacity:0.4;fill-rule:evenodd;stroke:none"
     d="m 14.4834,20.0123 h -1 v -2 h 1 z"
     id="path60" />
  <path
     style="fill:#d864ff;fill-opacity:0.4;fill-rule:evenodd;stroke:none"
     d="m 17.0234,23.3123 h -1 v -2 h 1 z"
     id="path62" />
  <path
     style="fill:#d864ff;fill-opacity:0.4;fill-rule:evenodd;stroke:none"
     d="m 4.33,13.0443 h 1.7 v 1.4 h -1.7 z"
     id="path64" />
  <path
     style="fill:#d864ff;fill-opacity:0.4;fill-rule:evenodd;stroke:none"
     d="m 4.33,16.4443 h 1.7 v 1.4 h -1.7 z"
     id="path66" />
  <path
     style="fill:#d864ff;fill-opacity:0.4;fill-rule:evenodd;stroke:none"
     d="m 11.6344,22.5943 v -0.7 h 1 v 0.7 z"
     id="path68" />
  <path
     style="fill:#d864ff;fill-opacity:0.4;fill-rule:evenodd;stroke:none"
     d="m 11.6344,24.4943 v -0.7 h 1 v 0.7 z"
     id="path70" />
  <path
     style="fill:#d864ff;fill-opacity:0.4;fill-rule:evenodd;stroke:none"
     d="m 14.0344,23.5443 v -0.7 h 1 v 0.7 z"
     id="path72" />
  <path
     style="fill:#d864ff;fill-opacity:0.4;fill-rule:evenodd;stroke:none"
     d="m 9.1174,19.2862 h 1.7 v 1.4 h -1.7 z"
     id="path74" />
  <path
     style="fill:#d864ff;fill-opacity:0.4;fill-rule:evenodd;stroke:none"
     d="m 9.1174,22.6862 h 1.7 v 1.4 h -1.7 z"
     id="path76" />
  <path
     style="fill:#d864ff;fill-opacity:0.4;fill-rule:evenodd;stroke:none"
     d="m 18.8202,10.1142 v 1.7 h -1.4 v -1.7 z"
     id="path84" />
  <path
     style="fill:#d864ff;fill-opacity:0.4;fill-rule:evenodd;stroke:none"
     d="m 15.4202,10.1142 v 1.7 h -1.4 v -1.7 z"
     id="path86" />
  <path
     style="fill:#d864ff;fill-opacity:0.4;fill-rule:evenodd;stroke:none"
     d="m 5.4526,2.0832 v -1.7 h 1.4 v 1.7 z"
     id="path88" />
  <path
     style="fill:#d864ff;fill-opacity:0.4;fill-rule:evenodd;stroke:none"
     d="m 8.8526,2.0832 v -1.7 h 1.4 v 1.7 z"
     id="path90" />
  <path
     style="fill:#d864ff;fill-opacity:0.4;fill-rule:evenodd;stroke:none"
     d="m 16.9035,0.3746 v 1.7 h -1.4 v -1.7 z"
     id="path92" />
  <path
     style="fill:#d864ff;fill-opacity:0.4;fill-rule:evenodd;stroke:none"
     d="m 13.5035,0.3746 v 1.7 h -1.4 v -1.7 z"
     id="path94" />
  <path
     style="fill:#d864ff;fill-opacity:0.4;fill-rule:evenodd;stroke:none"
     d="m 6.6055,13.381 v -0.8 h 2 v 0.8 z"
     id="path96" />
  <path
     style="fill:#d864ff;fill-opacity:0.4;fill-rule:evenodd;stroke:none"
     d="m 6.6055,14.651 v -0.8 h 2 v 0.8 z"
     id="path98" />
  <path
     style="fill:#d864ff;fill-opacity:0.4;fill-rule:evenodd;stroke:none"
     d="m 6.6055,15.921 v -0.8 h 2 v 0.8 z"
     id="path100" />
  <path
     style="fill:#d864ff;fill-opacity:0.4;fill-rule:evenodd;stroke:none"
     d="m 6.6055,17.191 v -0.8 h 2 v 0.8 z"
     id="path102" />
  <path
     style="fill:#d864ff;fill-opacity:0.4;fill-rule:evenodd;stroke:none"
     d="m 12.2055,17.191 v -0.8 h 2 v 0.8 z"
     id="path104" />
  <path
     style="fill:#d864ff;fill-opacity:0.4;fill-rule:evenodd;stroke:none"
     d="m 12.2055,15.921 v -0.8 h 2 v 0.8 z"
     id="path106" />
  <path
     style="fill:#d864ff;fill-opacity:0.4;fill-rule:evenodd;stroke:none"
     d="m 12.2055,14.651 v -0.8 h 2 v 0.8 z"
     id="path108" />
  <path
     style="fill:#d864ff;fill-opacity:0.4;fill-rule:evenodd;stroke:none"
     d="m 12.2055,13.381 v -0.8 h 2 v 0.8 z"
     id="path110" />
  <path
     style="fill:#d864ff;fill-opacity:0.4;fill-rule:evenodd;stroke:none"
     d="m 6.6509,11.7865 v -1.7 h 1.4 v 1.7 z"
     id="path112" />
  <path
     style="fill:#d864ff;fill-opacity:0.4;fill-rule:evenodd;stroke:none"
     d="m 10.0509,11.7865 v -1.7 h 1.4 v 1.7 z"
     id="path114" />
  <path
     style="fill:#d864ff;fill-opacity:0.4;fill-rule:evenodd;stroke:none"
     d="m 12.6174,7.7139 v 1.7 h -1.4 v -1.7 z"
     id="path116" />
  <path
     style="fill:#d864ff;fill-opacity:0.4;fill-rule:evenodd;stroke:none"
     d="m 9.2174,7.7139 v 1.7 h -1.4 v -1.7 z"
     id="path118" />
  <path
     style="fill:#d864ff;fill-opacity:0.4;fill-rule:evenodd;stroke:none"
     d="m 4.28,19.5443 h 1.7 v 1.4 h -1.7 z"
     id="path120" />
  <path
     style="fill:#d864ff;fill-opacity:0.4;fill-rule:evenodd;stroke:none"
     d="m 4.28,22.9443 h 1.7 v 1.4 h -1.7 z"
     id="path122" />
  <path
     style="fill:#d864ff;fill-opacity:0.4;fill-rule:evenodd;stroke:none"
     d="m 6.8161,19.2846 h 1.7 v 1.4 h -1.7 z"
     id="path124" />
  <path
     style="fill:#d864ff;fill-opacity:0.4;fill-rule:evenodd;stroke:none"
     d="m 6.8161,22.6846 h 1.7 v 1.4 h -1.7 z"
     id="path126" />
  <metadata
     id="metadata1467">
    <rdf:RDF>
      <cc:Work
         rdf:about="">
        <dc:title>SVG Image created as QC_Fab-F_Mask.svg date 2024/03/04 12:09:16 </dc:title>
      </cc:Work>
    </rdf:RDF>
  </metadata>
  <rect
     style="opacity:0.326281;fill:#333333;fill-opacity:0;stroke:#e6e6e6;stroke-width:0.735999"
     id="rect1037"
     width="0.040103231"
     height="0.019661015"
     x="-0.0011216536"
     y="31.979162" />
</svg>
