<?xml version="1.0" standalone="no"?>
 <!DOCTYPE svg PUBLIC "-//W3C//DTD SVG 1.1//EN" 
 "http://www.w3.org/Graphics/SVG/1.1/DTD/svg11.dtd"> 
<svg
  xmlns:svg="http://www.w3.org/2000/svg"
  xmlns="http://www.w3.org/2000/svg"
  xmlns:xlink="http://www.w3.org/1999/xlink"
  version="1.1"
  width="297.0022mm" height="210.0072mm" viewBox="0.0000 0.0000 297.0022 210.0072">
<title>SVG Image created as QC_Fab-F_Cu.svg date 2025/02/10 09:38:28 </title>
  <desc>Image generated by PCBNEW </desc>
<g style="fill:#000000; fill-opacity:1.0000;stroke:#000000; stroke-opacity:1.0000;
stroke-linecap:round; stroke-linejoin:round;"
 transform="translate(0 0) scale(1 1)">
</g>
<g style="fill:none; 
stroke:#000000; stroke-width:0.1500; stroke-opacity:1; 
stroke-linecap:round; stroke-linejoin:round;">
<path d="M177.0022 166.0072
L285.0022 166.0072
L285.0022 198.0072
L177.0022 198.0072
L177.0022 166.0072
" />
</g>
<g style="fill:none; 
stroke:#000000; stroke-width:0.1500; stroke-opacity:1; 
stroke-linecap:round; stroke-linejoin:round;">
<path d="M10.0000 10.0000
L287.0022 10.0000
L287.0022 200.0072
L10.0000 200.0072
L10.0000 10.0000
" />
</g>
<g style="fill:none; 
stroke:#000000; stroke-width:0.1500; stroke-opacity:1; 
stroke-linecap:round; stroke-linejoin:round;">
<path d="M12.0000 12.0000
L285.0022 12.0000
L285.0022 198.0072
L12.0000 198.0072
L12.0000 12.0000
" />
</g>
<g style="fill:none; 
stroke:#000000; stroke-width:0.1500; stroke-opacity:1; 
stroke-linecap:round; stroke-linejoin:round;">
<path d="M60.0000 12.0000
L60.0000 10.0000
" />
</g>
<g style="fill:none; 
stroke:#000000; stroke-width:0.1500; stroke-opacity:1; 
stroke-linecap:round; stroke-linejoin:round;">
<path d="M110.0000 12.0000
L110.0000 10.0000
" />
</g>
<g style="fill:none; 
stroke:#000000; stroke-width:0.1500; stroke-opacity:1; 
stroke-linecap:round; stroke-linejoin:round;">
<path d="M160.0000 12.0000
L160.0000 10.0000
" />
</g>
<g style="fill:none; 
stroke:#000000; stroke-width:0.1500; stroke-opacity:1; 
stroke-linecap:round; stroke-linejoin:round;">
<path d="M210.0000 12.0000
L210.0000 10.0000
" />
</g>
<g style="fill:none; 
stroke:#000000; stroke-width:0.1500; stroke-opacity:1; 
stroke-linecap:round; stroke-linejoin:round;">
<path d="M260.0000 12.0000
L260.0000 10.0000
" />
</g>
<g style="fill:none; 
stroke:#000000; stroke-width:0.1500; stroke-opacity:1; 
stroke-linecap:round; stroke-linejoin:round;">
<text x="35.0000" y="11.6500"
textLength="1.4281" font-size="1.7333" lengthAdjust="spacingAndGlyphs"
text-anchor="start" opacity="0" stroke-opacity="0">1</text>
<g class="stroked-text"><desc>1</desc>
<path d="M36.0892 11.5936
L35.3463 11.5936
" />
<path d="M35.7177 11.5936
L35.7177 10.2936
" />
<path d="M35.7177 10.2936
L35.5939 10.4793
" />
<path d="M35.5939 10.4793
L35.4701 10.6031
" />
<path d="M35.4701 10.6031
L35.3463 10.6650
" />
</g></g>
<g style="fill:none; 
stroke:#000000; stroke-width:0.1500; stroke-opacity:1; 
stroke-linecap:round; stroke-linejoin:round;">
<text x="85.0000" y="11.6500"
textLength="1.4281" font-size="1.7333" lengthAdjust="spacingAndGlyphs"
text-anchor="start" opacity="0" stroke-opacity="0">2</text>
<g class="stroked-text"><desc>2</desc>
<path d="M85.3463 10.4174
L85.4082 10.3555
" />
<path d="M85.4082 10.3555
L85.5320 10.2936
" />
<path d="M85.5320 10.2936
L85.8415 10.2936
" />
<path d="M85.8415 10.2936
L85.9654 10.3555
" />
<path d="M85.9654 10.3555
L86.0273 10.4174
" />
<path d="M86.0273 10.4174
L86.0892 10.5412
" />
<path d="M86.0892 10.5412
L86.0892 10.6650
" />
<path d="M86.0892 10.6650
L86.0273 10.8507
" />
<path d="M86.0273 10.8507
L85.2844 11.5936
" />
<path d="M85.2844 11.5936
L86.0892 11.5936
" />
</g></g>
<g style="fill:none; 
stroke:#000000; stroke-width:0.1500; stroke-opacity:1; 
stroke-linecap:round; stroke-linejoin:round;">
<text x="135.0000" y="11.6500"
textLength="1.4281" font-size="1.7333" lengthAdjust="spacingAndGlyphs"
text-anchor="start" opacity="0" stroke-opacity="0">3</text>
<g class="stroked-text"><desc>3</desc>
<path d="M135.2844 10.2936
L136.0892 10.2936
" />
<path d="M136.0892 10.2936
L135.6558 10.7888
" />
<path d="M135.6558 10.7888
L135.8415 10.7888
" />
<path d="M135.8415 10.7888
L135.9654 10.8507
" />
<path d="M135.9654 10.8507
L136.0273 10.9127
" />
<path d="M136.0273 10.9127
L136.0892 11.0365
" />
<path d="M136.0892 11.0365
L136.0892 11.3460
" />
<path d="M136.0892 11.3460
L136.0273 11.4698
" />
<path d="M136.0273 11.4698
L135.9654 11.5317
" />
<path d="M135.9654 11.5317
L135.8415 11.5936
" />
<path d="M135.8415 11.5936
L135.4701 11.5936
" />
<path d="M135.4701 11.5936
L135.3463 11.5317
" />
<path d="M135.3463 11.5317
L135.2844 11.4698
" />
</g></g>
<g style="fill:none; 
stroke:#000000; stroke-width:0.1500; stroke-opacity:1; 
stroke-linecap:round; stroke-linejoin:round;">
<text x="185.0000" y="11.6500"
textLength="1.4281" font-size="1.7333" lengthAdjust="spacingAndGlyphs"
text-anchor="start" opacity="0" stroke-opacity="0">4</text>
<g class="stroked-text"><desc>4</desc>
<path d="M185.9654 10.7269
L185.9654 11.5936
" />
<path d="M185.6558 10.2317
L185.3463 11.1603
" />
<path d="M185.3463 11.1603
L186.1511 11.1603
" />
</g></g>
<g style="fill:none; 
stroke:#000000; stroke-width:0.1500; stroke-opacity:1; 
stroke-linecap:round; stroke-linejoin:round;">
<text x="235.0000" y="11.6500"
textLength="1.4281" font-size="1.7333" lengthAdjust="spacingAndGlyphs"
text-anchor="start" opacity="0" stroke-opacity="0">5</text>
<g class="stroked-text"><desc>5</desc>
<path d="M236.0273 10.2936
L235.4082 10.2936
" />
<path d="M235.4082 10.2936
L235.3463 10.9127
" />
<path d="M235.3463 10.9127
L235.4082 10.8507
" />
<path d="M235.4082 10.8507
L235.5320 10.7888
" />
<path d="M235.5320 10.7888
L235.8415 10.7888
" />
<path d="M235.8415 10.7888
L235.9654 10.8507
" />
<path d="M235.9654 10.8507
L236.0273 10.9127
" />
<path d="M236.0273 10.9127
L236.0892 11.0365
" />
<path d="M236.0892 11.0365
L236.0892 11.3460
" />
<path d="M236.0892 11.3460
L236.0273 11.4698
" />
<path d="M236.0273 11.4698
L235.9654 11.5317
" />
<path d="M235.9654 11.5317
L235.8415 11.5936
" />
<path d="M235.8415 11.5936
L235.5320 11.5936
" />
<path d="M235.5320 11.5936
L235.4082 11.5317
" />
<path d="M235.4082 11.5317
L235.3463 11.4698
" />
</g></g>
<g style="fill:none; 
stroke:#000000; stroke-width:0.1500; stroke-opacity:1; 
stroke-linecap:round; stroke-linejoin:round;">
<text x="285.0000" y="11.6500"
textLength="1.4281" font-size="1.7333" lengthAdjust="spacingAndGlyphs"
text-anchor="start" opacity="0" stroke-opacity="0">6</text>
<g class="stroked-text"><desc>6</desc>
<path d="M285.9654 10.2936
L285.7177 10.2936
" />
<path d="M285.7177 10.2936
L285.5939 10.3555
" />
<path d="M285.5939 10.3555
L285.5320 10.4174
" />
<path d="M285.5320 10.4174
L285.4082 10.6031
" />
<path d="M285.4082 10.6031
L285.3463 10.8507
" />
<path d="M285.3463 10.8507
L285.3463 11.3460
" />
<path d="M285.3463 11.3460
L285.4082 11.4698
" />
<path d="M285.4082 11.4698
L285.4701 11.5317
" />
<path d="M285.4701 11.5317
L285.5939 11.5936
" />
<path d="M285.5939 11.5936
L285.8415 11.5936
" />
<path d="M285.8415 11.5936
L285.9654 11.5317
" />
<path d="M285.9654 11.5317
L286.0273 11.4698
" />
<path d="M286.0273 11.4698
L286.0892 11.3460
" />
<path d="M286.0892 11.3460
L286.0892 11.0365
" />
<path d="M286.0892 11.0365
L286.0273 10.9127
" />
<path d="M286.0273 10.9127
L285.9654 10.8507
" />
<path d="M285.9654 10.8507
L285.8415 10.7888
" />
<path d="M285.8415 10.7888
L285.5939 10.7888
" />
<path d="M285.5939 10.7888
L285.4701 10.8507
" />
<path d="M285.4701 10.8507
L285.4082 10.9127
" />
<path d="M285.4082 10.9127
L285.3463 11.0365
" />
</g></g>
<g style="fill:none; 
stroke:#000000; stroke-width:0.1500; stroke-opacity:1; 
stroke-linecap:round; stroke-linejoin:round;">
<path d="M60.0000 198.0072
L60.0000 200.0072
" />
</g>
<g style="fill:none; 
stroke:#000000; stroke-width:0.1500; stroke-opacity:1; 
stroke-linecap:round; stroke-linejoin:round;">
<path d="M110.0000 198.0072
L110.0000 200.0072
" />
</g>
<g style="fill:none; 
stroke:#000000; stroke-width:0.1500; stroke-opacity:1; 
stroke-linecap:round; stroke-linejoin:round;">
<path d="M160.0000 198.0072
L160.0000 200.0072
" />
</g>
<g style="fill:none; 
stroke:#000000; stroke-width:0.1500; stroke-opacity:1; 
stroke-linecap:round; stroke-linejoin:round;">
<path d="M210.0000 198.0072
L210.0000 200.0072
" />
</g>
<g style="fill:none; 
stroke:#000000; stroke-width:0.1500; stroke-opacity:1; 
stroke-linecap:round; stroke-linejoin:round;">
<path d="M260.0000 198.0072
L260.0000 200.0072
" />
</g>
<g style="fill:none; 
stroke:#000000; stroke-width:0.1500; stroke-opacity:1; 
stroke-linecap:round; stroke-linejoin:round;">
<text x="35.0000" y="199.6572"
textLength="1.4281" font-size="1.7333" lengthAdjust="spacingAndGlyphs"
text-anchor="start" opacity="0" stroke-opacity="0">1</text>
<g class="stroked-text"><desc>1</desc>
<path d="M36.0892 199.6008
L35.3463 199.6008
" />
<path d="M35.7177 199.6008
L35.7177 198.3008
" />
<path d="M35.7177 198.3008
L35.5939 198.4865
" />
<path d="M35.5939 198.4865
L35.4701 198.6103
" />
<path d="M35.4701 198.6103
L35.3463 198.6722
" />
</g></g>
<g style="fill:none; 
stroke:#000000; stroke-width:0.1500; stroke-opacity:1; 
stroke-linecap:round; stroke-linejoin:round;">
<text x="85.0000" y="199.6572"
textLength="1.4281" font-size="1.7333" lengthAdjust="spacingAndGlyphs"
text-anchor="start" opacity="0" stroke-opacity="0">2</text>
<g class="stroked-text"><desc>2</desc>
<path d="M85.3463 198.4246
L85.4082 198.3627
" />
<path d="M85.4082 198.3627
L85.5320 198.3008
" />
<path d="M85.5320 198.3008
L85.8415 198.3008
" />
<path d="M85.8415 198.3008
L85.9654 198.3627
" />
<path d="M85.9654 198.3627
L86.0273 198.4246
" />
<path d="M86.0273 198.4246
L86.0892 198.5484
" />
<path d="M86.0892 198.5484
L86.0892 198.6722
" />
<path d="M86.0892 198.6722
L86.0273 198.8579
" />
<path d="M86.0273 198.8579
L85.2844 199.6008
" />
<path d="M85.2844 199.6008
L86.0892 199.6008
" />
</g></g>
<g style="fill:none; 
stroke:#000000; stroke-width:0.1500; stroke-opacity:1; 
stroke-linecap:round; stroke-linejoin:round;">
<text x="135.0000" y="199.6572"
textLength="1.4281" font-size="1.7333" lengthAdjust="spacingAndGlyphs"
text-anchor="start" opacity="0" stroke-opacity="0">3</text>
<g class="stroked-text"><desc>3</desc>
<path d="M135.2844 198.3008
L136.0892 198.3008
" />
<path d="M136.0892 198.3008
L135.6558 198.7960
" />
<path d="M135.6558 198.7960
L135.8415 198.7960
" />
<path d="M135.8415 198.7960
L135.9654 198.8579
" />
<path d="M135.9654 198.8579
L136.0273 198.9199
" />
<path d="M136.0273 198.9199
L136.0892 199.0437
" />
<path d="M136.0892 199.0437
L136.0892 199.3532
" />
<path d="M136.0892 199.3532
L136.0273 199.4770
" />
<path d="M136.0273 199.4770
L135.9654 199.5389
" />
<path d="M135.9654 199.5389
L135.8415 199.6008
" />
<path d="M135.8415 199.6008
L135.4701 199.6008
" />
<path d="M135.4701 199.6008
L135.3463 199.5389
" />
<path d="M135.3463 199.5389
L135.2844 199.4770
" />
</g></g>
<g style="fill:none; 
stroke:#000000; stroke-width:0.1500; stroke-opacity:1; 
stroke-linecap:round; stroke-linejoin:round;">
<text x="185.0000" y="199.6572"
textLength="1.4281" font-size="1.7333" lengthAdjust="spacingAndGlyphs"
text-anchor="start" opacity="0" stroke-opacity="0">4</text>
<g class="stroked-text"><desc>4</desc>
<path d="M185.9654 198.7341
L185.9654 199.6008
" />
<path d="M185.6558 198.2389
L185.3463 199.1675
" />
<path d="M185.3463 199.1675
L186.1511 199.1675
" />
</g></g>
<g style="fill:none; 
stroke:#000000; stroke-width:0.1500; stroke-opacity:1; 
stroke-linecap:round; stroke-linejoin:round;">
<text x="235.0000" y="199.6572"
textLength="1.4281" font-size="1.7333" lengthAdjust="spacingAndGlyphs"
text-anchor="start" opacity="0" stroke-opacity="0">5</text>
<g class="stroked-text"><desc>5</desc>
<path d="M236.0273 198.3008
L235.4082 198.3008
" />
<path d="M235.4082 198.3008
L235.3463 198.9199
" />
<path d="M235.3463 198.9199
L235.4082 198.8579
" />
<path d="M235.4082 198.8579
L235.5320 198.7960
" />
<path d="M235.5320 198.7960
L235.8415 198.7960
" />
<path d="M235.8415 198.7960
L235.9654 198.8579
" />
<path d="M235.9654 198.8579
L236.0273 198.9199
" />
<path d="M236.0273 198.9199
L236.0892 199.0437
" />
<path d="M236.0892 199.0437
L236.0892 199.3532
" />
<path d="M236.0892 199.3532
L236.0273 199.4770
" />
<path d="M236.0273 199.4770
L235.9654 199.5389
" />
<path d="M235.9654 199.5389
L235.8415 199.6008
" />
<path d="M235.8415 199.6008
L235.5320 199.6008
" />
<path d="M235.5320 199.6008
L235.4082 199.5389
" />
<path d="M235.4082 199.5389
L235.3463 199.4770
" />
</g></g>
<g style="fill:none; 
stroke:#000000; stroke-width:0.1500; stroke-opacity:1; 
stroke-linecap:round; stroke-linejoin:round;">
<text x="285.0000" y="199.6572"
textLength="1.4281" font-size="1.7333" lengthAdjust="spacingAndGlyphs"
text-anchor="start" opacity="0" stroke-opacity="0">6</text>
<g class="stroked-text"><desc>6</desc>
<path d="M285.9654 198.3008
L285.7177 198.3008
" />
<path d="M285.7177 198.3008
L285.5939 198.3627
" />
<path d="M285.5939 198.3627
L285.5320 198.4246
" />
<path d="M285.5320 198.4246
L285.4082 198.6103
" />
<path d="M285.4082 198.6103
L285.3463 198.8579
" />
<path d="M285.3463 198.8579
L285.3463 199.3532
" />
<path d="M285.3463 199.3532
L285.4082 199.4770
" />
<path d="M285.4082 199.4770
L285.4701 199.5389
" />
<path d="M285.4701 199.5389
L285.5939 199.6008
" />
<path d="M285.5939 199.6008
L285.8415 199.6008
" />
<path d="M285.8415 199.6008
L285.9654 199.5389
" />
<path d="M285.9654 199.5389
L286.0273 199.4770
" />
<path d="M286.0273 199.4770
L286.0892 199.3532
" />
<path d="M286.0892 199.3532
L286.0892 199.0437
" />
<path d="M286.0892 199.0437
L286.0273 198.9199
" />
<path d="M286.0273 198.9199
L285.9654 198.8579
" />
<path d="M285.9654 198.8579
L285.8415 198.7960
" />
<path d="M285.8415 198.7960
L285.5939 198.7960
" />
<path d="M285.5939 198.7960
L285.4701 198.8579
" />
<path d="M285.4701 198.8579
L285.4082 198.9199
" />
<path d="M285.4082 198.9199
L285.3463 199.0437
" />
</g></g>
<g style="fill:none; 
stroke:#000000; stroke-width:0.1500; stroke-opacity:1; 
stroke-linecap:round; stroke-linejoin:round;">
<path d="M10.0000 60.0000
L12.0000 60.0000
" />
</g>
<g style="fill:none; 
stroke:#000000; stroke-width:0.1500; stroke-opacity:1; 
stroke-linecap:round; stroke-linejoin:round;">
<path d="M10.0000 110.0000
L12.0000 110.0000
" />
</g>
<g style="fill:none; 
stroke:#000000; stroke-width:0.1500; stroke-opacity:1; 
stroke-linecap:round; stroke-linejoin:round;">
<path d="M10.0000 160.0000
L12.0000 160.0000
" />
</g>
<g style="fill:none; 
stroke:#000000; stroke-width:0.1500; stroke-opacity:1; 
stroke-linecap:round; stroke-linejoin:round;">
<text x="11.0000" y="35.6500"
textLength="1.3043" font-size="1.7333" lengthAdjust="spacingAndGlyphs"
text-anchor="middle" opacity="0" stroke-opacity="0">A</text>
<g class="stroked-text"><desc>A</desc>
<path d="M10.6905 35.2222
L11.3095 35.2222
" />
<path d="M10.5667 35.5936
L11.0000 34.2936
" />
<path d="M11.0000 34.2936
L11.4333 35.5936
" />
</g></g>
<g style="fill:none; 
stroke:#000000; stroke-width:0.1500; stroke-opacity:1; 
stroke-linecap:round; stroke-linejoin:round;">
<text x="11.0000" y="85.6500"
textLength="1.4900" font-size="1.7333" lengthAdjust="spacingAndGlyphs"
text-anchor="middle" opacity="0" stroke-opacity="0">B</text>
<g class="stroked-text"><desc>B</desc>
<path d="M11.0929 84.9127
L11.2786 84.9746
" />
<path d="M11.2786 84.9746
L11.3405 85.0365
" />
<path d="M11.3405 85.0365
L11.4024 85.1603
" />
<path d="M11.4024 85.1603
L11.4024 85.3460
" />
<path d="M11.4024 85.3460
L11.3405 85.4698
" />
<path d="M11.3405 85.4698
L11.2786 85.5317
" />
<path d="M11.2786 85.5317
L11.1548 85.5936
" />
<path d="M11.1548 85.5936
L10.6595 85.5936
" />
<path d="M10.6595 85.5936
L10.6595 84.2936
" />
<path d="M10.6595 84.2936
L11.0929 84.2936
" />
<path d="M11.0929 84.2936
L11.2167 84.3555
" />
<path d="M11.2167 84.3555
L11.2786 84.4174
" />
<path d="M11.2786 84.4174
L11.3405 84.5412
" />
<path d="M11.3405 84.5412
L11.3405 84.6650
" />
<path d="M11.3405 84.6650
L11.2786 84.7888
" />
<path d="M11.2786 84.7888
L11.2167 84.8507
" />
<path d="M11.2167 84.8507
L11.0929 84.9127
" />
<path d="M11.0929 84.9127
L10.6595 84.9127
" />
</g></g>
<g style="fill:none; 
stroke:#000000; stroke-width:0.1500; stroke-opacity:1; 
stroke-linecap:round; stroke-linejoin:round;">
<text x="11.0000" y="135.6500"
textLength="1.4900" font-size="1.7333" lengthAdjust="spacingAndGlyphs"
text-anchor="middle" opacity="0" stroke-opacity="0">C</text>
<g class="stroked-text"><desc>C</desc>
<path d="M11.4024 135.4698
L11.3405 135.5317
" />
<path d="M11.3405 135.5317
L11.1548 135.5936
" />
<path d="M11.1548 135.5936
L11.0310 135.5936
" />
<path d="M11.0310 135.5936
L10.8452 135.5317
" />
<path d="M10.8452 135.5317
L10.7214 135.4079
" />
<path d="M10.7214 135.4079
L10.6595 135.2841
" />
<path d="M10.6595 135.2841
L10.5976 135.0365
" />
<path d="M10.5976 135.0365
L10.5976 134.8507
" />
<path d="M10.5976 134.8507
L10.6595 134.6031
" />
<path d="M10.6595 134.6031
L10.7214 134.4793
" />
<path d="M10.7214 134.4793
L10.8452 134.3555
" />
<path d="M10.8452 134.3555
L11.0310 134.2936
" />
<path d="M11.0310 134.2936
L11.1548 134.2936
" />
<path d="M11.1548 134.2936
L11.3405 134.3555
" />
<path d="M11.3405 134.3555
L11.4024 134.4174
" />
</g></g>
<g style="fill:none; 
stroke:#000000; stroke-width:0.1500; stroke-opacity:1; 
stroke-linecap:round; stroke-linejoin:round;">
<text x="11.0000" y="185.6500"
textLength="1.4900" font-size="1.7333" lengthAdjust="spacingAndGlyphs"
text-anchor="middle" opacity="0" stroke-opacity="0">D</text>
<g class="stroked-text"><desc>D</desc>
<path d="M10.6595 185.5936
L10.6595 184.2936
" />
<path d="M10.6595 184.2936
L10.9690 184.2936
" />
<path d="M10.9690 184.2936
L11.1548 184.3555
" />
<path d="M11.1548 184.3555
L11.2786 184.4793
" />
<path d="M11.2786 184.4793
L11.3405 184.6031
" />
<path d="M11.3405 184.6031
L11.4024 184.8507
" />
<path d="M11.4024 184.8507
L11.4024 185.0365
" />
<path d="M11.4024 185.0365
L11.3405 185.2841
" />
<path d="M11.3405 185.2841
L11.2786 185.4079
" />
<path d="M11.2786 185.4079
L11.1548 185.5317
" />
<path d="M11.1548 185.5317
L10.9690 185.5936
" />
<path d="M10.9690 185.5936
L10.6595 185.5936
" />
</g></g>
<g style="fill:none; 
stroke:#000000; stroke-width:0.1500; stroke-opacity:1; 
stroke-linecap:round; stroke-linejoin:round;">
<path d="M287.0022 60.0000
L285.0022 60.0000
" />
</g>
<g style="fill:none; 
stroke:#000000; stroke-width:0.1500; stroke-opacity:1; 
stroke-linecap:round; stroke-linejoin:round;">
<path d="M287.0022 110.0000
L285.0022 110.0000
" />
</g>
<g style="fill:none; 
stroke:#000000; stroke-width:0.1500; stroke-opacity:1; 
stroke-linecap:round; stroke-linejoin:round;">
<path d="M287.0022 160.0000
L285.0022 160.0000
" />
</g>
<g style="fill:none; 
stroke:#000000; stroke-width:0.1500; stroke-opacity:1; 
stroke-linecap:round; stroke-linejoin:round;">
<text x="286.0022" y="35.6500"
textLength="1.3043" font-size="1.7333" lengthAdjust="spacingAndGlyphs"
text-anchor="middle" opacity="0" stroke-opacity="0">A</text>
<g class="stroked-text"><desc>A</desc>
<path d="M285.6927 35.2222
L286.3117 35.2222
" />
<path d="M285.5689 35.5936
L286.0022 34.2936
" />
<path d="M286.0022 34.2936
L286.4355 35.5936
" />
</g></g>
<g style="fill:none; 
stroke:#000000; stroke-width:0.1500; stroke-opacity:1; 
stroke-linecap:round; stroke-linejoin:round;">
<text x="286.0022" y="85.6500"
textLength="1.4900" font-size="1.7333" lengthAdjust="spacingAndGlyphs"
text-anchor="middle" opacity="0" stroke-opacity="0">B</text>
<g class="stroked-text"><desc>B</desc>
<path d="M286.0951 84.9127
L286.2808 84.9746
" />
<path d="M286.2808 84.9746
L286.3427 85.0365
" />
<path d="M286.3427 85.0365
L286.4046 85.1603
" />
<path d="M286.4046 85.1603
L286.4046 85.3460
" />
<path d="M286.4046 85.3460
L286.3427 85.4698
" />
<path d="M286.3427 85.4698
L286.2808 85.5317
" />
<path d="M286.2808 85.5317
L286.1570 85.5936
" />
<path d="M286.1570 85.5936
L285.6617 85.5936
" />
<path d="M285.6617 85.5936
L285.6617 84.2936
" />
<path d="M285.6617 84.2936
L286.0951 84.2936
" />
<path d="M286.0951 84.2936
L286.2189 84.3555
" />
<path d="M286.2189 84.3555
L286.2808 84.4174
" />
<path d="M286.2808 84.4174
L286.3427 84.5412
" />
<path d="M286.3427 84.5412
L286.3427 84.6650
" />
<path d="M286.3427 84.6650
L286.2808 84.7888
" />
<path d="M286.2808 84.7888
L286.2189 84.8507
" />
<path d="M286.2189 84.8507
L286.0951 84.9127
" />
<path d="M286.0951 84.9127
L285.6617 84.9127
" />
</g></g>
<g style="fill:none; 
stroke:#000000; stroke-width:0.1500; stroke-opacity:1; 
stroke-linecap:round; stroke-linejoin:round;">
<text x="286.0022" y="135.6500"
textLength="1.4900" font-size="1.7333" lengthAdjust="spacingAndGlyphs"
text-anchor="middle" opacity="0" stroke-opacity="0">C</text>
<g class="stroked-text"><desc>C</desc>
<path d="M286.4046 135.4698
L286.3427 135.5317
" />
<path d="M286.3427 135.5317
L286.1570 135.5936
" />
<path d="M286.1570 135.5936
L286.0332 135.5936
" />
<path d="M286.0332 135.5936
L285.8474 135.5317
" />
<path d="M285.8474 135.5317
L285.7236 135.4079
" />
<path d="M285.7236 135.4079
L285.6617 135.2841
" />
<path d="M285.6617 135.2841
L285.5998 135.0365
" />
<path d="M285.5998 135.0365
L285.5998 134.8507
" />
<path d="M285.5998 134.8507
L285.6617 134.6031
" />
<path d="M285.6617 134.6031
L285.7236 134.4793
" />
<path d="M285.7236 134.4793
L285.8474 134.3555
" />
<path d="M285.8474 134.3555
L286.0332 134.2936
" />
<path d="M286.0332 134.2936
L286.1570 134.2936
" />
<path d="M286.1570 134.2936
L286.3427 134.3555
" />
<path d="M286.3427 134.3555
L286.4046 134.4174
" />
</g></g>
<g style="fill:none; 
stroke:#000000; stroke-width:0.1500; stroke-opacity:1; 
stroke-linecap:round; stroke-linejoin:round;">
<text x="286.0022" y="185.6500"
textLength="1.4900" font-size="1.7333" lengthAdjust="spacingAndGlyphs"
text-anchor="middle" opacity="0" stroke-opacity="0">D</text>
<g class="stroked-text"><desc>D</desc>
<path d="M285.6617 185.5936
L285.6617 184.2936
" />
<path d="M285.6617 184.2936
L285.9712 184.2936
" />
<path d="M285.9712 184.2936
L286.1570 184.3555
" />
<path d="M286.1570 184.3555
L286.2808 184.4793
" />
<path d="M286.2808 184.4793
L286.3427 184.6031
" />
<path d="M286.3427 184.6031
L286.4046 184.8507
" />
<path d="M286.4046 184.8507
L286.4046 185.0365
" />
<path d="M286.4046 185.0365
L286.3427 185.2841
" />
<path d="M286.3427 185.2841
L286.2808 185.4079
" />
<path d="M286.2808 185.4079
L286.1570 185.5317
" />
<path d="M286.1570 185.5317
L285.9712 185.5936
" />
<path d="M285.9712 185.5936
L285.6617 185.5936
" />
</g></g>
<g style="fill:none; 
stroke:#000000; stroke-width:0.1500; stroke-opacity:1; 
stroke-linecap:round; stroke-linejoin:round;">
<text x="200.0022" y="193.8572"
textLength="7.0071" font-size="2.0000" lengthAdjust="spacingAndGlyphs"
text-anchor="start" opacity="0" stroke-opacity="0">Date: </text>
<g class="stroked-text"><desc>Date: </desc>
<path d="M200.4580 193.7933
L200.4580 192.2933
" />
<path d="M200.4580 192.2933
L200.8152 192.2933
" />
<path d="M200.8152 192.2933
L201.0295 192.3648
" />
<path d="M201.0295 192.3648
L201.1723 192.5076
" />
<path d="M201.1723 192.5076
L201.2437 192.6505
" />
<path d="M201.2437 192.6505
L201.3152 192.9362
" />
<path d="M201.3152 192.9362
L201.3152 193.1505
" />
<path d="M201.3152 193.1505
L201.2437 193.4362
" />
<path d="M201.2437 193.4362
L201.1723 193.5790
" />
<path d="M201.1723 193.5790
L201.0295 193.7219
" />
<path d="M201.0295 193.7219
L200.8152 193.7933
" />
<path d="M200.8152 193.7933
L200.4580 193.7933
" />
<path d="M202.6009 193.7933
L202.6009 193.0076
" />
<path d="M202.6009 193.0076
L202.5295 192.8648
" />
<path d="M202.5295 192.8648
L202.3866 192.7933
" />
<path d="M202.3866 192.7933
L202.1009 192.7933
" />
<path d="M202.1009 192.7933
L201.9580 192.8648
" />
<path d="M202.6009 193.7219
L202.4580 193.7933
" />
<path d="M202.4580 193.7933
L202.1009 193.7933
" />
<path d="M202.1009 193.7933
L201.9580 193.7219
" />
<path d="M201.9580 193.7219
L201.8866 193.5790
" />
<path d="M201.8866 193.5790
L201.8866 193.4362
" />
<path d="M201.8866 193.4362
L201.9580 193.2933
" />
<path d="M201.9580 193.2933
L202.1009 193.2219
" />
<path d="M202.1009 193.2219
L202.4580 193.2219
" />
<path d="M202.4580 193.2219
L202.6009 193.1505
" />
<path d="M203.1009 192.7933
L203.6723 192.7933
" />
<path d="M203.3152 192.2933
L203.3152 193.5790
" />
<path d="M203.3152 193.5790
L203.3866 193.7219
" />
<path d="M203.3866 193.7219
L203.5295 193.7933
" />
<path d="M203.5295 193.7933
L203.6723 193.7933
" />
<path d="M204.7437 193.7219
L204.6009 193.7933
" />
<path d="M204.6009 193.7933
L204.3152 193.7933
" />
<path d="M204.3152 193.7933
L204.1723 193.7219
" />
<path d="M204.1723 193.7219
L204.1009 193.5790
" />
<path d="M204.1009 193.5790
L204.1009 193.0076
" />
<path d="M204.1009 193.0076
L204.1723 192.8648
" />
<path d="M204.1723 192.8648
L204.3152 192.7933
" />
<path d="M204.3152 192.7933
L204.6009 192.7933
" />
<path d="M204.6009 192.7933
L204.7437 192.8648
" />
<path d="M204.7437 192.8648
L204.8152 193.0076
" />
<path d="M204.8152 193.0076
L204.8152 193.1505
" />
<path d="M204.8152 193.1505
L204.1009 193.2933
" />
<path d="M205.4580 193.6505
L205.5295 193.7219
" />
<path d="M205.5295 193.7219
L205.4580 193.7933
" />
<path d="M205.4580 193.7933
L205.3866 193.7219
" />
<path d="M205.3866 193.7219
L205.4580 193.6505
" />
<path d="M205.4580 193.6505
L205.4580 193.7933
" />
<path d="M205.4580 192.8648
L205.5295 192.9362
" />
<path d="M205.5295 192.9362
L205.4580 193.0076
" />
<path d="M205.4580 193.0076
L205.3866 192.9362
" />
<path d="M205.3866 192.9362
L205.4580 192.8648
" />
<path d="M205.4580 192.8648
L205.4580 193.0076
" />
</g></g>
<g style="fill:none; 
stroke:#000000; stroke-width:0.1500; stroke-opacity:1; 
stroke-linecap:round; stroke-linejoin:round;">
<path d="M177.0022 194.5072
L285.0022 194.5072
" />
</g>
<g style="fill:none; 
stroke:#000000; stroke-width:0.1500; stroke-opacity:1; 
stroke-linecap:round; stroke-linejoin:round;">
<text x="178.0022" y="196.6572"
textLength="20.8643" font-size="2.0000" lengthAdjust="spacingAndGlyphs"
text-anchor="start" opacity="0" stroke-opacity="0">KiCad E.D.A. 8.0.7</text>
<g class="stroked-text"><desc>KiCad E.D.A. 8.0.7</desc>
<path d="M178.4580 196.5933
L178.4580 195.0933
" />
<path d="M179.3152 196.5933
L178.6723 195.7362
" />
<path d="M179.3152 195.0933
L178.4580 195.9505
" />
<path d="M179.9580 196.5933
L179.9580 195.5933
" />
<path d="M179.9580 195.0933
L179.8866 195.1648
" />
<path d="M179.8866 195.1648
L179.9580 195.2362
" />
<path d="M179.9580 195.2362
L180.0295 195.1648
" />
<path d="M180.0295 195.1648
L179.9580 195.0933
" />
<path d="M179.9580 195.0933
L179.9580 195.2362
" />
<path d="M181.5295 196.4505
L181.4580 196.5219
" />
<path d="M181.4580 196.5219
L181.2437 196.5933
" />
<path d="M181.2437 196.5933
L181.1009 196.5933
" />
<path d="M181.1009 196.5933
L180.8866 196.5219
" />
<path d="M180.8866 196.5219
L180.7437 196.3790
" />
<path d="M180.7437 196.3790
L180.6723 196.2362
" />
<path d="M180.6723 196.2362
L180.6009 195.9505
" />
<path d="M180.6009 195.9505
L180.6009 195.7362
" />
<path d="M180.6009 195.7362
L180.6723 195.4505
" />
<path d="M180.6723 195.4505
L180.7437 195.3076
" />
<path d="M180.7437 195.3076
L180.8866 195.1648
" />
<path d="M180.8866 195.1648
L181.1009 195.0933
" />
<path d="M181.1009 195.0933
L181.2437 195.0933
" />
<path d="M181.2437 195.0933
L181.4580 195.1648
" />
<path d="M181.4580 195.1648
L181.5295 195.2362
" />
<path d="M182.8152 196.5933
L182.8152 195.8076
" />
<path d="M182.8152 195.8076
L182.7437 195.6648
" />
<path d="M182.7437 195.6648
L182.6009 195.5933
" />
<path d="M182.6009 195.5933
L182.3152 195.5933
" />
<path d="M182.3152 195.5933
L182.1723 195.6648
" />
<path d="M182.8152 196.5219
L182.6723 196.5933
" />
<path d="M182.6723 196.5933
L182.3152 196.5933
" />
<path d="M182.3152 196.5933
L182.1723 196.5219
" />
<path d="M182.1723 196.5219
L182.1009 196.3790
" />
<path d="M182.1009 196.3790
L182.1009 196.2362
" />
<path d="M182.1009 196.2362
L182.1723 196.0933
" />
<path d="M182.1723 196.0933
L182.3152 196.0219
" />
<path d="M182.3152 196.0219
L182.6723 196.0219
" />
<path d="M182.6723 196.0219
L182.8152 195.9505
" />
<path d="M184.1723 196.5933
L184.1723 195.0933
" />
<path d="M184.1723 196.5219
L184.0295 196.5933
" />
<path d="M184.0295 196.5933
L183.7437 196.5933
" />
<path d="M183.7437 196.5933
L183.6009 196.5219
" />
<path d="M183.6009 196.5219
L183.5295 196.4505
" />
<path d="M183.5295 196.4505
L183.4580 196.3076
" />
<path d="M183.4580 196.3076
L183.4580 195.8790
" />
<path d="M183.4580 195.8790
L183.5295 195.7362
" />
<path d="M183.5295 195.7362
L183.6009 195.6648
" />
<path d="M183.6009 195.6648
L183.7437 195.5933
" />
<path d="M183.7437 195.5933
L184.0295 195.5933
" />
<path d="M184.0295 195.5933
L184.1723 195.6648
" />
<path d="M186.0295 195.8076
L186.5295 195.8076
" />
<path d="M186.7437 196.5933
L186.0295 196.5933
" />
<path d="M186.0295 196.5933
L186.0295 195.0933
" />
<path d="M186.0295 195.0933
L186.7437 195.0933
" />
<path d="M187.3866 196.4505
L187.4580 196.5219
" />
<path d="M187.4580 196.5219
L187.3866 196.5933
" />
<path d="M187.3866 196.5933
L187.3152 196.5219
" />
<path d="M187.3152 196.5219
L187.3866 196.4505
" />
<path d="M187.3866 196.4505
L187.3866 196.5933
" />
<path d="M188.1009 196.5933
L188.1009 195.0933
" />
<path d="M188.1009 195.0933
L188.4580 195.0933
" />
<path d="M188.4580 195.0933
L188.6723 195.1648
" />
<path d="M188.6723 195.1648
L188.8152 195.3076
" />
<path d="M188.8152 195.3076
L188.8866 195.4505
" />
<path d="M188.8866 195.4505
L188.9580 195.7362
" />
<path d="M188.9580 195.7362
L188.9580 195.9505
" />
<path d="M188.9580 195.9505
L188.8866 196.2362
" />
<path d="M188.8866 196.2362
L188.8152 196.3790
" />
<path d="M188.8152 196.3790
L188.6723 196.5219
" />
<path d="M188.6723 196.5219
L188.4580 196.5933
" />
<path d="M188.4580 196.5933
L188.1009 196.5933
" />
<path d="M189.6009 196.4505
L189.6723 196.5219
" />
<path d="M189.6723 196.5219
L189.6009 196.5933
" />
<path d="M189.6009 196.5933
L189.5295 196.5219
" />
<path d="M189.5295 196.5219
L189.6009 196.4505
" />
<path d="M189.6009 196.4505
L189.6009 196.5933
" />
<path d="M190.2437 196.1648
L190.9580 196.1648
" />
<path d="M190.1009 196.5933
L190.6009 195.0933
" />
<path d="M190.6009 195.0933
L191.1009 196.5933
" />
<path d="M191.6009 196.4505
L191.6723 196.5219
" />
<path d="M191.6723 196.5219
L191.6009 196.5933
" />
<path d="M191.6009 196.5933
L191.5295 196.5219
" />
<path d="M191.5295 196.5219
L191.6009 196.4505
" />
<path d="M191.6009 196.4505
L191.6009 196.5933
" />
<path d="M193.6723 195.7362
L193.5295 195.6648
" />
<path d="M193.5295 195.6648
L193.4580 195.5933
" />
<path d="M193.4580 195.5933
L193.3866 195.4505
" />
<path d="M193.3866 195.4505
L193.3866 195.3790
" />
<path d="M193.3866 195.3790
L193.4580 195.2362
" />
<path d="M193.4580 195.2362
L193.5295 195.1648
" />
<path d="M193.5295 195.1648
L193.6723 195.0933
" />
<path d="M193.6723 195.0933
L193.9580 195.0933
" />
<path d="M193.9580 195.0933
L194.1009 195.1648
" />
<path d="M194.1009 195.1648
L194.1723 195.2362
" />
<path d="M194.1723 195.2362
L194.2437 195.3790
" />
<path d="M194.2437 195.3790
L194.2437 195.4505
" />
<path d="M194.2437 195.4505
L194.1723 195.5933
" />
<path d="M194.1723 195.5933
L194.1009 195.6648
" />
<path d="M194.1009 195.6648
L193.9580 195.7362
" />
<path d="M193.9580 195.7362
L193.6723 195.7362
" />
<path d="M193.6723 195.7362
L193.5295 195.8076
" />
<path d="M193.5295 195.8076
L193.4580 195.8790
" />
<path d="M193.4580 195.8790
L193.3866 196.0219
" />
<path d="M193.3866 196.0219
L193.3866 196.3076
" />
<path d="M193.3866 196.3076
L193.4580 196.4505
" />
<path d="M193.4580 196.4505
L193.5295 196.5219
" />
<path d="M193.5295 196.5219
L193.6723 196.5933
" />
<path d="M193.6723 196.5933
L193.9580 196.5933
" />
<path d="M193.9580 196.5933
L194.1009 196.5219
" />
<path d="M194.1009 196.5219
L194.1723 196.4505
" />
<path d="M194.1723 196.4505
L194.2437 196.3076
" />
<path d="M194.2437 196.3076
L194.2437 196.0219
" />
<path d="M194.2437 196.0219
L194.1723 195.8790
" />
<path d="M194.1723 195.8790
L194.1009 195.8076
" />
<path d="M194.1009 195.8076
L193.9580 195.7362
" />
<path d="M194.8866 196.4505
L194.9580 196.5219
" />
<path d="M194.9580 196.5219
L194.8866 196.5933
" />
<path d="M194.8866 196.5933
L194.8152 196.5219
" />
<path d="M194.8152 196.5219
L194.8866 196.4505
" />
<path d="M194.8866 196.4505
L194.8866 196.5933
" />
<path d="M195.8866 195.0933
L196.0295 195.0933
" />
<path d="M196.0295 195.0933
L196.1723 195.1648
" />
<path d="M196.1723 195.1648
L196.2437 195.2362
" />
<path d="M196.2437 195.2362
L196.3152 195.3790
" />
<path d="M196.3152 195.3790
L196.3866 195.6648
" />
<path d="M196.3866 195.6648
L196.3866 196.0219
" />
<path d="M196.3866 196.0219
L196.3152 196.3076
" />
<path d="M196.3152 196.3076
L196.2437 196.4505
" />
<path d="M196.2437 196.4505
L196.1723 196.5219
" />
<path d="M196.1723 196.5219
L196.0295 196.5933
" />
<path d="M196.0295 196.5933
L195.8866 196.5933
" />
<path d="M195.8866 196.5933
L195.7437 196.5219
" />
<path d="M195.7437 196.5219
L195.6723 196.4505
" />
<path d="M195.6723 196.4505
L195.6009 196.3076
" />
<path d="M195.6009 196.3076
L195.5295 196.0219
" />
<path d="M195.5295 196.0219
L195.5295 195.6648
" />
<path d="M195.5295 195.6648
L195.6009 195.3790
" />
<path d="M195.6009 195.3790
L195.6723 195.2362
" />
<path d="M195.6723 195.2362
L195.7437 195.1648
" />
<path d="M195.7437 195.1648
L195.8866 195.0933
" />
<path d="M197.0295 196.4505
L197.1009 196.5219
" />
<path d="M197.1009 196.5219
L197.0295 196.5933
" />
<path d="M197.0295 196.5933
L196.9580 196.5219
" />
<path d="M196.9580 196.5219
L197.0295 196.4505
" />
<path d="M197.0295 196.4505
L197.0295 196.5933
" />
<path d="M197.6009 195.0933
L198.6009 195.0933
" />
<path d="M198.6009 195.0933
L197.9580 196.5933
" />
</g></g>
<g style="fill:none; 
stroke:#000000; stroke-width:0.1500; stroke-opacity:1; 
stroke-linecap:round; stroke-linejoin:round;">
<path d="M177.0022 191.5072
L285.0022 191.5072
" />
</g>
<g style="fill:none; 
stroke:#000000; stroke-width:0.3000; stroke-opacity:1; 
stroke-linecap:round; stroke-linejoin:round;">
<text x="263.0022" y="193.8572"
textLength="6.3857" font-size="2.0000" lengthAdjust="spacingAndGlyphs"
text-anchor="start" opacity="0" stroke-opacity="0">Rev: </text>
<g class="stroked-text"><desc>Rev: </desc>
<path d="M264.4139 193.7855
L263.9139 193.0712
" />
<path d="M263.5567 193.7855
L263.5567 192.2855
" />
<path d="M263.5567 192.2855
L264.1281 192.2855
" />
<path d="M264.1281 192.2855
L264.2710 192.3570
" />
<path d="M264.2710 192.3570
L264.3424 192.4284
" />
<path d="M264.3424 192.4284
L264.4139 192.5712
" />
<path d="M264.4139 192.5712
L264.4139 192.7855
" />
<path d="M264.4139 192.7855
L264.3424 192.9284
" />
<path d="M264.3424 192.9284
L264.2710 192.9998
" />
<path d="M264.2710 192.9998
L264.1281 193.0712
" />
<path d="M264.1281 193.0712
L263.5567 193.0712
" />
<path d="M265.6281 193.7141
L265.4853 193.7855
" />
<path d="M265.4853 193.7855
L265.1996 193.7855
" />
<path d="M265.1996 193.7855
L265.0567 193.7141
" />
<path d="M265.0567 193.7141
L264.9853 193.5712
" />
<path d="M264.9853 193.5712
L264.9853 192.9998
" />
<path d="M264.9853 192.9998
L265.0567 192.8570
" />
<path d="M265.0567 192.8570
L265.1996 192.7855
" />
<path d="M265.1996 192.7855
L265.4853 192.7855
" />
<path d="M265.4853 192.7855
L265.6281 192.8570
" />
<path d="M265.6281 192.8570
L265.6996 192.9998
" />
<path d="M265.6996 192.9998
L265.6996 193.1427
" />
<path d="M265.6996 193.1427
L264.9853 193.2855
" />
<path d="M266.1996 192.7855
L266.5567 193.7855
" />
<path d="M266.5567 193.7855
L266.9139 192.7855
" />
<path d="M267.4853 193.6427
L267.5567 193.7141
" />
<path d="M267.5567 193.7141
L267.4853 193.7855
" />
<path d="M267.4853 193.7855
L267.4139 193.7141
" />
<path d="M267.4139 193.7141
L267.4853 193.6427
" />
<path d="M267.4853 193.6427
L267.4853 193.7855
" />
<path d="M267.4853 192.8570
L267.5567 192.9284
" />
<path d="M267.5567 192.9284
L267.4853 192.9998
" />
<path d="M267.4853 192.9998
L267.4139 192.9284
" />
<path d="M267.4139 192.9284
L267.4853 192.8570
" />
<path d="M267.4853 192.8570
L267.4853 192.9998
" />
</g></g>
<g style="fill:none; 
stroke:#000000; stroke-width:0.1500; stroke-opacity:1; 
stroke-linecap:round; stroke-linejoin:round;">
<text x="178.0022" y="193.8572"
textLength="9.3643" font-size="2.0000" lengthAdjust="spacingAndGlyphs"
text-anchor="start" opacity="0" stroke-opacity="0">Size: A4</text>
<g class="stroked-text"><desc>Size: A4</desc>
<path d="M178.3866 193.7219
L178.6009 193.7933
" />
<path d="M178.6009 193.7933
L178.9580 193.7933
" />
<path d="M178.9580 193.7933
L179.1009 193.7219
" />
<path d="M179.1009 193.7219
L179.1723 193.6505
" />
<path d="M179.1723 193.6505
L179.2437 193.5076
" />
<path d="M179.2437 193.5076
L179.2437 193.3648
" />
<path d="M179.2437 193.3648
L179.1723 193.2219
" />
<path d="M179.1723 193.2219
L179.1009 193.1505
" />
<path d="M179.1009 193.1505
L178.9580 193.0790
" />
<path d="M178.9580 193.0790
L178.6723 193.0076
" />
<path d="M178.6723 193.0076
L178.5295 192.9362
" />
<path d="M178.5295 192.9362
L178.4580 192.8648
" />
<path d="M178.4580 192.8648
L178.3866 192.7219
" />
<path d="M178.3866 192.7219
L178.3866 192.5790
" />
<path d="M178.3866 192.5790
L178.4580 192.4362
" />
<path d="M178.4580 192.4362
L178.5295 192.3648
" />
<path d="M178.5295 192.3648
L178.6723 192.2933
" />
<path d="M178.6723 192.2933
L179.0295 192.2933
" />
<path d="M179.0295 192.2933
L179.2437 192.3648
" />
<path d="M179.8866 193.7933
L179.8866 192.7933
" />
<path d="M179.8866 192.2933
L179.8152 192.3648
" />
<path d="M179.8152 192.3648
L179.8866 192.4362
" />
<path d="M179.8866 192.4362
L179.9580 192.3648
" />
<path d="M179.9580 192.3648
L179.8866 192.2933
" />
<path d="M179.8866 192.2933
L179.8866 192.4362
" />
<path d="M180.4580 192.7933
L181.2437 192.7933
" />
<path d="M181.2437 192.7933
L180.4580 193.7933
" />
<path d="M180.4580 193.7933
L181.2437 193.7933
" />
<path d="M182.3866 193.7219
L182.2437 193.7933
" />
<path d="M182.2437 193.7933
L181.9580 193.7933
" />
<path d="M181.9580 193.7933
L181.8152 193.7219
" />
<path d="M181.8152 193.7219
L181.7437 193.5790
" />
<path d="M181.7437 193.5790
L181.7437 193.0076
" />
<path d="M181.7437 193.0076
L181.8152 192.8648
" />
<path d="M181.8152 192.8648
L181.9580 192.7933
" />
<path d="M181.9580 192.7933
L182.2437 192.7933
" />
<path d="M182.2437 192.7933
L182.3866 192.8648
" />
<path d="M182.3866 192.8648
L182.4580 193.0076
" />
<path d="M182.4580 193.0076
L182.4580 193.1505
" />
<path d="M182.4580 193.1505
L181.7437 193.2933
" />
<path d="M183.1009 193.6505
L183.1723 193.7219
" />
<path d="M183.1723 193.7219
L183.1009 193.7933
" />
<path d="M183.1009 193.7933
L183.0295 193.7219
" />
<path d="M183.0295 193.7219
L183.1009 193.6505
" />
<path d="M183.1009 193.6505
L183.1009 193.7933
" />
<path d="M183.1009 192.8648
L183.1723 192.9362
" />
<path d="M183.1723 192.9362
L183.1009 193.0076
" />
<path d="M183.1009 193.0076
L183.0295 192.9362
" />
<path d="M183.0295 192.9362
L183.1009 192.8648
" />
<path d="M183.1009 192.8648
L183.1009 193.0076
" />
<path d="M184.8866 193.3648
L185.6009 193.3648
" />
<path d="M184.7437 193.7933
L185.2437 192.2933
" />
<path d="M185.2437 192.2933
L185.7437 193.7933
" />
<path d="M186.8866 192.7933
L186.8866 193.7933
" />
<path d="M186.5295 192.2219
L186.1723 193.2933
" />
<path d="M186.1723 193.2933
L187.1009 193.2933
" />
</g></g>
<g style="fill:none; 
stroke:#000000; stroke-width:0.1500; stroke-opacity:1; 
stroke-linecap:round; stroke-linejoin:round;">
<text x="263.0022" y="196.6572"
textLength="8.5071" font-size="2.0000" lengthAdjust="spacingAndGlyphs"
text-anchor="start" opacity="0" stroke-opacity="0">Id: 1/1</text>
<g class="stroked-text"><desc>Id: 1/1</desc>
<path d="M263.4580 196.5933
L263.4580 195.0933
" />
<path d="M264.8152 196.5933
L264.8152 195.0933
" />
<path d="M264.8152 196.5219
L264.6723 196.5933
" />
<path d="M264.6723 196.5933
L264.3866 196.5933
" />
<path d="M264.3866 196.5933
L264.2437 196.5219
" />
<path d="M264.2437 196.5219
L264.1723 196.4505
" />
<path d="M264.1723 196.4505
L264.1009 196.3076
" />
<path d="M264.1009 196.3076
L264.1009 195.8790
" />
<path d="M264.1009 195.8790
L264.1723 195.7362
" />
<path d="M264.1723 195.7362
L264.2437 195.6648
" />
<path d="M264.2437 195.6648
L264.3866 195.5933
" />
<path d="M264.3866 195.5933
L264.6723 195.5933
" />
<path d="M264.6723 195.5933
L264.8152 195.6648
" />
<path d="M265.5295 196.4505
L265.6009 196.5219
" />
<path d="M265.6009 196.5219
L265.5295 196.5933
" />
<path d="M265.5295 196.5933
L265.4580 196.5219
" />
<path d="M265.4580 196.5219
L265.5295 196.4505
" />
<path d="M265.5295 196.4505
L265.5295 196.5933
" />
<path d="M265.5295 195.6648
L265.6009 195.7362
" />
<path d="M265.6009 195.7362
L265.5295 195.8076
" />
<path d="M265.5295 195.8076
L265.4580 195.7362
" />
<path d="M265.4580 195.7362
L265.5295 195.6648
" />
<path d="M265.5295 195.6648
L265.5295 195.8076
" />
<path d="M268.1723 196.5933
L267.3152 196.5933
" />
<path d="M267.7437 196.5933
L267.7437 195.0933
" />
<path d="M267.7437 195.0933
L267.6009 195.3076
" />
<path d="M267.6009 195.3076
L267.4580 195.4505
" />
<path d="M267.4580 195.4505
L267.3152 195.5219
" />
<path d="M269.8866 195.0219
L268.6009 196.9505
" />
<path d="M271.1723 196.5933
L270.3152 196.5933
" />
<path d="M270.7437 196.5933
L270.7437 195.0933
" />
<path d="M270.7437 195.0933
L270.6009 195.3076
" />
<path d="M270.6009 195.3076
L270.4580 195.4505
" />
<path d="M270.4580 195.4505
L270.3152 195.5219
" />
</g></g>
<g style="fill:none; 
stroke:#000000; stroke-width:0.1500; stroke-opacity:1; 
stroke-linecap:round; stroke-linejoin:round;">
<path d="M177.0022 187.5072
L285.0022 187.5072
" />
</g>
<g style="fill:none; 
stroke:#000000; stroke-width:0.4000; stroke-opacity:1; 
stroke-linecap:round; stroke-linejoin:round;">
<text x="178.0022" y="190.3072"
textLength="9.6571" font-size="2.6667" lengthAdjust="spacingAndGlyphs"
text-anchor="start" opacity="0" stroke-opacity="0">Title: </text>
<g class="stroked-text"><desc>Title: </desc>
<path d="M178.6939 188.2116
L179.8368 188.2116
" />
<path d="M179.0154 190.2116
L179.2654 188.2116
" />
<path d="M180.2535 190.2116
L180.4201 188.8783
" />
<path d="M180.5035 188.2116
L180.3963 188.3069
" />
<path d="M180.3963 188.3069
L180.4796 188.4021
" />
<path d="M180.4796 188.4021
L180.5868 188.3069
" />
<path d="M180.5868 188.3069
L180.5035 188.2116
" />
<path d="M180.5035 188.2116
L180.4796 188.4021
" />
<path d="M181.0868 188.8783
L181.8487 188.8783
" />
<path d="M181.4558 188.2116
L181.2415 189.9259
" />
<path d="M181.2415 189.9259
L181.3130 190.1164
" />
<path d="M181.3130 190.1164
L181.4915 190.2116
" />
<path d="M181.4915 190.2116
L181.6820 190.2116
" />
<path d="M182.6344 190.2116
L182.4558 190.1164
" />
<path d="M182.4558 190.1164
L182.3844 189.9259
" />
<path d="M182.3844 189.9259
L182.5987 188.2116
" />
<path d="M184.1701 190.1164
L183.9677 190.2116
" />
<path d="M183.9677 190.2116
L183.5868 190.2116
" />
<path d="M183.5868 190.2116
L183.4082 190.1164
" />
<path d="M183.4082 190.1164
L183.3368 189.9259
" />
<path d="M183.3368 189.9259
L183.4320 189.1640
" />
<path d="M183.4320 189.1640
L183.5511 188.9735
" />
<path d="M183.5511 188.9735
L183.7535 188.8783
" />
<path d="M183.7535 188.8783
L184.1344 188.8783
" />
<path d="M184.1344 188.8783
L184.3130 188.9735
" />
<path d="M184.3130 188.9735
L184.3844 189.1640
" />
<path d="M184.3844 189.1640
L184.3606 189.3545
" />
<path d="M184.3606 189.3545
L183.3844 189.5450
" />
<path d="M185.1344 190.0212
L185.2177 190.1164
" />
<path d="M185.2177 190.1164
L185.1106 190.2116
" />
<path d="M185.1106 190.2116
L185.0273 190.1164
" />
<path d="M185.0273 190.1164
L185.1344 190.0212
" />
<path d="M185.1344 190.0212
L185.1106 190.2116
" />
<path d="M185.2654 188.9735
L185.3487 189.0688
" />
<path d="M185.3487 189.0688
L185.2415 189.1640
" />
<path d="M185.2415 189.1640
L185.1582 189.0688
" />
<path d="M185.1582 189.0688
L185.2654 188.9735
" />
<path d="M185.2654 188.9735
L185.2415 189.1640
" />
</g></g>
<g style="fill:none; 
stroke:#000000; stroke-width:0.1500; stroke-opacity:1; 
stroke-linecap:round; stroke-linejoin:round;">
<text x="178.0022" y="186.4572"
textLength="26.0786" font-size="2.0000" lengthAdjust="spacingAndGlyphs"
text-anchor="start" opacity="0" stroke-opacity="0">File: QC_Fab.kicad_pcb</text>
<g class="stroked-text"><desc>File: QC_Fab.kicad_pcb</desc>
<path d="M178.9580 185.6076
L178.4580 185.6076
" />
<path d="M178.4580 186.3933
L178.4580 184.8933
" />
<path d="M178.4580 184.8933
L179.1723 184.8933
" />
<path d="M179.7437 186.3933
L179.7437 185.3933
" />
<path d="M179.7437 184.8933
L179.6723 184.9648
" />
<path d="M179.6723 184.9648
L179.7437 185.0362
" />
<path d="M179.7437 185.0362
L179.8152 184.9648
" />
<path d="M179.8152 184.9648
L179.7437 184.8933
" />
<path d="M179.7437 184.8933
L179.7437 185.0362
" />
<path d="M180.6723 186.3933
L180.5295 186.3219
" />
<path d="M180.5295 186.3219
L180.4580 186.1790
" />
<path d="M180.4580 186.1790
L180.4580 184.8933
" />
<path d="M181.8152 186.3219
L181.6723 186.3933
" />
<path d="M181.6723 186.3933
L181.3866 186.3933
" />
<path d="M181.3866 186.3933
L181.2437 186.3219
" />
<path d="M181.2437 186.3219
L181.1723 186.1790
" />
<path d="M181.1723 186.1790
L181.1723 185.6076
" />
<path d="M181.1723 185.6076
L181.2437 185.4648
" />
<path d="M181.2437 185.4648
L181.3866 185.3933
" />
<path d="M181.3866 185.3933
L181.6723 185.3933
" />
<path d="M181.6723 185.3933
L181.8152 185.4648
" />
<path d="M181.8152 185.4648
L181.8866 185.6076
" />
<path d="M181.8866 185.6076
L181.8866 185.7505
" />
<path d="M181.8866 185.7505
L181.1723 185.8933
" />
<path d="M182.5295 186.2505
L182.6009 186.3219
" />
<path d="M182.6009 186.3219
L182.5295 186.3933
" />
<path d="M182.5295 186.3933
L182.4580 186.3219
" />
<path d="M182.4580 186.3219
L182.5295 186.2505
" />
<path d="M182.5295 186.2505
L182.5295 186.3933
" />
<path d="M182.5295 185.4648
L182.6009 185.5362
" />
<path d="M182.6009 185.5362
L182.5295 185.6076
" />
<path d="M182.5295 185.6076
L182.4580 185.5362
" />
<path d="M182.4580 185.5362
L182.5295 185.4648
" />
<path d="M182.5295 185.4648
L182.5295 185.6076
" />
<path d="M185.3866 186.5362
L185.2437 186.4648
" />
<path d="M185.2437 186.4648
L185.1009 186.3219
" />
<path d="M185.1009 186.3219
L184.8866 186.1076
" />
<path d="M184.8866 186.1076
L184.7437 186.0362
" />
<path d="M184.7437 186.0362
L184.6009 186.0362
" />
<path d="M184.6723 186.3933
L184.5295 186.3219
" />
<path d="M184.5295 186.3219
L184.3866 186.1790
" />
<path d="M184.3866 186.1790
L184.3152 185.8933
" />
<path d="M184.3152 185.8933
L184.3152 185.3933
" />
<path d="M184.3152 185.3933
L184.3866 185.1076
" />
<path d="M184.3866 185.1076
L184.5295 184.9648
" />
<path d="M184.5295 184.9648
L184.6723 184.8933
" />
<path d="M184.6723 184.8933
L184.9580 184.8933
" />
<path d="M184.9580 184.8933
L185.1009 184.9648
" />
<path d="M185.1009 184.9648
L185.2437 185.1076
" />
<path d="M185.2437 185.1076
L185.3152 185.3933
" />
<path d="M185.3152 185.3933
L185.3152 185.8933
" />
<path d="M185.3152 185.8933
L185.2437 186.1790
" />
<path d="M185.2437 186.1790
L185.1009 186.3219
" />
<path d="M185.1009 186.3219
L184.9580 186.3933
" />
<path d="M184.9580 186.3933
L184.6723 186.3933
" />
<path d="M186.8152 186.2505
L186.7437 186.3219
" />
<path d="M186.7437 186.3219
L186.5295 186.3933
" />
<path d="M186.5295 186.3933
L186.3866 186.3933
" />
<path d="M186.3866 186.3933
L186.1723 186.3219
" />
<path d="M186.1723 186.3219
L186.0295 186.1790
" />
<path d="M186.0295 186.1790
L185.9580 186.0362
" />
<path d="M185.9580 186.0362
L185.8866 185.7505
" />
<path d="M185.8866 185.7505
L185.8866 185.5362
" />
<path d="M185.8866 185.5362
L185.9580 185.2505
" />
<path d="M185.9580 185.2505
L186.0295 185.1076
" />
<path d="M186.0295 185.1076
L186.1723 184.9648
" />
<path d="M186.1723 184.9648
L186.3866 184.8933
" />
<path d="M186.3866 184.8933
L186.5295 184.8933
" />
<path d="M186.5295 184.8933
L186.7437 184.9648
" />
<path d="M186.7437 184.9648
L186.8152 185.0362
" />
<path d="M187.1009 186.5362
L188.2437 186.5362
" />
<path d="M189.1009 185.6076
L188.6009 185.6076
" />
<path d="M188.6009 186.3933
L188.6009 184.8933
" />
<path d="M188.6009 184.8933
L189.3152 184.8933
" />
<path d="M190.5295 186.3933
L190.5295 185.6076
" />
<path d="M190.5295 185.6076
L190.4580 185.4648
" />
<path d="M190.4580 185.4648
L190.3152 185.3933
" />
<path d="M190.3152 185.3933
L190.0295 185.3933
" />
<path d="M190.0295 185.3933
L189.8866 185.4648
" />
<path d="M190.5295 186.3219
L190.3866 186.3933
" />
<path d="M190.3866 186.3933
L190.0295 186.3933
" />
<path d="M190.0295 186.3933
L189.8866 186.3219
" />
<path d="M189.8866 186.3219
L189.8152 186.1790
" />
<path d="M189.8152 186.1790
L189.8152 186.0362
" />
<path d="M189.8152 186.0362
L189.8866 185.8933
" />
<path d="M189.8866 185.8933
L190.0295 185.8219
" />
<path d="M190.0295 185.8219
L190.3866 185.8219
" />
<path d="M190.3866 185.8219
L190.5295 185.7505
" />
<path d="M191.2437 186.3933
L191.2437 184.8933
" />
<path d="M191.2437 185.4648
L191.3866 185.3933
" />
<path d="M191.3866 185.3933
L191.6723 185.3933
" />
<path d="M191.6723 185.3933
L191.8152 185.4648
" />
<path d="M191.8152 185.4648
L191.8866 185.5362
" />
<path d="M191.8866 185.5362
L191.9580 185.6790
" />
<path d="M191.9580 185.6790
L191.9580 186.1076
" />
<path d="M191.9580 186.1076
L191.8866 186.2505
" />
<path d="M191.8866 186.2505
L191.8152 186.3219
" />
<path d="M191.8152 186.3219
L191.6723 186.3933
" />
<path d="M191.6723 186.3933
L191.3866 186.3933
" />
<path d="M191.3866 186.3933
L191.2437 186.3219
" />
<path d="M192.6009 186.2505
L192.6723 186.3219
" />
<path d="M192.6723 186.3219
L192.6009 186.3933
" />
<path d="M192.6009 186.3933
L192.5295 186.3219
" />
<path d="M192.5295 186.3219
L192.6009 186.2505
" />
<path d="M192.6009 186.2505
L192.6009 186.3933
" />
<path d="M193.3152 186.3933
L193.3152 184.8933
" />
<path d="M193.4580 185.8219
L193.8866 186.3933
" />
<path d="M193.8866 185.3933
L193.3152 185.9648
" />
<path d="M194.5295 186.3933
L194.5295 185.3933
" />
<path d="M194.5295 184.8933
L194.4580 184.9648
" />
<path d="M194.4580 184.9648
L194.5295 185.0362
" />
<path d="M194.5295 185.0362
L194.6009 184.9648
" />
<path d="M194.6009 184.9648
L194.5295 184.8933
" />
<path d="M194.5295 184.8933
L194.5295 185.0362
" />
<path d="M195.8866 186.3219
L195.7437 186.3933
" />
<path d="M195.7437 186.3933
L195.4580 186.3933
" />
<path d="M195.4580 186.3933
L195.3152 186.3219
" />
<path d="M195.3152 186.3219
L195.2437 186.2505
" />
<path d="M195.2437 186.2505
L195.1723 186.1076
" />
<path d="M195.1723 186.1076
L195.1723 185.6790
" />
<path d="M195.1723 185.6790
L195.2437 185.5362
" />
<path d="M195.2437 185.5362
L195.3152 185.4648
" />
<path d="M195.3152 185.4648
L195.4580 185.3933
" />
<path d="M195.4580 185.3933
L195.7437 185.3933
" />
<path d="M195.7437 185.3933
L195.8866 185.4648
" />
<path d="M197.1723 186.3933
L197.1723 185.6076
" />
<path d="M197.1723 185.6076
L197.1009 185.4648
" />
<path d="M197.1009 185.4648
L196.9580 185.3933
" />
<path d="M196.9580 185.3933
L196.6723 185.3933
" />
<path d="M196.6723 185.3933
L196.5295 185.4648
" />
<path d="M197.1723 186.3219
L197.0295 186.3933
" />
<path d="M197.0295 186.3933
L196.6723 186.3933
" />
<path d="M196.6723 186.3933
L196.5295 186.3219
" />
<path d="M196.5295 186.3219
L196.4580 186.1790
" />
<path d="M196.4580 186.1790
L196.4580 186.0362
" />
<path d="M196.4580 186.0362
L196.5295 185.8933
" />
<path d="M196.5295 185.8933
L196.6723 185.8219
" />
<path d="M196.6723 185.8219
L197.0295 185.8219
" />
<path d="M197.0295 185.8219
L197.1723 185.7505
" />
<path d="M198.5295 186.3933
L198.5295 184.8933
" />
<path d="M198.5295 186.3219
L198.3866 186.3933
" />
<path d="M198.3866 186.3933
L198.1009 186.3933
" />
<path d="M198.1009 186.3933
L197.9580 186.3219
" />
<path d="M197.9580 186.3219
L197.8866 186.2505
" />
<path d="M197.8866 186.2505
L197.8152 186.1076
" />
<path d="M197.8152 186.1076
L197.8152 185.6790
" />
<path d="M197.8152 185.6790
L197.8866 185.5362
" />
<path d="M197.8866 185.5362
L197.9580 185.4648
" />
<path d="M197.9580 185.4648
L198.1009 185.3933
" />
<path d="M198.1009 185.3933
L198.3866 185.3933
" />
<path d="M198.3866 185.3933
L198.5295 185.4648
" />
<path d="M198.8866 186.5362
L200.0295 186.5362
" />
<path d="M200.3866 185.3933
L200.3866 186.8933
" />
<path d="M200.3866 185.4648
L200.5295 185.3933
" />
<path d="M200.5295 185.3933
L200.8152 185.3933
" />
<path d="M200.8152 185.3933
L200.9580 185.4648
" />
<path d="M200.9580 185.4648
L201.0295 185.5362
" />
<path d="M201.0295 185.5362
L201.1009 185.6790
" />
<path d="M201.1009 185.6790
L201.1009 186.1076
" />
<path d="M201.1009 186.1076
L201.0295 186.2505
" />
<path d="M201.0295 186.2505
L200.9580 186.3219
" />
<path d="M200.9580 186.3219
L200.8152 186.3933
" />
<path d="M200.8152 186.3933
L200.5295 186.3933
" />
<path d="M200.5295 186.3933
L200.3866 186.3219
" />
<path d="M202.3866 186.3219
L202.2437 186.3933
" />
<path d="M202.2437 186.3933
L201.9580 186.3933
" />
<path d="M201.9580 186.3933
L201.8152 186.3219
" />
<path d="M201.8152 186.3219
L201.7437 186.2505
" />
<path d="M201.7437 186.2505
L201.6723 186.1076
" />
<path d="M201.6723 186.1076
L201.6723 185.6790
" />
<path d="M201.6723 185.6790
L201.7437 185.5362
" />
<path d="M201.7437 185.5362
L201.8152 185.4648
" />
<path d="M201.8152 185.4648
L201.9580 185.3933
" />
<path d="M201.9580 185.3933
L202.2437 185.3933
" />
<path d="M202.2437 185.3933
L202.3866 185.4648
" />
<path d="M203.0295 186.3933
L203.0295 184.8933
" />
<path d="M203.0295 185.4648
L203.1723 185.3933
" />
<path d="M203.1723 185.3933
L203.4580 185.3933
" />
<path d="M203.4580 185.3933
L203.6009 185.4648
" />
<path d="M203.6009 185.4648
L203.6723 185.5362
" />
<path d="M203.6723 185.5362
L203.7437 185.6790
" />
<path d="M203.7437 185.6790
L203.7437 186.1076
" />
<path d="M203.7437 186.1076
L203.6723 186.2505
" />
<path d="M203.6723 186.2505
L203.6009 186.3219
" />
<path d="M203.6009 186.3219
L203.4580 186.3933
" />
<path d="M203.4580 186.3933
L203.1723 186.3933
" />
<path d="M203.1723 186.3933
L203.0295 186.3219
" />
</g></g>
<g style="fill:none; 
stroke:#000000; stroke-width:0.1500; stroke-opacity:1; 
stroke-linecap:round; stroke-linejoin:round;">
<path d="M177.0022 181.5072
L285.0022 181.5072
" />
</g>
<g style="fill:none; 
stroke:#000000; stroke-width:0.1500; stroke-opacity:1; 
stroke-linecap:round; stroke-linejoin:round;">
<text x="178.0022" y="183.7572"
textLength="8.2214" font-size="2.0000" lengthAdjust="spacingAndGlyphs"
text-anchor="start" opacity="0" stroke-opacity="0">Sheet: </text>
<g class="stroked-text"><desc>Sheet: </desc>
<path d="M178.3866 183.6219
L178.6009 183.6933
" />
<path d="M178.6009 183.6933
L178.9580 183.6933
" />
<path d="M178.9580 183.6933
L179.1009 183.6219
" />
<path d="M179.1009 183.6219
L179.1723 183.5505
" />
<path d="M179.1723 183.5505
L179.2437 183.4076
" />
<path d="M179.2437 183.4076
L179.2437 183.2648
" />
<path d="M179.2437 183.2648
L179.1723 183.1219
" />
<path d="M179.1723 183.1219
L179.1009 183.0505
" />
<path d="M179.1009 183.0505
L178.9580 182.9790
" />
<path d="M178.9580 182.9790
L178.6723 182.9076
" />
<path d="M178.6723 182.9076
L178.5295 182.8362
" />
<path d="M178.5295 182.8362
L178.4580 182.7648
" />
<path d="M178.4580 182.7648
L178.3866 182.6219
" />
<path d="M178.3866 182.6219
L178.3866 182.4790
" />
<path d="M178.3866 182.4790
L178.4580 182.3362
" />
<path d="M178.4580 182.3362
L178.5295 182.2648
" />
<path d="M178.5295 182.2648
L178.6723 182.1933
" />
<path d="M178.6723 182.1933
L179.0295 182.1933
" />
<path d="M179.0295 182.1933
L179.2437 182.2648
" />
<path d="M179.8866 183.6933
L179.8866 182.1933
" />
<path d="M180.5295 183.6933
L180.5295 182.9076
" />
<path d="M180.5295 182.9076
L180.4580 182.7648
" />
<path d="M180.4580 182.7648
L180.3152 182.6933
" />
<path d="M180.3152 182.6933
L180.1009 182.6933
" />
<path d="M180.1009 182.6933
L179.9580 182.7648
" />
<path d="M179.9580 182.7648
L179.8866 182.8362
" />
<path d="M181.8152 183.6219
L181.6723 183.6933
" />
<path d="M181.6723 183.6933
L181.3866 183.6933
" />
<path d="M181.3866 183.6933
L181.2437 183.6219
" />
<path d="M181.2437 183.6219
L181.1723 183.4790
" />
<path d="M181.1723 183.4790
L181.1723 182.9076
" />
<path d="M181.1723 182.9076
L181.2437 182.7648
" />
<path d="M181.2437 182.7648
L181.3866 182.6933
" />
<path d="M181.3866 182.6933
L181.6723 182.6933
" />
<path d="M181.6723 182.6933
L181.8152 182.7648
" />
<path d="M181.8152 182.7648
L181.8866 182.9076
" />
<path d="M181.8866 182.9076
L181.8866 183.0505
" />
<path d="M181.8866 183.0505
L181.1723 183.1933
" />
<path d="M183.1009 183.6219
L182.9580 183.6933
" />
<path d="M182.9580 183.6933
L182.6723 183.6933
" />
<path d="M182.6723 183.6933
L182.5295 183.6219
" />
<path d="M182.5295 183.6219
L182.4580 183.4790
" />
<path d="M182.4580 183.4790
L182.4580 182.9076
" />
<path d="M182.4580 182.9076
L182.5295 182.7648
" />
<path d="M182.5295 182.7648
L182.6723 182.6933
" />
<path d="M182.6723 182.6933
L182.9580 182.6933
" />
<path d="M182.9580 182.6933
L183.1009 182.7648
" />
<path d="M183.1009 182.7648
L183.1723 182.9076
" />
<path d="M183.1723 182.9076
L183.1723 183.0505
" />
<path d="M183.1723 183.0505
L182.4580 183.1933
" />
<path d="M183.6009 182.6933
L184.1723 182.6933
" />
<path d="M183.8152 182.1933
L183.8152 183.4790
" />
<path d="M183.8152 183.4790
L183.8866 183.6219
" />
<path d="M183.8866 183.6219
L184.0295 183.6933
" />
<path d="M184.0295 183.6933
L184.1723 183.6933
" />
<path d="M184.6723 183.5505
L184.7437 183.6219
" />
<path d="M184.7437 183.6219
L184.6723 183.6933
" />
<path d="M184.6723 183.6933
L184.6009 183.6219
" />
<path d="M184.6009 183.6219
L184.6723 183.5505
" />
<path d="M184.6723 183.5505
L184.6723 183.6933
" />
<path d="M184.6723 182.7648
L184.7437 182.8362
" />
<path d="M184.7437 182.8362
L184.6723 182.9076
" />
<path d="M184.6723 182.9076
L184.6009 182.8362
" />
<path d="M184.6009 182.8362
L184.6723 182.7648
" />
<path d="M184.6723 182.7648
L184.6723 182.9076
" />
</g></g>
<g style="fill:none; 
stroke:#000000; stroke-width:0.3000; stroke-opacity:1; 
stroke-linecap:round; stroke-linejoin:round;">
<text x="178.0022" y="180.7572"
textLength="0.9000" font-size="2.0000" lengthAdjust="spacingAndGlyphs"
text-anchor="start" opacity="0" stroke-opacity="0"></text>
<g class="stroked-text"><desc></desc>
</g></g>
<g style="fill:none; 
stroke:#000000; stroke-width:0.1500; stroke-opacity:1; 
stroke-linecap:round; stroke-linejoin:round;">
<text x="178.0022" y="177.7572"
textLength="0.4500" font-size="2.0000" lengthAdjust="spacingAndGlyphs"
text-anchor="start" opacity="0" stroke-opacity="0"></text>
<g class="stroked-text"><desc></desc>
</g></g>
<g style="fill:none; 
stroke:#000000; stroke-width:0.1500; stroke-opacity:1; 
stroke-linecap:round; stroke-linejoin:round;">
<text x="178.0022" y="174.7572"
textLength="0.4500" font-size="2.0000" lengthAdjust="spacingAndGlyphs"
text-anchor="start" opacity="0" stroke-opacity="0"></text>
<g class="stroked-text"><desc></desc>
</g></g>
<g style="fill:none; 
stroke:#000000; stroke-width:0.1500; stroke-opacity:1; 
stroke-linecap:round; stroke-linejoin:round;">
<text x="178.0022" y="171.7572"
textLength="0.4500" font-size="2.0000" lengthAdjust="spacingAndGlyphs"
text-anchor="start" opacity="0" stroke-opacity="0"></text>
<g class="stroked-text"><desc></desc>
</g></g>
<g style="fill:none; 
stroke:#000000; stroke-width:0.1500; stroke-opacity:1; 
stroke-linecap:round; stroke-linejoin:round;">
<text x="178.0022" y="168.7572"
textLength="0.4500" font-size="2.0000" lengthAdjust="spacingAndGlyphs"
text-anchor="start" opacity="0" stroke-opacity="0"></text>
<g class="stroked-text"><desc></desc>
</g></g>
<g style="fill:none; 
stroke:#000000; stroke-width:0.1500; stroke-opacity:1; 
stroke-linecap:round; stroke-linejoin:round;">
<path d="M197.0022 191.5072
L197.0022 194.5072
" />
</g>
<g style="fill:none; 
stroke:#000000; stroke-width:0.1500; stroke-opacity:1; 
stroke-linecap:round; stroke-linejoin:round;">
<path d="M261.0022 191.5072
L261.0022 198.0072
" />
</g>
<g style="fill:none; 
stroke:#D0D2CD; stroke-width:0.1000; stroke-opacity:1; 
stroke-linecap:round; stroke-linejoin:round;">
<path d="M167.9569 110.3557
L181.6954 110.3557
" />
<path d="M183.6954 112.3557
L183.6954 137.9420
" />
<path d="M183.6953 112.3557 A1.9999 1.9999 0.0 0 0 181.6954 110.3557" />
<path d="M181.6954 139.9420
L167.9569 139.9420
" />
<path d="M181.6954 139.9420 A2.0000 2.0000 0.0 0 0 183.6954 137.9420" />
<path d="M165.9569 137.9420
L165.9569 112.3557
" />
<path d="M167.9569 110.3557 A2.0000 2.0000 0.0 0 0 165.9569 112.3557" />
<path d="M165.9569 137.9420 A2.0000 2.0000 0.0 0 0 167.9569 139.9420" />
</g>
<g style="fill:#D0D2CD; fill-opacity:1.0000; stroke:none;">
<circle cx="171.5720" cy="136.9270" r="0.5500" /> 
</g>
<g style="fill:#D0D2CD; fill-opacity:1.0000; stroke:none;">
<circle cx="176.1720" cy="136.9270" r="0.5500" /> 
</g>
<g style="fill:#D0D2CD; fill-opacity:1.0000; stroke:none;">
<circle cx="168.0220" cy="136.1270" r="0.5000" /> 
</g>
<g style="fill:#D0D2CD; fill-opacity:1.0000; stroke:none;">
<circle cx="168.0220" cy="136.6270" r="0.5000" /> 
</g>
<g style="fill:#D0D2CD; fill-opacity:1.0000; stroke:none;">
<circle cx="168.0220" cy="137.1270" r="0.5000" /> 
</g>
<g style="fill:#D0D2CD; fill-opacity:1.0000; stroke:none;">
<circle cx="168.0220" cy="137.6270" r="0.5000" /> 
</g>
<g style="fill:#D0D2CD; fill-opacity:1.0000; stroke:none;">
<circle cx="179.7220" cy="136.1770" r="0.5000" /> 
</g>
<g style="fill:#D0D2CD; fill-opacity:1.0000; stroke:none;">
<circle cx="179.7220" cy="136.6770" r="0.5000" /> 
</g>
<g style="fill:#D0D2CD; fill-opacity:1.0000; stroke:none;">
<circle cx="179.7220" cy="137.1770" r="0.5000" /> 
</g>
<g style="fill:#D0D2CD; fill-opacity:1.0000; stroke:none;">
<circle cx="179.7220" cy="137.6770" r="0.5000" /> 
</g>
<g style="fill:#D0D2CD; fill-opacity:1.0000; stroke:none;">
<circle cx="179.7790" cy="114.6068" r="0.7000" /> 
</g>
<g style="fill:#D0D2CD; fill-opacity:1.0000; stroke:none;">
<circle cx="174.7790" cy="114.6068" r="0.7000" /> 
</g>
<g style="fill:#D0D2CD; fill-opacity:1.0000; stroke:none;">
<circle cx="179.2863" cy="128.8860" r="0.5000" /> 
<path style="fill:#C83434; fill-opacity:1.0000; stroke:none;fill-rule:evenodd;"
d="M 169.5900,114.0000
169.5900,116.0000
168.0900,116.0000
168.0900,114.0000
Z" /> 
<path style="fill:#C83434; fill-opacity:1.0000; stroke:none;fill-rule:evenodd;"
d="M 171.0000,119.2500
171.0000,121.7500
169.0000,121.7500
169.0000,119.2500
Z" /> 
<path style="fill:#C83434; fill-opacity:1.0000; stroke:none;fill-rule:evenodd;"
d="M 171.9000,114.0000
171.9000,116.0000
170.4000,116.0000
170.4000,114.0000
Z" /> 
<path style="fill:#C83434; fill-opacity:1.0000; stroke:none;fill-rule:evenodd;"
d="M 176.7720,135.4270
176.7720,133.4270
177.9720,133.4270
177.9720,135.4270
Z" /> 
<path style="fill:#C83434; fill-opacity:1.0000; stroke:none;fill-rule:evenodd;"
d="M 174.2720,135.4270
174.2720,133.4270
175.4720,133.4270
175.4720,135.4270
Z" /> 
<path style="fill:#C83434; fill-opacity:1.0000; stroke:none;fill-rule:evenodd;"
d="M 172.2720,135.4270
172.2720,133.4270
173.4720,133.4270
173.4720,135.4270
Z" /> 
<path style="fill:#C83434; fill-opacity:1.0000; stroke:none;fill-rule:evenodd;"
d="M 169.7720,135.4270
169.7720,133.4270
170.9720,133.4270
170.9720,135.4270
Z" /> 
</g>
<g style="fill:#C83434; fill-opacity:1.0000; stroke:none;">
<circle cx="168.0220" cy="136.1270" r="0.9000" /> 
</g>
<g style="fill:#C83434; fill-opacity:1.0000; stroke:none;">
<circle cx="168.0220" cy="136.6270" r="0.9000" /> 
</g>
<g style="fill:#C83434; fill-opacity:1.0000; stroke:none;">
<circle cx="168.0220" cy="137.1270" r="0.9000" /> 
</g>
<g style="fill:#C83434; fill-opacity:1.0000; stroke:none;">
<circle cx="168.0220" cy="137.6270" r="0.9000" /> 
</g>
<g style="fill:#C83434; fill-opacity:1.0000; stroke:none;">
<circle cx="179.7220" cy="136.1770" r="0.9000" /> 
</g>
<g style="fill:#C83434; fill-opacity:1.0000; stroke:none;">
<circle cx="179.7220" cy="136.6770" r="0.9000" /> 
</g>
<g style="fill:#C83434; fill-opacity:1.0000; stroke:none;">
<circle cx="179.7220" cy="137.1770" r="0.9000" /> 
</g>
<g style="fill:#C83434; fill-opacity:1.0000; stroke:none;">
<circle cx="179.7220" cy="137.6770" r="0.9000" /> 
<path style="fill:#C83434; fill-opacity:1.0000; stroke:none;fill-rule:evenodd;"
d="M 178.7901,130.0697
177.7901,130.0697
177.7901,128.0697
178.7901,128.0697
Z" /> 
<path style="fill:#C83434; fill-opacity:1.0000; stroke:none;fill-rule:evenodd;"
d="M 181.3301,133.3697
180.3301,133.3697
180.3301,131.3697
181.3301,131.3697
Z" /> 
<path style="fill:#C83434; fill-opacity:1.0000; stroke:none;fill-rule:evenodd;"
d="M 169.4000,123.3500
171.1000,123.3500
171.1000,124.7500
169.4000,124.7500
Z" /> 
<path style="fill:#C83434; fill-opacity:1.0000; stroke:none;fill-rule:evenodd;"
d="M 169.4000,126.7500
171.1000,126.7500
171.1000,128.1500
169.4000,128.1500
Z" /> 
<path style="fill:#C83434; fill-opacity:1.0000; stroke:none;fill-rule:evenodd;"
d="M 176.3645,131.3977
176.3645,130.6977
177.3645,130.6977
177.3645,131.3977
Z" /> 
<path style="fill:#C83434; fill-opacity:1.0000; stroke:none;fill-rule:evenodd;"
d="M 176.3645,133.2977
176.3645,132.5977
177.3645,132.5977
177.3645,133.2977
Z" /> 
<path style="fill:#C83434; fill-opacity:1.0000; stroke:none;fill-rule:evenodd;"
d="M 178.7645,132.3477
178.7645,131.6477
179.7645,131.6477
179.7645,132.3477
Z" /> 
<path style="fill:#C83434; fill-opacity:1.0000; stroke:none;fill-rule:evenodd;"
d="M 174.1631,128.6221
175.8631,128.6221
175.8631,130.0221
174.1631,130.0221
Z" /> 
<path style="fill:#C83434; fill-opacity:1.0000; stroke:none;fill-rule:evenodd;"
d="M 174.1631,132.0221
175.8631,132.0221
175.8631,133.4221
174.1631,133.4221
Z" /> 
<path style="fill:#C83434; fill-opacity:1.0000; stroke:none;fill-rule:evenodd;"
d="M 181.2790,113.1068
181.2790,116.1068
178.2790,116.1068
178.2790,113.1068
Z" /> 
</g>
<g style="fill:#C83434; fill-opacity:1.0000; stroke:none;">
<circle cx="174.7790" cy="114.6068" r="1.5000" /> 
</g>
<g style="fill:none; 
stroke:#C83434; stroke-width:1.7000; stroke-opacity:1; 
stroke-linecap:round; stroke-linejoin:round;">
<path d="M178.8663 128.8860
L179.7063 128.8860
" />
<path style="fill:#C83434; fill-opacity:1.0000; stroke:none;fill-rule:evenodd;"
d="M 183.7909,120.4568
183.7909,122.1568
182.3909,122.1568
182.3909,120.4568
Z" /> 
<path style="fill:#C83434; fill-opacity:1.0000; stroke:none;fill-rule:evenodd;"
d="M 180.3909,120.4568
180.3909,122.1568
178.9909,122.1568
178.9909,120.4568
Z" /> 
<path style="fill:#C83434; fill-opacity:1.0000; stroke:none;fill-rule:evenodd;"
d="M 172.4385,112.3701
172.4385,110.6701
173.8385,110.6701
173.8385,112.3701
Z" /> 
<path style="fill:#C83434; fill-opacity:1.0000; stroke:none;fill-rule:evenodd;"
d="M 175.8385,112.3701
175.8385,110.6701
177.2385,110.6701
177.2385,112.3701
Z" /> 
<path style="fill:#C83434; fill-opacity:1.0000; stroke:none;fill-rule:evenodd;"
d="M 182.1920,110.6522
182.1920,112.3522
180.7920,112.3522
180.7920,110.6522
Z" /> 
<path style="fill:#C83434; fill-opacity:1.0000; stroke:none;fill-rule:evenodd;"
d="M 178.7920,110.6522
178.7920,112.3522
177.3920,112.3522
177.3920,110.6522
Z" /> 
<path style="fill:#C83434; fill-opacity:1.0000; stroke:none;fill-rule:evenodd;"
d="M 171.6755,123.6867
171.6755,122.8867
173.6755,122.8867
173.6755,123.6867
Z" /> 
<path style="fill:#C83434; fill-opacity:1.0000; stroke:none;fill-rule:evenodd;"
d="M 171.6755,124.9567
171.6755,124.1567
173.6755,124.1567
173.6755,124.9567
Z" /> 
<path style="fill:#C83434; fill-opacity:1.0000; stroke:none;fill-rule:evenodd;"
d="M 171.6755,126.2267
171.6755,125.4267
173.6755,125.4267
173.6755,126.2267
Z" /> 
<path style="fill:#C83434; fill-opacity:1.0000; stroke:none;fill-rule:evenodd;"
d="M 171.6755,127.4967
171.6755,126.6967
173.6755,126.6967
173.6755,127.4967
Z" /> 
<path style="fill:#C83434; fill-opacity:1.0000; stroke:none;fill-rule:evenodd;"
d="M 177.2755,127.4967
177.2755,126.6967
179.2755,126.6967
179.2755,127.4967
Z" /> 
<path style="fill:#C83434; fill-opacity:1.0000; stroke:none;fill-rule:evenodd;"
d="M 177.2755,126.2267
177.2755,125.4267
179.2755,125.4267
179.2755,126.2267
Z" /> 
<path style="fill:#C83434; fill-opacity:1.0000; stroke:none;fill-rule:evenodd;"
d="M 177.2755,124.9567
177.2755,124.1567
179.2755,124.1567
179.2755,124.9567
Z" /> 
<path style="fill:#C83434; fill-opacity:1.0000; stroke:none;fill-rule:evenodd;"
d="M 177.2755,123.6867
177.2755,122.8867
179.2755,122.8867
179.2755,123.6867
Z" /> 
<path style="fill:#C83434; fill-opacity:1.0000; stroke:none;fill-rule:evenodd;"
d="M 171.7209,122.0922
171.7209,120.3922
173.1209,120.3922
173.1209,122.0922
Z" /> 
<path style="fill:#C83434; fill-opacity:1.0000; stroke:none;fill-rule:evenodd;"
d="M 175.1209,122.0922
175.1209,120.3922
176.5209,120.3922
176.5209,122.0922
Z" /> 
<path style="fill:#C83434; fill-opacity:1.0000; stroke:none;fill-rule:evenodd;"
d="M 177.6553,118.1280
177.6553,119.8280
176.2553,119.8280
176.2553,118.1280
Z" /> 
<path style="fill:#C83434; fill-opacity:1.0000; stroke:none;fill-rule:evenodd;"
d="M 174.2553,118.1280
174.2553,119.8280
172.8553,119.8280
172.8553,118.1280
Z" /> 
<path style="fill:#C83434; fill-opacity:1.0000; stroke:none;fill-rule:evenodd;"
d="M 169.3926,128.7659
171.0926,128.7659
171.0926,130.1659
169.3926,130.1659
Z" /> 
<path style="fill:#C83434; fill-opacity:1.0000; stroke:none;fill-rule:evenodd;"
d="M 169.3926,132.1659
171.0926,132.1659
171.0926,133.5659
169.3926,133.5659
Z" /> 
<path style="fill:#C83434; fill-opacity:1.0000; stroke:none;fill-rule:evenodd;"
d="M 171.8731,128.6149
173.5731,128.6149
173.5731,130.0149
171.8731,130.0149
Z" /> 
<path style="fill:#C83434; fill-opacity:1.0000; stroke:none;fill-rule:evenodd;"
d="M 171.8731,132.0149
173.5731,132.0149
173.5731,133.4149
171.8731,133.4149
Z" /> 
</g>
<g style="fill:none; 
stroke:#C83434; stroke-width:0.7600; stroke-opacity:1; 
stroke-linecap:round; stroke-linejoin:round;">
<path d="M176.8645 128.3515
L176.0377 127.5247
" />
<path d="M176.0377 127.5247
L176.0377 123.9749
" />
<path d="M176.8645 131.0477
L176.8645 128.3515
" />
</g>
<g style="fill:none; 
stroke:#C83434; stroke-width:0.6400; stroke-opacity:1; 
stroke-linecap:round; stroke-linejoin:round;">
<path d="M172.4209 121.2422
L171.9596 120.7809
" />
<path d="M171.1500 117.6839
L171.1500 115.0000
" />
</g>
<g style="fill:none; 
stroke:#C83434; stroke-width:0.7600; stroke-opacity:1; 
stroke-linecap:round; stroke-linejoin:round;">
<path d="M175.3987 123.2767
L176.0673 123.9453
" />
</g>
<g style="fill:none; 
stroke:#C83434; stroke-width:0.6400; stroke-opacity:1; 
stroke-linecap:round; stroke-linejoin:round;">
<path d="M172.6755 123.2867
L171.0133 123.2867
" />
<path d="M176.0377 123.9749
L176.0673 123.9453
" />
<path d="M172.4209 121.2422
L172.4209 120.8647
" />
</g>
<g style="fill:none; 
stroke:#C83434; stroke-width:0.7600; stroke-opacity:1; 
stroke-linecap:round; stroke-linejoin:round;">
<path d="M172.6755 123.2767
L175.3987 123.2767
" />
</g>
<g style="fill:none; 
stroke:#C83434; stroke-width:0.6400; stroke-opacity:1; 
stroke-linecap:round; stroke-linejoin:round;">
<path d="M171.9596 120.7809
L171.9596 118.4935
" />
<path d="M172.6755 123.2867
L172.6755 121.4357
" />
<path d="M171.0133 123.2867
L170.2500 124.0500
" />
<path d="M172.5465 123.1577
L172.6755 123.2867
" />
<path d="M171.9596 118.4935
L171.1500 117.6839
" />
</g>
<g style="fill:none; 
stroke:#C83434; stroke-width:1.0000; stroke-opacity:1; 
stroke-linecap:round; stroke-linejoin:round;">
<path d="M178.0740 111.5201
L178.0920 111.5022
" />
<path d="M176.5385 111.5201
L178.0740 111.5201
" />
</g>
<g style="fill:none; 
stroke:#C83434; stroke-width:0.6400; stroke-opacity:1; 
stroke-linecap:round; stroke-linejoin:round;">
<path d="M174.8720 134.4270
L174.8720 132.8632
" />
<path d="M174.8720 132.8632
L175.0131 132.7221
" />
<path d="M172.8720 134.4270
L172.8720 132.8638
" />
<path d="M172.8720 132.8638
L172.7231 132.7149
" />
<path d="M178.2755 125.8267
L178.3255 125.8767
" />
<path d="M178.3059 129.0974
L179.4459 129.0974
" />
<path d="M179.4459 129.0974
L180.0955 128.4478
" />
<path d="M180.0955 128.4478
L180.0955 126.0067
" />
<path d="M180.0955 126.0067
L179.9155 125.8267
" />
<path d="M179.9155 125.8267
L178.2755 125.8267
" />
<path d="M177.4016 134.3974
L177.3720 134.4270
" />
</g>
<g style="fill:none; 
stroke:#C83434; stroke-width:0.7600; stroke-opacity:1; 
stroke-linecap:round; stroke-linejoin:round;">
<path d="M180.9182 134.2724
L177.4629 134.2724
" />
</g>
<g style="fill:none; 
stroke:#C83434; stroke-width:1.0000; stroke-opacity:1; 
stroke-linecap:round; stroke-linejoin:round;">
<path d="M183.0909 133.6775
L182.8822 133.8863
" />
<path d="M183.0909 121.3068
L183.0909 133.6775
" />
<path d="M182.4337 134.3974
L180.8569 134.3974
" />
<path d="M182.4663 134.3648
L182.4337 134.3974
" />
<path d="M182.4663 134.3648
L182.8822 133.8863
" />
</g>
<g style="fill:none; 
stroke:#C83434; stroke-width:0.6400; stroke-opacity:1; 
stroke-linecap:round; stroke-linejoin:round;">
<path d="M176.8645 132.9477
L176.8645 133.9195
" />
<path d="M176.8645 133.9195
L177.3720 134.4270
" />
</g>
<g style="fill:none; 
stroke:#C83434; stroke-width:1.0000; stroke-opacity:1; 
stroke-linecap:round; stroke-linejoin:round;">
<path d="M183.0909 113.1011
L181.4920 111.5022
" />
<path d="M183.0909 121.3068
L183.0909 113.1011
" />
</g>
<g style="fill:none; 
stroke:#C83434; stroke-width:0.7600; stroke-opacity:1; 
stroke-linecap:round; stroke-linejoin:round;">
<path d="M170.1204 127.1709
L170.1072 127.1577
" />
</g>
<g style="fill:none; 
stroke:#C83434; stroke-width:1.0000; stroke-opacity:1; 
stroke-linecap:round; stroke-linejoin:round;">
<path d="M170.3936 129.3149
L170.2426 129.4659
" />
</g>
<g style="fill:none; 
stroke:#C83434; stroke-width:0.6400; stroke-opacity:1; 
stroke-linecap:round; stroke-linejoin:round;">
<path d="M174.6863 128.9953
L175.0131 129.3221
" />
<path d="M174.6863 125.1388
L174.6863 128.9953
" />
<path d="M174.1042 124.5567
L174.6863 125.1388
" />
<path d="M172.6755 124.5567
L174.1042 124.5567
" />
<path d="M178.1616 120.1904
L176.9332 118.9619
" />
<path d="M180.0955 122.1242
L180.0955 124.5067
" />
<path d="M180.0955 124.5067
L180.0455 124.5567
" />
<path d="M180.0455 124.5567
L178.2755 124.5567
" />
<path d="M176.9332 118.9619
L180.0955 122.1242
" />
<path d="M170.0000 120.5000
L168.4352 122.0648
" />
<path d="M168.4352 122.0648
L168.4352 125.1411
" />
<path d="M172.6755 125.8267
L169.1208 125.8267
" />
<path d="M170.0000 120.5100
L170.0000 120.5000
" />
<path d="M169.1208 125.8267
L168.4352 125.1411
" />
<path style="fill:#C83434; fill-opacity:1.0000; stroke:none;fill-rule:evenodd;"
d="M 181.8433,110.3685
181.8987,110.3704
181.9199,110.3720
181.9750,110.3779
181.9856,110.3792
182.0451,110.3878
182.0555,110.3894
182.1101,110.3993
182.1309,110.4038
182.1537,110.4096
182.1846,110.4175
182.1949,110.4203
182.3215,110.4575
182.3317,110.4607
182.3784,110.4763
182.3843,110.4782
182.4042,110.4857
182.4554,110.5069
182.4652,110.5111
182.5853,110.5660
182.5949,110.5706
182.6444,110.5954
182.6632,110.6056
182.7108,110.6339
182.7199,110.6395
182.8309,110.7108
182.8398,110.7168
182.8853,110.7483
182.9024,110.7611
182.9455,110.7959
182.9537,110.8027
182.9772,110.8231
183.0534,110.8892
183.0614,110.8963
183.1019,110.9340
183.1170,110.9491
183.1547,110.9897
183.1619,110.9976
183.2078,111.0507
183.2483,111.0974
183.2552,111.1056
183.2899,111.1487
183.3027,111.1658
183.3343,111.2113
183.3402,111.2201
183.4116,111.3312
183.4172,111.3403
183.4454,111.3879
183.4557,111.4066
183.4805,111.4561
183.4851,111.4658
183.5399,111.5858
183.5442,111.5956
183.5653,111.6468
183.5728,111.6668
183.5903,111.7193
183.5935,111.7295
183.6307,111.8562
183.6335,111.8665
183.6472,111.9201
183.6517,111.9410
183.6616,111.9955
183.6633,112.0060
183.6819,112.1358
183.6832,112.1464
183.6892,112.2014
183.6907,112.2227
183.6927,112.2780
183.6928,112.2887
183.6928,117.4047
183.6903,117.4437
183.6850,117.4838
183.6804,117.5186
183.6602,117.5940
183.6389,117.6455
183.5999,117.7131
183.5659,117.7573
183.5108,117.8125
183.4665,117.8464
183.3989,117.8854
183.3475,117.9068
183.2721,117.9270
183.2373,117.9315
183.1972,117.9368
183.1582,117.9394
183.0565,117.9394
183.0272,117.9379
182.9760,117.9329
182.9066,117.9261
182.8492,117.9146
182.7473,117.8837
182.6932,117.8613
182.5993,117.8111
182.5506,117.7786
182.4569,117.7017
182.4352,117.6820
180.0822,115.3291
180.0625,115.3073
179.9662,115.1899
179.9336,115.1412
179.8690,115.0202
179.8465,114.9661
179.8067,114.8348
179.7953,114.7774
179.7804,114.6262
179.7790,114.5969
179.7790,113.6919
179.7804,113.6626
179.7814,113.6529
179.7953,113.5114
179.8067,113.4539
179.8465,113.3227
179.8690,113.2685
179.9336,113.1476
179.9662,113.0988
180.0625,112.9814
180.0823,112.9597
180.2910,112.7509
180.2910,112.7509
180.5839,112.4580
180.5839,111.0507
180.5865,111.0116
180.5957,110.9413
180.6014,110.8985
180.6216,110.8232
180.6577,110.7360
180.6967,110.6684
180.7449,110.6056
180.7541,110.5936
180.8093,110.5384
180.8841,110.4810
180.9517,110.4420
181.0388,110.4059
181.1142,110.3857
181.1934,110.3753
181.2273,110.3708
181.2663,110.3683
181.8327,110.3683
Z" /> 
<path style="fill:#C83434; fill-opacity:1.0000; stroke:none;fill-rule:evenodd;"
d="M 171.4115,126.7674
171.4179,126.7700
171.5187,126.8118
171.6361,126.8272
173.2860,126.8272
173.3940,126.8474
173.4875,126.9052
173.5537,126.9929
173.5838,127.0986
173.5850,127.1262
173.5850,128.4001
173.5790,128.4457
173.5806,128.4459
173.5626,128.5828
173.5626,129.7588
173.5498,129.8456
173.5175,129.9521
173.4950,130.0063
173.4304,130.1272
173.3978,130.1760
173.3499,130.2344
173.3108,130.2820
173.2694,130.3234
173.1634,130.4104
173.1146,130.4430
172.9937,130.5076
172.9395,130.5300
172.8083,130.5699
172.7508,130.5813
172.5996,130.5962
172.5703,130.5976
170.1413,130.5976
170.1023,130.5951
169.9728,130.5780
169.8974,130.5578
169.7949,130.5154
169.7273,130.4763
169.6393,130.4088
169.5841,130.3536
169.5166,130.2656
169.4775,130.1980
169.4351,130.0955
169.4149,130.0201
169.4096,129.9803
169.3978,129.8906
169.3953,129.8515
169.3953,127.0462
169.4155,126.9382
169.4733,126.8448
169.5610,126.7786
169.6667,126.7485
169.6943,126.7472
171.3034,126.7472
Z" /> 
<path style="fill:#C83434; fill-opacity:1.0000; stroke:none;fill-rule:evenodd;"
d="M 172.9101,110.3570
172.9132,110.3573
173.0573,110.3711
173.1134,110.3820
173.2415,110.4198
173.2944,110.4411
173.4130,110.5025
173.4610,110.5335
173.5770,110.6252
173.5985,110.6440
174.3739,111.3880
175.1460,112.1289
175.2100,112.2182
175.2374,112.3247
175.2380,112.3446
175.2380,112.4095
175.2380,112.4095
175.2535,112.5269
175.2535,112.5269
175.3140,112.6730
175.3140,112.6730
175.3140,112.6730
175.4102,112.7984
175.4102,112.7984
175.5357,112.8947
175.5357,112.8947
175.5357,112.8947
175.6757,112.9527
175.6818,112.9552
175.7992,112.9706
175.9030,112.9706
176.0110,112.9908
176.1045,113.0487
176.1100,113.0539
176.7804,113.6972
177.5865,114.4706
177.6504,114.5599
177.6778,114.6664
177.6785,114.6863
177.6785,116.1461
177.6785,116.1461
177.6939,116.2635
177.6939,116.2635
177.7544,116.4096
177.7544,116.4096
177.7544,116.4096
177.8507,116.5351
177.8507,116.5351
177.9589,116.6181
177.9761,116.6313
177.9761,116.6313
177.9761,116.6313
178.1222,116.6918
178.1222,116.6918
178.2396,116.7073
179.7972,116.7073
179.9053,116.7275
179.9987,116.7853
180.0043,116.7905
181.8720,118.5827
181.8985,118.6081
181.9624,118.6974
181.9898,118.8039
181.9904,118.8238
181.9904,119.8909
181.9703,119.9989
181.9287,120.0729
181.8664,120.1540
181.8664,120.1540
181.8059,120.3001
181.8059,120.3001
181.7904,120.4175
181.7904,122.1962
181.8059,122.3136
181.8148,122.3350
181.8664,122.4597
181.9287,122.5408
181.9784,122.6388
181.9904,122.7228
181.9904,132.9979
181.9703,133.1060
181.9124,133.1994
181.8247,133.2656
181.7190,133.2957
181.6914,133.2969
181.0697,133.2969
181.0294,133.2930
181.0294,133.2933
181.0148,133.2919
178.7658,133.2919
178.6578,133.2717
178.5644,133.2138
178.5085,133.1399
178.5064,133.1411
178.4966,133.1242
178.4966,133.1242
178.4003,132.9987
178.4003,132.9987
178.2749,132.9025
178.2749,132.9025
178.2749,132.9025
178.2749,132.9025
178.2749,132.9025
178.1496,132.8506
178.0576,132.7906
177.9934,132.7014
177.9658,132.5950
177.9650,132.5743
177.9650,132.5584
177.9496,132.4410
177.8891,132.2949
177.8007,132.1797
177.7510,132.0818
177.7400,131.9724
177.7693,131.8665
177.8007,131.8157
177.8802,131.7121
177.8891,131.7006
177.9496,131.5545
177.9650,131.4371
177.9650,130.9692
177.9852,130.8612
178.0431,130.7678
178.1308,130.7015
178.2365,130.6715
178.2640,130.6702
178.8294,130.6702
178.8294,130.6702
178.9468,130.6547
179.0929,130.5942
179.2184,130.4980
179.2205,130.4952
179.2525,130.4535
179.3343,130.3801
179.4370,130.3412
179.4897,130.3365
179.8205,130.3365
179.8205,130.3365
180.0460,130.3008
180.2631,130.2302
180.4665,130.1266
180.6512,129.9924
180.8127,129.8309
180.9469,129.6462
181.0505,129.4428
181.1211,129.2257
181.1568,129.0001
181.1568,128.7718
181.1211,128.5463
181.0505,128.3292
181.0486,128.3254
181.0477,128.3223
181.0460,128.3183
181.0465,128.3182
181.0175,128.2200
181.0160,128.1896
181.0160,125.9160
181.0160,125.9160
180.9806,125.7382
180.9112,125.5707
180.8124,125.4228
180.7692,125.3218
180.7654,125.2120
180.8015,125.1082
180.8124,125.0906
180.8393,125.0504
180.9112,124.9427
180.9806,124.7752
181.0160,124.5974
181.0160,124.4160
181.0160,124.4037
181.0160,124.4037
181.0160,122.2297
181.0160,122.2296
181.0160,122.0336
181.0160,122.0336
180.9972,121.9390
180.9914,121.8807
180.9914,120.4175
180.9760,120.3001
180.9760,120.3001
180.9155,120.1540
180.8977,120.1308
180.8192,120.0286
180.8192,120.0286
180.6938,119.9323
180.6938,119.9323
180.5477,119.8718
180.5477,119.8718
180.4303,119.8563
180.4303,119.8563
179.2532,119.8563
179.1452,119.8361
179.0518,119.7783
179.0418,119.7688
178.3433,119.0703
178.2812,118.9796
178.2561,118.8727
178.2558,118.8588
178.2558,118.0886
178.2403,117.9712
178.2136,117.9067
178.1798,117.8251
178.0835,117.6997
178.0835,117.6997
177.9581,117.6034
177.9581,117.6034
177.8120,117.5429
177.8120,117.5429
177.6946,117.5275
176.2159,117.5275
176.2159,117.5275
176.0985,117.5429
176.0041,117.5820
175.9524,117.6034
175.9524,117.6034
175.9524,117.6034
175.8270,117.6997
175.8270,117.6997
175.7307,117.8251
175.7307,117.8251
175.6702,117.9712
175.6702,117.9712
175.6548,118.0886
175.6548,119.8673
175.6702,119.9847
175.6884,120.0286
175.7307,120.1308
175.7307,120.1308
175.7307,120.1308
175.8270,120.2563
175.8270,120.2563
175.8841,120.3001
175.9524,120.3525
175.9524,120.3525
175.9524,120.3525
176.0985,120.4130
176.0985,120.4130
176.2159,120.4285
176.9741,120.4285
177.0821,120.4487
177.1756,120.5065
177.1855,120.5161
178.3029,121.6334
178.3650,121.7240
178.3901,121.8310
178.3904,121.8448
178.3904,122.1962
178.3904,122.1962
178.4059,122.3136
178.4148,122.3350
178.4664,122.4597
178.4664,122.4597
178.4664,122.4597
178.5287,122.5408
178.5627,122.5851
178.6881,122.6814
178.6881,122.6814
178.6881,122.6814
178.8342,122.7419
178.8342,122.7419
178.9150,122.7525
179.0195,122.7866
179.1046,122.8562
179.1588,122.9518
179.1750,123.0490
179.1750,123.2572
179.1548,123.3652
179.0970,123.4586
179.0093,123.5249
178.9036,123.5549
178.8760,123.5562
177.2361,123.5562
177.2361,123.5562
177.1910,123.5621
177.0813,123.5562
176.9811,123.5111
176.9040,123.4328
176.9034,123.4318
176.8289,123.3203
176.0237,122.5151
175.9576,122.4710
175.8631,122.4078
175.8631,122.4078
175.8631,122.4078
175.8631,122.4078
175.6847,122.3339
175.6847,122.3339
175.5827,122.3136
175.4952,122.2962
175.4952,122.2962
174.0204,122.2962
173.9124,122.2760
173.8190,122.2182
173.7527,122.1305
173.7227,122.0248
173.7214,121.9972
173.7214,120.3528
173.7214,120.3525
173.7059,120.2354
173.6454,120.0893
173.5988,120.0286
173.5492,119.9639
173.5492,119.9639
173.4237,119.8677
173.4237,119.8676
173.2777,119.8071
173.2777,119.8071
173.1603,119.7917
173.1595,119.7916
173.1591,119.7915
173.1506,119.7904
173.1507,119.7894
173.0531,119.7644
172.9636,119.7006
172.9033,119.6087
172.8802,119.5013
172.8801,119.4933
172.8801,118.4028
172.8801,118.4028
172.8582,118.2929
172.8538,118.2707
172.8447,118.2250
172.7753,118.0575
172.6746,117.9067
172.1581,117.3902
172.0960,117.2995
172.0708,117.1926
172.0705,117.1788
172.0705,116.7735
172.0907,116.6655
172.1485,116.5721
172.1875,116.5363
172.2028,116.5245
172.3283,116.4283
172.4245,116.3028
172.4850,116.1568
172.5005,116.0394
172.5005,113.9606
172.4850,113.8432
172.4245,113.6972
172.3283,113.5717
172.3283,113.5717
172.2028,113.4755
172.2028,113.4755
172.0568,113.4150
172.0568,113.4150
171.9394,113.3995
170.3606,113.3995
170.3606,113.3995
170.2432,113.4150
170.1488,113.4541
170.0972,113.4755
170.0972,113.4755
170.0972,113.4755
169.9717,113.5717
169.9717,113.5717
169.8755,113.6972
169.8755,113.6972
169.8150,113.8432
169.8150,113.8432
169.7995,113.9606
169.7995,116.0394
169.8150,116.1568
169.8400,116.2173
169.8755,116.3028
169.8755,116.3028
169.8755,116.3028
169.9717,116.4283
169.9717,116.4283
170.1125,116.5363
170.1859,116.6181
170.2248,116.7209
170.2295,116.7735
170.2295,117.7745
170.2649,117.9524
170.3343,118.1199
170.3773,118.1844
170.4206,118.2854
170.4244,118.3952
170.3883,118.4990
170.3171,118.5827
170.2205,118.6351
170.1287,118.6495
168.9606,118.6495
168.8432,118.6650
168.7399,118.7077
168.6972,118.7255
168.6972,118.7255
168.6972,118.7255
168.5717,118.8217
168.5717,118.8217
168.4755,118.9472
168.4755,118.9472
168.4150,119.0932
168.4150,119.0932
168.3995,119.2106
168.3995,120.6749
168.3793,120.7829
168.3215,120.8763
168.3119,120.8863
167.8484,121.3498
167.7202,121.4781
167.6194,121.6288
167.5500,121.7963
167.5147,121.9742
167.5147,125.2317
167.5500,125.4096
167.6194,125.5771
167.6194,125.5771
167.6194,125.5771
167.7202,125.7279
168.3953,126.4030
168.3954,126.4031
168.5340,126.5417
168.6075,126.5908
168.6666,126.6303
168.7452,126.7071
168.7907,126.8071
168.7995,126.8789
168.7995,126.9274
168.7982,126.9550
168.7898,127.0462
168.7898,129.8515
168.7911,129.8911
168.7915,129.8972
168.7921,129.9167
168.7921,130.2053
168.7921,130.2053
168.8076,130.3227
168.8076,130.3227
168.8681,130.4688
168.8681,130.4688
168.8681,130.4688
168.9643,130.5942
168.9643,130.5942
169.0332,130.6471
169.0884,130.7023
169.1037,130.7222
169.1559,130.7818
169.2111,130.8370
169.2707,130.8892
169.2707,130.8892
169.2707,130.8892
169.3028,130.9139
169.3587,130.9567
169.4245,131.0007
169.4921,131.0397
169.4921,131.0397
169.4921,131.0397
169.5395,131.0631
169.5632,131.0748
169.6656,131.1172
169.7406,131.1427
169.7407,131.1427
169.7407,131.1427
169.7996,131.1585
169.8160,131.1629
169.8937,131.1783
170.0233,131.1954
170.0233,131.1954
170.0233,131.1954
170.0627,131.1993
170.0627,131.1993
170.0627,131.1993
170.1017,131.2018
170.1334,131.2029
170.1413,131.2031
171.1328,131.2031
171.2409,131.2233
171.3343,131.2812
171.4005,131.3688
171.4306,131.4745
171.4204,131.5839
171.3715,131.6823
171.3701,131.6841
171.3486,131.7121
171.3486,131.7121
171.2881,131.8582
171.2881,131.8582
171.2726,131.9756
171.2726,133.4543
171.2726,133.4543
171.2881,133.5717
171.2881,133.5717
171.3486,133.7178
171.3486,133.7178
171.3486,133.7178
171.4448,133.8432
171.4449,133.8432
171.4449,133.8432
171.5545,133.9274
171.6279,134.0092
171.6668,134.1119
171.6715,134.1646
171.6715,135.4664
171.6718,135.4713
171.6715,135.4740
171.6715,135.4761
171.6713,135.4761
171.6588,135.5804
171.6071,135.6774
171.5240,135.7492
171.4205,135.7862
171.4203,135.7862
171.3026,135.8048
171.1304,135.8608
171.0512,135.9011
170.9690,135.9430
170.8788,136.0086
170.8225,136.0494
170.6945,136.1775
170.6945,136.1775
170.5880,136.3240
170.5736,136.3523
170.5058,136.4854
170.4671,136.6046
170.4598,136.6270
170.4498,136.6576
170.4215,136.8365
170.4215,137.0175
170.4468,137.1770
170.4498,137.1964
170.5058,137.3686
170.5880,137.5300
170.6945,137.6765
170.8225,137.8046
170.9690,137.9110
171.1304,137.9932
171.3026,138.0492
171.4815,138.0775
171.4815,138.0775
171.6626,138.0775
171.6626,138.0775
171.8414,138.0492
172.0137,137.9932
172.1750,137.9110
172.3215,137.8046
172.4496,137.6765
172.5560,137.5300
172.6382,137.3686
172.6942,137.1964
172.7225,137.0175
172.7225,136.8365
172.6942,136.6576
172.6382,136.4854
172.6265,136.4622
172.5954,136.3568
172.6045,136.2473
172.6526,136.1485
172.7331,136.0738
172.8352,136.0331
172.8929,136.0275
173.5114,136.0275
173.5114,136.0275
173.6288,136.0120
173.7576,135.9587
173.8651,135.9360
173.9736,135.9537
173.9864,135.9587
174.1153,136.0120
174.2327,136.0275
174.8512,136.0275
174.9592,136.0477
175.0526,136.1055
175.1188,136.1932
175.1489,136.2989
175.1388,136.4083
175.1176,136.4622
175.1058,136.4854
175.1058,136.4854
175.1058,136.4854
175.1058,136.4854
175.0598,136.6270
175.0498,136.6576
175.0215,136.8365
175.0215,137.0175
175.0468,137.1770
175.0498,137.1964
175.1058,137.3686
175.1880,137.5300
175.2945,137.6765
175.4225,137.8046
175.5690,137.9110
175.7304,137.9932
175.9026,138.0492
176.0815,138.0775
176.0815,138.0775
176.2626,138.0775
176.2626,138.0775
176.4414,138.0492
176.6137,137.9932
176.7750,137.9110
176.9215,137.8046
177.0496,137.6765
177.1560,137.5300
177.2382,137.3686
177.2942,137.1964
177.3225,137.0175
177.3225,136.8365
177.2942,136.6576
177.2382,136.4854
177.2265,136.4622
177.1954,136.3568
177.2045,136.2473
177.2526,136.1485
177.3331,136.0738
177.4352,136.0331
177.4929,136.0275
177.9287,136.0275
178.0368,136.0477
178.1302,136.1055
178.1964,136.1932
178.2265,136.2989
178.2267,136.3018
178.2350,136.4023
178.2350,136.4517
178.2164,136.6770
178.2350,136.9023
178.2350,136.9517
178.2164,137.1770
178.2350,137.4023
178.2350,137.4517
178.2286,137.5300
178.2164,137.6770
178.2181,137.6975
178.2369,137.9248
178.2369,137.9248
178.2369,137.9248
178.2538,137.9915
178.2980,138.1659
178.2980,138.1659
178.3978,138.3936
178.3978,138.3936
178.5339,138.6018
178.7023,138.7847
178.7023,138.7847
178.8985,138.9375
179.0764,139.0338
179.1618,139.1029
179.2165,139.1983
179.2330,139.3069
179.2091,139.4142
179.1481,139.5056
179.0582,139.5688
178.9516,139.5952
178.9349,139.5957
168.6205,139.6234
168.5124,139.6035
168.4189,139.5459
168.3524,139.4584
168.3221,139.3528
168.3319,139.2433
168.3806,139.1449
168.4616,139.0706
168.5226,139.0416
168.6268,139.0058
168.8455,138.8875
169.0418,138.7347
169.2102,138.5518
169.3462,138.3436
169.4461,138.1159
169.5071,137.8748
169.5277,137.6270
169.5090,137.4017
169.5090,137.3523
169.5277,137.1270
169.5090,136.9017
169.5090,136.8523
169.5103,136.8365
169.5277,136.6270
169.5090,136.4017
169.5090,136.3523
169.5277,136.1270
169.5071,135.8792
169.4461,135.6381
169.4163,135.5702
169.3462,135.4104
169.3462,135.4104
169.2102,135.2022
169.0418,135.0193
168.8455,134.8665
168.8455,134.8665
168.6268,134.7482
168.3916,134.6674
168.1464,134.6265
168.1464,134.6265
167.8977,134.6265
167.8977,134.6265
167.6524,134.6674
167.6524,134.6674
167.4172,134.7482
167.4172,134.7482
167.1985,134.8665
167.0023,135.0193
167.0023,135.0193
166.8339,135.2022
166.6978,135.4104
166.6978,135.4104
166.5980,135.6381
166.5980,135.6381
166.5698,135.7492
166.5458,135.8441
166.4997,135.9439
166.4207,136.0202
166.3194,136.0629
166.2096,136.0661
166.1060,136.0294
166.0227,135.9578
165.9709,135.8609
165.9569,135.7707
165.9569,112.3649
165.9569,112.3636
165.9570,112.3570
165.9570,112.3544
165.9571,112.3475
165.9571,112.3464
165.9582,112.2803
165.9585,112.2710
165.9609,112.2223
165.9624,112.2036
165.9678,112.1553
165.9690,112.1460
165.9891,112.0060
165.9908,111.9955
166.0007,111.9410
166.0052,111.9202
166.0189,111.8665
166.0217,111.8563
166.0589,111.7295
166.0621,111.7194
166.0796,111.6668
166.0871,111.6469
166.1083,111.5957
166.1125,111.5859
166.1674,111.4658
166.1720,111.4562
166.1968,111.4067
166.2070,111.3880
166.2352,111.3403
166.2408,111.3313
166.3123,111.2201
166.3181,111.2114
166.3497,111.1659
166.3625,111.1488
166.3973,111.1056
166.4041,111.0975
166.4906,110.9977
166.4977,110.9898
166.5354,110.9492
166.5505,110.9342
166.5910,110.8964
166.5989,110.8893
166.6988,110.8028
166.7069,110.7960
166.7500,110.7613
166.7671,110.7485
166.8126,110.7169
166.8215,110.7110
166.9326,110.6396
166.9416,110.6340
166.9892,110.6057
167.0080,110.5955
167.0575,110.5707
167.0671,110.5661
167.1872,110.5113
167.1969,110.5071
167.2482,110.4858
167.2681,110.4784
167.3207,110.4609
167.3308,110.4577
167.4575,110.4205
167.4678,110.4177
167.5215,110.4040
167.5423,110.3995
167.5968,110.3896
167.6073,110.3879
167.7476,110.3678
167.7567,110.3666
167.8050,110.3612
167.8236,110.3597
167.8720,110.3573
167.8812,110.3570
167.9479,110.3558
167.9482,110.3558
167.9558,110.3557
167.9582,110.3557
167.9639,110.3557
167.9652,110.3557
167.9665,110.3557
172.8815,110.3557
Z" /> 
</g>
<g style="fill:#FFFFFF; fill-opacity:1.0000; stroke:none;">
<circle cx="171.5720" cy="136.9270" r="0.5500" /> 
</g>
<g style="fill:#FFFFFF; fill-opacity:1.0000; stroke:none;">
<circle cx="176.1720" cy="136.9270" r="0.5500" /> 
</g>
<g style="fill:#FFFFFF; fill-opacity:1.0000; stroke:none;">
<circle cx="168.0220" cy="136.1270" r="0.5000" /> 
</g>
<g style="fill:#FFFFFF; fill-opacity:1.0000; stroke:none;">
<circle cx="168.0220" cy="136.6270" r="0.5000" /> 
</g>
<g style="fill:#FFFFFF; fill-opacity:1.0000; stroke:none;">
<circle cx="168.0220" cy="137.1270" r="0.5000" /> 
</g>
<g style="fill:#FFFFFF; fill-opacity:1.0000; stroke:none;">
<circle cx="168.0220" cy="137.6270" r="0.5000" /> 
</g>
<g style="fill:#FFFFFF; fill-opacity:1.0000; stroke:none;">
<circle cx="179.7220" cy="136.1770" r="0.5000" /> 
</g>
<g style="fill:#FFFFFF; fill-opacity:1.0000; stroke:none;">
<circle cx="179.7220" cy="136.6770" r="0.5000" /> 
</g>
<g style="fill:#FFFFFF; fill-opacity:1.0000; stroke:none;">
<circle cx="179.7220" cy="137.1770" r="0.5000" /> 
</g>
<g style="fill:#FFFFFF; fill-opacity:1.0000; stroke:none;">
<circle cx="179.7220" cy="137.6770" r="0.5000" /> 
</g>
<g style="fill:#FFFFFF; fill-opacity:1.0000; stroke:none;">
<circle cx="179.7790" cy="114.6068" r="0.7000" /> 
</g>
<g style="fill:#FFFFFF; fill-opacity:1.0000; stroke:none;">
<circle cx="174.7790" cy="114.6068" r="0.7000" /> 
</g>
<g style="fill:#FFFFFF; fill-opacity:1.0000; stroke:none;">
<circle cx="179.2863" cy="128.8860" r="0.5000" /> 
</g> 
</svg>
