<?xml version="1.0" encoding="UTF-8" standalone="no"?>
<svg
   version="1.1"
   width="18.113623mm"
   height="21.724255mm"
   viewBox="0 0 18.113623 21.724254"
   id="svg54"
   sodipodi:docname="ATtiny412UPDI_Serial_Programmer-F_Cu.svg"
   inkscape:version="1.4.2 (ebf0e940d0, 2025-05-08)"
   xmlns:inkscape="http://www.inkscape.org/namespaces/inkscape"
   xmlns:sodipodi="http://sodipodi.sourceforge.net/DTD/sodipodi-0.dtd"
   xmlns="http://www.w3.org/2000/svg"
   xmlns:svg="http://www.w3.org/2000/svg">
  <defs
     id="defs54" />
  <sodipodi:namedview
     id="namedview54"
     pagecolor="#ffffff"
     bordercolor="#000000"
     borderopacity="0.25"
     inkscape:showpageshadow="2"
     inkscape:pageopacity="0.0"
     inkscape:pagecheckerboard="0"
     inkscape:deskcolor="#d1d1d1"
     inkscape:document-units="mm"
     showgrid="false"
     inkscape:zoom="7.6317357"
     inkscape:cx="39.833665"
     inkscape:cy="41.143983"
     inkscape:window-width="1920"
     inkscape:window-height="1135"
     inkscape:window-x="0"
     inkscape:window-y="0"
     inkscape:window-maximized="1"
     inkscape:current-layer="svg54" />
  <title
     id="title1">SVG Image created as ATtiny412UPDI_Serial_Programmer-F_Cu.svg date 2025/05/22 13:38:58 </title>
  <desc
     id="desc1">Image generated by PCBNEW </desc>
  <path
     id="path55"
     style="baseline-shift:baseline;display:inline;overflow:visible;vector-effect:none;stroke-linecap:round;stroke-linejoin:round;enable-background:accumulate;stop-color:#000000"
     d="M 0,0 V 21.724255 H 18.113623 V 0 Z m 1.159619,0.944128 h 5.353162 l 0.06666,0.01964 0.04599,0.05271 0.01033,0.0646 -0.0015,0.01447 v 1.695504 l 0.0067,0.05994 0.05013,0.134876 0.05374,0.07131 0.02429,0.06563 -0.01499,0.06821 -0.02119,0.02791 -0.865581,0.866097 -0.0021,-0.0016 -0.04806,0.03256 -0.03824,0.0062 H 5.386736 l -0.05943,0.0062 -0.134876,0.05013 -0.121956,0.09198 -0.0021,-0.0026 -0.04806,0.02635 -0.02635,0.0026 H 4.881356 l -0.140043,0.02791 -0.132292,0.05478 -0.118856,0.07958 -3.243212,3.243213 -0.06098,0.03359 -0.06976,-0.0052 -0.05633,-0.04186 -0.02429,-0.06563 v -0.0088 -6.546887 l 0.01964,-0.06666 0.05271,-0.04599 z m 7.797457,0 h 0.555522 l 0.06718,0.01964 0.04548,0.05271 0.01085,0.0646 -0.0016,0.01447 v 1.695504 l 0.0062,0.05994 0.05013,0.134876 0.0863,0.115238 0.115239,0.0863 0.05581,0.02067 0.05581,0.04186 0.02222,0.05013 0.01085,0.05478 0.05478,0.132291 0.07958,0.118856 0.495577,0.495577 0.03359,0.06098 -0.0052,0.06976 -0.01705,0.03101 -0.08733,0.116789 -0.05013,0.134875 -0.0067,0.05994 v 0.895553 l 0.0067,0.05943 0.03101,0.08423 0.0052,0.06976 -0.0052,0.01705 -0.03101,0.08423 -0.0067,0.05943 v 0.447518 0.421163 l -0.01964,0.06666 -0.05271,0.04599 -0.05168,0.01137 h -0.06615 l -0.140043,0.02739 -0.131775,0.05478 -0.118856,0.07958 -1.806091,1.806091 -0.06149,0.03359 -0.06976,-0.0052 -0.05581,-0.04186 -0.02481,-0.06511 v -0.0093 -0.332796 l -0.0062,-0.05943 -0.03152,-0.08423 -0.0052,-0.06976 0.0052,-0.01705 0.03152,-0.08372 0.0062,-0.05994 V 7.114791 l -0.0062,-0.05995 -0.03152,-0.08423 -0.0052,-0.06925 0.0052,-0.01705 0.03152,-0.08423 0.0062,-0.05994 V 5.844588 l -0.0062,-0.05943 -0.03152,-0.08423 -0.0052,-0.06976 0.0052,-0.01705 0.03152,-0.08423 0.0062,-0.05943 V 4.574905 l -0.0062,-0.05994 -0.02119,-0.05581 -0.02946,-0.07906 -0.04444,-0.05943 -0.02429,-0.06563 0.01447,-0.06821 0.02119,-0.02842 0.452686,-0.452685 0.03979,-0.05943 0.03979,-0.05943 0.04134,-0.09974 0.01344,-0.03204 0.02791,-0.140043 5.16e-4,-0.0062 h 0.0016 l 0.01757,-0.05891 0.05271,-0.04599 0.0083,-0.0031 0.03617,-0.01344 0.115239,-0.0863 0.0863,-0.115238 0.05013,-0.134876 0.0067,-0.05994 V 1.095539 l -0.0016,-0.01447 0.0124,-0.06873 0.04754,-0.05116 z m 2.999817,0 h 4.953703 l 0.06666,0.01964 0.04599,0.05271 0.01137,0.05116 v 12.7186 l -0.02015,0.06718 -0.05271,0.04599 -0.06873,0.0098 -0.06408,-0.02894 -0.01809,-0.01964 -0.0067,-0.0093 -0.01189,-0.0155 -0.115239,-0.0863 -0.134875,-0.05013 -0.05943,-0.0067 h -0.04858 l -0.06666,-0.01964 -0.04599,-0.05271 -0.01085,-0.05168 v -1.1467 l -0.02791,-0.140043 -0.05478,-0.132291 -0.03927,-0.05891 -0.04031,-0.05994 -1.351856,-1.351856 -0.03307,-0.06098 -0.0031,-0.02636 V 5.468903 l -0.02791,-0.140043 -0.05478,-0.131775 -0.0186,-0.02842 -0.06046,-0.09043 -0.619083,-0.619084 -0.05943,-0.03979 -0.05943,-0.03979 -0.132292,-0.05478 -0.140043,-0.02791 h -0.112655 l -0.06666,-0.01964 -0.0093,-0.0072 v 5.17e-4 l -0.122473,-0.09198 -0.134876,-0.05013 -0.05943,-0.0062 h -0.324012 l -0.06718,-0.01964 -0.03566,-0.03566 -0.05788,-0.0863 -0.818555,-0.818555 -0.03359,-0.06149 0.0052,-0.06976 0.01654,-0.03049 0.01085,-0.01447 0.05013,-0.134876 0.0067,-0.05994 V 1.095563 l -0.0016,-0.01447 0.0124,-0.06873 0.04754,-0.05116 z M 7.134965,1.143599 H 8.334892 V 2.743501 H 7.959721 v 0.500228 a 0.22499999,0.22499999 0 0 1 -0.06615,0.15813 L 6.674524,4.622456 H 7.434685 V 5.422408 H 5.434807 V 5.247225 H 5.0462 L 1.260384,9.03304 v 7.817611 l 0.293523,0.293522 h 8.632031 l 0.09405,-0.09354 v -0.357079 h -0.62528 v -2.500106 h 1.700155 v 2.500106 h -0.625285 v 0.42323 a 0.22499999,0.22499999 0 0 1 -0.0646,0.185519 l -0.21394,0.213423 a 0.22499999,0.22499999 0 0 1 -0.001,10e-4 l -0.01189,0.01188 a 0.22499999,0.22499999 0 0 1 -0.15968,0.06666 H 1.461926 A 0.22499999,0.22499999 0 0 1 1.30173,17.528606 L 0.888835,17.115712 A 0.22499999,0.22499999 0 0 1 0.809255,16.942596 V 8.9405 a 0.22499999,0.22499999 0 0 1 0.0083,-0.05891 0.22499999,0.22499999 0 0 1 0.02222,-0.05323 0.22499999,0.22499999 0 0 1 5.17e-4,-10e-4 0.22499999,0.22499999 0 0 1 0.03566,-0.04651 L 4.794059,4.862743 a 0.22499999,0.22499999 0 0 1 0.185001,-0.0646 h 0.455787 v -0.1757 h 0.775146 v -0.07803 a 0.22499999,0.22499999 0 0 1 0.0026,-0.03256 0.22499999,0.22499999 0 0 1 0.001,-0.0078 0.22499999,0.22499999 0 0 1 0.0052,-0.0217 0.22499999,0.22499999 0 0 1 5.17e-4,-0.0016 0.22499999,0.22499999 0 0 1 0.05684,-0.09663 l 0.0124,-0.0124 1.222148,-1.223698 V 2.743398 H 7.13501 Z m 2.999817,0 h 1.199927 v 1.599902 h -0.374654 v 0.306958 l 1.234033,1.234034 a 0.22499999,0.22499999 0 0 1 0.03566,0.04599 0.22499999,0.22499999 0 0 0 5.16e-4,5.16e-4 0.22499999,0.22499999 0 0 1 0.03049,0.111621 v 0.179834 h 0.774112 v 0.1757 h 0.456303 a 0.22499999,0.22499999 0 0 1 0.185519,0.0646 L 14.182083,5.3697 a 0.22499999,0.22499999 0 0 1 10e-4,0.001 l 0.01137,0.01137 a 0.22499999,0.22499999 0 0 1 0.06615,0.15813 v 5.31027 l 1.482597,1.483114 a 0.22499999,0.22499999 0 0 1 0.03566,0.04651 0.22499999,0.22499999 0 0 1 5.17e-4,10e-4 0.22499999,0.22499999 0 0 1 0.02222,0.05323 0.22499999,0.22499999 0 0 1 0,10e-4 0.22499999,0.22499999 0 0 1 0.0057,0.02791 0.22499999,0.22499999 0 0 1 0.0021,0.02997 v 1.700154 h 0.625285 v 2.500106 h -1.699664 v -2.500016 h 0.625285 V 12.585795 L 13.888558,11.1156 a 0.22499999,0.22499999 0 0 1 -0.07906,-0.172599 V 5.634281 L 13.423987,5.247225 H 13.034863 V 5.422408 H 11.034986 V 4.622456 h 0.774629 v -0.08578 l -1.23455,-1.23455 A 0.22499999,0.22499999 0 0 1 10.510475,3.116607 V 2.743503 H 10.134787 Z M 5.434811,5.892663 H 7.434689 V 6.692614 H 5.434811 Z m 5.600175,0 h 1.999877 v 0.799951 h -1.999877 z m -6.250782,0.352433 0.06925,0.0052 0.05633,0.04186 0.02429,0.06563 5.17e-4,0.0088 v 0.373621 l 0.0062,0.05994 0.03152,0.08423 0.0046,0.06976 -0.0046,0.01654 -0.03152,0.08423 -0.0062,0.05995 v 0.895552 l 0.0062,0.05943 0.03152,0.08423 0.0046,0.06976 -0.0046,0.01705 -0.03152,0.08423 -0.0062,0.05943 v 0.896069 l 0.0062,0.05943 0.05013,0.134875 0.0863,0.115239 0.115238,0.0863 0.134876,0.05013 0.0067,10e-4 0.05271,0.0057 h 1.588533 l 0.02791,0.0083 0.02894,0.0052 0.0041,0.0041 0.0062,0.0021 0.01912,0.0217 0.02119,0.02015 0.0016,0.0062 0.0036,0.0047 0.0047,0.02894 0.0067,0.02791 -0.0015,0.0083 5.17e-4,0.0041 -0.0057,0.02274 -10e-4,0.0036 -0.05426,0.130741 -0.0124,0.06305 -0.0031,0.0083 -0.0155,0.0217 -0.0124,0.02377 -0.0083,0.0057 -0.0041,0.0057 -0.0124,0.0047 -0.02119,0.01395 -0.05529,0.02067 -0.115239,0.0863 -0.0863,0.115238 -0.05013,0.134876 -0.0062,0.05581 -5.16e-4,0.0041 v 0.0031 h -0.001 l -0.0186,0.06201 -0.05271,0.04599 -0.05168,0.01085 H 6.46332 l -0.140044,0.02791 -0.131774,0.05478 -0.118856,0.07958 -1.211296,1.210778 -0.07906,0.118856 -0.05478,0.132292 -0.0279,0.140043 v 1.086755 l -0.01964,0.06718 -0.05271,0.04599 -0.05168,0.01085 H 4.527 l -0.05943,0.0067 -0.134876,0.05013 -0.103353,0.07752 -0.06563,0.02429 -0.06821,-0.01499 -0.01499,-0.0093 -0.103353,-0.07752 -0.134875,-0.05013 -0.05943,-0.0067 H 1.987097 l -0.05943,0.0067 -0.0078,0.0016 v -10e-4 l -0.06201,0.0041 -0.06098,-0.03359 -0.03359,-0.06098 -0.0026,-0.02635 V 9.292677 l 0.01964,-0.06718 0.01654,-0.02067 2.925919,-2.92592 z M 5.434811,7.162353 H 7.434689 V 7.962821 H 5.434811 Z m 5.600175,0 h 1.999877 v 0.800468 h -1.999877 v -0.17415 h -0.526583 l -2.548682,2.547132 v 0.307475 H 8.334892 V 12.24318 H 7.134965 V 11.669055 H 6.628019 l -0.978751,0.978751 v 1.545642 h 0.625801 v 2.500106 H 4.574915 V 14.193448 H 5.2002 v -1.639176 a 0.22499999,0.22499999 0 0 1 0.0078,-0.05891 0.22499999,0.22499999 0 0 0 0,-5.17e-4 0.22499999,0.22499999 0 0 1 5.17e-4,-0.0016 0.22499999,0.22499999 0 0 1 0.05788,-0.09922 l 1.097091,-1.097091 a 0.22499999,0.22499999 0 0 1 0.170532,-0.07906 h 0.600997 v -0.574596 h 0.375688 v -0.374655 a 0.22499999,0.22499999 0 0 1 0.0646,-0.185001 l 2.669088,-2.667538 a 0.22499999,0.22499999 0 0 1 0.170532,-0.07855 h 0.620118 z M 5.434811,8.43256 H 7.434689 V 9.232511 H 5.434811 Z m 5.600175,0 h 1.999877 v 0.799951 h -1.999877 z m -0.651123,0.215491 0.06976,0.0052 0.05581,0.04186 0.02481,0.06511 v 0.0093 0.51108 l 0.0067,0.05943 0.05013,0.134875 0.0863,0.115239 0.115238,0.0863 0.134876,0.05013 0.0067,10e-4 0.05271,0.0057 h 2.095997 l 0.05943,-0.0067 0.0078,-0.0016 v 10e-4 l 0.06149,-0.0041 0.06149,0.03359 0.03359,0.06098 0.0026,0.02636 v 1.172021 l 0.02791,0.140043 0.05478,0.132292 0.07958,0.118856 1.351339,1.351338 0.03359,0.0615 0.0031,0.02636 v 0.72347 l -0.01964,0.06718 -0.05323,0.04599 -0.05116,0.01085 h -0.04858 l -0.05943,0.0067 -0.134875,0.05013 -0.103353,0.07752 -0.06563,0.02429 -0.06821,-0.01499 -0.01499,-0.0093 -0.103353,-0.07752 -0.134876,-0.05013 -0.05943,-0.0067 H 12.14708 l -0.05943,0.0067 -0.134875,0.05013 -0.103353,0.07752 -0.06563,0.02429 -0.06821,-0.01499 -0.01499,-0.0093 -0.103353,-0.07752 -0.134875,-0.05013 -0.05943,-0.0067 h -0.291972 l -0.06718,-0.01964 -0.04599,-0.05271 -0.0098,-0.06925 0.02894,-0.06356 0.0062,-0.0062 0.275435,-0.275435 0.07906,-0.118856 0.04444,-0.105937 0.01034,-0.02636 0.02791,-0.140043 v -0.01188 l 0.0031,-0.01344 0.01085,-0.01912 0.0057,-0.02067 0.01085,-0.0088 0.0067,-0.0124 0.01912,-0.01034 0.01654,-0.01395 0.0078,-0.0036 0.03617,-0.01344 0.115239,-0.0863 0.0863,-0.115239 0.05013,-0.134875 0.0067,-0.05943 v -1.695504 l -0.0067,-0.05994 -0.05013,-0.134876 -0.0863,-0.115238 -0.115239,-0.0863 -0.134875,-0.05013 -0.05943,-0.0062 h -1.295528 l -0.05994,0.0062 -0.134875,0.05013 -0.115239,0.0863 -0.0863,0.115238 -0.05013,0.134876 -0.0062,0.05581 v 0.0041 1.695504 l 0.0062,0.05943 0.05013,0.134875 0.02532,0.03411 0.02481,0.06563 -0.01499,0.06821 -0.04961,0.04909 -0.05943,0.0155 H 8.963353 l -0.103869,0.02067 -0.06925,-0.0067 -0.05529,-0.04237 -0.02325,-0.06615 0.01602,-0.0677 0.0083,-0.01344 0.04289,-0.05684 0.05013,-0.134875 0.0067,-0.05943 v -1.695504 l -0.0067,-0.05994 -0.05013,-0.134876 -0.01085,-0.01447 -0.02429,-0.06511 0.01499,-0.06821 0.02119,-0.02842 1.543058,-1.543058 z m -0.249081,1.995227 h 1.199927 v 1.599902 h -0.374654 v 0.500228 a 0.22499999,0.22499999 0 0 1 -0.07906,0.171049 l -0.68678,0.68833 a 0.22499999,0.22499999 0 0 1 -0.160197,0.06666 H 9.127613 l -0.523999,0.523999 h 0.211357 v 2.500106 h -1.70016 v -2.500104 h 0.852145 l 0.896069,-0.896069 a 0.22499999,0.22499999 0 0 1 0.171049,-0.07906 h 0.907955 l 0.568441,-0.570508 v -0.404626 h -0.375688 z m -3.557405,1.811259 0.06976,0.0052 0.05581,0.04186 0.07441,0.09922 0.115239,0.0863 0.134875,0.05064 0.0067,5.17e-4 0.05271,0.0057 h 1.296045 l 0.0047,-5.17e-4 0.01033,-10e-4 0.06873,0.0124 0.05116,0.04754 0.01757,0.0677 -0.02222,0.06615 -0.01395,0.01705 -0.703316,0.703316 -0.0615,0.03359 -0.02635,0.0026 H 7.066775 l -0.05943,0.0067 -0.134875,0.05013 -0.103353,0.07752 -0.06563,0.02429 -0.06821,-0.01499 -0.01447,-0.0093 -0.103353,-0.07752 -0.134876,-0.05013 -0.05994,-0.0067 h -0.04806 l -0.06718,-0.01964 -0.04599,-0.05271 -0.01085,-0.05168 v -0.663525 l 0.01964,-0.06718 0.01654,-0.02015 0.329179,-0.329696 z m -4.542359,1.738911 h 1.699638 v 2.500106 H 2.035018 Z m 10.160103,0 h 1.699638 v 2.500106 h -1.699638 z m 4.74183,2.785877 0.06098,0.03307 0.03359,0.0615 0.0031,0.02636 v 3.718636 l -0.02015,0.06718 -0.05271,0.04548 -0.05116,0.01137 H 1.159619 l -0.06718,-0.01964 -0.04599,-0.05271 -0.01085,-0.05168 v -2.655135 l 0.01964,-0.06666 0.05271,-0.04599 0.06925,-0.0098 0.02946,0.0083 0.04289,0.01757 0.140043,0.02791 h 8.960694 l 0.09457,-0.01912 0.04547,-0.0088 0.132292,-0.05478 0.118855,-0.07958 0.327112,-0.327112 0.07906,-0.118339 0.05478,-0.132291 0.01137,-0.05736 0.001,-0.0041 0.03204,-0.0615 0.06098,-0.03462 0.02842,-0.0036 h 0.06666 l 0.05943,-0.0062 0.134875,-0.05064 0.103353,-0.077 0.06563,-0.0248 0.06821,0.01499 0.01499,0.0098 0.103353,0.077 0.134875,0.05064 0.0067,5.17e-4 0.05271,0.0057 h 1.795756 l 0.05943,-0.0062 0.134876,-0.05064 0.103353,-0.077 0.06563,-0.0248 0.06821,0.01499 0.01499,0.0098 0.103353,0.077 0.134875,0.05064 0.0067,5.17e-4 0.05271,0.0057 h 1.795756 l 0.05943,-0.0062 0.134875,-0.05064 0.115239,-0.0863 0.0186,-0.0248 0.05633,-0.04186 z" />
  <path
     style="baseline-shift:baseline;display:inline;overflow:visible;vector-effect:none;stroke-linecap:round;stroke-linejoin:round;enable-background:accumulate;stop-color:#000000"
     d="m 8.79e-4,-0.004517 a 0.00417936,0.00417936 0 0 0 -0.0059,0.0039 v 21.72461 a 0.00417936,0.00417936 0 0 0 0.0059,0.0039 H 18.11416 a 0.00417936,0.00417936 0 0 0 0.0039,-0.0039 V -6.17e-4 a 0.00417936,0.00417936 0 0 0 -0.0039,-0.0039 z m 0.0039,0.0078 H 18.110254 V 21.720092 H 0.004785 Z"
     id="path56" />
  <text
     xml:space="preserve"
     style="font-size:1.41111px;text-align:start;writing-mode:lr-tb;direction:ltr;text-anchor:start;fill:#000000;stroke-width:0.264583"
     x="13.486174"
     y="2.842844"
     id="text57"><tspan
       sodipodi:role="line"
       id="tspan57"
       style="font-size:1.41111px;stroke-width:0.264583"
       x="13.486174"
       y="2.842844">GND</tspan></text>
  <text
     xml:space="preserve"
     style="font-size:1.41111px;text-align:start;writing-mode:lr-tb;direction:ltr;text-anchor:start;fill:#000000;stroke-width:0.264583"
     x="2.1841362"
     y="2.842844"
     id="text58"><tspan
       sodipodi:role="line"
       id="tspan58"
       style="stroke-width:0.264583"
       x="2.1841362"
       y="2.842844">VCC</tspan></text>
</svg>
