<?xml version="1.0" standalone="no"?>
 <!DOCTYPE svg PUBLIC "-//W3C//DTD SVG 1.1//EN" 
 "http://www.w3.org/Graphics/SVG/1.1/DTD/svg11.dtd"> 
<svg
  xmlns:svg="http://www.w3.org/2000/svg"
  xmlns="http://www.w3.org/2000/svg"
  xmlns:xlink="http://www.w3.org/1999/xlink"
  version="1.1"
  width="210.0072mm" height="148.0058mm" viewBox="0.0000 0.0000 210.0072 148.0058">
<title>SVG Image created as QC_Hack_wPins-F_Cu.svg date 2025/05/21 11:01:01 </title>
  <desc>Image generated by PCBNEW </desc>
<g style="fill:#000000; fill-opacity:1.0000;stroke:#000000; stroke-opacity:1.0000;
stroke-linecap:round; stroke-linejoin:round;"
 transform="translate(0 0) scale(1 1)">
</g>
<g style="fill:#000000; fill-opacity:1.0000; 
stroke:#000000; stroke-width:0.0212; stroke-opacity:1; 
stroke-linecap:round; stroke-linejoin:round;">
<rect x="-17.973572" y="-40.560000" width="66.427145" height="59.978250" rx="0.000000" />
</g>
<g style="fill:#FFFFFF; fill-opacity:1.0000; stroke:none;">
<circle cx="11.8900" cy="-5.1300" r="0.7000" /> 
</g>
<g style="fill:#FFFFFF; fill-opacity:1.0000; stroke:none;">
<circle cx="16.4900" cy="-5.1300" r="0.7000" /> 
<path style="fill:#FFFFFF; fill-opacity:1.0000; stroke:none;fill-rule:evenodd;"
d="M 17.0900,-6.6300
17.0900,-8.6300
18.2900,-8.6300
18.2900,-6.6300
Z" /> 
<path style="fill:#FFFFFF; fill-opacity:1.0000; stroke:none;fill-rule:evenodd;"
d="M 14.5900,-6.6300
14.5900,-8.6300
15.7900,-8.6300
15.7900,-6.6300
Z" /> 
<path style="fill:#FFFFFF; fill-opacity:1.0000; stroke:none;fill-rule:evenodd;"
d="M 12.5900,-6.6300
12.5900,-8.6300
13.7900,-8.6300
13.7900,-6.6300
Z" /> 
<path style="fill:#FFFFFF; fill-opacity:1.0000; stroke:none;fill-rule:evenodd;"
d="M 10.0900,-6.6300
10.0900,-8.6300
11.2900,-8.6300
11.2900,-6.6300
Z" /> 
</g>
<g style="fill:#FFFFFF; fill-opacity:1.0000; stroke:none;">
<circle cx="8.3400" cy="-5.9300" r="0.9000" /> 
</g>
<g style="fill:#FFFFFF; fill-opacity:1.0000; stroke:none;">
<circle cx="8.3400" cy="-5.4300" r="0.9000" /> 
</g>
<g style="fill:#FFFFFF; fill-opacity:1.0000; stroke:none;">
<circle cx="8.3400" cy="-4.9300" r="0.9000" /> 
</g>
<g style="fill:#FFFFFF; fill-opacity:1.0000; stroke:none;">
<circle cx="8.3400" cy="-4.4300" r="0.9000" /> 
</g>
<g style="fill:#FFFFFF; fill-opacity:1.0000; stroke:none;">
<circle cx="20.0400" cy="-5.8800" r="0.9000" /> 
</g>
<g style="fill:#FFFFFF; fill-opacity:1.0000; stroke:none;">
<circle cx="20.0400" cy="-5.3800" r="0.9000" /> 
</g>
<g style="fill:#FFFFFF; fill-opacity:1.0000; stroke:none;">
<circle cx="20.0400" cy="-4.8800" r="0.9000" /> 
</g>
<g style="fill:#FFFFFF; fill-opacity:1.0000; stroke:none;">
<circle cx="20.0400" cy="-4.3800" r="0.9000" /> 
<path style="fill:#FFFFFF; fill-opacity:1.0000; stroke:none;fill-rule:evenodd;"
d="M 11.8900,-13.7300
13.4900,-13.7300
13.4900,-12.5300
11.8900,-12.5300
Z" /> 
<path style="fill:#FFFFFF; fill-opacity:1.0000; stroke:none;fill-rule:evenodd;"
d="M 11.8900,-10.7300
13.4900,-10.7300
13.4900,-9.5300
11.8900,-9.5300
Z" /> 
</g>
<g style="fill:#FFFFFF; fill-opacity:1.0000; stroke:none;">
<circle cx="5.0800" cy="-25.4000" r="1.5000" /> 
</g>
<g style="fill:#FFFFFF; fill-opacity:1.0000; stroke:none;">
<circle cx="5.0800" cy="-22.8600" r="1.5000" /> 
</g>
<g style="fill:#FFFFFF; fill-opacity:1.0000; stroke:none;">
<circle cx="5.0800" cy="-20.3200" r="1.5000" /> 
</g>
<g style="fill:#FFFFFF; fill-opacity:1.0000; stroke:none;">
<circle cx="5.0800" cy="-17.7800" r="1.5000" /> 
</g>
<g style="fill:#FFFFFF; fill-opacity:1.0000; stroke:none;">
<circle cx="5.0800" cy="-15.2400" r="1.5000" /> 
<path style="fill:#FFFFFF; fill-opacity:1.0000; stroke:none;fill-rule:evenodd;"
d="M 13.3900,-19.9800
13.3900,-21.5800
14.5900,-21.5800
14.5900,-19.9800
Z" /> 
<path style="fill:#FFFFFF; fill-opacity:1.0000; stroke:none;fill-rule:evenodd;"
d="M 16.3900,-19.9800
16.3900,-21.5800
17.5900,-21.5800
17.5900,-19.9800
Z" /> 
<path style="fill:#FFFFFF; fill-opacity:1.0000; stroke:none;fill-rule:evenodd;"
d="M 8.7400,-14.1800
10.3400,-14.1800
10.3400,-12.9800
8.7400,-12.9800
Z" /> 
<path style="fill:#FFFFFF; fill-opacity:1.0000; stroke:none;fill-rule:evenodd;"
d="M 8.7400,-11.1800
10.3400,-11.1800
10.3400,-9.9800
8.7400,-9.9800
Z" /> 
<path style="fill:#FFFFFF; fill-opacity:1.0000; stroke:none;fill-rule:evenodd;"
d="M 22.2900,-31.9300
22.2900,-30.3300
21.0900,-30.3300
21.0900,-31.9300
Z" /> 
<path style="fill:#FFFFFF; fill-opacity:1.0000; stroke:none;fill-rule:evenodd;"
d="M 19.2900,-31.9300
19.2900,-30.3300
18.0900,-30.3300
18.0900,-31.9300
Z" /> 
<path style="fill:#FFFFFF; fill-opacity:1.0000; stroke:none;fill-rule:evenodd;"
d="M 11.8400,-30.2800
11.8400,-31.9800
13.2400,-31.9800
13.2400,-30.2800
Z" /> 
<path style="fill:#FFFFFF; fill-opacity:1.0000; stroke:none;fill-rule:evenodd;"
d="M 15.2400,-30.2800
15.2400,-31.9800
16.6400,-31.9800
16.6400,-30.2800
Z" /> 
<path style="fill:#FFFFFF; fill-opacity:1.0000; stroke:none;fill-rule:evenodd;"
d="M 8.7400,-19.3800
10.3400,-19.3800
10.3400,-18.1800
8.7400,-18.1800
Z" /> 
<path style="fill:#FFFFFF; fill-opacity:1.0000; stroke:none;fill-rule:evenodd;"
d="M 8.7400,-16.3800
10.3400,-16.3800
10.3400,-15.1800
8.7400,-15.1800
Z" /> 
<path style="fill:#FFFFFF; fill-opacity:1.0000; stroke:none;fill-rule:evenodd;"
d="M 14.3400,-13.7800
15.9400,-13.7800
15.9400,-12.5800
14.3400,-12.5800
Z" /> 
<path style="fill:#FFFFFF; fill-opacity:1.0000; stroke:none;fill-rule:evenodd;"
d="M 14.3400,-10.7800
15.9400,-10.7800
15.9400,-9.5800
14.3400,-9.5800
Z" /> 
<path style="fill:#FFFFFF; fill-opacity:1.0000; stroke:none;fill-rule:evenodd;"
d="M 23.3600,-21.6500
23.3600,-20.0500
22.1600,-20.0500
22.1600,-21.6500
Z" /> 
<path style="fill:#FFFFFF; fill-opacity:1.0000; stroke:none;fill-rule:evenodd;"
d="M 20.3600,-21.6500
20.3600,-20.0500
19.1600,-20.0500
19.1600,-21.6500
Z" /> 
<path style="fill:#FFFFFF; fill-opacity:1.0000; stroke:none;fill-rule:evenodd;"
d="M 11.6900,-18.3800
11.6900,-19.1800
13.6900,-19.1800
13.6900,-18.3800
Z" /> 
<path style="fill:#FFFFFF; fill-opacity:1.0000; stroke:none;fill-rule:evenodd;"
d="M 11.6900,-17.1100
11.6900,-17.9100
13.6900,-17.9100
13.6900,-17.1100
Z" /> 
<path style="fill:#FFFFFF; fill-opacity:1.0000; stroke:none;fill-rule:evenodd;"
d="M 11.6900,-15.8400
11.6900,-16.6400
13.6900,-16.6400
13.6900,-15.8400
Z" /> 
<path style="fill:#FFFFFF; fill-opacity:1.0000; stroke:none;fill-rule:evenodd;"
d="M 11.6900,-14.5700
11.6900,-15.3700
13.6900,-15.3700
13.6900,-14.5700
Z" /> 
<path style="fill:#FFFFFF; fill-opacity:1.0000; stroke:none;fill-rule:evenodd;"
d="M 17.2900,-14.5700
17.2900,-15.3700
19.2900,-15.3700
19.2900,-14.5700
Z" /> 
<path style="fill:#FFFFFF; fill-opacity:1.0000; stroke:none;fill-rule:evenodd;"
d="M 17.2900,-15.8400
17.2900,-16.6400
19.2900,-16.6400
19.2900,-15.8400
Z" /> 
<path style="fill:#FFFFFF; fill-opacity:1.0000; stroke:none;fill-rule:evenodd;"
d="M 17.2900,-17.1100
17.2900,-17.9100
19.2900,-17.9100
19.2900,-17.1100
Z" /> 
<path style="fill:#FFFFFF; fill-opacity:1.0000; stroke:none;fill-rule:evenodd;"
d="M 17.2900,-18.3800
17.2900,-19.1800
19.2900,-19.1800
19.2900,-18.3800
Z" /> 
<path style="fill:#FFFFFF; fill-opacity:1.0000; stroke:none;fill-rule:evenodd;"
d="M 8.8850,-28.3550
8.8850,-26.3550
7.3850,-26.3550
7.3850,-28.3550
Z" /> 
<path style="fill:#FFFFFF; fill-opacity:1.0000; stroke:none;fill-rule:evenodd;"
d="M 10.2950,-23.1050
10.2950,-20.6050
8.2950,-20.6050
8.2950,-23.1050
Z" /> 
<path style="fill:#FFFFFF; fill-opacity:1.0000; stroke:none;fill-rule:evenodd;"
d="M 11.1950,-28.3550
11.1950,-26.3550
9.6950,-26.3550
9.6950,-28.3550
Z" /> 
<path style="fill:#FFFFFF; fill-opacity:1.0000; stroke:none;fill-rule:evenodd;"
d="M 20.5900,-24.6300
20.5900,-23.0300
19.3900,-23.0300
19.3900,-24.6300
Z" /> 
<path style="fill:#FFFFFF; fill-opacity:1.0000; stroke:none;fill-rule:evenodd;"
d="M 17.5900,-24.6300
17.5900,-23.0300
16.3900,-23.0300
16.3900,-24.6300
Z" /> 
<path style="fill:#FFFFFF; fill-opacity:1.0000; stroke:none;fill-rule:evenodd;"
d="M 18.6400,-12.1800
18.6400,-12.8800
19.6400,-12.8800
19.6400,-12.1800
Z" /> 
<path style="fill:#FFFFFF; fill-opacity:1.0000; stroke:none;fill-rule:evenodd;"
d="M 18.6400,-10.2800
18.6400,-10.9800
19.6400,-10.9800
19.6400,-10.2800
Z" /> 
<path style="fill:#FFFFFF; fill-opacity:1.0000; stroke:none;fill-rule:evenodd;"
d="M 21.0400,-11.2300
21.0400,-11.9300
22.0400,-11.9300
22.0400,-11.2300
Z" /> 
</g>
<g style="fill:#FFFFFF; fill-opacity:1.0000; stroke:none;">
<circle cx="25.4000" cy="-25.4000" r="1.5000" /> 
</g>
<g style="fill:#FFFFFF; fill-opacity:1.0000; stroke:none;">
<circle cx="25.4000" cy="-22.8600" r="1.5000" /> 
</g>
<g style="fill:#FFFFFF; fill-opacity:1.0000; stroke:none;">
<circle cx="25.4000" cy="-20.3200" r="1.5000" /> 
</g>
<g style="fill:#FFFFFF; fill-opacity:1.0000; stroke:none;">
<circle cx="25.4000" cy="-17.7800" r="1.5000" /> 
</g>
<g style="fill:#FFFFFF; fill-opacity:1.0000; stroke:none;">
<circle cx="25.4000" cy="-15.2400" r="1.5000" /> 
</g>
<g style="fill:none; 
stroke:#FFFFFF; stroke-width:0.5000; stroke-opacity:1; 
stroke-linecap:round; stroke-linejoin:round;">
<path d="M18.3900 -12.5300
L16.1900 -14.7300
" />
<path d="M10.4450 -27.0750
L13.9900 -23.5300
" />
<path d="M13.9900 -20.7800
L13.9900 -18.7800
" />
<path d="M19.1400 -12.5300
L18.3900 -12.5300
" />
<path d="M10.4450 -27.3550
L10.4450 -27.0750
" />
<path d="M13.9900 -18.7800
L12.6900 -18.7800
" />
<path d="M16.1900 -17.1800
L14.5900 -18.7800
" />
<path d="M13.9900 -23.5300
L13.9900 -20.7800
" />
<path d="M9.5400 -18.7800
L12.6900 -18.7800
" />
<path d="M16.1900 -14.7300
L16.1900 -17.1800
" />
<path d="M14.5900 -18.7800
L13.9900 -18.7800
" />
<path d="M17.7900 -18.7800
L16.9900 -19.5800
" />
</g>
<g style="fill:none; 
stroke:#FFFFFF; stroke-width:1.0000; stroke-opacity:1; 
stroke-linecap:round; stroke-linejoin:round;">
<path d="M5.0800 -15.2400
L5.0800 -25.4000
" />
</g>
<g style="fill:none; 
stroke:#FFFFFF; stroke-width:0.5000; stroke-opacity:1; 
stroke-linecap:round; stroke-linejoin:round;">
<path d="M12.5400 -30.3300
L12.5400 -31.1300
" />
<path d="M16.9900 -19.5800
L16.9900 -20.7800
" />
</g>
<g style="fill:none; 
stroke:#FFFFFF; stroke-width:0.4000; stroke-opacity:1; 
stroke-linecap:round; stroke-linejoin:round;">
<path d="M10.5400 -11.5800
L9.5400 -10.5800
" />
</g>
<g style="fill:none; 
stroke:#FFFFFF; stroke-width:0.5000; stroke-opacity:1; 
stroke-linecap:round; stroke-linejoin:round;">
<path d="M15.2900 -25.4800
L15.2900 -27.5800
" />
</g>
<g style="fill:none; 
stroke:#FFFFFF; stroke-width:1.0000; stroke-opacity:1; 
stroke-linecap:round; stroke-linejoin:round;">
<path d="M8.1350 -27.3550
L8.1350 -27.1250
" />
<path d="M6.0150 -27.3550
L8.1350 -27.3550
" />
</g>
<g style="fill:none; 
stroke:#FFFFFF; stroke-width:0.5000; stroke-opacity:1; 
stroke-linecap:round; stroke-linejoin:round;">
<path d="M16.9900 -23.8300
L16.9400 -23.8300
" />
<path d="M9.5400 -9.2300
L9.5400 -10.5800
" />
<path d="M18.2900 -18.7800
L17.7900 -18.7800
" />
</g>
<g style="fill:none; 
stroke:#FFFFFF; stroke-width:1.0000; stroke-opacity:1; 
stroke-linecap:round; stroke-linejoin:round;">
<path d="M5.0800 -12.8900
L5.0800 -15.2400
" />
</g>
<g style="fill:none; 
stroke:#FFFFFF; stroke-width:0.5000; stroke-opacity:1; 
stroke-linecap:round; stroke-linejoin:round;">
<path d="M8.1350 -27.3550
L8.1350 -29.4250
" />
<path d="M10.6900 -7.6300
L10.6900 -8.0800
" />
</g>
<g style="fill:none; 
stroke:#FFFFFF; stroke-width:0.4000; stroke-opacity:1; 
stroke-linecap:round; stroke-linejoin:round;">
<path d="M21.5400 -11.5800
L10.5400 -11.5800
" />
</g>
<g style="fill:none; 
stroke:#FFFFFF; stroke-width:1.0000; stroke-opacity:1; 
stroke-linecap:round; stroke-linejoin:round;">
<path d="M5.0800 -25.4000
L5.0800 -26.4200
" />
<path d="M9.5400 -10.5800
L7.3900 -10.5800
" />
</g>
<g style="fill:none; 
stroke:#FFFFFF; stroke-width:0.5000; stroke-opacity:1; 
stroke-linecap:round; stroke-linejoin:round;">
<path d="M16.9400 -23.8300
L15.2900 -25.4800
" />
<path d="M8.1350 -29.4250
L9.8400 -31.1300
" />
<path d="M15.2900 -27.5800
L12.5400 -30.3300
" />
<path d="M16.9900 -23.8300
L16.9900 -20.7800
" />
</g>
<g style="fill:none; 
stroke:#FFFFFF; stroke-width:1.0000; stroke-opacity:1; 
stroke-linecap:round; stroke-linejoin:round;">
<path d="M7.3900 -10.5800
L5.0800 -12.8900
" />
<path d="M5.0800 -26.4200
L6.0150 -27.3550
" />
</g>
<g style="fill:none; 
stroke:#FFFFFF; stroke-width:0.5000; stroke-opacity:1; 
stroke-linecap:round; stroke-linejoin:round;">
<path d="M9.8400 -31.1300
L12.5400 -31.1300
" />
<path d="M10.6900 -8.0800
L9.5400 -9.2300
" />
<path d="M18.6900 -31.1300
L15.9400 -31.1300
" />
</g>
<g style="fill:none; 
stroke:#FFFFFF; stroke-width:0.4000; stroke-opacity:1; 
stroke-linecap:round; stroke-linejoin:round;">
<path d="M15.1400 -7.6800
L15.1900 -7.6300
" />
</g>
<g style="fill:none; 
stroke:#FFFFFF; stroke-width:0.5000; stroke-opacity:1; 
stroke-linecap:round; stroke-linejoin:round;">
<path d="M15.1400 -10.1800
L15.1400 -7.6800
" />
<path d="M12.6900 -9.3800
L12.6900 -10.1300
" />
<path d="M13.1900 -7.6300
L13.1900 -8.8800
" />
<path d="M13.1900 -8.8800
L12.6900 -9.3800
" />
</g>
<g style="fill:none; 
stroke:#FFFFFF; stroke-width:1.0000; stroke-opacity:1; 
stroke-linecap:round; stroke-linejoin:round;">
<path d="M25.4000 -25.4000
L25.4000 -15.2400
" />
<path d="M18.4900 -8.0800
L18.0400 -7.6300
" />
</g>
<g style="fill:none; 
stroke:#FFFFFF; stroke-width:0.5000; stroke-opacity:1; 
stroke-linecap:round; stroke-linejoin:round;">
<path d="M17.6900 -7.6300
L17.6900 -7.9800
" />
</g>
<g style="fill:none; 
stroke:#FFFFFF; stroke-width:1.0000; stroke-opacity:1; 
stroke-linecap:round; stroke-linejoin:round;">
<path d="M23.4700 -25.4000
L25.4000 -25.4000
" />
<path d="M22.9100 -25.4600
L23.4100 -25.4600
" />
<path d="M21.3900 -8.0800
L18.4900 -8.0800
" />
<path d="M23.5800 -12.8700
L23.5800 -10.2700
" />
<path d="M23.4100 -25.4600
L23.4700 -25.4000
" />
<path d="M22.9100 -13.5400
L23.5800 -12.8700
" />
<path d="M22.9100 -25.4600
L22.9100 -13.5400
" />
<path d="M22.9100 -25.9600
L22.9100 -25.4600
" />
<path d="M22.9100 -25.9600
L21.6900 -27.1800
" />
</g>
<g style="fill:none; 
stroke:#FFFFFF; stroke-width:0.5000; stroke-opacity:1; 
stroke-linecap:round; stroke-linejoin:round;">
<path d="M19.1400 -9.4300
L19.1400 -10.6300
" />
</g>
<g style="fill:none; 
stroke:#FFFFFF; stroke-width:1.0000; stroke-opacity:1; 
stroke-linecap:round; stroke-linejoin:round;">
<path d="M21.6900 -27.1800
L21.6900 -31.1300
" />
<path d="M18.0400 -7.6300
L17.6900 -7.6300
" />
<path d="M23.5800 -10.2700
L21.3900 -8.0800
" />
</g>
<g style="fill:none; 
stroke:#FFFFFF; stroke-width:0.5000; stroke-opacity:1; 
stroke-linecap:round; stroke-linejoin:round;">
<path d="M17.6900 -7.9800
L19.1400 -9.4300
" />
</g>
<g style="fill:none; 
stroke:#FFFFFF; stroke-width:0.4000; stroke-opacity:1; 
stroke-linecap:round; stroke-linejoin:round;">
<path d="M9.5400 -15.7800
L9.5400 -13.5800
" />
<path d="M11.1400 -13.5800
L11.5900 -13.1300
" />
<path d="M9.5400 -13.5800
L11.1400 -13.5800
" />
<path d="M11.5900 -13.1300
L12.6900 -13.1300
" />
<path d="M12.6900 -13.1300
L12.6900 -14.9700
" />
</g>
<g style="fill:none; 
stroke:#FFFFFF; stroke-width:0.5000; stroke-opacity:1; 
stroke-linecap:round; stroke-linejoin:round;">
<path d="M15.1400 -13.1800
L15.1400 -16.6800
" />
<path d="M15.1400 -16.6800
L14.3100 -17.5100
" />
<path d="M14.3100 -17.5100
L12.6900 -17.5100
" />
</g>
<g style="fill:none; 
stroke:#FFFFFF; stroke-width:0.4000; stroke-opacity:1; 
stroke-linecap:round; stroke-linejoin:round;">
<path d="M19.7600 -20.8500
L19.7600 -23.6000
" />
<path d="M18.2900 -17.5100
L20.0100 -17.5100
" />
<path d="M20.5100 -20.1000
L19.7600 -20.8500
" />
<path d="M20.0100 -17.5100
L20.5100 -18.0100
" />
<path d="M19.7600 -23.6000
L19.9900 -23.8300
" />
<path d="M20.5100 -18.0100
L20.5100 -20.1000
" />
<path d="M12.6900 -16.2400
L11.1800 -16.2400
" />
<path d="M8.2900 -17.3300
L7.9900 -17.6300
" />
<path d="M7.9900 -17.6300
L7.9900 -20.5500
" />
<path d="M10.4400 -17.3300
L8.2900 -17.3300
" />
<path d="M10.9900 -16.4300
L10.9900 -16.7800
" />
<path d="M10.9900 -16.7800
L10.4400 -17.3300
" />
<path d="M11.1800 -16.2400
L10.9900 -16.4300
" />
<path d="M7.9900 -20.5500
L9.2950 -21.8550
" />
<path style="fill:#FFFFFF; fill-opacity:1.0000; stroke:none;fill-rule:evenodd;"
d="M 9.3481,-25.8621
9.3655,-25.8509
9.3922,-25.8305
9.3922,-25.8305
9.3922,-25.8305
9.4652,-25.8002
9.5382,-25.7700
9.6556,-25.7545
10.5113,-25.7545
10.5784,-25.7348
10.5990,-25.7182
13.1032,-23.2140
13.1367,-23.1527
13.1395,-23.1263
13.1395,-22.2058
13.1198,-22.1388
13.0910,-22.1075
13.0872,-22.1045
13.0872,-22.1045
13.0529,-22.0783
12.9617,-22.0083
12.8655,-21.8828
12.8050,-21.7368
12.8050,-21.7368
12.7939,-21.6524
12.7895,-21.6194
12.7895,-21.6194
12.7895,-19.9406
12.7921,-19.9207
12.7814,-19.8516
12.7350,-19.7994
12.6692,-19.7805
11.6506,-19.7805
11.5332,-19.7650
11.5332,-19.7650
11.3872,-19.7045
11.3241,-19.6561
11.2589,-19.6309
11.2486,-19.6305
10.9658,-19.6305
10.8988,-19.6502
10.8675,-19.6790
10.8645,-19.6828
10.7683,-19.8083
10.6428,-19.9045
10.6428,-19.9045
10.6364,-19.9095
10.6380,-19.9116
10.5988,-19.9527
10.5856,-20.0213
10.6116,-20.0861
10.6336,-20.1079
10.7233,-20.1767
10.8195,-20.3022
10.8800,-20.4482
10.8955,-20.5656
10.8955,-23.1444
10.8955,-23.1444
10.8955,-23.1444
10.8800,-23.2618
10.8800,-23.2618
10.8800,-23.2618
10.8195,-23.4078
10.7233,-23.5333
10.5978,-23.6295
10.4518,-23.6900
10.4518,-23.6900
10.3344,-23.7055
10.3344,-23.7055
10.3344,-23.7055
10.3344,-23.7055
8.2556,-23.7055
8.1382,-23.6900
8.1382,-23.6900
7.9922,-23.6295
7.8667,-23.5333
7.7705,-23.4078
7.7100,-23.2618
7.7100,-23.2618
7.6956,-23.1527
7.6945,-23.1444
7.6945,-23.1444
7.6945,-21.4379
7.6748,-21.3709
7.6582,-21.3503
7.4797,-21.1718
7.4240,-21.1160
7.3682,-21.0603
7.2952,-20.9510
7.2416,-20.9062
7.1722,-20.8975
7.1092,-20.9276
7.0752,-20.9784
7.0111,-21.1588
7.0111,-21.1588
6.9119,-21.3503
6.8789,-21.4139
6.8051,-21.5185
6.7825,-21.5846
6.7993,-21.6524
6.8051,-21.6615
6.8789,-21.7661
7.0111,-22.0212
7.1073,-22.2920
7.1658,-22.5733
7.1854,-22.8600
7.1658,-23.1467
7.1073,-23.4280
7.0111,-23.6988
7.0111,-23.6988
6.9269,-23.8613
6.8789,-23.9539
6.8051,-24.0585
6.7825,-24.1246
6.7993,-24.1924
6.8051,-24.2015
6.8789,-24.3061
7.0111,-24.5612
7.1073,-24.8320
7.1658,-25.1133
7.1854,-25.4000
7.1698,-25.6278
7.1849,-25.6961
7.2344,-25.7453
7.3028,-25.7599
7.3097,-25.7592
7.3456,-25.7545
8.9244,-25.7545
8.9244,-25.7545
9.0418,-25.7700
9.0418,-25.7700
9.0418,-25.7700
9.1878,-25.8305
9.1878,-25.8305
9.1878,-25.8305
9.1878,-25.8305
9.2145,-25.8509
9.2797,-25.8761
Z" /> 
<path style="fill:#FFFFFF; fill-opacity:1.0000; stroke:none;fill-rule:evenodd;"
d="M 7.1376,-19.4175
7.1807,-19.3625
7.1895,-19.3167
7.1895,-18.7833
7.1698,-18.7163
7.1170,-18.6706
7.0479,-18.6606
6.9843,-18.6896
6.9554,-18.7263
6.8789,-18.8739
6.8051,-18.9785
6.7825,-19.0446
6.7993,-19.1124
6.8051,-19.1215
6.8789,-19.2261
6.9554,-19.3737
7.0037,-19.4242
7.0717,-19.4405
Z" /> 
<path style="fill:#FFFFFF; fill-opacity:1.0000; stroke:none;fill-rule:evenodd;"
d="M 11.1927,-30.2598
11.2384,-30.2070
11.2486,-30.1717
11.2550,-30.1232
11.2550,-30.1232
11.3155,-29.9772
11.4117,-29.8517
11.5372,-29.7555
11.6832,-29.6950
11.8006,-29.6795
11.9363,-29.6795
12.0034,-29.6598
12.0240,-29.6432
14.4032,-27.2640
14.4367,-27.2027
14.4395,-27.1763
14.4395,-25.3962
14.4722,-25.2319
14.4728,-25.2305
14.4728,-25.2305
14.5363,-25.0771
14.5363,-25.0771
14.6294,-24.9378
14.6294,-24.9378
15.7532,-23.8140
15.7867,-23.7527
15.7895,-23.7264
15.7895,-22.9906
15.8050,-22.8732
15.8050,-22.8732
15.8655,-22.7272
15.9617,-22.6017
16.0872,-22.5055
16.0872,-22.5055
16.0910,-22.5025
16.1322,-22.4461
16.1395,-22.4042
16.1395,-22.2058
16.1198,-22.1388
16.0910,-22.1075
16.0872,-22.1045
16.0872,-22.1045
16.0529,-22.0783
15.9617,-22.0083
15.8655,-21.8828
15.8050,-21.7368
15.8050,-21.7368
15.7939,-21.6524
15.7895,-21.6194
15.7895,-21.6194
15.7895,-19.9406
15.8050,-19.8232
15.8050,-19.8232
15.8291,-19.7650
15.8655,-19.6772
15.9617,-19.5517
16.0872,-19.4555
16.0918,-19.4535
16.1462,-19.4097
16.1660,-19.3632
16.1722,-19.3319
16.1722,-19.3319
16.1856,-19.2995
16.2363,-19.1771
16.2363,-19.1771
16.3294,-19.0378
16.3294,-19.0378
16.6532,-18.7140
16.6867,-18.6527
16.6895,-18.6263
16.6895,-18.3406
16.7050,-18.2232
16.7050,-18.2232
16.7177,-18.1925
16.7252,-18.1230
16.6939,-18.0605
16.6338,-18.0249
16.5640,-18.0274
16.5155,-18.0573
15.1322,-19.4406
15.1322,-19.4406
15.1106,-19.4550
15.0658,-19.5086
15.0571,-19.5780
15.0811,-19.6336
15.1145,-19.6772
15.1750,-19.8232
15.1905,-19.9406
15.1905,-21.6194
15.1905,-21.6194
15.1905,-21.6194
15.1750,-21.7368
15.1750,-21.7368
15.1750,-21.7368
15.1145,-21.8828
15.0183,-22.0083
14.8928,-22.1045
14.8928,-22.1045
14.8890,-22.1075
14.8478,-22.1639
14.8405,-22.2058
14.8405,-23.6138
14.8405,-23.6138
14.8236,-23.6988
14.8078,-23.7781
14.7733,-23.8613
14.7437,-23.9329
14.6506,-24.0722
14.6506,-24.0722
14.6506,-24.0722
11.8318,-26.8910
11.7983,-26.9523
11.7955,-26.9787
11.7955,-28.3944
11.7800,-28.5118
11.7800,-28.5118
11.7800,-28.5118
11.7195,-28.6578
11.6233,-28.7833
11.4978,-28.8795
11.3518,-28.9400
11.3518,-28.9400
11.2344,-28.9555
11.2344,-28.9555
11.2344,-28.9555
11.2344,-28.9555
9.6556,-28.9555
9.5382,-28.9400
9.5382,-28.9400
9.3922,-28.8795
9.3655,-28.8591
9.3003,-28.8339
9.2319,-28.8479
9.2145,-28.8591
9.1878,-28.8795
9.0796,-28.9244
9.0252,-28.9682
9.0032,-29.0345
9.0204,-29.1022
9.0394,-29.1266
10.1560,-30.2432
10.2173,-30.2767
10.2436,-30.2795
11.1256,-30.2795
Z" /> 
<path style="fill:#FFFFFF; fill-opacity:1.0000; stroke:none;fill-rule:evenodd;"
d="M 11.0542,-14.8917
11.0870,-14.8300
11.0895,-14.8050
11.0895,-14.5550
11.0698,-14.4879
11.0170,-14.4422
10.9479,-14.4322
10.8843,-14.4612
10.8671,-14.4795
10.8645,-14.4828
10.7712,-14.6045
10.7460,-14.6697
10.7600,-14.7381
10.7712,-14.7555
10.8645,-14.8772
10.8645,-14.8772
10.8671,-14.8805
10.9236,-14.9217
10.9933,-14.9259
Z" /> 
<path style="fill:#FFFFFF; fill-opacity:1.0000; stroke:none;fill-rule:evenodd;"
d="M 16.7457,-12.9711
16.7522,-12.9650
17.1250,-12.5922
17.1585,-12.5309
17.1535,-12.4612
17.1117,-12.4052
17.0462,-12.3808
17.0373,-12.3805
16.6608,-12.3805
16.5938,-12.4002
16.5480,-12.4530
16.5379,-12.5207
16.5405,-12.5406
16.5405,-12.8774
16.5602,-12.9444
16.6130,-12.9901
16.6821,-13.0001
Z" /> 
<path style="fill:#FFFFFF; fill-opacity:1.0000; stroke:none;fill-rule:evenodd;"
d="M 7.2684,-17.2421
7.3137,-17.2012
7.3682,-17.1197
7.3682,-17.1197
7.6682,-16.8197
7.7477,-16.7403
7.7797,-16.7082
7.9108,-16.6206
7.9108,-16.6206
8.0621,-16.5579
8.0613,-16.5560
8.1119,-16.5229
8.1404,-16.4591
8.1404,-16.4263
8.1395,-16.4194
8.1395,-16.4194
8.1395,-15.1406
8.1550,-15.0232
8.1550,-15.0232
8.2155,-14.8772
8.3088,-14.7555
8.3340,-14.6903
8.3200,-14.6219
8.3088,-14.6045
8.2155,-14.4828
8.1550,-14.3368
8.1550,-14.3368
8.1395,-14.2194
8.1395,-14.2194
8.1395,-12.9406
8.1550,-12.8232
8.1550,-12.8232
8.2155,-12.6772
8.3117,-12.5517
8.4372,-12.4555
8.5832,-12.3950
8.7006,-12.3795
9.9081,-12.3795
9.9751,-12.3598
10.0209,-12.3070
10.0308,-12.2379
10.0018,-12.1743
9.9957,-12.1678
9.6447,-11.8168
9.5834,-11.7833
9.5571,-11.7805
8.7006,-11.7805
8.5832,-11.7650
8.5832,-11.7650
8.4372,-11.7045
8.4301,-11.7005
8.4291,-11.7022
8.3741,-11.6809
8.3637,-11.6805
7.8972,-11.6805
7.8302,-11.7002
7.8095,-11.7168
6.2268,-13.2995
6.1933,-13.3608
6.1983,-13.4305
6.2402,-13.4865
6.2501,-13.4931
6.2890,-13.5168
6.2941,-13.5199
6.5171,-13.7013
6.7132,-13.9113
6.8789,-14.1461
7.0111,-14.4012
7.1073,-14.6720
7.1658,-14.9533
7.1854,-15.2400
7.1658,-15.5267
7.1073,-15.8080
7.0111,-16.0788
7.0111,-16.0788
6.8789,-16.3339
6.8051,-16.4385
6.7825,-16.5046
6.7993,-16.5724
6.8051,-16.5815
6.8789,-16.6861
7.0111,-16.9412
7.0938,-17.1739
7.1348,-17.2304
7.1999,-17.2559
Z" /> 
<path style="fill:#FFFFFF; fill-opacity:1.0000; stroke:none;fill-rule:evenodd;"
d="M 11.2325,-10.7598
11.2783,-10.7070
11.2895,-10.6555
11.2895,-9.4906
11.3053,-9.3707
11.2945,-9.3016
11.2481,-9.2494
11.1824,-9.2305
10.7937,-9.2305
10.7266,-9.2502
10.7060,-9.2668
10.6718,-9.3010
10.6383,-9.3623
10.6433,-9.4320
10.6840,-9.4870
10.7095,-9.5066
10.7683,-9.5517
10.8645,-9.6772
10.9250,-9.8232
10.9405,-9.9406
10.9405,-10.6555
10.9602,-10.7225
11.0130,-10.7683
11.0645,-10.7795
11.1655,-10.7795
Z" /> 
<path style="fill:#FFFFFF; fill-opacity:1.0000; stroke:none;fill-rule:evenodd;"
d="M 20.6656,-10.7598
20.6741,-10.7539
20.7372,-10.7055
20.7372,-10.7055
20.7372,-10.7055
20.8832,-10.6450
21.0006,-10.6295
22.0794,-10.6295
22.0834,-10.6295
22.0834,-10.6275
22.1438,-10.6141
22.1929,-10.5644
22.2075,-10.4961
22.1827,-10.4308
22.1715,-10.4178
20.9705,-9.2168
20.9092,-9.1833
20.8828,-9.1805
20.1086,-9.1805
20.0416,-9.2002
19.9958,-9.2530
19.9859,-9.3221
19.9870,-9.3287
19.9874,-9.3305
19.9905,-9.3462
19.9905,-9.7309
20.0102,-9.7979
20.0390,-9.8293
20.0683,-9.8517
20.1645,-9.9772
20.2250,-10.1232
20.2405,-10.2406
20.2405,-10.6555
20.2602,-10.7225
20.3130,-10.7683
20.3645,-10.7795
20.5986,-10.7795
Z" /> 
<path style="fill:#FFFFFF; fill-opacity:1.0000; stroke:none;fill-rule:evenodd;"
d="M 17.9825,-10.7598
18.0283,-10.7070
18.0395,-10.6555
18.0395,-10.2406
18.0550,-10.1232
18.0550,-10.1232
18.1155,-9.9772
18.2094,-9.8547
18.2346,-9.7895
18.2206,-9.7211
18.1987,-9.6915
17.7740,-9.2668
17.7127,-9.2333
17.6863,-9.2305
17.0506,-9.2305
16.9332,-9.2150
16.9332,-9.2150
16.7872,-9.1545
16.6617,-9.0583
16.5655,-8.9328
16.5546,-8.9065
16.5107,-8.8521
16.4444,-8.8301
16.3767,-8.8473
16.3291,-8.8985
16.3254,-8.9065
16.3145,-8.9328
16.3145,-8.9328
16.3145,-8.9328
16.3042,-8.9463
16.2790,-9.0114
16.2931,-9.0799
16.3271,-9.1201
16.3683,-9.1517
16.4645,-9.2772
16.5250,-9.4232
16.5405,-9.5406
16.5405,-10.6555
16.5602,-10.7225
16.6130,-10.7683
16.6645,-10.7795
17.9155,-10.7795
Z" /> 
<path style="fill:#FFFFFF; fill-opacity:1.0000; stroke:none;fill-rule:evenodd;"
d="M 23.2180,-32.9294
23.5519,-32.9129
23.5640,-32.9118
23.6671,-32.8965
23.8917,-32.8632
23.9036,-32.8608
24.2250,-32.7803
24.2366,-32.7768
24.3078,-32.7513
24.5485,-32.6652
24.5597,-32.6605
24.8592,-32.5189
24.8699,-32.5132
25.1540,-32.3429
25.1641,-32.3361
25.3033,-32.2328
25.4302,-32.1388
25.4396,-32.1311
25.6850,-31.9086
25.6936,-31.9000
25.7927,-31.7906
25.9161,-31.6546
25.9238,-31.6452
26.1211,-31.3791
26.1279,-31.3690
26.2568,-31.1539
26.2981,-31.0849
26.3039,-31.0742
26.4455,-30.7747
26.4502,-30.7635
26.5618,-30.4516
26.5653,-30.4399
26.6458,-30.1186
26.6482,-30.1067
26.6968,-29.7790
26.6979,-29.7669
26.7144,-29.4330
26.7145,-29.4269
26.7145,-27.2796
26.6948,-27.2125
26.6420,-27.1668
26.5729,-27.1568
26.5261,-27.1736
26.3686,-27.2694
26.3686,-27.2694
26.1051,-27.3838
26.1051,-27.3838
26.1051,-27.3838
25.9756,-27.4201
25.8284,-27.4614
25.8284,-27.4614
25.8284,-27.4614
25.6860,-27.4809
25.5437,-27.5005
25.5437,-27.5005
25.2563,-27.5005
25.2563,-27.5005
24.9716,-27.4614
24.9716,-27.4614
24.7639,-27.4032
24.6949,-27.3838
24.6949,-27.3838
24.6949,-27.3838
24.6949,-27.3838
24.4314,-27.2694
24.1859,-27.1201
23.9629,-26.9387
23.8210,-26.7867
23.7608,-26.7511
23.6910,-26.7537
23.6427,-26.7837
22.8268,-27.5995
22.7933,-27.6608
22.7905,-27.6872
22.7905,-29.9537
22.8102,-30.0208
22.8139,-30.0261
22.8145,-30.0272
22.8145,-30.0272
22.8750,-30.1732
22.8905,-30.2906
22.8905,-31.9694
22.8905,-31.9694
22.8905,-31.9694
22.8750,-32.0868
22.8750,-32.0868
22.8750,-32.0868
22.8145,-32.2328
22.7183,-32.3583
22.5928,-32.4545
22.4468,-32.5150
22.4468,-32.5150
22.3294,-32.5305
22.3294,-32.5305
22.3294,-32.5305
22.3294,-32.5305
21.0506,-32.5305
20.9332,-32.5150
20.9332,-32.5150
20.7872,-32.4545
20.6617,-32.3583
20.5655,-32.2328
20.5050,-32.0868
20.5050,-32.0868
20.4910,-31.9805
20.4895,-31.9694
20.4895,-31.9694
20.4895,-30.2906
20.5050,-30.1732
20.5050,-30.1732
20.5655,-30.0272
20.5695,-30.0201
20.5678,-30.0191
20.5891,-29.9641
20.5895,-29.9537
20.5895,-27.0934
20.6158,-26.9273
20.6166,-26.9223
20.6701,-26.7576
20.7488,-26.6032
20.8506,-26.4631
20.8506,-26.4631
21.7732,-25.5405
21.8067,-25.4792
21.8095,-25.4528
21.8095,-22.1991
21.7898,-22.1321
21.7610,-22.1007
21.7317,-22.0783
21.6355,-21.9528
21.5750,-21.8068
21.5750,-21.8068
21.5657,-21.7368
21.5595,-21.6894
21.5595,-21.6894
21.5595,-20.0106
21.5750,-19.8932
21.5750,-19.8932
21.6281,-19.7650
21.6355,-19.7472
21.7317,-19.6217
21.7610,-19.5993
21.8022,-19.5428
21.8095,-19.5009
21.8095,-13.4534
21.8325,-13.3083
21.8366,-13.2823
21.8901,-13.1176
21.9688,-12.9632
22.0706,-12.8231
22.0706,-12.8231
22.1515,-12.7422
22.1850,-12.6809
22.1800,-12.6112
22.1381,-12.5552
22.0726,-12.5308
22.0638,-12.5305
21.0006,-12.5305
20.8832,-12.5150
20.8832,-12.5150
20.7372,-12.4545
20.6741,-12.4061
20.6089,-12.3809
20.5986,-12.3805
20.3645,-12.3805
20.2975,-12.4002
20.2517,-12.4530
20.2405,-12.5045
20.2405,-12.9194
20.2250,-13.0368
20.2250,-13.0368
20.2250,-13.0368
20.1645,-13.1828
20.0683,-13.3083
19.9428,-13.4045
19.9317,-13.4091
19.7968,-13.4650
19.7968,-13.4650
19.6794,-13.4805
19.6794,-13.4805
19.6794,-13.4805
19.6794,-13.4805
18.6937,-13.4805
18.6266,-13.5002
18.6060,-13.5168
18.3650,-13.7578
18.3315,-13.8191
18.3365,-13.8888
18.3783,-13.9448
18.4438,-13.9692
18.4526,-13.9695
19.3294,-13.9695
19.4468,-13.9850
19.4468,-13.9850
19.4468,-13.9850
19.5928,-14.0455
19.7183,-14.1417
19.8145,-14.2672
19.8750,-14.4132
19.8905,-14.5306
19.8905,-15.4094
19.8905,-15.4094
19.8905,-15.4094
19.8750,-15.5268
19.8750,-15.5268
19.8750,-15.5268
19.8623,-15.5575
19.8548,-15.6270
19.8623,-15.6524
19.8750,-15.6832
19.8905,-15.8006
19.8905,-16.5855
19.9102,-16.6525
19.9630,-16.6983
20.0145,-16.7095
20.0888,-16.7095
20.0888,-16.7095
20.2435,-16.7403
20.3892,-16.8006
20.5203,-16.8882
21.1318,-17.4997
21.2194,-17.6308
21.2797,-17.7765
21.3105,-17.9312
21.3105,-18.0888
21.3105,-20.1788
21.3105,-20.1788
21.3105,-20.1788
21.2797,-20.3335
21.2797,-20.3335
21.2194,-20.4792
21.2194,-20.4792
21.1318,-20.6103
21.1132,-20.6288
21.0203,-20.7218
20.9968,-20.7453
20.9633,-20.8066
20.9605,-20.8329
20.9605,-21.6894
20.9450,-21.8068
20.9450,-21.8068
20.9450,-21.8068
20.8845,-21.9528
20.7883,-22.0783
20.7883,-22.0783
20.7883,-22.0783
20.6628,-22.1745
20.6628,-22.1745
20.6370,-22.1852
20.5826,-22.2291
20.5606,-22.2954
20.5605,-22.2998
20.5605,-22.3117
20.5802,-22.3787
20.6330,-22.4245
20.6683,-22.4346
20.7468,-22.4450
20.7468,-22.4450
20.7468,-22.4450
20.8928,-22.5055
21.0183,-22.6017
21.1145,-22.7272
21.1750,-22.8732
21.1905,-22.9906
21.1905,-24.6694
21.1905,-24.6694
21.1905,-24.6694
21.1750,-24.7868
21.1750,-24.7868
21.1750,-24.7868
21.1145,-24.9328
21.0183,-25.0583
20.8928,-25.1545
20.7468,-25.2150
20.7468,-25.2150
20.6294,-25.2305
20.6294,-25.2305
20.6294,-25.2305
20.6294,-25.2305
19.3506,-25.2305
19.2332,-25.2150
19.2332,-25.2150
19.0872,-25.1545
18.9617,-25.0583
18.8655,-24.9328
18.8050,-24.7868
18.8050,-24.7868
18.7895,-24.6694
18.7895,-24.6694
18.7895,-24.6694
18.7895,-22.9906
18.8050,-22.8732
18.8050,-22.8732
18.8655,-22.7272
18.8655,-22.7272
18.8655,-22.7272
18.8655,-22.7272
18.9339,-22.6380
18.9591,-22.5728
18.9595,-22.5625
18.9595,-22.2998
18.9398,-22.2327
18.8870,-22.1870
18.8830,-22.1852
18.8572,-22.1745
18.8572,-22.1745
18.7317,-22.0783
18.6355,-21.9528
18.5750,-21.8068
18.5750,-21.8068
18.5657,-21.7368
18.5595,-21.6894
18.5595,-21.6894
18.5595,-20.0106
18.5713,-19.9207
18.5606,-19.8516
18.5142,-19.7994
18.4484,-19.7805
18.3108,-19.7805
18.2438,-19.8002
18.1980,-19.8530
18.1879,-19.9207
18.1905,-19.9406
18.1905,-19.9406
18.1905,-21.6194
18.1905,-21.6194
18.1905,-21.6194
18.1750,-21.7368
18.1750,-21.7368
18.1750,-21.7368
18.1145,-21.8828
18.0183,-22.0083
17.8928,-22.1045
17.8928,-22.1045
17.8890,-22.1075
17.8478,-22.1639
17.8405,-22.2058
17.8405,-22.4042
17.8602,-22.4712
17.8890,-22.5025
17.8928,-22.5055
17.8928,-22.5055
18.0183,-22.6017
18.1145,-22.7272
18.1750,-22.8732
18.1905,-22.9906
18.1905,-24.6694
18.1905,-24.6694
18.1905,-24.6694
18.1750,-24.7868
18.1750,-24.7868
18.1750,-24.7868
18.1145,-24.9328
18.0183,-25.0583
17.8928,-25.1545
17.7468,-25.2150
17.7468,-25.2150
17.6294,-25.2305
17.6294,-25.2305
17.6294,-25.2305
17.6294,-25.2305
16.7937,-25.2305
16.7266,-25.2502
16.7060,-25.2668
16.1768,-25.7960
16.1433,-25.8573
16.1405,-25.8837
16.1405,-27.6638
16.1405,-27.6638
16.1078,-27.8281
16.1078,-27.8281
16.0437,-27.9829
15.9506,-28.1222
15.8322,-28.2406
13.8768,-30.1960
13.8433,-30.2573
13.8405,-30.2836
13.8405,-32.0194
14.6395,-32.0194
14.6395,-30.2406
14.6550,-30.1232
14.6550,-30.1232
14.7155,-29.9772
14.8117,-29.8517
14.9372,-29.7555
15.0832,-29.6950
15.2006,-29.6795
16.6794,-29.6795
16.6794,-29.6795
16.7968,-29.6950
16.7968,-29.6950
16.7968,-29.6950
16.9428,-29.7555
17.0683,-29.8517
17.1645,-29.9772
17.2250,-30.1232
17.2314,-30.1717
17.2597,-30.2356
17.3180,-30.2741
17.3544,-30.2795
17.3822,-30.2795
17.4493,-30.2598
17.4950,-30.2070
17.5025,-30.1810
17.5029,-30.1811
17.5050,-30.1732
17.5655,-30.0272
17.6617,-29.9017
17.7872,-29.8055
17.9332,-29.7450
18.0506,-29.7295
19.3294,-29.7295
19.3294,-29.7295
19.4468,-29.7450
19.4468,-29.7450
19.4468,-29.7450
19.5928,-29.8055
19.7183,-29.9017
19.8145,-30.0272
19.8750,-30.1732
19.8905,-30.2906
19.8905,-31.9694
19.8905,-31.9694
19.8905,-31.9694
19.8750,-32.0868
19.8750,-32.0868
19.8750,-32.0868
19.8145,-32.2328
19.7183,-32.3583
19.5928,-32.4545
19.4468,-32.5150
19.4468,-32.5150
19.3294,-32.5305
19.3294,-32.5305
19.3294,-32.5305
19.3294,-32.5305
18.0506,-32.5305
17.9332,-32.5150
17.9332,-32.5150
17.7872,-32.4545
17.6617,-32.3583
17.5655,-32.2328
17.5050,-32.0868
17.5029,-32.0789
17.5012,-32.0794
17.4769,-32.0244
17.4186,-31.9859
17.3822,-31.9805
17.3544,-31.9805
17.2873,-32.0002
17.2416,-32.0530
17.2314,-32.0883
17.2250,-32.1368
17.2250,-32.1368
17.2250,-32.1368
17.1645,-32.2828
17.0683,-32.4083
16.9428,-32.5045
16.9220,-32.5131
16.7968,-32.5650
16.7968,-32.5650
16.6794,-32.5805
16.6794,-32.5805
16.6794,-32.5805
16.6794,-32.5805
15.2006,-32.5805
15.0832,-32.5650
15.0832,-32.5650
14.9372,-32.5045
14.8117,-32.4083
14.7155,-32.2828
14.6550,-32.1368
14.6550,-32.1368
14.6395,-32.0194
14.6395,-32.0194
14.6395,-32.0194
13.8405,-32.0194
13.8405,-32.0194
13.8405,-32.0194
13.8405,-32.0194
13.8250,-32.1368
13.8250,-32.1368
13.8250,-32.1368
13.7645,-32.2828
13.6683,-32.4083
13.5428,-32.5045
13.5220,-32.5131
13.3968,-32.5650
13.3968,-32.5650
13.2794,-32.5805
13.2794,-32.5805
13.2794,-32.5805
13.2794,-32.5805
11.8006,-32.5805
11.6832,-32.5650
11.6832,-32.5650
11.5372,-32.5045
11.4117,-32.4083
11.3155,-32.2828
11.2550,-32.1368
11.2550,-32.1368
11.2486,-32.0883
11.2203,-32.0244
11.1620,-31.9859
11.1256,-31.9805
9.7562,-31.9805
9.5919,-31.9478
9.5919,-31.9478
9.5466,-31.9290
9.4371,-31.8837
9.2978,-31.7906
9.2978,-31.7906
7.4744,-29.9672
7.4744,-29.9672
7.3813,-29.8279
7.3813,-29.8279
7.3586,-29.7730
7.3586,-29.7730
7.3172,-29.6731
7.3172,-29.6731
7.2845,-29.5088
7.2845,-29.0462
7.2648,-28.9792
7.2120,-28.9334
7.2080,-28.9316
7.0822,-28.8795
6.9567,-28.7833
6.8605,-28.6578
6.8084,-28.5320
6.7645,-28.4776
6.6982,-28.4556
6.6938,-28.4555
5.9284,-28.4555
5.8887,-28.4492
5.7573,-28.4284
5.5926,-28.3749
5.4382,-28.2962
5.3133,-28.2055
5.2981,-28.1944
4.5543,-27.4506
4.5000,-27.4189
4.3749,-27.3838
4.1114,-27.2694
3.8659,-27.1201
3.6429,-26.9387
3.4468,-26.7287
3.2811,-26.4939
3.1489,-26.2388
3.0527,-25.9680
3.0527,-25.9680
2.9942,-25.6867
2.9746,-25.4000
2.9942,-25.1133
3.0527,-24.8320
3.0527,-24.8320
3.1489,-24.5612
3.1489,-24.5612
3.2811,-24.3061
3.3549,-24.2015
3.3775,-24.1354
3.3607,-24.0676
3.3549,-24.0585
3.2811,-23.9539
3.1489,-23.6988
3.0527,-23.4280
3.0527,-23.4280
2.9942,-23.1467
2.9746,-22.8600
2.9942,-22.5733
3.0527,-22.2920
3.0527,-22.2920
3.1489,-22.0212
3.1489,-22.0212
3.2811,-21.7661
3.3549,-21.6615
3.3775,-21.5954
3.3607,-21.5276
3.3549,-21.5185
3.2811,-21.4139
3.1489,-21.1588
3.0527,-20.8880
3.0527,-20.8880
3.0181,-20.7218
2.9950,-20.6103
2.9942,-20.6067
2.9746,-20.3200
2.9942,-20.0333
2.9942,-20.0333
2.9942,-20.0333
3.0052,-19.9805
3.0527,-19.7520
3.0527,-19.7520
3.1489,-19.4812
3.1489,-19.4812
3.2811,-19.2261
3.3549,-19.1215
3.3775,-19.0554
3.3607,-18.9876
3.3549,-18.9785
3.2811,-18.8739
3.1489,-18.6188
3.0527,-18.3480
3.0527,-18.3480
2.9942,-18.0667
2.9746,-17.7800
2.9942,-17.4933
3.0527,-17.2120
3.0527,-17.2120
3.1489,-16.9412
3.1489,-16.9412
3.2811,-16.6861
3.3549,-16.5815
3.3775,-16.5154
3.3607,-16.4476
3.3549,-16.4385
3.2811,-16.3339
3.1489,-16.0788
3.0527,-15.8080
3.0527,-15.8080
2.9942,-15.5267
2.9746,-15.2400
2.9942,-14.9533
3.0527,-14.6720
3.0527,-14.6720
3.1489,-14.4012
3.1489,-14.4012
3.2811,-14.1461
3.4468,-13.9113
3.6429,-13.7013
3.8658,-13.5199
3.8659,-13.5199
3.8659,-13.5199
3.9199,-13.4871
3.9670,-13.4354
3.9795,-13.3811
3.9795,-12.8034
3.9995,-12.6772
4.0066,-12.6323
4.0396,-12.5309
4.0601,-12.4676
4.0873,-12.4142
4.1388,-12.3132
4.2406,-12.1731
6.6731,-9.7406
6.8132,-9.6388
6.8861,-9.6016
6.9675,-9.5601
6.9676,-9.5601
6.9676,-9.5601
7.1323,-9.5066
7.3034,-9.4795
7.4766,-9.4795
8.3637,-9.4795
8.4308,-9.4598
8.4361,-9.4561
8.4372,-9.4555
8.4372,-9.4555
8.4372,-9.4555
8.4372,-9.4555
8.4938,-9.4320
8.5832,-9.3950
8.5832,-9.3950
8.5911,-9.3929
8.5906,-9.3912
8.6456,-9.3669
8.6841,-9.3086
8.6895,-9.2722
8.6895,-9.1462
8.7222,-8.9819
8.7222,-8.9819
8.7375,-8.9450
8.7863,-8.8271
8.7863,-8.8271
8.8794,-8.6878
8.8794,-8.6878
9.4532,-8.1140
9.4867,-8.0527
9.4895,-8.0263
9.4895,-7.1904
9.4698,-7.1234
9.4170,-7.0776
9.3479,-7.0677
9.2893,-7.0925
9.2497,-7.1234
9.1635,-7.1905
9.1635,-7.1905
9.1635,-7.1905
8.9448,-7.3088
8.9448,-7.3088
8.7096,-7.3896
8.4643,-7.4305
8.2157,-7.4305
7.9704,-7.3896
7.7352,-7.3088
7.7352,-7.3088
7.5165,-7.1905
7.3203,-7.0377
7.1518,-6.8548
7.0158,-6.6466
6.9159,-6.4189
6.8549,-6.1778
6.8549,-6.1778
6.8366,-5.9570
6.8344,-5.9300
6.8424,-5.8335
6.8542,-5.6902
6.8542,-5.6698
6.8344,-5.4300
6.8542,-5.1902
6.8542,-5.1698
6.8344,-4.9300
6.8542,-4.6902
6.8542,-4.6698
6.8344,-4.4300
6.8344,-4.4300
6.8549,-4.1822
6.8549,-4.1822
6.9159,-3.9411
7.0158,-3.7134
7.1518,-3.5052
7.1518,-3.5052
7.3203,-3.3223
7.5165,-3.1695
7.7352,-3.0512
7.9704,-2.9704
8.2157,-2.9295
8.4643,-2.9295
8.7096,-2.9704
8.9448,-3.0512
9.1635,-3.1695
9.3597,-3.3223
9.5282,-3.5052
9.6642,-3.7134
9.7641,-3.9411
9.8251,-4.1822
9.8251,-4.1822
9.8456,-4.4300
9.8456,-4.4300
9.8258,-4.6698
9.8258,-4.6902
9.8456,-4.9300
9.8456,-4.9300
9.8258,-5.1698
9.8258,-5.1902
9.8456,-5.4300
9.8456,-5.4300
9.8258,-5.6698
9.8258,-5.6902
9.8422,-5.8879
9.8453,-5.9254
9.8704,-5.9906
9.9268,-6.0319
9.9850,-6.0381
10.0506,-6.0295
10.6940,-6.0295
10.7611,-6.0098
10.8068,-5.9570
10.8168,-5.8879
10.7956,-5.8344
10.7594,-5.7827
10.6633,-5.5765
10.6633,-5.5765
10.6044,-5.3567
10.6044,-5.3567
10.5845,-5.1300
10.5845,-5.1300
10.6044,-4.9033
10.6044,-4.9033
10.6633,-4.6835
10.6633,-4.6835
10.7594,-4.4773
10.7594,-4.4773
10.8900,-4.2909
11.0509,-4.1300
11.0509,-4.1300
11.2373,-3.9994
11.4435,-3.9033
11.6633,-3.8444
11.8252,-3.8302
11.8900,-3.8245
11.8900,-3.8245
11.8900,-3.8245
11.9467,-3.8295
12.1167,-3.8444
12.3365,-3.9033
12.5427,-3.9994
12.7291,-4.1300
12.8900,-4.2909
13.0206,-4.4773
13.1167,-4.6835
13.1756,-4.9033
13.1955,-5.1300
13.1953,-5.1322
13.1898,-5.1948
13.1756,-5.3567
13.1167,-5.5765
13.0206,-5.7827
12.9844,-5.8344
12.9621,-5.9006
12.9791,-5.9684
13.0300,-6.0162
13.0860,-6.0295
13.8294,-6.0295
13.9468,-6.0450
13.9468,-6.0450
13.9468,-6.0450
14.0928,-6.1055
14.1145,-6.1221
14.1797,-6.1473
14.2481,-6.1333
14.2655,-6.1221
14.2872,-6.1055
14.2872,-6.1055
14.2872,-6.1055
14.3284,-6.0884
14.4332,-6.0450
14.5506,-6.0295
15.2940,-6.0295
15.3611,-6.0098
15.4068,-5.9570
15.4168,-5.8879
15.3956,-5.8344
15.3594,-5.7827
15.2633,-5.5765
15.2633,-5.5765
15.2044,-5.3567
15.2044,-5.3567
15.1845,-5.1300
15.1845,-5.1300
15.2044,-4.9033
15.2044,-4.9033
15.2633,-4.6835
15.2633,-4.6835
15.3594,-4.4773
15.3594,-4.4773
15.4900,-4.2909
15.6509,-4.1300
15.6509,-4.1300
15.8373,-3.9994
16.0435,-3.9033
16.2633,-3.8444
16.4252,-3.8302
16.4900,-3.8245
16.4900,-3.8245
16.4900,-3.8245
16.5467,-3.8295
16.7167,-3.8444
16.9365,-3.9033
17.1427,-3.9994
17.3291,-4.1300
17.4900,-4.2909
17.6206,-4.4773
17.7167,-4.6835
17.7756,-4.9033
17.7955,-5.1300
17.7953,-5.1322
17.7898,-5.1948
17.7756,-5.3567
17.7167,-5.5765
17.6206,-5.7827
17.5844,-5.8344
17.5621,-5.9006
17.5791,-5.9684
17.6300,-6.0162
17.6860,-6.0295
18.3294,-6.0295
18.3967,-6.0384
18.4657,-6.0276
18.5180,-5.9812
18.5369,-5.9139
18.5364,-5.9052
18.5344,-5.8800
18.5542,-5.6402
18.5542,-5.6198
18.5344,-5.3800
18.5542,-5.1402
18.5542,-5.1198
18.5344,-4.8800
18.5542,-4.6402
18.5542,-4.6198
18.5344,-4.3800
18.5344,-4.3800
18.5549,-4.1322
18.5549,-4.1322
18.6159,-3.8911
18.7158,-3.6634
18.8518,-3.4552
18.8518,-3.4552
19.0203,-3.2723
19.2165,-3.1195
19.4352,-3.0012
19.6704,-2.9204
19.9157,-2.8795
20.1643,-2.8795
20.4096,-2.9204
20.6448,-3.0012
20.8635,-3.1195
21.0597,-3.2723
21.2282,-3.4552
21.3642,-3.6634
21.4641,-3.8911
21.5251,-4.1322
21.5395,-4.3061
21.5456,-4.3800
21.5456,-4.3800
21.5258,-4.6198
21.5258,-4.6402
21.5456,-4.8800
21.5456,-4.8800
21.5258,-5.1198
21.5258,-5.1402
21.5456,-5.3800
21.5456,-5.3800
21.5258,-5.6198
21.5258,-5.6402
21.5456,-5.8800
21.5456,-5.8800
21.5251,-6.1278
21.5251,-6.1278
21.4641,-6.3689
21.3642,-6.5966
21.2393,-6.7877
21.2192,-6.8546
21.2383,-6.9218
21.2908,-6.9679
21.3431,-6.9795
21.4766,-6.9795
21.4766,-6.9795
21.6477,-7.0066
21.8124,-7.0601
21.9668,-7.1388
22.1069,-7.2406
24.4194,-9.5531
24.4245,-9.5601
24.4443,-9.5874
24.4739,-9.6281
24.5212,-9.6932
24.5999,-9.8476
24.6534,-10.0123
24.6805,-10.1834
24.6805,-12.9566
24.6604,-13.0833
24.6694,-13.1526
24.7144,-13.2061
24.7811,-13.2267
24.8164,-13.2221
24.9716,-13.1786
25.2219,-13.1442
25.2563,-13.1395
25.2563,-13.1395
25.5437,-13.1395
25.5744,-13.1437
25.8284,-13.1786
26.1051,-13.2562
26.2251,-13.3083
26.3686,-13.3706
26.3686,-13.3706
26.3686,-13.3706
26.5261,-13.4664
26.5936,-13.4844
26.6601,-13.4631
26.7045,-13.4091
26.7145,-13.3604
26.7145,-6.0331
26.7144,-6.0270
26.6979,-5.6931
26.6968,-5.6810
26.6482,-5.3533
26.6458,-5.3414
26.5653,-5.0201
26.5618,-5.0084
26.4502,-4.6965
26.4455,-4.6853
26.3039,-4.3858
26.2981,-4.3751
26.1279,-4.0910
26.1211,-4.0809
25.9238,-3.8148
25.9161,-3.8054
25.6936,-3.5600
25.6850,-3.5514
25.4396,-3.3289
25.4302,-3.3212
25.1641,-3.1239
25.1540,-3.1171
24.8699,-2.9469
24.8592,-2.9411
24.5597,-2.7995
24.5485,-2.7948
24.2366,-2.6832
24.2249,-2.6797
23.9036,-2.5992
23.8917,-2.5968
23.5640,-2.5482
23.5519,-2.5471
23.2370,-2.5316
23.2180,-2.5306
23.2119,-2.5305
5.1681,-2.5305
5.1620,-2.5306
5.1419,-2.5316
4.8281,-2.5471
4.8160,-2.5482
4.4883,-2.5968
4.4764,-2.5992
4.1551,-2.6797
4.1434,-2.6832
3.8315,-2.7948
3.8203,-2.7995
3.5208,-2.9411
3.5101,-2.9468
3.2260,-3.1171
3.2159,-3.1239
2.9498,-3.3212
2.9404,-3.3289
2.8011,-3.4552
2.6950,-3.5514
2.6864,-3.5600
2.4639,-3.8054
2.4562,-3.8148
2.2589,-4.0809
2.2521,-4.0910
2.2288,-4.1300
2.0818,-4.3751
2.0761,-4.3858
1.9345,-4.6853
1.9298,-4.6965
1.8182,-5.0084
1.8147,-5.0201
1.8060,-5.0550
1.7342,-5.3414
1.7318,-5.3533
1.7313,-5.3567
1.6985,-5.5779
1.6832,-5.6810
1.6821,-5.6931
1.6656,-6.0270
1.6655,-6.0331
1.6655,-29.4269
1.6656,-29.4330
1.6802,-29.7295
1.6821,-29.7669
1.6832,-29.7790
1.6872,-29.8055
1.7318,-30.1067
1.7342,-30.1186
1.8147,-30.4400
1.8182,-30.4516
1.9298,-30.7635
1.9345,-30.7747
2.0761,-31.0742
2.0818,-31.0849
2.2521,-31.3690
2.2589,-31.3791
2.4562,-31.6452
2.4639,-31.6546
2.6864,-31.9000
2.6950,-31.9086
2.9404,-32.1311
2.9498,-32.1388
3.2159,-32.3361
3.2260,-32.3429
3.5101,-32.5132
3.5208,-32.5189
3.8203,-32.6605
3.8315,-32.6652
4.1434,-32.7768
4.1550,-32.7803
4.4764,-32.8608
4.4883,-32.8632
4.8160,-32.9118
4.8281,-32.9129
5.1620,-32.9294
5.1681,-32.9295
5.2309,-32.9295
23.1491,-32.9295
23.2119,-32.9295
Z" /> 
</g> 
</svg>
