<?xml version="1.0" encoding="UTF-8" standalone="no"?>
<!-- Created with Inkscape (http://www.inkscape.org/) -->

<svg
   width="112.28899mm"
   height="148.95905mm"
   viewBox="0 0 112.28899 148.95904"
   version="1.1"
   id="svg5"
   sodipodi:docname="inkstitch_example.svg"
   inkscape:version="1.4 (86a8ad7, 2024-10-11)"
   inkscape:export-filename="test husavikinstitch.jpg"
   inkscape:export-xdpi="96"
   inkscape:export-ydpi="96"
   xmlns:inkscape="http://www.inkscape.org/namespaces/inkscape"
   xmlns:sodipodi="http://sodipodi.sourceforge.net/DTD/sodipodi-0.dtd"
   xmlns="http://www.w3.org/2000/svg"
   xmlns:svg="http://www.w3.org/2000/svg"
   xmlns:inkstitch="http://inkstitch.org/namespace">
  <sodipodi:namedview
     id="namedview7"
     pagecolor="#ffffff"
     bordercolor="#666666"
     borderopacity="1.0"
     inkscape:pageshadow="2"
     inkscape:pageopacity="0.0"
     inkscape:pagecheckerboard="0"
     inkscape:document-units="mm"
     showgrid="false"
     inkscape:zoom="1.0708779"
     inkscape:cx="172.94761"
     inkscape:cy="303.78558"
     inkscape:window-width="1920"
     inkscape:window-height="991"
     inkscape:window-x="-9"
     inkscape:window-y="-9"
     inkscape:window-maximized="1"
     inkscape:current-layer="layer1"
     inkscape:rotation="1"
     inkscape:showpageshadow="2"
     inkscape:deskcolor="#d1d1d1" />
  <metadata
     id="metadata8126">
    <inkstitch:min_stitch_len_mm>0</inkstitch:min_stitch_len_mm>
    <inkstitch:collapse_len_mm>3</inkstitch:collapse_len_mm>
    <inkstitch:inkstitch_svg_version>2</inkstitch:inkstitch_svg_version>
  </metadata>
  <defs
     id="defs2" />
  <g
     inkscape:label="Layer 1"
     inkscape:groupmode="layer"
     id="layer1"
     transform="translate(-1.93178, 4.89163)">
    <circle
       style="fill:#ff6600;fill-opacity:1;stroke:none;stroke-width:0.0607053"
       id="path846"
       cx="35.440262"
       cy="43.258202"
       r="32.453068" />
    <path
       id="path4890"
       style="stroke:#000000;stroke-width:1px;fill:none"
       d="M 124.382 62.204 L 122.117 62.2466 L 117.619 62.5004 L 113.158 62.92 L 108.735 63.5034 L 104.356 64.2478 L 100.023 65.1507 L 95.7403 66.2098 L 91.5119 67.4225 L 87.3411 68.7862 L 83.2319 70.2986 L 79.1879 71.9571 L 75.2129 73.7594 L 71.3104 75.7028 L 67.4844 77.785 L 63.7385 80.0032 L 60.0766 82.3551 L 56.5023 84.8383 L 53.0195 87.4501 L 49.6316 90.1881 L 46.3428 93.0497 L 43.1566 96.0325 L 40.0767 99.134 L 37.1068 102.352 L 34.2508 105.683 L 31.5123 109.126 L 28.8951 112.677 L 26.4027 116.334 L 24.039 120.095 L 21.8077 123.958 L 19.7125 127.92 L 17.757 131.978 L 15.945 136.13 L 14.2903 140.347 L 12.8036 144.599 L 11.4839 148.882 L 10.3305 153.191 L 9.34221 157.522 L 8.51836 161.87 L 7.85792 166.232 L 7.36013 170.603 L 7.024 174.978 L 6.84885 179.353 L 6.83351 183.724 L 6.97741 188.086 L 7.27947 192.435 L 7.73891 196.767 L 8.35486 201.077 L 9.12643 205.36 L 10.0528 209.612 L 11.1328 213.83 L 12.366 218.007 L 13.7513 222.141 L 15.2877 226.226 L 16.9745 230.258 L 18.8107 234.233 L 20.7954 238.147 L 22.928 241.994 L 25.2073 245.771 L 27.6326 249.474 L 30.203 253.097 L 32.9177 256.636 L 35.7758 260.088 L 38.7765 263.448 L 41.9193 266.711 L 45.1822 269.853 L 48.5418 272.854 L 51.9936 275.712 L 55.5331 278.427 L 59.1563 280.997 L 62.8585 283.423 L 66.6356 285.702 L 70.483 287.834 L 74.3964 289.819 L 78.3716 291.655 L 82.4039 293.342 L 86.4891 294.879 L 90.6227 296.264 L 94.8003 297.497 L 99.0176 298.577 L 103.27 299.503 L 107.553 300.275 L 111.863 300.891 L 116.194 301.35 L 120.544 301.652 L 124.906 301.796 L 128.949 301.782 L 129.277 301.781 L 133.652 301.606 L 138.027 301.27 L 142.398 300.772 L 146.759 300.112 L 151.108 299.288 L 155.439 298.299 L 159.748 297.146 L 164.031 295.826 L 168.283 294.34 L 172.5 292.685 L 176.652 290.873 L 180.71 288.917 L 184.672 286.822 L 188.534 284.591 L 192.296 282.227 L 195.953 279.735 L 199.504 277.118 L 202.947 274.379 L 206.278 271.523 L 209.496 268.553 L 212.597 265.473 L 215.58 262.287 L 218.442 258.998 L 221.18 255.61 L 223.792 252.128 L 226.275 248.553 L 228.627 244.891 L 230.845 241.145 L 232.927 237.319 L 234.87 233.417 L 236.673 229.442 L 238.331 225.398 L 239.844 221.289 L 241.207 217.118 L 242.42 212.89 L 243.479 208.607 L 244.382 204.274 L 245.126 199.895 L 245.71 195.472 L 246.13 191.011 L 246.383 186.513 L 246.468 181.992 L 246.321 176.042 L 245.882 170.141 L 245.155 164.289 L 244.144 158.498 L 242.854 152.777 L 241.289 147.135 L 239.452 141.583 L 237.347 136.13 L 234.979 130.786 L 232.352 125.561 L 229.47 120.464 L 226.337 115.506 L 222.956 110.697 L 219.333 106.046 L 215.47 101.563 L 211.373 97.2568 L 207.067 93.1595 L 202.584 89.2971 L 197.933 85.6737 L 193.123 82.2933 L 188.166 79.16 L 183.069 76.2777 L 177.844 73.6505 L 172.5 71.2828 L 167.047 69.1782 L 161.495 67.3411 L 155.853 65.7756 L 150.131 64.4855 L 144.34 63.475 L 138.489 62.7482 L 132.588 62.3091 L 126.638 62.1617 Z M 124.275 56.5358 L 121.904 56.5804 L 117.194 56.846 L 112.521 57.2856 L 107.889 57.8966 L 103.302 58.6762 L 98.7636 59.6221 L 94.2779 60.7314 L 89.8489 62.0015 L 85.4805 63.43 L 81.1765 65.014 L 76.9411 66.7511 L 72.7779 68.6386 L 68.691 70.674 L 64.6842 72.8544 L 60.7613 75.1774 L 56.9264 77.6405 L 53.1833 80.2409 L 49.5359 82.9761 L 45.988 85.8435 L 42.5436 88.8405 L 39.2066 91.9645 L 35.9809 95.2128 L 32.8704 98.5829 L 29.879 102.072 L 27.0105 105.678 L 24.2691 109.398 L 21.6585 113.229 L 19.1828 117.168 L 16.8457 121.214 L 14.6513 125.363 L 12.6036 129.612 L 10.7064 133.96 L 8.97386 138.375 L 7.41697 142.828 L 6.03485 147.314 L 4.82672 151.827 L 3.79159 156.363 L 2.92864 160.918 L 2.23688 165.487 L 1.71547 170.065 L 1.3634 174.647 L 1.17995 179.23 L 1.16389 183.808 L 1.31459 188.376 L 1.63093 192.931 L 2.11209 197.467 L 2.75714 201.98 L 3.56517 206.466 L 4.53524 210.919 L 5.66635 215.336 L 6.9578 219.711 L 8.40855 224.04 L 10.0177 228.318 L 11.7843 232.542 L 13.7075 236.705 L 15.7864 240.804 L 18.02 244.834 L 20.4075 248.79 L 22.9478 252.668 L 25.6402 256.463 L 28.4835 260.17 L 31.4768 263.786 L 34.6193 267.304 L 37.9097 270.72 L 41.3262 274.011 L 44.8444 277.153 L 48.4594 280.146 L 52.1667 282.99 L 55.9617 285.682 L 59.8395 288.222 L 63.7958 290.61 L 67.8258 292.844 L 71.9248 294.922 L 76.0882 296.846 L 80.3115 298.612 L 84.5899 300.221 L 88.9189 301.672 L 93.2941 302.963 L 97.7106 304.095 L 102.164 305.065 L 106.649 305.873 L 111.163 306.518 L 115.699 306.999 L 120.254 307.315 L 124.822 307.466 L 128.968 307.451 L 129.4 307.45 L 133.983 307.266 L 138.565 306.914 L 143.143 306.393 L 147.712 305.701 L 152.267 304.838 L 156.803 303.803 L 161.316 302.595 L 165.802 301.213 L 170.255 299.656 L 174.67 297.924 L 179.018 296.026 L 183.267 293.978 L 187.416 291.784 L 191.462 289.447 L 195.401 286.971 L 199.232 284.361 L 202.952 281.619 L 206.558 278.751 L 210.047 275.76 L 213.417 272.649 L 216.665 269.423 L 219.789 266.086 L 222.786 262.642 L 225.654 259.094 L 228.389 255.447 L 230.989 251.703 L 233.452 247.869 L 235.775 243.946 L 237.956 239.939 L 239.991 235.852 L 241.879 231.689 L 243.616 227.453 L 245.2 223.149 L 246.628 218.781 L 247.899 214.352 L 249.008 209.866 L 249.954 205.328 L 250.733 200.741 L 251.344 196.109 L 251.784 191.436 L 252.05 186.726 L 252.139 181.975 L 251.985 175.761 L 251.525 169.58 L 250.764 163.452 L 249.705 157.387 L 248.354 151.395 L 246.715 145.486 L 244.791 139.671 L 242.586 133.96 L 240.107 128.363 L 237.355 122.89 L 234.336 117.553 L 231.055 112.36 L 227.514 107.323 L 223.719 102.451 L 219.674 97.7559 L 215.383 93.2468 L 210.874 88.9559 L 206.178 84.9107 L 201.307 81.1157 L 196.27 77.5751 L 191.077 74.2934 L 185.74 71.2747 L 180.267 68.5233 L 174.67 66.0434 L 168.959 63.8394 L 163.144 61.9153 L 157.235 60.2756 L 151.243 58.9245 L 145.178 57.8662 L 139.049 57.105 L 132.869 56.6451 L 126.655 56.4911 Z M 100.699 58.6397 L 102.087 65.2997 M 74.4178 67.2726 L 77.227 73.4687 M 47.5251 83.8723 L 51.8013 89.1635 M 28.027 103.49 L 33.351 107.725 M 13.2794 126.904 L 19.4081 129.857 M 4.96487 149.118 L 11.5366 150.878 M 0.960695 172.488 L 7.74386 173.009 M 2.5546 204.054 L 9.24998 202.848 M 10.3522 230.587 L 16.6283 227.962 M 23.7563 254.788 L 29.3049 250.851 M 39.2212 272.77 L 43.9406 267.87 M 57.7725 287.546 L 61.5005 281.855 M 82.4599 300.026 L 84.8548 293.658 M 113.213 307.305 L 113.931 300.54 M 128.947 301.215 L 128.97 308.018 M 140.872 307.222 L 140.102 300.463 M 164.076 302.338 L 162.073 295.836 M 189.444 291.267 L 186.042 285.376 M 208.801 277.574 L 204.373 272.409 M 229.996 254.128 L 224.408 250.246 M 243.245 229.853 L 236.95 227.271 M 250.88 203.262 L 244.173 202.123 M 252.647 179.591 L 245.846 179.76 M 252.253 171.729 L 245.469 172.234 M 250.726 159.939 L 244.024 161.109 M 248.097 148.348 L 241.542 150.167 M 244.389 137.056 L 238.042 139.505 M 239.635 126.163 L 233.557 129.219 M 235.93 119.22 L 230.009 122.569 M 229.529 109.204 L 223.964 113.116 M 222.213 99.8345 L 217.059 104.275 M 214.047 91.1928 L 209.357 96.121 M 208.209 85.9116 L 203.769 91.0658 M 198.792 78.6553 L 194.88 84.2211 M 188.737 72.3184 L 185.387 78.2401 M 178.13 66.9563 L 175.374 73.1762 M 167.066 62.6158 L 164.929 69.0746 M 159.536 60.3258 L 157.717 66.8813 M 147.928 57.7706 L 146.759 64.4725 M 136.129 56.3192 L 135.624 63.1036"
       inkstitch:satin_column="true"
       transform="matrix(0.264583 0 0 0.264583 1.93178 -4.89163)" />
    <circle
       style="fill:#008000;fill-opacity:1;stroke:none;stroke-width:0.0607053"
       id="circle1202"
       cx="80.892708"
       cy="43.258202"
       r="32.453068" />
    <path
       id="path2084"
       style="stroke:#000000;stroke-width:1px;fill:none"
       d="M 296.179 62.6764 L 293.923 62.7188 L 289.444 62.9716 L 284.999 63.3896 L 280.594 63.9706 L 276.232 64.712 L 271.917 65.6115 L 267.651 66.6663 L 263.439 67.8742 L 259.285 69.2326 L 255.192 70.739 L 251.164 72.391 L 247.205 74.1861 L 243.318 76.1219 L 239.507 78.1958 L 235.775 80.4053 L 232.128 82.748 L 228.568 85.2214 L 225.098 87.8229 L 221.724 90.5501 L 218.448 93.4005 L 215.275 96.3716 L 212.207 99.4608 L 209.249 102.666 L 206.404 105.984 L 203.676 109.413 L 201.069 112.95 L 198.587 116.593 L 196.233 120.339 L 194.01 124.187 L 191.923 128.133 L 189.975 132.175 L 188.17 136.31 L 186.522 140.511 L 185.041 144.747 L 183.727 149.013 L 182.578 153.305 L 181.594 157.618 L 180.773 161.95 L 180.115 166.294 L 179.619 170.648 L 179.285 175.006 L 179.11 179.363 L 179.095 183.717 L 179.238 188.062 L 179.539 192.394 L 179.997 196.709 L 180.61 201.001 L 181.379 205.268 L 182.301 209.503 L 183.377 213.704 L 184.605 217.865 L 185.985 221.983 L 187.516 226.052 L 189.196 230.068 L 191.025 234.027 L 193.002 237.925 L 195.126 241.758 L 197.396 245.52 L 199.812 249.207 L 202.372 252.816 L 205.076 256.342 L 207.923 259.78 L 210.912 263.126 L 214.042 266.377 L 217.292 269.507 L 220.639 272.496 L 224.077 275.343 L 227.602 278.047 L 231.211 280.607 L 234.899 283.023 L 238.661 285.293 L 242.493 287.417 L 246.391 289.394 L 250.351 291.223 L 254.367 292.903 L 258.436 294.433 L 262.553 295.813 L 266.715 297.041 L 270.915 298.117 L 275.151 299.04 L 279.417 299.809 L 283.71 300.422 L 288.025 300.88 L 292.357 301.181 L 296.702 301.324 L 300.736 301.31 L 301.055 301.309 L 305.413 301.134 L 309.771 300.799 L 314.124 300.304 L 318.469 299.646 L 322.8 298.825 L 327.114 297.841 L 331.406 296.692 L 335.672 295.377 L 339.907 293.897 L 344.108 292.248 L 348.244 290.443 L 352.286 288.496 L 356.232 286.409 L 360.079 284.186 L 363.826 281.832 L 367.469 279.349 L 371.006 276.742 L 374.435 274.015 L 377.753 271.17 L 380.958 268.212 L 384.047 265.144 L 387.018 261.971 L 389.869 258.695 L 392.596 255.32 L 395.197 251.851 L 397.671 248.291 L 400.013 244.643 L 402.223 240.912 L 404.297 237.101 L 406.233 233.214 L 408.028 229.255 L 409.68 225.227 L 411.186 221.134 L 412.545 216.979 L 413.752 212.768 L 414.807 208.502 L 415.707 204.186 L 416.448 199.824 L 417.029 195.419 L 417.447 190.975 L 417.7 186.495 L 417.784 181.994 L 417.638 176.065 L 417.2 170.187 L 416.476 164.359 L 415.47 158.591 L 414.185 152.892 L 412.625 147.273 L 410.796 141.742 L 408.699 136.311 L 406.341 130.988 L 403.724 125.783 L 400.853 120.707 L 397.732 115.769 L 394.365 110.978 L 390.756 106.345 L 386.909 101.88 L 382.828 97.591 L 378.539 93.5098 L 374.073 89.6627 L 369.44 86.0536 L 364.65 82.6864 L 359.712 79.5655 L 354.635 76.6946 L 349.431 74.0778 L 344.108 71.7194 L 338.676 69.6231 L 333.146 67.7933 L 327.526 66.2339 L 321.828 64.9489 L 316.059 63.9424 L 310.231 63.2185 L 304.354 62.7811 L 298.425 62.6343 Z M 296.055 56.0634 L 293.675 56.1082 L 288.947 56.3748 L 284.257 56.816 L 279.607 57.4294 L 275.003 58.212 L 270.447 59.1613 L 265.945 60.2749 L 261.499 61.5498 L 257.114 62.9836 L 252.794 64.5736 L 248.543 66.3172 L 244.364 68.2119 L 240.261 70.2549 L 236.24 72.4436 L 232.302 74.7753 L 228.453 77.2476 L 224.695 79.8578 L 221.034 82.6033 L 217.473 85.4815 L 214.016 88.4897 L 210.666 91.6254 L 207.428 94.886 L 204.306 98.2688 L 201.303 101.771 L 198.424 105.391 L 195.672 109.124 L 193.052 112.97 L 190.567 116.924 L 188.221 120.985 L 186.018 125.15 L 183.963 129.415 L 182.059 133.779 L 180.32 138.211 L 178.757 142.681 L 177.37 147.183 L 176.157 151.713 L 175.118 156.267 L 174.252 160.839 L 173.557 165.425 L 173.034 170.02 L 172.68 174.62 L 172.496 179.22 L 172.48 183.815 L 172.631 188.4 L 172.949 192.972 L 173.432 197.526 L 174.079 202.056 L 174.891 206.558 L 175.864 211.028 L 177 215.461 L 178.296 219.853 L 179.752 224.198 L 181.367 228.493 L 183.141 232.732 L 185.071 236.911 L 187.158 241.026 L 189.4 245.071 L 191.796 249.042 L 194.346 252.934 L 197.049 256.744 L 199.903 260.465 L 202.907 264.094 L 206.062 267.625 L 209.364 271.054 L 212.794 274.357 L 216.325 277.511 L 219.954 280.516 L 223.675 283.37 L 227.484 286.072 L 231.377 288.622 L 235.348 291.019 L 239.393 293.261 L 243.508 295.348 L 247.687 297.278 L 251.926 299.051 L 256.22 300.667 L 260.566 302.123 L 264.957 303.419 L 269.39 304.554 L 273.86 305.528 L 278.363 306.339 L 282.893 306.987 L 287.446 307.47 L 292.018 307.787 L 296.604 307.938 L 300.759 307.924 L 301.199 307.922 L 305.799 307.738 L 310.399 307.385 L 314.994 306.861 L 319.58 306.167 L 324.152 305.301 L 328.706 304.262 L 333.236 303.049 L 337.738 301.662 L 342.208 300.099 L 346.64 298.36 L 351.003 296.456 L 355.269 294.4 L 359.433 292.198 L 363.494 289.852 L 367.449 287.367 L 371.294 284.746 L 375.028 281.994 L 378.647 279.115 L 382.15 276.113 L 385.533 272.99 L 388.793 269.752 L 391.929 266.403 L 394.937 262.945 L 397.815 259.384 L 400.561 255.723 L 403.171 251.966 L 405.643 248.117 L 407.975 244.179 L 410.164 240.157 L 412.207 236.055 L 414.101 231.876 L 415.845 227.625 L 417.435 223.305 L 418.869 218.92 L 420.144 214.474 L 421.257 209.971 L 422.207 205.416 L 422.989 200.811 L 423.603 196.162 L 424.044 191.471 L 424.311 186.744 L 424.4 181.974 L 424.246 175.738 L 423.784 169.534 L 423.02 163.383 L 421.958 157.294 L 420.601 151.28 L 418.955 145.348 L 417.024 139.511 L 414.812 133.779 L 412.323 128.161 L 409.561 122.668 L 406.531 117.31 L 403.237 112.098 L 399.683 107.042 L 395.874 102.152 L 391.813 97.4387 L 387.506 92.9126 L 382.98 88.6056 L 378.267 84.5451 L 373.377 80.7358 L 368.321 77.182 L 363.109 73.8879 L 357.751 70.8578 L 352.258 68.096 L 346.64 65.6068 L 340.907 63.3945 L 335.07 61.4631 L 329.139 59.8173 L 323.124 58.4611 L 317.036 57.3988 L 310.885 56.6347 L 304.681 56.1731 L 298.445 56.0185 Z M 272.372 58.0847 L 273.991 65.8547 M 245.973 66.7562 L 249.25 73.985 M 218.957 83.4314 L 223.947 89.6044 M 199.372 103.137 L 205.583 108.078 M 184.557 126.658 L 191.708 130.103 M 176.206 148.972 L 183.873 151.024 M 172.184 172.445 L 180.098 173.053 M 173.785 204.154 L 181.597 202.747 M 181.618 230.806 L 188.94 227.743 M 195.083 255.116 L 201.556 250.523 M 210.617 273.179 L 216.123 267.462 M 229.251 288.02 L 233.6 281.381 M 254.049 300.557 L 256.843 293.128 M 284.942 307.869 L 285.78 299.976 M 300.733 300.648 L 300.761 308.585 M 312.725 307.786 L 311.827 299.9 M 336.032 302.88 L 333.695 295.295 M 361.517 291.758 L 357.547 284.885 M 380.959 278.005 L 375.793 271.979 M 402.25 254.451 L 395.732 249.923 M 415.558 230.068 L 408.215 227.056 M 423.227 203.357 L 415.403 202.028 M 425.002 179.577 L 417.068 179.774 M 424.607 171.687 L 416.692 172.276 M 423.074 159.842 L 415.255 161.206 M 420.432 148.196 L 412.784 150.318 M 416.707 136.852 L 409.302 139.71 M 411.931 125.909 L 404.839 129.474 M 408.213 118.94 L 401.304 122.848 M 401.782 108.878 L 395.289 113.442 M 394.431 99.4645 L 388.418 104.645 M 386.227 90.7821 L 380.755 96.5317 M 380.368 85.4821 L 375.187 91.4953 M 370.907 78.1915 L 366.343 84.6849 M 360.804 71.8249 L 356.897 78.7336 M 350.148 66.4379 L 346.933 73.6946 M 339.033 62.0776 L 336.54 69.6129 M 331.477 59.7795 L 329.354 67.4276 M 319.814 57.2121 L 318.45 65.031 M 307.96 55.7538 L 307.371 63.6689"
       inkstitch:satin_column="true"
       transform="matrix(0.264583 0 0 0.264583 1.93178 -4.89163)" />
    <circle
       style="fill:#ffff00;fill-opacity:1;stroke:none;stroke-width:0.0607053"
       id="circle1204"
       cx="35.38485"
       cy="110.61436"
       r="32.453068" />
    <path
       id="path9189"
       style="stroke:#000000;stroke-width:1px;fill:none"
       d="M 124.19 317.723 L 121.943 317.766 L 117.481 318.017 L 113.054 318.434 L 108.667 319.012 L 104.322 319.751 L 100.023 320.647 L 95.7746 321.697 L 91.5796 322.9 L 87.4419 324.253 L 83.365 325.754 L 79.353 327.399 L 75.4092 329.187 L 71.5375 331.116 L 67.7416 333.181 L 64.0253 335.382 L 60.3922 337.715 L 56.8461 340.179 L 53.3906 342.77 L 50.0295 345.487 L 46.7666 348.326 L 43.6055 351.285 L 40.5499 354.362 L 37.6035 357.554 L 34.7701 360.859 L 32.0532 364.275 L 29.4567 367.798 L 26.984 371.426 L 24.639 375.158 L 22.4253 378.99 L 20.3466 382.92 L 18.4065 386.946 L 16.6087 391.066 L 14.9669 395.25 L 13.4919 399.469 L 12.1827 403.718 L 11.0384 407.993 L 10.0579 412.29 L 9.24058 416.604 L 8.58536 420.931 L 8.09151 425.267 L 7.75803 429.608 L 7.58416 433.948 L 7.56905 438.285 L 7.71171 442.612 L 8.01148 446.927 L 8.46731 451.225 L 9.07841 455.5 L 9.84392 459.75 L 10.7629 463.969 L 11.8345 468.153 L 13.058 472.298 L 14.4323 476.399 L 15.9566 480.452 L 17.63 484.452 L 19.4518 488.396 L 21.4209 492.279 L 23.5366 496.096 L 25.7978 499.843 L 28.2039 503.516 L 30.754 507.11 L 33.4472 510.622 L 36.2829 514.046 L 39.26 517.379 L 42.378 520.617 L 45.6155 523.735 L 48.9486 526.712 L 52.3731 529.548 L 55.8848 532.241 L 59.4792 534.791 L 63.1522 537.197 L 66.8994 539.458 L 70.7164 541.574 L 74.599 543.543 L 78.5427 545.365 L 82.5432 547.038 L 86.5962 548.563 L 90.6972 549.937 L 94.842 551.16 L 99.0261 552.232 L 103.245 553.151 L 107.495 553.917 L 111.77 554.528 L 116.068 554.984 L 120.382 555.283 L 124.71 555.426 L 128.736 555.412 L 129.047 555.411 L 133.387 555.237 L 137.728 554.903 L 142.064 554.41 L 146.391 553.754 L 150.705 552.937 L 155.002 551.957 L 159.277 550.812 L 163.526 549.503 L 167.745 548.028 L 171.929 546.386 L 176.049 544.588 L 180.075 542.648 L 184.005 540.57 L 187.837 538.356 L 191.569 536.011 L 195.197 533.538 L 198.72 530.942 L 202.136 528.225 L 205.441 525.392 L 208.633 522.445 L 211.71 519.39 L 214.669 516.228 L 217.508 512.965 L 220.225 509.604 L 222.816 506.149 L 225.28 502.603 L 227.613 498.97 L 229.814 495.253 L 231.879 491.457 L 233.808 487.586 L 235.596 483.642 L 237.241 479.63 L 238.742 475.553 L 240.095 471.415 L 241.298 467.22 L 242.348 462.972 L 243.244 458.673 L 243.983 454.328 L 244.561 449.941 L 244.978 445.514 L 245.229 441.052 L 245.314 436.569 L 245.167 430.663 L 244.732 424.808 L 244.011 419.004 L 243.008 413.258 L 241.728 407.582 L 240.175 401.985 L 238.352 396.476 L 236.265 391.066 L 233.915 385.764 L 231.309 380.58 L 228.449 375.524 L 225.341 370.605 L 221.987 365.834 L 218.392 361.219 L 214.56 356.771 L 210.495 352.5 L 206.223 348.435 L 201.776 344.603 L 197.161 341.008 L 192.39 337.654 L 187.471 334.546 L 182.415 331.686 L 177.231 329.08 L 171.929 326.73 L 166.519 324.643 L 161.01 322.82 L 155.413 321.267 L 149.737 319.987 L 143.991 318.984 L 138.187 318.263 L 132.332 317.828 L 126.425 317.681 Z M 124.048 310.166 L 121.659 310.21 L 116.914 310.478 L 112.206 310.921 L 107.539 311.537 L 102.917 312.322 L 98.3442 313.275 L 93.8248 314.393 L 89.3622 315.672 L 84.9609 317.112 L 80.6246 318.708 L 76.3572 320.458 L 72.1626 322.36 L 68.0449 324.41 L 64.008 326.607 L 60.0557 328.948 L 56.192 331.429 L 52.4207 334.049 L 48.7458 336.805 L 45.1713 339.694 L 41.701 342.713 L 38.3389 345.861 L 35.0889 349.134 L 31.9549 352.529 L 28.9409 356.045 L 26.0508 359.678 L 23.2887 363.426 L 20.6584 367.286 L 18.164 371.255 L 15.8093 375.331 L 13.5984 379.511 L 11.5353 383.793 L 9.62386 388.173 L 7.87829 392.621 L 6.30969 397.108 L 4.91726 401.627 L 3.70003 406.174 L 2.65708 410.745 L 1.78762 415.334 L 1.09064 419.937 L 0.565295 424.55 L 0.210572 429.167 L 0.0256358 433.784 L 0.00955486 438.396 L 0.161291 442.999 L 0.480117 447.588 L 0.96489 452.158 L 1.61479 456.706 L 2.42888 461.225 L 3.40615 465.712 L 4.54588 470.161 L 5.84703 474.569 L 7.30868 478.931 L 8.92984 483.242 L 10.7098 487.497 L 12.6476 491.692 L 14.7421 495.821 L 16.9926 499.882 L 19.398 503.868 L 21.9577 507.775 L 24.6702 511.599 L 27.535 515.334 L 30.5509 518.976 L 33.717 522.521 L 37.032 525.963 L 40.4741 529.278 L 44.0186 532.444 L 47.6609 535.46 L 51.3962 538.325 L 55.2198 541.037 L 59.127 543.597 L 63.1132 546.002 L 67.1734 548.253 L 71.3034 550.347 L 75.4981 552.285 L 79.7532 554.065 L 84.064 555.686 L 88.4256 557.148 L 92.8336 558.449 L 97.2833 559.589 L 101.77 560.566 L 106.289 561.38 L 110.837 562.03 L 115.407 562.515 L 119.996 562.834 L 124.599 562.985 L 128.762 562.971 L 129.211 562.969 L 133.828 562.784 L 138.445 562.43 L 143.058 561.904 L 147.661 561.207 L 152.25 560.338 L 156.821 559.295 L 161.368 558.078 L 165.887 556.685 L 170.374 555.117 L 174.822 553.371 L 179.202 551.46 L 183.484 549.396 L 187.664 547.186 L 191.74 544.831 L 195.709 542.337 L 199.569 539.706 L 203.317 536.944 L 206.95 534.054 L 210.466 531.04 L 213.861 527.906 L 217.134 524.656 L 220.281 521.294 L 223.301 517.824 L 226.19 514.249 L 228.946 510.574 L 231.566 506.803 L 234.047 502.939 L 236.388 498.987 L 238.585 494.95 L 240.635 490.832 L 242.537 486.638 L 244.287 482.37 L 245.883 478.034 L 247.322 473.633 L 248.602 469.17 L 249.72 464.651 L 250.673 460.078 L 251.458 455.456 L 252.074 450.789 L 252.517 446.081 L 252.785 441.336 L 252.875 436.547 L 252.719 430.289 L 252.256 424.062 L 251.489 417.887 L 250.423 411.776 L 249.062 405.739 L 247.409 399.786 L 245.471 393.927 L 243.25 388.172 L 240.752 382.533 L 237.98 377.02 L 234.938 371.642 L 231.632 366.41 L 228.065 361.335 L 224.241 356.427 L 220.165 351.696 L 215.842 347.153 L 211.299 342.83 L 206.568 338.754 L 201.66 334.931 L 196.585 331.363 L 191.353 328.057 L 185.975 325.015 L 180.462 322.243 L 174.822 319.745 L 169.068 317.524 L 163.209 315.585 L 157.256 313.933 L 151.219 312.572 L 145.108 311.506 L 138.933 310.739 L 132.706 310.276 L 126.448 310.12 Z M 100.258 312.104 L 102.109 320.984 M 73.7402 320.814 L 77.4858 329.076 M 46.6029 337.565 L 52.3047 344.62 M 26.9302 357.358 L 34.0289 363.005 M 12.0486 380.986 L 20.2202 384.924 M 3.66018 403.4 L 12.4225 405.745 M -0.379234 426.976 L 8.66498 427.671 M 1.22929 458.829 L 10.1565 457.221 M 9.09665 485.599 L 17.4649 482.099 M 22.6221 510.018 L 30.0202 504.769 M 38.2252 528.162 L 44.5177 521.628 M 56.9417 543.069 L 61.9123 535.481 M 81.8513 555.662 L 85.0444 547.171 M 112.884 563.007 L 113.841 553.987 M 128.733 554.656 L 128.765 563.727 M 140.791 562.923 L 139.764 553.911 M 164.2 557.996 L 161.529 549.327 M 189.802 546.823 L 185.265 538.969 M 209.33 533.01 L 203.426 526.123 M 230.717 509.349 L 223.268 504.174 M 244.084 484.857 L 235.692 481.415 M 251.788 458.027 L 242.846 456.507 M 253.571 434.138 L 244.503 434.362 M 253.175 426.219 L 244.129 426.892 M 251.634 414.319 L 242.698 415.878 M 248.98 402.619 L 240.24 405.045 M 245.238 391.222 L 236.775 394.488 M 240.439 380.228 L 232.335 384.303 M 236.708 373.236 L 228.812 377.701 M 230.248 363.127 L 222.827 368.343 M 222.863 353.669 L 215.99 359.589 M 214.619 344.946 L 208.366 351.517 M 208.739 339.627 L 202.819 346.499 M 199.235 332.302 L 194.019 339.723 M 189.085 325.906 L 184.62 333.802 M 178.38 320.494 L 174.705 328.787 M 167.213 316.114 L 164.363 324.726 M 159.63 313.808 L 157.205 322.548 M 147.914 311.228 L 146.354 320.164 M 136.004 309.763 L 135.331 318.809"
       inkstitch:satin_column="true"
       transform="matrix(0.264583 0 0 0.264583 1.93178 -4.89163)" />
    <circle
       style="fill:#ff0000;fill-opacity:1;stroke:none;stroke-width:0.0607053"
       id="circle1206"
       cx="80.837318"
       cy="110.61436"
       r="32.453068" />
    <g
       aria-label="1,0 mm"
       id="text11828"
       style="font-size:4.25358px;line-height:1.25;font-family:Bahnschrift;-inkscape-font-specification:Bahnschrift;font-variant-ligatures:none;letter-spacing:0.00177232px;word-spacing:0.00177232px;stroke-width:0.177232" />
    <g
       aria-label="Ink Stitch Test"
       id="text20628"
       style="font-size:6.35px;line-height:1.25;font-family:Bahnschrift;-inkscape-font-specification:Bahnschrift;font-variant-ligatures:none;letter-spacing:0.00264583px;word-spacing:0.00264583px;stroke-width:0.264583"
       transform="matrix(2.74557 0 0 2.74557 -17.5344 8.90147)">
      <path
         d="m 9.3881746,-2.8347559 q 0,0.3658691 0.018604,1.100708 0.018603,0.73483884 0.018603,1.10070797 0,0.0620117 -0.027905,0.0775147 -0.0062,0.003101 -0.080615,0.0124023 -0.2015381,0.0248047 -0.5395019,0.0248047 -0.4526856,0 -0.576709,-0.0248047 -0.089917,-0.0186035 -0.089917,-0.0961182 0,0.0496094 0.027905,-0.54570307 0.05581,-1.2557373 0.05581,-1.6495117 0,-0.3317627 -0.021704,-0.9952881 -0.021704,-0.6635254 -0.021704,-0.9952881 0,-0.068213 0.071313,-0.068213 0.096118,0 0.2883545,0.0093 0.1953369,0.0093 0.2914551,0.0093 0.096118,0 0.2821533,-0.0093 0.1891357,-0.0093 0.2852539,-0.0093 0.089917,0 0.089917,0.068213 0,0.3317627 -0.037207,0.9952881 -0.034107,0.6635254 -0.034107,0.9952881 z"
         style="font-family:&quot;Berlin Sans FB Demi&quot;;-inkscape-font-specification:&quot;Berlin Sans FB Demi&quot;"
         id="path24988" />
      <path
         d="m 13.083618,-0.63333993 q 0,0.0837158 -0.08682,0.0961182 -0.08682,0.0124024 -0.452686,0.0124024 -0.390673,0 -0.483691,-0.0186035 -0.09302,-0.0186035 -0.09302,-0.12712402 0,-0.14572754 0.0093,-0.44028325 0.0093,-0.2945556 0.0093,-0.4433837 0,-0.1147217 -0.0062,-0.3410645 -0.0062,-0.2294433 -0.0062,-0.344165 0,-0.4247803 -0.36897,-0.4247803 -0.120923,0 -0.282154,0.1054199 -0.173632,0.1178223 -0.173632,0.232544 v 1.67431637 q 0,0.10231933 -0.09612,0.11472167 -0.108521,0.0124024 -0.443384,0.0124024 -0.362769,0 -0.471289,-0.0186035 -0.09612,-0.0155029 -0.09612,-0.10231933 0,-0.2418457 0.0031,-0.72863771 0.0031,-0.4867919 0.0031,-0.7317382 0,-0.7720459 -0.1209232,-1.2123291 -0.0062,-0.027905 -0.0062,-0.046509 0,-0.049609 0.046509,-0.068213 0.1953362,-0.021704 0.5208982,-0.068213 0.492993,-0.096118 0.555005,-0.096118 0.03411,0 0.05271,0.2108398 0.0186,0.2077393 0.05271,0.2077393 -0.03411,0 0.331762,-0.2139405 0.36897,-0.217041 0.644922,-0.217041 0.393775,0 0.657324,0.1860352 0.294556,0.2139404 0.294556,0.5953125 v 0.9890869 q 0,0.201538 0.0031,0.6046142 0.0031,0.39997557 0.0031,0.60151365 z"
         style="font-family:&quot;Berlin Sans FB Demi&quot;;-inkscape-font-specification:&quot;Berlin Sans FB Demi&quot;"
         id="path24990" />
      <path
         d="m 17.048813,-2.5681055 q 0,0.6852295 -0.672827,1.0417968 -0.06201,0.031006 -0.06201,0.065112 0,0.05271 0.288355,0.4402832 0.288354,0.38447269 0.288354,0.4030762 0,0.0837158 -0.821655,0.0837158 -0.31626,0 -0.365869,-0.0806152 -0.124024,-0.20773926 -0.387574,-0.5953125 -0.0155,-0.018603 -0.558105,-0.043408 0,0.096118 0.0031,0.30695801 0.0031,0.21083984 0.0031,0.31315917 0,0.0930176 -0.08992,0.10231934 -0.05581,0.006201 -0.489892,0.006201 -0.375171,0 -0.437183,-0.0124024 -0.08372,-0.0155029 -0.08372,-0.12712402 v -1.8975583 q 0,-0.381372 -0.0279,-1.1410156 -0.02791,-0.7596435 -0.02791,-1.137915 0,-0.074414 0.08371,-0.077515 0.164332,0 0.492994,-0.0062 0.08682,-0.0062 0.300756,-0.037207 0.189136,-0.027905 0.297657,-0.027905 0.04961,0 0.04961,0.089917 0,0.1178222 -0.0186,0.3193603 -0.0217,0.2356446 -0.0248,0.322461 -0.02791,0.6666259 -0.02791,1.0324951 0,0.086816 0.0217,0.089917 0.02791,-0.018604 0.07441,-0.068213 0.403076,-0.4185791 0.979785,-0.4185791 0.542602,0 0.861963,0.2480468 0.350366,0.2759522 0.350366,0.8061524 z m -1.230933,0.2015381 q 0,-0.3751709 -0.42478,-0.3751709 -0.189136,0 -0.403076,0.1426269 -0.229443,0.1519287 -0.229443,0.3317627 0,0.2573486 0.07131,0.3100586 0.05581,0.037207 0.356567,0.037207 0.629419,0 0.629419,-0.4464843 z"
         style="font-family:&quot;Berlin Sans FB Demi&quot;;-inkscape-font-specification:&quot;Berlin Sans FB Demi&quot;"
         id="path24992" />
      <path
         d="m 21.152625,-1.9696924 q 0,0.6294189 -0.5302,1.07900384 -0.465088,0.396875 -1.131714,0.5053955 -0.02481,0.003101 -0.04031,0.003101 -0.07131,0 -0.31626,-0.43408203 -0.244946,-0.43718261 -0.244946,-0.53330081 0,-0.034106 0.04651,-0.043408 0.449585,-0.1023193 0.595312,-0.1736328 0.322461,-0.1612304 0.322461,-0.4774902 0,-0.2015381 -0.210839,-0.449585 -0.36587,-0.4216796 -0.396875,-0.4681884 -0.213941,-0.322461 -0.213941,-0.7131348 0,-0.5674072 0.523999,-0.9425781 0.427881,-0.3100586 1.051099,-0.4030762 0.03411,-0.0031 0.05271,-0.0031 0.04651,0 0.07441,0.074414 0.08062,0.2263428 0.375171,0.8185547 0.0093,0.018604 0.0093,0.031006 0,0.05271 -0.05581,0.05271 -0.02481,0 -0.08372,-0.0093 -0.05891,-0.0093 -0.08992,-0.0093 -0.223242,0 -0.390674,0.1023193 -0.201538,0.1178223 -0.201538,0.3286621 0,0.1891358 0.223242,0.4650879 0.393775,0.4960938 0.412378,0.5208984 0.220142,0.3410645 0.220142,0.6790284 z"
         style="font-family:&quot;Berlin Sans FB Demi&quot;;-inkscape-font-specification:&quot;Berlin Sans FB Demi&quot;"
         id="path24994" />
      <path
         d="m 23.722555,-1.4518946 q 0,0.093018 -0.02481,0.2821533 -0.0217,0.18913575 -0.0217,0.27905274 0,0.0868164 -0.0186,0.11162109 -0.0186,0.0248047 -0.10232,0.0713135 -0.399975,0.2201416 -0.886767,0.2201416 -0.89607,0 -0.89607,-0.68522953 0,-0.2046386 0.0155,-0.613916 0.0155,-0.4123779 0.0155,-0.6170166 0,-0.1364258 -0.15813,-0.1364258 -0.0124,0 -0.04031,0 -0.02791,0.0031 -0.04031,0.0031 -0.117822,0 -0.117822,-0.083716 0,-0.049609 0.0062,-0.1519287 0.0093,-0.1023193 0.0093,-0.1519287 0,-0.065112 -0.0093,-0.1984375 -0.0062,-0.1333252 -0.0062,-0.1984375 0,-0.062012 0.198437,-0.068213 0.111621,-0.0031 0.120923,-0.062012 0.0186,-0.1178223 0.0124,-0.3720703 -0.0124,-0.3999756 -0.0124,-0.3813721 0,-0.3596679 0.06821,-0.3596679 0.08372,0 0.238745,0.037207 0.176734,0.040308 0.244947,0.046509 0.158129,0.021704 0.47749,0.058911 0.07751,0.0062 0.07751,0.05271 0,0.1240234 -0.0217,0.3751709 -0.0186,0.2511474 -0.0186,0.3782714 0,0.1519288 0.08992,0.1519288 0.10852,0 0.328662,-0.0093 0.220141,-0.0093 0.331763,-0.0093 0.06821,0 0.06821,0.046509 0,0.071314 -0.0155,0.2139405 -0.0155,0.1426269 -0.0155,0.2139404 0,0.074414 0.0031,0.217041 0.0031,0.1426269 0.0031,0.217041 0,0.065112 -0.08992,0.065112 -0.06201,0 -0.207739,-0.0031 -0.145728,-0.0062 -0.20774,-0.0062 H 22.88849 q -0.04651,0 -0.04651,0.1364257 0,0.074414 0,0.2201416 0.0031,0.1488282 0.0031,0.2201416 0,0.2604492 0.05891,0.359668 0.08372,0.1333252 0.328662,0.1333252 0.07751,0 0.220142,-0.034107 0.145727,-0.037207 0.204639,-0.037207 0.06511,0 0.06511,0.068213 z"
         style="font-family:&quot;Berlin Sans FB Demi&quot;;-inkscape-font-specification:&quot;Berlin Sans FB Demi&quot;"
         id="path24996" />
      <path
         d="m 25.278595,-4.2703272 q 0,0.539502 -0.607715,0.539502 -0.260449,0 -0.430981,-0.1364258 -0.186035,-0.1488281 -0.186035,-0.4030762 0,-0.2418457 0.192236,-0.396875 0.176733,-0.1426269 0.42478,-0.1426269 0.241846,0 0.418579,0.1457275 0.189136,0.1550293 0.189136,0.3937744 z m -0.08061,2.3037353 q 0,0.2263428 0.0093,0.6759278 0.0093,0.44648433 0.0093,0.66972652 0,0.0651123 -0.07751,0.0775146 -0.10542,0.0186035 -0.47439,0.0186035 -0.37207,0 -0.47749,-0.0186035 -0.06821,-0.0124023 -0.08372,-0.0403076 -0.0062,-0.0124024 -0.0062,-0.0930176 0,-0.21394043 0.0093,-0.64182122 0.0093,-0.4309814 0.0093,-0.6480225 0,-0.8805664 -0.06821,-1.4014648 -0.0062,-0.049609 -0.0062,-0.065112 0,-0.062012 0.08372,-0.062012 0.08682,0 0.26355,0.018604 0.179834,0.018603 0.269751,0.018603 0.08992,0 0.269751,-0.015503 0.179834,-0.015503 0.269751,-0.015503 0.07441,0 0.07441,0.062012 0,0.012402 -0.0062,0.058911 -0.06821,0.6046143 -0.06821,1.4014648 z"
         style="font-family:&quot;Berlin Sans FB Demi&quot;;-inkscape-font-specification:&quot;Berlin Sans FB Demi&quot;"
         id="path24998" />
      <path
         d="m 27.873331,-1.4518946 q 0,0.093018 -0.02481,0.2821533 -0.0217,0.18913575 -0.0217,0.27905274 0,0.0868164 -0.0186,0.11162109 -0.0186,0.0248047 -0.10232,0.0713135 -0.399975,0.2201416 -0.886767,0.2201416 -0.89607,0 -0.89607,-0.68522953 0,-0.2046386 0.0155,-0.613916 0.0155,-0.4123779 0.0155,-0.6170166 0,-0.1364258 -0.15813,-0.1364258 -0.0124,0 -0.04031,0 -0.02791,0.0031 -0.04031,0.0031 -0.117822,0 -0.117822,-0.083716 0,-0.049609 0.0062,-0.1519287 0.0093,-0.1023193 0.0093,-0.1519287 0,-0.065112 -0.0093,-0.1984375 -0.0062,-0.1333252 -0.0062,-0.1984375 0,-0.062012 0.198437,-0.068213 0.111621,-0.0031 0.120923,-0.062012 0.0186,-0.1178223 0.0124,-0.3720703 -0.0124,-0.3999756 -0.0124,-0.3813721 0,-0.3596679 0.06821,-0.3596679 0.08372,0 0.238745,0.037207 0.176734,0.040308 0.244946,0.046509 0.15813,0.021704 0.477491,0.058911 0.07751,0.0062 0.07751,0.05271 0,0.1240234 -0.0217,0.3751709 -0.0186,0.2511474 -0.0186,0.3782714 0,0.1519288 0.08992,0.1519288 0.10852,0 0.328662,-0.0093 0.220141,-0.0093 0.331762,-0.0093 0.06821,0 0.06821,0.046509 0,0.071314 -0.0155,0.2139405 -0.0155,0.1426269 -0.0155,0.2139404 0,0.074414 0.0031,0.217041 0.0031,0.1426269 0.0031,0.217041 0,0.065112 -0.08992,0.065112 -0.06201,0 -0.20774,-0.0031 -0.145727,-0.0062 -0.207739,-0.0062 h -0.232544 q -0.04651,0 -0.04651,0.1364257 0,0.074414 0,0.2201416 0.0031,0.1488282 0.0031,0.2201416 0,0.2604492 0.05891,0.359668 0.08372,0.1333252 0.328662,0.1333252 0.07751,0 0.220142,-0.034107 0.145727,-0.037207 0.204639,-0.037207 0.06511,0 0.06511,0.068213 z"
         style="font-family:&quot;Berlin Sans FB Demi&quot;;-inkscape-font-specification:&quot;Berlin Sans FB Demi&quot;"
         id="path25000" />
      <path
         d="m 30.254125,-2.5836085 q -0.0031,0 -0.189136,-0.049609 -0.182934,-0.049609 -0.297656,-0.049609 -0.275952,0 -0.440283,0.1674316 -0.164331,0.1643311 -0.164331,0.4402832 0,0.2852539 0.179834,0.449585 0.179834,0.1612305 0.468188,0.1612305 0.136426,0 0.306958,-0.068213 0.170532,-0.071314 0.161231,-0.071314 0.05271,0 0.136425,0.3937744 0.07131,0.35966796 0.07131,0.47749022 0,0.11782227 -0.384473,0.20153809 -0.297656,0.0651123 -0.480591,0.0651123 -0.682128,0 -1.125512,-0.45888671 -0.443384,-0.4588867 -0.443384,-1.1441162 0,-0.6790283 0.443384,-1.1410156 0.446484,-0.4650879 1.125512,-0.4650879 0.461988,0 0.812354,0.1984375 0.08061,0.043408 0.08061,0.083716 0,0.040308 -0.09302,0.3658692 -0.08682,0.3131591 -0.114722,0.3782714 -0.02481,0.065112 -0.05271,0.065112 z"
         style="font-family:&quot;Berlin Sans FB Demi&quot;;-inkscape-font-specification:&quot;Berlin Sans FB Demi&quot;"
         id="path25002" />
      <path
         d="m 33.940268,-2.7913477 -0.0062,2.13940426 q 0,0.1085205 -0.08682,0.12092285 -0.09922,0.0124023 -0.452686,0.0124023 -0.341064,0 -0.47439,-0.0248047 -0.102319,-0.0186035 -0.102319,-0.13332519 0,-0.26665039 0.0093,-0.80305182 0.0093,-0.5364013 0.0093,-0.8030517 0,-0.3627686 -0.36897,-0.3627686 -0.124024,0 -0.291455,0.099219 -0.182935,0.1085205 -0.182935,0.2263427 v 0.7658448 q 0,0.1488281 0.0062,0.4495849 0.0062,0.29765631 0.0062,0.44648443 0,0.11472168 -0.09612,0.12712403 -0.09612,0.0124023 -0.539502,0.0124023 -0.254248,0 -0.365869,-0.0248047 -0.111621,-0.0248047 -0.111621,-0.1085205 0,-0.24494629 0.0031,-0.73483886 0.0031,-0.4929932 0.0031,-0.7379394 0,-1.0138916 -0.0217,-1.677417 -0.0093,-0.232544 -0.0155,-0.4650879 -0.0155,-0.269751 -0.05581,-0.4619873 -0.0093,-0.040308 -0.0093,-0.058911 0,-0.046509 0.04651,-0.062012 0.09612,-0.027905 0.282153,-0.034107 0.248047,-0.0093 0.288355,-0.015503 0.561206,-0.065112 0.561206,-0.065112 0.04961,0 0.04961,0.065112 0,0.099219 -0.0124,0.269751 -0.0124,0.1984375 -0.0124,0.2697509 -0.0186,0.7007324 -0.0186,1.1069092 0,0.062012 0.03101,0.062012 0.0062,0 0.15813,-0.1085205 0.179834,-0.127124 0.344165,-0.2015381 0.244946,-0.1085205 0.474389,-0.1085205 0.396875,0 0.663526,0.2077393 0.288354,0.2232422 0.288354,0.6108154 z"
         style="font-family:&quot;Berlin Sans FB Demi&quot;;-inkscape-font-specification:&quot;Berlin Sans FB Demi&quot;"
         id="path25004" />
      <path
         d="m 39.082775,-3.9447657 q 0,0.062012 -0.06821,0.062012 -0.117822,0 -0.933276,-0.046509 -0.0186,0.7844482 -0.0186,1.0945068 0,0.3658691 0.02791,1.100708 0.03101,0.73483884 0.03101,1.10070797 0,0.0589111 -0.02791,0.0744141 -0.0093,0.006201 -0.08682,0.0155029 -0.186035,0.0248047 -0.545703,0.0248047 -0.399976,0 -0.561206,-0.0248047 -0.08682,-0.0155029 -0.08682,-0.0961182 0,-0.36586907 0.03101,-1.09760737 0.03101,-0.7317383 0.03101,-1.0976074 0,-0.2418457 -0.02481,-1.0790039 -0.620117,0.062012 -0.989086,0.062012 -0.04961,0 -0.04961,-0.031006 0,-0.040308 0.04341,-0.2387452 0.04961,-0.217041 0.05581,-0.2635498 0.0093,-0.1457275 0.0217,-0.291455 0.0217,-0.232544 0.07441,-0.232544 0.0062,0 0.04341,0.0031 0.502295,0.065112 1.485181,0.065112 0.279053,0 1.029394,-0.058911 0.403077,-0.031006 0.406177,-0.031006 0.06201,0 0.07131,0.0093 0.0093,0.0062 0.0124,0.058911 0,0.083716 -0.0062,0.232544 -0.0062,0.164331 -0.0062,0.2325439 0,0.077515 0.0186,0.2294434 0.0217,0.1488281 0.0217,0.2232421 z"
         style="font-family:&quot;Berlin Sans FB Demi&quot;;-inkscape-font-specification:&quot;Berlin Sans FB Demi&quot;"
         id="path25006" />
      <path
         d="m 42.235617,-2.2270411 q 0,0.3131592 -0.201538,0.3565674 -0.03411,0.0062 -0.641822,0.068213 -0.365869,0.040308 -1.091406,0.096118 0.04341,0.201538 0.26355,0.306958 0.179834,0.086816 0.409277,0.086816 0.275953,0 0.555005,-0.1488282 0.117823,-0.074414 0.235645,-0.1488281 0.06511,0.031006 0.217041,0.3162598 0.155029,0.2852539 0.155029,0.36276853 0,0.0217041 -0.04651,0.0713135 -0.378271,0.40617675 -1.175122,0.40617675 -0.737939,0 -1.190625,-0.43098144 -0.465088,-0.43718264 -0.465088,-1.16892094 0,-0.7131347 0.415479,-1.1689208 0.427881,-0.4712891 1.134814,-0.4712891 0.595313,0 1.010791,0.434082 0.415479,0.434082 0.415479,1.0324951 z m -1.085205,-0.1891357 q 0,-0.1922363 -0.136426,-0.3379639 -0.136426,-0.1457275 -0.325562,-0.1457275 -0.195336,0 -0.32246,0.164331 -0.117823,0.1519287 -0.117823,0.3565674 0,0.083716 0.08682,0.083716 0.229443,0 0.713134,-0.071313 0.10232,-0.015503 0.10232,-0.049609 z"
         style="font-family:&quot;Berlin Sans FB Demi&quot;;-inkscape-font-specification:&quot;Berlin Sans FB Demi&quot;"
         id="path25008" />
      <path
         d="m 44.39317,-3.0517969 q 0,0.031006 -0.04651,0.083716 -0.08682,-0.021704 -0.173633,-0.021704 -0.182935,0 -0.306958,0.080615 -0.148828,0.093018 -0.148828,0.2635498 0,0.1085205 0.158129,0.2759522 0.238746,0.2511474 0.294556,0.3379638 0.15813,0.2356446 0.15813,0.5053955 0,0.1581299 -0.06201,0.3348633 -0.07131,0.19533692 -0.179834,0.28525391 -0.229443,0.1984375 -0.536401,0.33486328 -0.331763,0.14262695 -0.610815,0.14262695 -0.06201,0 -0.279053,-0.33486328 -0.213941,-0.33796386 -0.213941,-0.41237796 0,-0.027905 0.03411,-0.034106 0.217041,-0.040308 0.437182,-0.080615 0.272852,-0.086816 0.272852,-0.2852539 0,-0.1364258 -0.15813,-0.3162598 -0.282153,-0.3131592 -0.294556,-0.3317627 -0.158129,-0.2232422 -0.158129,-0.471289 0,-0.4650879 0.471289,-0.7906494 0.421679,-0.2883545 0.90227,-0.2883545 0.04961,0 0.244946,0.3348632 0.195337,0.3317627 0.195337,0.3875733 z"
         style="font-family:&quot;Berlin Sans FB Demi&quot;;-inkscape-font-specification:&quot;Berlin Sans FB Demi&quot;"
         id="path25010" />
      <path
         d="m 46.916593,-1.4518946 q 0,0.093018 -0.0248,0.2821533 -0.0217,0.18913575 -0.0217,0.27905274 0,0.0868164 -0.0186,0.11162109 -0.0186,0.0248047 -0.102319,0.0713135 -0.399976,0.2201416 -0.886768,0.2201416 -0.896069,0 -0.896069,-0.68522953 0,-0.2046386 0.0155,-0.613916 0.0155,-0.4123779 0.0155,-0.6170166 0,-0.1364258 -0.15813,-0.1364258 -0.0124,0 -0.04031,0 -0.0279,0.0031 -0.04031,0.0031 -0.117823,0 -0.117823,-0.083716 0,-0.049609 0.0062,-0.1519287 0.0093,-0.1023193 0.0093,-0.1519287 0,-0.065112 -0.0093,-0.1984375 -0.0062,-0.1333252 -0.0062,-0.1984375 0,-0.062012 0.198438,-0.068213 0.111621,-0.0031 0.120923,-0.062012 0.0186,-0.1178223 0.0124,-0.3720703 -0.0124,-0.3999756 -0.0124,-0.3813721 0,-0.3596679 0.06821,-0.3596679 0.08371,0 0.238745,0.037207 0.176733,0.040308 0.244946,0.046509 0.15813,0.021704 0.47749,0.058911 0.07752,0.0062 0.07752,0.05271 0,0.1240234 -0.0217,0.3751709 -0.0186,0.2511474 -0.0186,0.3782714 0,0.1519288 0.08992,0.1519288 0.108521,0 0.328662,-0.0093 0.220142,-0.0093 0.331763,-0.0093 0.06821,0 0.06821,0.046509 0,0.071314 -0.0155,0.2139405 -0.0155,0.1426269 -0.0155,0.2139404 0,0.074414 0.0031,0.217041 0.0031,0.1426269 0.0031,0.217041 0,0.065112 -0.08992,0.065112 -0.06201,0 -0.207739,-0.0031 -0.145728,-0.0062 -0.207739,-0.0062 h -0.232544 q -0.04651,0 -0.04651,0.1364257 0,0.074414 0,0.2201416 0.0031,0.1488282 0.0031,0.2201416 0,0.2604492 0.05891,0.359668 0.08371,0.1333252 0.328662,0.1333252 0.07751,0 0.220141,-0.034107 0.145728,-0.037207 0.204639,-0.037207 0.06511,0 0.06511,0.068213 z"
         style="font-family:&quot;Berlin Sans FB Demi&quot;;-inkscape-font-specification:&quot;Berlin Sans FB Demi&quot;"
         id="path25012" />
    </g>
    <path
       style="font-size:11.2451px;font-family:Impact;-inkscape-font-specification:Impact;text-align:center;text-anchor:middle;stroke-width:7.08352"
       d="m 10.558384,38.728315 v 8.889559 H 8.340112 v -4.76599 q 0,-1.032265 -0.049417,-1.240914 Q 8.2412782,41.402321 8.0161565,41.297996 7.7965257,41.188181 7.0278177,41.188181 H 6.8081868 v -1.037756 q 1.608796,-0.345919 2.4433933,-1.42211 z m 2.339068,7.077605 v 1.811954 H 11.222767 V 45.80592 Z m 5.441355,-7.077605 v 1.42211 h -2.750876 v 1.509962 q 0.516132,-0.609476 1.328766,-0.609476 0.916959,0 1.383675,0.516133 0.472206,0.510642 0.472206,1.971187 v 1.268368 q 0,0.944413 -0.09334,1.389165 -0.08785,0.439262 -0.384354,0.818125 -0.296502,0.373373 -0.829107,0.576531 -0.527114,0.197668 -1.290331,0.197668 -0.85656,0 -1.509962,-0.296502 -0.653402,-0.301992 -0.92794,-0.894995 -0.274539,-0.593004 -0.274539,-1.833918 v -0.483188 h 2.218272 v 0.554568 q 0,0.862051 0.0604,1.224442 0.0604,0.362391 0.417299,0.362391 0.164723,0 0.263557,-0.104325 0.104325,-0.104324 0.109815,-0.225121 0.01098,-0.120797 0.02196,-1.048738 v -1.762537 q 0,-0.499661 -0.104324,-0.680856 -0.104325,-0.181195 -0.345919,-0.181195 -0.153741,0 -0.258066,0.09334 -0.104325,0.09334 -0.137269,0.203158 -0.02745,0.104325 -0.02745,0.49417 h -2.196309 l 0.09334,-4.48047 z m 5.364484,1.603305 -0.03844,0.691838 q 0.258067,-0.411808 0.614967,-0.614967 0.3569,-0.208649 0.812634,-0.208649 0.889505,0 1.400147,0.823616 0.280029,-0.411808 0.631438,-0.614967 0.35141,-0.208649 0.77969,-0.208649 0.565549,0 0.933431,0.274538 0.373373,0.274539 0.477697,0.675365 0.104325,0.395336 0.104325,1.290332 v 5.177797 h -2.152383 v -4.749517 q 0,-0.933431 -0.06589,-1.153062 -0.0604,-0.225122 -0.291011,-0.225122 -0.236103,0 -0.307483,0.219631 -0.06589,0.219631 -0.06589,1.158553 v 4.749517 h -2.152383 v -4.62872 q 0,-1.070701 -0.05491,-1.284841 -0.04942,-0.21414 -0.28552,-0.21414 -0.148251,0 -0.252576,0.115306 -0.104325,0.109816 -0.115306,0.274539 -0.01098,0.159232 -0.01098,0.686346 v 5.05151 H 21.512473 V 40.33162 Z m 8.669929,0 -0.03844,0.691838 q 0.258066,-0.411808 0.614966,-0.614967 0.3569,-0.208649 0.812634,-0.208649 0.889505,0 1.400147,0.823616 0.280029,-0.411808 0.631439,-0.614967 0.351409,-0.208649 0.779689,-0.208649 0.56555,0 0.933432,0.274538 0.373372,0.274539 0.477697,0.675365 0.104324,0.395336 0.104324,1.290332 v 5.177797 h -2.152382 v -4.749517 q 0,-0.933431 -0.06589,-1.153062 -0.0604,-0.225122 -0.291011,-0.225122 -0.236103,0 -0.307483,0.219631 -0.06589,0.219631 -0.06589,1.158553 v 4.749517 h -2.152382 v -4.62872 q 0,-1.070701 -0.05491,-1.284841 -0.04942,-0.21414 -0.28552,-0.21414 -0.148251,0 -0.252575,0.115306 -0.104325,0.109816 -0.115307,0.274539 -0.01098,0.159232 -0.01098,0.686346 v 5.05151 H 30.182402 V 40.33162 Z"
       id="text3"
       aria-label="1.5 mm" />
    <circle
       style="fill:none;fill-opacity:1;stroke:#000000;stroke-width:0.25;stroke-dasharray:1, 0.25;stroke-dashoffset:0;stroke-opacity:1"
       id="circle6"
       cx="80.837318"
       cy="110.61436"
       r="32.453068" />
    <path
       style="font-size:11.2451px;font-family:Impact;-inkscape-font-specification:Impact;text-align:center;text-anchor:middle;stroke-width:7.08352"
       d="m 56.529163,38.728315 v 8.889559 h -2.218272 v -4.76599 q 0,-1.032265 -0.04942,-1.240914 -0.04942,-0.208649 -0.274539,-0.312974 -0.219631,-0.109815 -0.988339,-0.109815 h -0.219631 v -1.037756 q 1.608796,-0.345919 2.443394,-1.42211 z m 2.339069,7.077605 v 1.811954 H 57.193546 V 45.80592 Z m 4.507923,-7.077605 v 1.938242 l -1.416619,6.951317 h -2.20729 L 61.328098,40.32613 H 59.13728 v -1.597815 z m 5.33703,0 v 1.42211 h -2.750876 v 1.509962 q 0.516132,-0.609476 1.328767,-0.609476 0.916958,0 1.383674,0.516133 0.472206,0.510642 0.472206,1.971187 v 1.268368 q 0,0.944413 -0.09334,1.389165 -0.08785,0.439262 -0.384354,0.818125 -0.296502,0.373373 -0.829106,0.576531 -0.527114,0.197668 -1.290332,0.197668 -0.85656,0 -1.509962,-0.296502 -0.653402,-0.301992 -0.92794,-0.894995 -0.274539,-0.593004 -0.274539,-1.833918 v -0.483188 h 2.218272 v 0.554568 q 0,0.862051 0.0604,1.224442 0.0604,0.362391 0.417299,0.362391 0.164723,0 0.263557,-0.104325 0.104325,-0.104324 0.109816,-0.225121 0.01098,-0.120797 0.02196,-1.048738 v -1.762537 q 0,-0.499661 -0.104325,-0.680856 -0.104325,-0.181195 -0.345919,-0.181195 -0.153741,0 -0.258066,0.09334 -0.104325,0.09334 -0.137269,0.203158 -0.02745,0.104325 -0.02745,0.49417 h -2.196309 l 0.09334,-4.48047 z m 5.364484,1.603305 -0.03844,0.691838 Q 74.2973,40.61165 74.6542,40.408491 q 0.3569,-0.208649 0.812634,-0.208649 0.889505,0 1.400147,0.823616 0.280029,-0.411808 0.631439,-0.614967 0.351409,-0.208649 0.779689,-0.208649 0.56555,0 0.933431,0.274538 0.373373,0.274539 0.477697,0.675365 0.104325,0.395336 0.104325,1.290332 v 5.177797 H 77.64118 v -4.749517 q 0,-0.933431 -0.06589,-1.153062 -0.0604,-0.225122 -0.291011,-0.225122 -0.236103,0 -0.307483,0.219631 -0.06589,0.219631 -0.06589,1.158553 v 4.749517 h -2.152382 v -4.62872 q 0,-1.070701 -0.05491,-1.284841 -0.04942,-0.21414 -0.28552,-0.21414 -0.148251,0 -0.252576,0.115306 -0.104324,0.109816 -0.115306,0.274539 -0.01098,0.159232 -0.01098,0.686346 v 5.05151 H 71.886851 V 40.33162 Z m 8.669929,0 -0.03843,0.691838 q 0.258066,-0.411808 0.614966,-0.614967 0.356901,-0.208649 0.812635,-0.208649 0.889505,0 1.400146,0.823616 0.28003,-0.411808 0.631439,-0.614967 0.351409,-0.208649 0.77969,-0.208649 0.565549,0 0.933431,0.274538 0.373372,0.274539 0.477697,0.675365 0.104325,0.395336 0.104325,1.290332 v 5.177797 h -2.152383 v -4.749517 q 0,-0.933431 -0.06589,-1.153062 -0.0604,-0.225122 -0.291011,-0.225122 -0.236103,0 -0.307483,0.219631 -0.06589,0.219631 -0.06589,1.158553 v 4.749517 h -2.152383 v -4.62872 q 0,-1.070701 -0.05491,-1.284841 -0.04942,-0.21414 -0.28552,-0.21414 -0.148251,0 -0.252575,0.115306 -0.104325,0.109816 -0.115306,0.274539 -0.01098,0.159232 -0.01098,0.686346 v 5.05151 H 80.556781 V 40.33162 Z"
       id="text6"
       aria-label="1.75 mm" />
    <path
       style="font-size:11.2451px;font-family:Impact;-inkscape-font-specification:Impact;text-align:center;text-anchor:middle;stroke-width:7.08352"
       d="m 11.689483,113.54369 v 1.51545 H 6.8081872 v -1.26837 q 2.1688548,-3.54703 2.5751719,-4.38712 0.4118078,-0.84558 0.4118078,-1.31779 0,-0.36239 -0.1262877,-0.53809 -0.120797,-0.1812 -0.3733725,-0.1812 -0.2525755,0 -0.3788632,0.19767 -0.120797,0.19767 -0.120797,0.78518 V 109.195 H 6.8081872 v -0.32396 q 0,-0.74674 0.076871,-1.17502 0.076871,-0.43377 0.3788633,-0.85107 0.3019924,-0.4173 0.7851803,-0.63144 0.4831879,-0.21414 1.1585528,-0.21414 1.3232756,0 1.9986406,0.65889 0.680856,0.6534 0.680856,1.65822 0,0.76321 -0.384354,1.61428 -0.378863,0.85107 -2.2457257,3.61293 z m 2.339069,-0.2965 v 1.81195 h -1.674686 v -1.81195 z m 5.831199,-4.06866 v 2.96501 q 0,1.01031 -0.109815,1.47153 -0.109815,0.46122 -0.455734,0.86205 -0.345919,0.40083 -0.834597,0.57653 -0.488679,0.17571 -1.092664,0.17571 -0.796162,0 -1.323276,-0.1812 -0.527114,-0.18668 -0.840088,-0.57653 -0.312974,-0.38984 -0.444752,-0.81812 -0.131779,-0.43378 -0.131779,-1.3727 v -3.10228 q 0,-1.22445 0.20865,-1.83392 0.21414,-0.60948 0.840088,-0.97736 0.631438,-0.36788 1.526434,-0.36788 0.730273,0 1.306804,0.25807 0.576531,0.25257 0.862051,0.62045 0.28552,0.36789 0.384354,0.82911 0.104324,0.46122 0.104324,1.47153 z m -2.218271,-0.74675 q 0,-0.70831 -0.07138,-0.88401 -0.06589,-0.1812 -0.318465,-0.1812 -0.247085,0 -0.329446,0.19218 -0.07687,0.18669 -0.07687,0.87303 v 4.33771 q 0,0.7742 0.07138,0.93343 0.07687,0.15923 0.323955,0.15923 0.247085,0 0.323956,-0.18668 0.07687,-0.18669 0.07687,-0.84009 z m 7.18742,-0.65889 -0.03843,0.69184 q 0.258066,-0.41181 0.614966,-0.61497 0.3569,-0.20865 0.812634,-0.20865 0.889505,0 1.400147,0.82362 0.280029,-0.41181 0.631439,-0.61497 0.351409,-0.20865 0.779689,-0.20865 0.56555,0 0.933431,0.27454 0.373373,0.27454 0.477697,0.67536 0.104325,0.39534 0.104325,1.29034 v 5.17779 h -2.152382 v -4.74951 q 0,-0.93344 -0.06589,-1.15307 -0.0604,-0.22512 -0.291011,-0.22512 -0.236103,0 -0.307483,0.21963 -0.06589,0.21963 -0.06589,1.15856 v 4.74951 h -2.152382 v -4.62872 q 0,-1.0707 -0.05491,-1.28484 -0.04942,-0.21414 -0.28552,-0.21414 -0.148251,0 -0.252576,0.11531 -0.104324,0.10981 -0.115306,0.27454 -0.01098,0.15923 -0.01098,0.68634 v 5.05151 h -2.152383 v -7.28625 z m 8.669928,0 -0.03843,0.69184 q 0.258066,-0.41181 0.614966,-0.61497 0.356901,-0.20865 0.812635,-0.20865 0.889505,0 1.400146,0.82362 0.28003,-0.41181 0.631439,-0.61497 0.35141,-0.20865 0.77969,-0.20865 0.565549,0 0.933431,0.27454 0.373372,0.27454 0.477697,0.67536 0.104325,0.39534 0.104325,1.29034 v 5.17779 h -2.152383 v -4.74951 q 0,-0.93344 -0.06589,-1.15307 -0.0604,-0.22512 -0.291011,-0.22512 -0.236103,0 -0.307483,0.21963 -0.06589,0.21963 -0.06589,1.15856 v 4.74951 h -2.152383 v -4.62872 q 0,-1.0707 -0.05491,-1.28484 -0.04942,-0.21414 -0.28552,-0.21414 -0.148251,0 -0.252575,0.11531 -0.104325,0.10981 -0.115306,0.27454 -0.01098,0.15923 -0.01098,0.68634 v 5.05151 h -2.152382 v -7.28625 z"
       id="text8"
       aria-label="2.0 mm" />
    <g
       id="text9"
       style="font-size:11.2451px;font-family:&quot;Star Jedi&quot;;-inkscape-font-specification:&quot;Star Jedi&quot;;text-align:center;text-anchor:middle;stroke:#000000;stroke-width:7.08352"
       aria-label=".25 mm&#10;dashed">
      <path
         style="font-family:Impact;-inkscape-font-specification:Impact;stroke:none"
         d="m 54.925855,105.60366 v 1.81195 h -1.674686 v -1.81195 z m 5.380956,0.2965 v 1.51545 h -4.881296 v -1.26837 q 2.168855,-3.54704 2.575172,-4.38712 0.411808,-0.84558 0.411808,-1.31779 0,-0.36239 -0.126288,-0.538094 -0.120797,-0.181196 -0.373373,-0.181196 -0.252575,0 -0.378863,0.197668 -0.120797,0.197672 -0.120797,0.785182 v 0.84558 h -1.987659 v -0.32396 q 0,-0.74674 0.07687,-1.17502 0.07687,-0.433774 0.378863,-0.851073 0.301992,-0.417299 0.78518,-0.631439 0.483188,-0.21414 1.158553,-0.21414 1.323276,0 1.998641,0.658893 0.680856,0.653402 0.680856,1.658209 0,0.76322 -0.384354,1.61429 -0.378864,0.85107 -2.245726,3.61293 z m 5.704912,-7.374108 v 1.42211 h -2.750877 v 1.509958 q 0.516133,-0.60947 1.328767,-0.60947 0.916959,0 1.383674,0.51613 0.472207,0.51064 0.472207,1.97119 v 1.26837 q 0,0.94441 -0.09334,1.38916 -0.08785,0.43926 -0.384354,0.81813 -0.296501,0.37337 -0.829106,0.57653 -0.527114,0.19767 -1.290331,0.19767 -0.856561,0 -1.509962,-0.29651 -0.653402,-0.30199 -0.927941,-0.89499 -0.274538,-0.59301 -0.274538,-1.83392 v -0.48319 h 2.218271 v 0.55457 q 0,0.86205 0.0604,1.22444 0.0604,0.36239 0.417298,0.36239 0.164724,0 0.263557,-0.10432 0.104325,-0.10433 0.109816,-0.22512 0.01098,-0.1208 0.02196,-1.04874 v -1.76254 q 0,-0.49966 -0.104325,-0.68085 -0.104324,-0.1812 -0.345918,-0.1812 -0.153742,0 -0.258067,0.0933 -0.104324,0.0934 -0.137269,0.20316 -0.02745,0.10433 -0.02745,0.49417 h -2.196308 l 0.09334,-4.480468 z m 5.364483,1.603308 -0.03843,0.69183 q 0.258066,-0.4118 0.614966,-0.61496 0.3569,-0.208651 0.812634,-0.208651 0.889505,0 1.400147,0.823611 0.28003,-0.4118 0.631439,-0.61496 0.351409,-0.208651 0.779689,-0.208651 0.56555,0 0.933432,0.274541 0.373372,0.27454 0.477697,0.67536 0.104324,0.39534 0.104324,1.29033 v 5.1778 h -2.152382 v -4.74952 q 0,-0.93343 -0.06589,-1.15306 -0.0604,-0.22512 -0.291011,-0.22512 -0.236103,0 -0.307483,0.21963 -0.06589,0.21963 -0.06589,1.15855 v 4.74952 h -2.152382 v -4.62872 q 0,-1.0707 -0.05491,-1.28484 -0.04942,-0.21414 -0.28552,-0.21414 -0.148251,0 -0.252575,0.11531 -0.104325,0.10981 -0.115307,0.27454 -0.01098,0.15923 -0.01098,0.68634 v 5.05151 h -2.152383 v -7.28625 z m 8.66993,0 -0.03844,0.69183 q 0.258067,-0.4118 0.614967,-0.61496 0.3569,-0.208651 0.812634,-0.208651 0.889505,0 1.400147,0.823611 0.280029,-0.4118 0.631438,-0.61496 0.35141,-0.208651 0.77969,-0.208651 0.565549,0 0.933431,0.274541 0.373373,0.27454 0.477697,0.67536 0.104325,0.39534 0.104325,1.29033 v 5.1778 h -2.152383 v -4.74952 q 0,-0.93343 -0.06589,-1.15306 -0.0604,-0.22512 -0.291011,-0.22512 -0.236103,0 -0.307483,0.21963 -0.06589,0.21963 -0.06589,1.15855 v 4.74952 h -2.152383 v -4.62872 q 0,-1.0707 -0.05491,-1.28484 -0.04942,-0.21414 -0.28552,-0.21414 -0.148251,0 -0.252576,0.11531 -0.104325,0.10981 -0.115306,0.27454 -0.01098,0.15923 -0.01098,0.68634 v 5.05151 h -2.152382 v -7.28625 z"
         id="path10" />
      <path
         style="font-family:Impact;-inkscape-font-specification:Impact;stroke:none"
         d="m 57.890871,113.85154 v 8.88956 H 55.6726 v -0.52711 q -0.318465,0.32944 -0.669875,0.49417 -0.351409,0.16472 -0.735763,0.16472 -0.516132,0 -0.894996,-0.26905 -0.378863,-0.27454 -0.488678,-0.63144 -0.104325,-0.3569 -0.104325,-1.16404 v -3.40977 q 0,-0.84009 0.104325,-1.1915 0.109815,-0.35141 0.494169,-0.61496 0.384354,-0.26905 0.916959,-0.26905 0.411808,0 0.752236,0.14825 0.345918,0.14825 0.625948,0.44475 v -2.06453 z m -2.218271,3.43722 q 0,-0.40082 -0.07138,-0.53809 -0.06589,-0.13727 -0.269048,-0.13727 -0.197668,0 -0.269048,0.12629 -0.06589,0.12079 -0.06589,0.54907 v 3.56901 q 0,0.44475 0.06589,0.58751 0.06589,0.13727 0.252575,0.13727 0.214141,0 0.285521,-0.15374 0.07138,-0.15924 0.07138,-0.76871 z m 4.996602,0.98834 h -2.081003 v -0.48868 q 0,-0.84557 0.192177,-1.30131 0.197668,-0.46122 0.78518,-0.81263 0.587513,-0.35141 1.526435,-0.35141 1.125608,0 1.696648,0.40082 0.571041,0.39534 0.686347,0.97736 0.115306,0.57653 0.115306,2.383 v 3.65685 h -2.157873 v -0.64791 q -0.203159,0.38984 -0.527114,0.58751 -0.318465,0.19218 -0.763218,0.19218 -0.582021,0 -1.0707,-0.32396 -0.483188,-0.32944 -0.483188,-1.43309 v -0.59849 q 0,-0.81813 0.258066,-1.11463 0.258067,-0.2965 1.27935,-0.69184 1.092664,-0.42828 1.169534,-0.57653 0.07687,-0.14825 0.07687,-0.60398 0,-0.57104 -0.08785,-0.74126 -0.08236,-0.1757 -0.280029,-0.1757 -0.225122,0 -0.28003,0.14825 -0.05491,0.14276 -0.05491,0.75224 z m 0.702818,0.99932 q -0.532605,0.38985 -0.620457,0.65341 -0.08236,0.26355 -0.08236,0.75772 0,0.56555 0.07138,0.73027 0.07687,0.16473 0.296501,0.16473 0.20865,0 0.269048,-0.12629 0.06589,-0.13178 0.06589,-0.68086 z m 7.511376,-1.49349 H 66.9177 v -0.39533 q 0,-0.50515 -0.0604,-0.63693 -0.05491,-0.13727 -0.285521,-0.13727 -0.186686,0 -0.280029,0.12629 -0.09334,0.12079 -0.09334,0.36788 0,0.33494 0.04393,0.49417 0.04942,0.15374 0.280029,0.34043 0.236104,0.18668 0.960885,0.54358 0.966376,0.47221 1.268369,0.88951 0.301992,0.4173 0.301992,1.21346 0,0.8895 -0.230612,1.34524 -0.230613,0.45024 -0.774199,0.69733 -0.538096,0.24159 -1.301313,0.24159 -0.845579,0 -1.449564,-0.26356 -0.598494,-0.26355 -0.823615,-0.7138 -0.225122,-0.45024 -0.225122,-1.36171 v -0.35141 h 1.965696 v 0.46123 q 0,0.58751 0.07138,0.76321 0.07687,0.17571 0.296502,0.17571 0.236103,0 0.329446,-0.11531 0.09334,-0.1208 0.09334,-0.49966 0,-0.52162 -0.120797,-0.6534 -0.126287,-0.13178 -1.290331,-0.77969 -0.977357,-0.54908 -1.191497,-0.99383 -0.21414,-0.45024 -0.21414,-1.06521 0,-0.87303 0.230612,-1.28484 0.230612,-0.4173 0.77969,-0.64242 0.554567,-0.22512 1.28484,-0.22512 0.724782,0 1.229933,0.18668 0.510642,0.1812 0.779689,0.48319 0.274539,0.30199 0.329447,0.56006 0.0604,0.25807 0.0604,0.80714 z m 2.98149,-3.93139 v 1.99864 q 0.28552,-0.26355 0.614966,-0.39533 0.334937,-0.13178 0.7138,-0.13178 0.582022,0 0.988339,0.2965 0.411808,0.2965 0.49966,0.68635 0.09334,0.38435 0.09334,1.41112 v 5.02406 h -2.218271 v -5.12838 q 0,-0.63693 -0.06589,-0.81812 -0.0604,-0.1812 -0.28003,-0.1812 -0.203158,0 -0.274538,0.18669 -0.07138,0.18668 -0.07138,0.74125 v 5.19976 h -2.218272 v -8.88956 z m 8.697382,5.37547 h -2.871674 v 1.57585 q 0,0.49417 0.07138,0.63693 0.07138,0.14276 0.274539,0.14276 0.252575,0 0.334937,-0.18669 0.08785,-0.19218 0.08785,-0.73576 v -0.96089 h 2.102966 v 0.5381 q 0,0.67536 -0.08785,1.03775 -0.08236,0.3624 -0.395335,0.7742 -0.312974,0.41181 -0.796162,0.62046 -0.477697,0.20316 -1.202479,0.20316 -0.702819,0 -1.240915,-0.20316 -0.538095,-0.20316 -0.840088,-0.55457 -0.296501,-0.3569 -0.411807,-0.77969 -0.115307,-0.42828 -0.115307,-1.24091 v -2.12493 q 0,-0.95539 0.258067,-1.50447 0.258066,-0.55457 0.845578,-0.84558 0.587513,-0.2965 1.35073,-0.2965 0.933431,0 1.537416,0.3569 0.609476,0.35141 0.85107,0.93892 0.247085,0.58202 0.247085,1.64174 z M 78.338505,118.041 v -0.5326 q 0,-0.56555 -0.0604,-0.73028 -0.0604,-0.16472 -0.247085,-0.16472 -0.230613,0 -0.28552,0.14276 -0.05491,0.13727 -0.05491,0.75224 v 0.5326 z m 7.994562,-4.18946 v 8.88956 h -2.218272 v -0.52711 q -0.318464,0.32944 -0.669874,0.49417 -0.351409,0.16472 -0.735763,0.16472 -0.516133,0 -0.894996,-0.26905 -0.378863,-0.27454 -0.488678,-0.63144 -0.104325,-0.3569 -0.104325,-1.16404 v -3.40977 q 0,-0.84009 0.104325,-1.1915 0.109815,-0.35141 0.494169,-0.61496 0.384354,-0.26905 0.916959,-0.26905 0.411808,0 0.752236,0.14825 0.345918,0.14825 0.625947,0.44475 v -2.06453 z m -2.218272,3.43722 q 0,-0.40082 -0.07138,-0.53809 -0.06589,-0.13727 -0.269047,-0.13727 -0.197668,0 -0.269048,0.12629 -0.06589,0.12079 -0.06589,0.54907 v 3.56901 q 0,0.44475 0.06589,0.58751 0.06589,0.13727 0.252575,0.13727 0.21414,0 0.28552,-0.15374 0.07138,-0.15924 0.07138,-0.76871 z"
         id="path11" />
    </g>
  </g>
</svg>
